<svg viewBox="0 0 238 58" fill="none" xmlns="http://www.w3.org/2000/svg">
<path d="M171.438 11.293C175.475 11.293 179.116 12.1888 182.359 13.9795C185.618 15.7702 188.201 18.3897 190.109 21.8389C192.018 25.2882 192.972 29.4939 192.972 34.4551C192.972 39.416 192.017 43.6211 190.109 47.0703C188.201 50.5196 185.618 53.1399 182.359 54.9307C179.116 56.7214 175.475 57.6172 171.438 57.6172C167.387 57.6171 163.74 56.7145 160.496 54.9092C157.252 53.1038 154.677 50.4834 152.769 47.0488C150.875 43.5995 149.929 39.4015 149.929 34.4551C149.929 29.4939 150.875 25.2882 152.769 21.8389C154.677 18.3898 157.253 15.7702 160.496 13.9795C163.74 12.1888 167.387 11.293 171.438 11.293ZM210.312 40.0479C210.312 41.6037 210.649 42.9907 211.324 44.209C212.014 45.4272 212.975 46.3814 214.208 47.0713C215.441 47.7611 216.872 48.1064 218.501 48.1064C220.13 48.1064 221.554 47.7611 222.772 47.0713C224.005 46.3814 224.967 45.4273 225.657 44.209C226.347 42.9908 226.691 41.6036 226.691 40.0479V11.9102H237.568V40.9951C237.568 44.3562 236.768 47.2841 235.168 49.7793C233.568 52.2598 231.338 54.1828 228.476 55.5479C225.613 56.8982 222.288 57.5732 218.501 57.5732C214.67 57.5732 211.324 56.8981 208.462 55.5479C205.6 54.1828 203.375 52.2599 201.79 49.7793C200.205 47.2842 199.413 44.3561 199.413 40.9951V11.9102H210.312V40.0479ZM20.5 43L30.5 13H41L27 57H14.5L0 13H11L20.5 43ZM63.9668 13.3213L80.4668 56.3213L80.7275 57H69.1338L69.0234 56.6504L66.1338 47.5H50.832L46.9609 56.6943L46.832 57H35.2646L35.5352 56.3164L52.5352 13.3164L52.6602 13H63.8438L63.9668 13.3213ZM94 48.5H115V57H84.5V13H94V48.5ZM130 30L140 13H152L135 39.5V57H125V39.5L108.5 13H120L130 30ZM171.438 20.8486C169.281 20.8487 167.424 21.3691 165.868 22.4111C164.312 23.4532 163.117 24.9874 162.28 27.0127C161.458 29.0383 161.047 31.5195 161.047 34.4551C161.047 37.3906 161.458 39.871 162.28 41.8965C163.117 43.9219 164.312 45.4559 165.868 46.498C167.424 47.5401 169.281 48.0615 171.438 48.0615C173.611 48.0615 175.468 47.5401 177.009 46.498C178.565 45.4559 179.754 43.9221 180.576 41.8965C181.413 39.871 181.831 37.3905 181.831 34.4551C181.831 31.5195 181.413 29.0383 180.576 27.0127C179.754 24.9873 178.565 23.4532 177.009 22.4111C175.468 21.3692 173.611 20.8486 171.438 20.8486ZM57.5283 23.833L52.0283 39.333L51.792 40H64.7295L64.4658 39.3193L58.4658 23.8193L57.9795 22.5625L57.5283 23.833ZM184.5 7.5H159.5V0H184.5V7.5Z" fill="white"/>
</svg>
