<svg viewBox="0 0 269 36" fill="none" xmlns="http://www.w3.org/2000/svg">
<g clip-path="url(#clip0_2553_21500)">
<mask id="mask0_2553_21500" style="mask-type:luminance" maskUnits="userSpaceOnUse" x="0" y="0">
<path d="M269 0H0V36H269V0Z" fill="white"/>
</mask>
<g mask="url(#mask0_2553_21500)">
<path d="M207.178 15.866C204.686 15.389 203.625 14.6283 203.625 13.4227C203.625 12.3331 204.564 11.5014 205.817 11.5014C206.948 11.5014 207.958 12.2622 209.089 13.9255C209.466 14.4735 209.798 14.7314 210.22 14.7314C210.552 14.7314 211.045 14.4219 211.773 13.7579C213.045 12.591 213.301 11.856 211.959 10.8374C210.361 9.65112 208.054 9.07733 206.028 9.07733C202.123 9.07733 198.921 11.2177 198.921 14.6604C198.921 17.5809 200.736 19.1733 204.903 19.9792C207.542 20.5272 208.578 21.2622 208.578 22.5709C208.578 23.7829 207.639 24.634 206.246 24.634C204.788 24.634 203.446 23.3058 202.43 21.8295C202.008 21.2106 201.701 20.8818 201.324 20.8818C200.833 20.8818 200.315 21.4298 199.746 22.0229C198.519 23.2801 198.052 23.9957 199.369 25.111C201.018 26.4649 203.817 27.0838 205.957 27.0838C209.984 27.0838 213.282 24.924 213.282 21.288C213.282 18.2514 211.492 16.6784 207.185 15.8725L207.178 15.866ZM225.717 22.442C224.586 23.3188 223.481 23.77 222.35 23.77C221.666 23.77 220.937 23.5831 220.445 23.2027C220.094 22.9642 219.883 22.7063 219.883 22.4677C219.883 22.2808 220.024 22.1841 220.215 22.0616C220.688 21.707 221.724 21.3717 222.733 21.1332C223.654 20.9463 224.567 20.7786 225.391 20.5659C226.542 20.2823 227.155 19.6375 227.155 18.5931C227.155 15.7436 224.357 13.3001 220.893 13.3001C217.429 13.3001 214.067 16.2206 214.112 20.308C214.157 24.1762 217.288 27.0967 221.104 27.0967C223.455 27.0967 225.858 25.9363 227.104 24.202C227.526 23.6089 227.552 23.1576 227.104 22.6354C226.657 22.0874 226.28 22.0422 225.717 22.4484V22.442ZM218.796 20.2823C218.349 20.2823 218.138 19.2829 218.138 18.4771C218.138 16.9363 219.129 15.9821 220.304 15.9821C221.481 15.9821 222.612 17.0974 222.612 17.8581C222.612 18.2386 222.26 18.4062 221.787 18.5931C220.867 18.9735 219.953 19.4957 219.365 19.947C219.103 20.1146 218.918 20.2823 218.803 20.2823H218.796ZM239.745 22.442C238.614 23.3188 237.509 23.77 236.377 23.77C235.693 23.77 234.965 23.5831 234.473 23.2027C234.121 22.9642 233.911 22.7063 233.911 22.4677C233.911 22.2808 234.051 22.1841 234.243 22.0616C234.716 21.707 235.751 21.3717 236.761 21.1332C237.681 20.9463 238.595 20.7786 239.419 20.5659C240.57 20.2823 241.183 19.6375 241.183 18.5931C241.183 15.7436 238.384 13.3001 234.92 13.3001C231.457 13.3001 228.095 16.2206 228.14 20.308C228.185 24.1762 231.316 27.0967 235.131 27.0967C237.483 27.0967 239.886 25.9363 241.132 24.202C241.553 23.6089 241.58 23.1576 241.132 22.6354C240.684 22.0874 240.307 22.0422 239.745 22.4484V22.442ZM232.824 20.2823C232.376 20.2823 232.166 19.2829 232.166 18.4771C232.166 16.9363 233.157 15.9821 234.332 15.9821C235.508 15.9821 236.639 17.0974 236.639 17.8581C236.639 18.2386 236.288 18.4062 235.815 18.5931C234.894 18.9735 233.981 19.4957 233.393 19.947C233.131 20.1146 232.945 20.2823 232.83 20.2823H232.824ZM256.169 24.7436C255.626 24.389 255.486 24.0086 255.486 22.9835V10.4442C255.486 9.39974 255.153 9.01932 254.239 9.01932H251.012C250.117 9.01932 249.766 9.49638 249.766 10.038C249.766 10.4183 249.932 10.7278 250.424 11.0373C251.133 11.3919 251.344 11.8238 251.319 12.8424V13.1518C251.319 13.4871 251.204 13.6483 250.986 13.6483C250.82 13.6483 250.635 13.6032 250.443 13.5516C250.066 13.4807 249.408 13.384 248.89 13.384C244.986 13.384 242.206 16.6397 242.206 20.7722C242.206 24.3567 244.538 27.0387 247.689 27.0387C249.031 27.0387 250.04 26.5165 250.75 25.6139C251.056 25.2593 251.383 25.3045 251.478 25.7815C251.574 26.4005 251.855 26.7292 252.558 26.7292H255.735C256.514 26.7292 256.815 26.2522 256.815 25.7106C256.815 25.3302 256.648 25.0466 256.156 24.7371L256.169 24.7436ZM251.319 21.5587C251.319 22.8868 250.494 23.6733 249.389 23.6733C247.644 23.6733 246.519 21.5136 246.519 19.3539C246.519 17.3811 247.555 15.937 249.063 15.9112C250.43 15.8854 251.344 16.8137 251.344 18.735L251.319 21.5587ZM265.11 18.4964C262.758 17.7357 262.004 17.4069 262.004 16.6461C262.004 15.9821 262.617 15.4857 263.391 15.4857C264.164 15.4857 264.969 15.9112 265.838 16.6977C266.618 17.4069 267.04 17.7679 267.366 17.7679C267.673 17.7679 267.928 17.5809 268.12 17.1296C268.804 15.6597 268.733 15.0408 267.698 14.351C266.899 13.7579 265.25 13.2357 263.576 13.2357C260.118 13.2357 257.69 15.0408 257.69 17.6067C257.69 19.5795 258.937 20.7399 261.857 21.6683C263.787 22.3066 264.586 22.8288 264.586 23.6153C264.586 24.2342 263.927 24.8016 263.077 24.8016C262.323 24.8016 261.455 24.3761 260.438 23.3768C259.684 22.687 259.333 22.2873 258.86 22.2873C258.387 22.2873 258.15 22.6934 257.965 23.1898C257.262 24.5695 257.351 25.3302 258.246 25.9685C259.141 26.6067 260.835 27.0838 262.835 27.1096C266.439 27.1096 268.976 25.3302 268.976 22.6225C268.976 20.6304 267.774 19.3668 265.091 18.5158L265.11 18.4964ZM149.553 25.717C149.553 25.3367 149.387 25.053 148.896 24.7436C148.333 24.389 148.212 24.0086 148.212 22.9835L148.237 15.0731C148.237 14.0286 147.956 13.6483 146.991 13.6483H144.096L143.745 13.6225C142.875 13.6225 142.517 14.0995 142.517 14.6411C142.492 14.9957 142.658 15.3051 143.15 15.5888C143.86 15.9692 144.045 16.3754 144.045 17.394V21.7392C144.045 22.8288 143.246 23.6153 142.019 23.6153C140.862 23.6153 140.255 22.9255 140.275 21.7135L140.319 14.9442C140.345 14.0158 139.942 13.6354 139.073 13.6354H136.152L135.82 13.6096C135.04 13.6096 134.714 14.0867 134.714 14.6283C134.714 14.9828 134.855 15.2922 135.302 15.6017C135.935 15.9563 136.101 16.3625 136.101 17.3811V23.0093C136.101 25.904 137.846 27.0967 140.338 27.116C141.584 27.1419 142.76 26.5681 143.425 25.5945C143.687 25.2142 144.058 25.3302 144.153 25.7106C144.32 26.4262 144.556 26.7099 145.233 26.7099H148.435C149.215 26.7099 149.541 26.2328 149.541 25.6913L149.553 25.717ZM150.11 20.3016C150.155 24.1698 153.286 27.0903 157.101 27.0903C159.453 27.0903 161.856 25.9298 163.102 24.1955C163.523 23.6024 163.549 23.1511 163.102 22.6289C162.654 22.0809 162.277 22.0358 161.715 22.442C160.584 23.3188 159.478 23.77 158.347 23.77C157.663 23.77 156.935 23.5831 156.443 23.2027C156.091 22.9642 155.881 22.7063 155.881 22.4677C155.881 22.2808 156.021 22.1841 156.213 22.0616C156.686 21.707 157.721 21.3717 158.73 21.1332C159.651 20.9463 160.564 20.7786 161.389 20.5659C162.54 20.2823 163.153 19.6375 163.153 18.5931C163.153 15.7436 160.354 13.3001 156.89 13.3001C153.427 13.3001 150.065 16.2206 150.11 20.308V20.3016ZM158.609 17.8581C158.609 18.2386 158.258 18.4062 157.785 18.5931C156.864 18.9735 155.951 19.4957 155.363 19.947C155.1 20.1146 154.915 20.2823 154.801 20.2823C154.353 20.2823 154.142 19.2829 154.142 18.4771C154.142 16.9363 155.133 15.9821 156.309 15.9821C157.484 15.9821 158.615 17.0974 158.615 17.8581H158.609ZM164.137 20.3016C164.182 24.1698 167.313 27.0903 171.128 27.0903C173.481 27.0903 175.883 25.9298 177.13 24.1955C177.551 23.6024 177.577 23.1511 177.13 22.6289C176.682 22.0809 176.305 22.0358 175.743 22.442C174.612 23.3188 173.506 23.77 172.375 23.77C171.691 23.77 170.963 23.5831 170.47 23.2027C170.119 22.9642 169.908 22.7063 169.908 22.4677C169.908 22.2808 170.048 22.1841 170.24 22.0616C170.713 21.707 171.748 21.3717 172.758 21.1332C173.679 20.9463 174.592 20.7786 175.417 20.5659C176.567 20.2823 177.18 19.6375 177.18 18.5931C177.18 15.7436 174.381 13.3001 170.918 13.3001C167.454 13.3001 164.092 16.2206 164.137 20.308V20.3016ZM172.636 17.8581C172.636 18.2386 172.286 18.4062 171.812 18.5931C170.892 18.9735 169.978 19.4957 169.391 19.947C169.128 20.1146 168.943 20.2823 168.828 20.2823C168.381 20.2823 168.169 19.2829 168.169 18.4771C168.169 16.9363 169.16 15.9821 170.336 15.9821C171.512 15.9821 172.643 17.0974 172.643 17.8581H172.636ZM192.793 24.6017C192.346 24.2214 192.064 23.5831 191.924 22.6805L191.074 17.0974C190.671 14.5122 189.355 13.3453 187.214 13.3453C185.872 13.3453 184.721 14.0093 184.057 14.9376C183.82 15.2729 183.584 15.202 183.494 14.8926C183.284 14.0158 183.002 13.6547 182.293 13.6547H179.539L179.207 13.6289C178.426 13.6289 178.101 14.106 178.101 14.6476C178.101 15.0022 178.241 15.3116 178.689 15.6211C179.302 15.9756 179.487 16.3818 179.487 17.4005V22.9835C179.487 24.0022 179.347 24.3825 178.803 24.7436C178.312 25.053 178.146 25.3367 178.146 25.717C178.146 26.265 178.452 26.7357 179.225 26.7357H183.91C184.779 26.7357 185.137 26.2392 185.137 25.6913C185.137 25.3109 184.951 25.0014 184.408 24.692C183.795 24.3374 183.629 23.9312 183.654 22.9126V18.2321C183.654 17.4005 184.312 16.8331 185.252 16.8331C186.287 16.8331 186.946 17.4262 187.086 18.7543L187.744 24.3374C187.929 26.0974 188.735 26.7357 190.403 26.7357H192.447C193.131 26.7357 193.457 26.3102 193.457 25.7622C193.457 25.2851 193.247 24.9305 192.774 24.6017H192.793ZM143.125 28.212C142.818 28.0896 142.581 28.1411 142.389 28.4763C142.364 28.5215 142.332 28.5731 142.3 28.6246C142.3 28.6375 142.288 28.644 142.281 28.6569C142.102 28.9212 141.827 29.25 141.335 29.5272C141.322 29.5272 141.316 29.5401 141.303 29.5466C141.227 29.5917 141.137 29.6304 141.048 29.6691C141.022 29.6819 140.996 29.6884 140.977 29.7013C140.888 29.7399 140.792 29.7722 140.696 29.8045C140.677 29.8109 140.652 29.8173 140.632 29.8238C140.51 29.8625 140.376 29.9011 140.242 29.9334C140.217 29.9334 140.191 29.9463 140.166 29.9463C140.051 29.9721 139.929 29.9914 139.801 30.0107C139.75 30.0172 139.699 30.0237 139.648 30.0301C139.533 30.043 139.412 30.0558 139.284 30.0688C139.233 30.0688 139.175 30.0752 139.117 30.0817C138.938 30.0945 138.747 30.101 138.549 30.101C137.066 30.101 135.565 29.5788 134.229 28.8954C134.229 28.8954 134.229 28.8954 134.222 28.8954C132.439 27.9735 130.957 26.7614 130.209 26.091C129.94 25.8524 129.96 25.4269 130.247 25.2142C131.34 24.4018 133.616 22.2486 133.616 18.3804C133.616 12.9198 129.615 9 124.176 9C119.14 9 115.21 12.9198 115.21 17.9549C115.21 22.9899 119.166 27.0709 124.579 27.0709C125.397 27.0709 126.055 26.9742 126.483 26.8904C126.816 26.826 127.154 26.9484 127.378 27.1999L128.707 28.7278C131.404 31.8997 133.929 33.3761 136.868 33.4599C138.383 33.505 139.948 33.3181 140.996 32.5766C142.978 31.0809 143.764 28.4892 143.131 28.212H143.125ZM127.097 23.3188C126.796 23.77 126.266 23.9635 125.749 23.8152C120.514 22.3195 118.629 17.1361 121.767 12.7199C122.067 12.2944 122.572 12.1139 123.071 12.2428C128.292 13.5903 130.152 18.7801 127.097 23.3188ZM74.4762 15.8145C74.8277 16.1497 75.019 16.4076 75.2302 16.9556C76.3805 20.0888 77.6773 23.1769 79.0643 26.1426C79.3264 26.639 79.301 26.9742 78.8792 27.3288L78.7705 27.4255L78.4699 27.6769L78.227 27.8832C77.7413 28.2572 77.1091 28.5215 76.3929 28.3216C76.0736 28.2313 75.7352 28.1153 75.4345 27.9541C75.019 27.7672 74.719 27.8768 74.342 28.3668C73.9326 28.8761 73.837 29.3145 74.342 29.8818C74.8655 30.4878 76.0413 31.4033 77.1022 31.7708C77.1152 31.7708 77.1214 31.7772 77.1345 31.7836C77.1985 31.803 77.2687 31.8288 77.3326 31.8482C77.4028 31.8675 77.473 31.8868 77.5432 31.9062C79.8954 32.4348 81.5506 30.1719 82.2661 28.9341C82.3171 28.8438 82.3618 28.7471 82.4134 28.6504C82.4581 28.5602 82.509 28.4635 82.5537 28.3668C82.6177 28.2443 82.6755 28.1217 82.7388 27.9993C82.8028 27.8639 82.8668 27.7285 82.9307 27.5931C82.9947 27.4578 83.0525 27.3288 83.1158 27.1934C83.1798 27.0516 83.2438 26.9033 83.3077 26.755C83.3655 26.6261 83.4226 26.4971 83.4742 26.3682C83.5699 26.1426 83.6655 25.9169 83.7618 25.6848C83.7811 25.6332 83.8065 25.5817 83.8258 25.5301C84.8867 22.9191 85.8705 20.2371 86.7463 17.4327C86.8103 17.2263 86.8735 17.0523 86.9313 16.8911C87.0848 16.4914 87.232 16.2271 87.3854 16.0208C87.468 15.9176 87.5512 15.8273 87.6406 15.7436C88.0177 15.4083 88.1325 15.1053 88.1325 14.7443C88.1325 14.2478 87.7555 13.7966 87.0717 13.7966H83.8444C83.2314 13.7966 82.8798 14.2027 82.8798 14.77C82.8798 15.2665 83.2314 15.6275 83.5121 15.8854C84.1258 16.3818 84.1258 16.788 83.9152 17.5229C83.5382 18.9477 82.9947 20.4692 82.2916 22.1777C82.196 22.4162 82.0997 22.5323 81.9916 22.5323C81.8829 22.5323 81.7742 22.4162 81.6525 22.1777C81.6525 22.1777 81.6525 22.1648 81.6463 22.1583C81.5568 21.9714 81.4736 21.7844 81.3903 21.6039C81.3587 21.5329 81.3271 21.462 81.2947 21.3911C81.2438 21.2751 81.1922 21.1654 81.1475 21.0494C81.1097 20.9592 81.0711 20.8754 81.0395 20.7851C81.001 20.6948 80.9624 20.6046 80.9308 20.5208C80.8923 20.424 80.8475 20.3209 80.809 20.2242C80.7836 20.1662 80.7643 20.1017 80.7388 20.0437C80.509 19.4506 80.304 18.8832 80.119 18.3159C80.119 18.3159 80.0997 18.2579 80.0866 18.2256C80.0103 17.9871 79.9332 17.755 79.863 17.5165C79.8568 17.4907 79.8506 17.4649 79.8376 17.4455C79.5947 16.6397 79.4413 16.2658 80.24 15.7371C80.7581 15.4534 80.9686 15.2149 80.9686 14.7894C80.9686 14.0995 80.5916 13.7901 79.6972 13.7901H75.1277C74.3736 13.7901 73.9519 14.2156 73.9519 14.8087C73.9519 15.1891 74.1177 15.5244 74.4693 15.7823L74.4762 15.8145ZM103.752 11.2564C104.384 11.611 104.55 12.043 104.55 13.0358V23.1511C104.55 24.1698 104.436 24.5501 103.867 24.9112C103.375 25.2206 103.208 25.5043 103.208 25.8847C103.208 26.4327 103.541 26.9033 104.314 26.9033H108.973C109.772 26.9033 110.104 26.4262 110.104 25.8847C110.104 25.5043 109.938 25.2206 109.42 24.8854C108.858 24.5501 108.711 24.1504 108.736 23.1254V10.515C108.736 9.61248 108.314 9.2772 107.631 9.2772H104.263C103.483 9.25145 103.183 9.75427 103.157 10.2765C103.157 10.6569 103.298 10.9664 103.745 11.25L103.752 11.2564ZM95.7567 18.2386C95.4052 18.2386 94.6257 18.0516 93.6157 18.0516C91.2388 18.0516 88.599 19.7601 88.599 22.6805C88.599 25.601 90.8102 27.1934 93.0475 27.1934C94.4592 27.1934 95.7313 26.8388 96.7921 26.1039C97.1244 25.8653 97.3095 25.846 97.6418 26.1296C98.422 26.8453 99.2654 27.1289 100.301 27.1289C101.528 27.174 102.493 26.5809 102.493 25.846C102.493 25.4656 102.352 25.1819 102.019 24.8725C101.477 24.3761 101.15 23.712 100.959 22.4484L100.467 18.2708C100.045 14.8539 97.9232 13.5903 94.0189 13.5903C92.4909 13.5903 90.5611 13.8739 89.7562 14.2543C88.8164 14.6798 88.7462 15.4405 89.3792 17.0329C89.686 17.7486 90.1077 18.0064 90.817 17.5809C91.8077 16.9427 93.0791 16.0401 94.204 16.0401C95.4052 16.0401 96.1083 16.9427 96.1083 17.8711C96.1083 18.1354 95.9934 18.2514 95.7567 18.2514V18.2386ZM96.6257 21.3524L96.8369 22.7772C97.0034 23.8216 96.2232 24.5373 94.9773 24.5373C93.635 24.5373 92.9064 23.2994 92.9064 22.1841C92.9064 21.2364 93.5648 20.2113 94.9773 20.2113C96.153 20.2113 96.4853 20.5659 96.6257 21.3524ZM67.1586 27.2901C71.1147 27.2901 74.1246 24.3696 74.1246 20.424C74.1246 16.4785 71.2296 13.4162 67.3695 13.4162C63.2475 13.4162 60.2119 16.4076 60.2119 20.4434C60.2119 24.4792 63.2475 27.2836 67.1586 27.2836V27.2901ZM66.5451 16.2013C68.3345 16.2013 69.8619 19.2894 69.8619 21.9714C69.8619 23.538 68.993 24.5373 67.7913 24.5373C66.0019 24.5373 64.4745 21.4491 64.4745 18.909C64.4745 17.2457 65.3436 16.2013 66.5451 16.2013ZM43.6984 24.866C43.2063 25.1304 43.0402 25.4592 43.0402 25.8396C43.0402 26.4069 43.3917 26.9097 44.1969 26.9097H49.5139C50.4533 26.9355 50.856 26.4585 50.856 25.8911C50.856 25.485 50.6898 25.1562 50.1275 24.8919C49.303 24.4664 49.0922 24.0344 49.0922 23.0158V20.8302C49.0922 20.4047 49.303 20.2629 49.6801 20.2371C50.9966 20.192 51.8018 20.9978 52.6198 22.6805C53.0671 23.5831 53.3995 24.4599 53.6999 25.2206C54.243 26.4778 54.8054 26.9097 56.173 26.9097H58.9977C59.8476 26.9097 60.1991 26.5294 60.1991 25.8653C60.1991 25.2722 59.9627 24.9627 59.4962 24.6533C58.9338 24.2987 58.5056 23.7959 57.8218 22.4936L57.2083 21.3331C56.6204 20.1727 56.0325 19.5022 55.1825 19.0057C54.946 18.8639 54.9971 18.6511 55.208 18.5286C56.9974 17.5809 58.3395 16.3689 58.3395 14.2994C58.3395 11.2371 56.0325 9.50289 52.901 9.50289H44.1649C43.3661 9.50289 43.0338 9.97996 43.0338 10.5473C43.0082 10.9534 43.1744 11.2629 43.6473 11.5466C44.3758 11.9527 44.5675 12.3783 44.5675 13.3968V23.0158C44.5675 24.0344 44.4014 24.4664 43.6984 24.866ZM49.8654 12.2106H50.9263C52.3833 12.2106 53.4186 13.3001 53.4186 14.7765C53.4186 16.2529 52.1469 17.4391 50.3319 17.4391H49.6225C49.2455 17.4391 49.1049 17.2973 49.1049 16.846L49.0794 13.0229C49.0794 12.4298 49.2199 12.217 49.859 12.217L49.8654 12.2106Z" fill="white"/>
<path d="M33.045 12.2095C32.6935 11.6164 31.9714 10.8105 31.1534 10.1594C30.4888 9.63072 29.7794 8.99248 29.4343 8.63144C29.3257 8.52185 29.3129 8.3478 29.4087 8.21883L29.5238 8.06409C29.6325 7.9158 29.6069 7.70949 29.4726 7.59346C29.0445 7.22599 28.1754 6.45235 27.6513 6.0333C26.9611 5.47886 25.6319 4.54405 25.3379 4.00894C25.0503 3.48674 24.686 2.62284 23.8042 2.19734C23.5485 2.0684 22.9862 1.72026 22.3279 1.71382C21.676 1.70737 20.9923 1.9588 20.0464 1.87499C19.3306 1.81052 18.3146 1.51396 17.7138 0.978858C17.6116 0.888602 17.4454 0.965968 17.4582 1.10136C17.4838 1.39147 17.5477 1.77829 17.733 2.10064C17.7777 2.17155 17.7138 2.26181 17.6307 2.24247C16.9533 2.07485 14.9914 1.46883 14.2565 0.063387C14.2117 -0.0204239 14.0903 -0.0075299 14.0711 0.0891753C13.9561 0.643616 13.758 1.89433 14.0264 2.88072C14.052 2.96454 13.9753 3.04835 13.8922 3.03545C13.317 2.95808 11.5596 2.77757 10.0578 3.19662C9.96835 3.22241 9.95555 3.35136 10.0387 3.39003C10.1856 3.46095 10.3965 3.5641 10.5499 3.77041C10.5946 3.82843 10.5499 3.91224 10.4796 3.9058C9.783 3.89934 7.89134 4.12499 6.31925 5.4853C6.27452 5.52399 6.28091 5.60136 6.33842 5.62714C6.33842 5.62714 6.4918 5.69161 6.61322 5.74963C6.79216 5.83989 6.68352 5.97528 6.65157 5.99462C5.84634 6.4717 2.87468 8.41226 1.34731 11.842C-0.320657 15.5813 -0.128937 18.605 0.305629 20.8356C0.324801 20.9387 0.446224 20.9839 0.529302 20.9194L0.618772 20.8485C0.708238 20.7647 0.836058 20.8485 0.836058 20.9323C0.810493 21.4545 0.791319 22.8084 1.21311 24.0268C1.24506 24.1236 1.36009 24.1623 1.44317 24.1107L1.74992 23.9366C1.83939 23.885 1.94164 23.9431 1.95442 24.0397C1.99916 24.4653 2.11419 25.5741 2.68935 26.567C2.72769 26.6379 2.82356 26.6508 2.88107 26.5927L3.04723 26.4251C3.11752 26.3542 3.24534 26.3736 3.28368 26.4703C3.66712 27.3922 5.84634 31.3635 10.4988 31.9502C10.6138 31.9631 10.6841 31.8148 10.5882 31.7375C10.0834 31.3249 8.92668 30.4094 8.5304 30.029C8.47928 29.9774 8.47928 29.9 8.5304 29.8485C8.57519 29.8098 8.6263 29.7518 8.67742 29.7002C8.73494 29.6357 8.72854 29.5391 8.65823 29.4875C8.33873 29.2618 7.47593 28.5849 6.9583 27.5856C6.91998 27.5147 6.92638 27.3922 7.02221 27.3922H7.16283C7.29066 27.3728 7.29699 27.2568 7.22035 27.1536C7.07333 26.9538 6.85607 26.5605 6.72826 26.2059C6.71548 26.1672 6.76021 26.1351 6.79217 26.1608C7.16923 26.5025 8.2301 27.6178 9.84052 28.0562C9.95555 28.0885 10.0387 28.2303 10.077 28.3141C10.3326 28.8363 11.2656 30.519 13.0103 32.2854C15.2534 34.5483 18.4232 35.4896 20.0528 35.7023C20.9155 35.8184 22.788 35.9022 23.2929 35.9731C23.344 35.9796 23.4271 35.9022 23.376 35.799C23.197 35.4123 22.4173 34.355 20.8197 33.8908C20.7494 33.8714 20.743 33.7682 20.8197 33.7425C20.9795 33.6845 21.1009 33.678 21.3885 33.4782C21.4843 33.4137 21.5291 33.2976 21.4077 33.2331C20.9667 33.0075 20.1551 32.582 19.6757 32.2146C19.6055 32.163 19.631 32.0534 19.7141 32.034C19.7844 32.0147 19.8675 31.9824 19.9569 31.9502C20.1423 31.8857 20.1423 31.7181 19.9889 31.6214C19.4713 31.3119 18.2635 30.577 17.5349 29.842C17.2345 29.5391 17.2792 29.423 17.4007 29.4165C17.701 29.4036 18.4551 29.5132 19.107 29.6293C20.3468 29.855 22.3023 30.4803 23.6891 31.8406C23.7786 31.9244 23.9192 31.9115 23.9767 31.8019L24.1557 31.486C24.2195 31.37 24.3793 31.3571 24.4688 31.4602C24.7244 31.7697 25.2292 32.3499 25.715 32.7561C26.322 33.2654 27.204 34.11 27.549 34.9352C27.6066 35.077 27.8111 35.077 27.875 34.9352C28.0795 34.4452 28.3671 33.2654 27.9389 32.0791C27.875 31.9051 28.0348 31.7375 28.2073 31.8019C28.252 31.8213 28.3031 31.8406 28.3415 31.86C28.399 31.8922 28.4885 31.8471 28.4821 31.7826C28.4054 31.3055 28.1115 30.0548 27.1912 29.0169C27.1336 28.9523 27.14 28.8492 27.2168 28.7976C27.2679 28.7654 27.3318 28.7203 27.3957 28.688C27.4915 28.6364 27.5107 28.5075 27.4404 28.4301C27.2679 28.2368 26.9739 27.9273 26.6927 27.721C26.6288 27.6694 26.6671 27.5663 26.7502 27.5791C27.2295 27.65 27.9133 27.8886 28.9167 28.4753C29.7027 28.9395 30.4505 29.855 30.7892 30.2611C30.9042 30.3965 31.1598 30.2869 31.1214 30.1128C30.9042 29.2102 30.5144 27.1214 28.8144 25.7482C28.7761 25.7159 28.7889 25.6515 28.84 25.6386C28.9167 25.6257 29.0317 25.6063 29.1595 25.587C29.3001 25.5613 29.3704 25.4 29.2937 25.2776C29.0253 24.8714 28.3479 24.1944 27.2231 23.5369C27.172 23.5046 27.172 23.4337 27.2231 23.4015L27.4149 23.2854C27.5554 23.1952 27.5554 23.0211 27.434 22.9502C27.0442 22.7245 26.3093 22.3055 25.7086 21.996C25.6383 21.9638 25.6255 21.8736 25.6702 21.8155L25.7661 21.7059C25.8555 21.5964 25.8747 21.4609 25.7661 21.4029C25.5232 21.2675 25.0759 21.029 24.7244 20.8743C24.1556 20.6293 23.1075 20.1264 23.2226 19.0111C23.3376 17.8958 24.2962 17.7539 24.7244 17.9602C25.1525 18.173 25.8939 18.7146 26.1815 19.4624C26.4435 20.1522 26.4499 20.842 27.1912 20.9C28.0412 20.9646 29.9136 20.3843 30.4824 19.7331C31.2429 18.8628 31.1918 17.9538 31.2493 17.4316C31.3068 16.9094 31.2557 16.7611 31.5496 16.5419C31.8436 16.3227 32.2078 15.7167 32.3677 14.9301C32.5338 14.1436 32.6935 13.731 32.9875 13.3958C33.3326 13.0025 33.4093 12.7768 33.0578 12.1773L33.045 12.2095ZM14.953 5.36926C15.0681 4.6472 15.7455 4.33774 16.1928 4.26683C16.6786 4.18946 17.1067 4.3184 17.88 4.65364C18.289 4.83416 18.96 5.0598 19.5224 5.09204C19.6693 5.09848 19.81 5.16296 19.8611 5.29835C19.9506 5.54978 20.0528 6.01396 19.9506 6.48459C19.778 7.25181 19.2987 7.50319 19.1326 7.44517C18.9728 7.38716 18.7683 7.0455 18.5766 6.69734C18.3912 6.34921 18.027 5.78187 17.6755 5.40795C17.3367 5.04691 17.0492 4.84061 16.653 4.84705C16.3079 4.84705 15.7007 4.94376 15.4515 5.40795C15.2981 5.69806 15.2726 6.07199 15.279 6.31052C15.279 6.38144 15.1831 6.41367 15.1448 6.34921C15.0233 6.14934 14.8827 5.8141 14.953 5.3757V5.36926ZM17.0812 9.46955C16.9661 9.60496 16.7808 9.72099 16.5507 9.50181C16.2887 9.25036 15.9756 8.93446 15.7455 8.36068C15.6369 8.08992 15.5857 7.89005 15.5602 7.75463C15.5474 7.69662 15.6177 7.66436 15.656 7.70949C15.7646 7.83203 15.95 8.02539 16.2568 8.25753C16.8064 8.67658 17.1323 8.75391 17.2217 8.94734C17.3112 9.13433 17.1898 9.34064 17.0748 9.47599L17.0812 9.46955ZM13.4001 6.71024C13.2851 7.11639 12.9719 7.93519 13.0103 8.79261C13.055 9.66942 13.2851 10.3592 13.528 10.6558C13.5727 10.7074 13.5471 10.759 13.4768 10.7525C13.3362 10.7396 13.0998 10.7203 12.9272 10.5849C12.8825 10.5462 12.8186 10.5849 12.8314 10.6429C13.1956 12.3642 14.3012 12.8027 14.6271 12.8671C14.6783 12.8736 14.6847 12.9444 14.6463 12.9703C14.2437 13.2153 13.8155 13.1443 13.6046 13.0927C13.5663 13.0863 13.5407 13.125 13.5663 13.1572C14.5312 14.5756 15.5602 14.8657 16.4612 14.9366C16.5251 14.9366 16.5507 15.0268 16.506 15.072C16.244 15.2976 15.9245 15.3556 15.7199 15.3686C15.6752 15.3686 15.656 15.433 15.7007 15.4588C15.8925 15.5555 16.244 15.736 16.7744 16.1228C17.5093 16.6579 17.6946 17.2897 17.7585 17.5476C17.7649 17.5799 17.7266 17.6056 17.701 17.5799C17.062 16.8772 15.4387 16.2582 14.4226 15.3814C13.5344 14.6207 12.3585 13.3377 12.1603 10.7525C11.9942 8.56699 12.9336 7.18085 13.2595 6.65221C13.349 6.51038 13.4576 6.54262 13.4129 6.69734L13.4001 6.71024ZM6.9583 29.1135C7.01581 29.1845 6.92638 29.2812 6.85607 29.2232C5.57154 28.2303 4.00583 26.1157 3.19421 22.7181C2.52958 19.933 2.91941 17.0899 3.2006 16.0132C3.22617 15.923 3.35398 15.9359 3.36037 16.0326C3.39232 16.7546 3.38593 18.3857 3.70547 19.6687C3.96109 20.7195 4.58099 21.822 4.87496 22.299C4.9197 22.37 4.84301 22.4538 4.70241 22.3829C4.70241 22.3829 4.3701 22.2153 4.14003 22.1056C4.05056 22.0605 3.9547 22.1443 3.98027 22.2346C4.24868 23.1694 5.01555 24.1944 5.36704 24.6329C5.42456 24.7038 5.36065 24.8069 5.27118 24.7876L4.82384 24.6845C4.74715 24.6651 4.68324 24.7425 4.7152 24.8198C5.00916 25.4774 5.62906 26.3929 5.87829 26.6379C5.91664 26.6766 5.90386 26.7603 5.83356 26.7539C5.7377 26.7475 5.57794 26.7023 5.57794 26.7023C5.47568 26.6701 5.4629 26.7733 5.50764 26.8893C5.8719 27.8048 6.4918 28.5784 6.9583 29.12V29.1135ZM9.72549 7.35496C9.11835 8.57986 9.13114 9.52112 9.20146 10.0756C9.21425 10.1722 9.09922 10.2368 9.02891 10.1722C8.65823 9.8499 8.44096 9.45023 8.33873 9.23098C8.31314 9.1794 8.24283 9.1794 8.2237 9.23098C7.51432 10.6107 7.76991 12.5319 7.89773 13.2282C7.91693 13.3249 7.8019 13.3958 7.72519 13.3313C7.33538 13.0283 7.13084 12.6931 7.04141 12.5061C7.01581 12.4609 6.9519 12.4674 6.93917 12.519C6.66435 13.6923 7.11172 15.2783 7.29066 15.8456C7.31619 15.923 7.23315 15.9875 7.16283 15.9423C6.89439 15.7618 6.70269 15.5426 6.59405 15.3879C6.55571 15.3363 6.47902 15.3621 6.47902 15.4266C6.49819 16.5097 6.94557 17.6572 7.08612 17.9796C7.10532 18.0182 7.06693 18.0634 7.02861 18.0505C6.93277 18.0247 6.82412 17.986 6.74103 17.9538C6.68352 17.9345 6.6324 17.9796 6.63879 18.0376C6.79855 18.7919 7.09252 19.5784 7.55904 20.5906C7.59736 20.6744 7.48873 20.7389 7.43122 20.668C5.73131 18.3341 5.52042 15.3041 5.82717 13.5634C6.19144 11.4745 7.01581 8.95378 9.23338 6.6909C10.7032 5.19519 12.2753 4.4409 13.0934 4.16367C13.1829 4.13144 13.234 4.26038 13.1573 4.30551C12.2881 4.80837 10.4349 5.94304 9.73189 7.3614L9.72549 7.35496ZM18.2571 31.4796C18.3529 31.5312 18.3273 31.673 18.2187 31.6859C18.0397 31.7052 17.8097 31.7181 17.5541 31.6859C17.4966 31.6794 17.4646 31.7504 17.503 31.7891C17.8161 32.0856 18.7683 32.8012 19.6566 33.1944C19.7588 33.2396 19.7141 33.3492 19.6246 33.3621C19.4393 33.3814 19.1645 33.3879 18.9152 33.3621C18.8769 33.3621 18.8577 33.4072 18.8833 33.433C19.516 34.0004 20.1167 34.4065 21.0434 34.7353C21.1264 34.7675 21.0945 34.89 21.0051 34.8707C19.4457 34.6322 18.5702 34.0326 17.4007 33.0462C14.2373 30.3772 11.6171 25.8449 10.716 22.7568C9.84692 19.7783 9.93636 17.741 10.077 16.7482C10.0898 16.6644 10.2495 16.6709 10.2495 16.7546C10.2687 18.3148 10.5499 22.1186 12.7419 23.6207C12.8633 23.7045 12.8505 23.8915 12.7163 23.9559C12.5693 24.0268 12.384 24.0913 12.205 24.1042C12.1731 24.1042 12.1475 24.1429 12.1667 24.1751C12.384 24.5039 13.2787 25.9803 14.3204 26.5476C14.4674 26.625 14.4482 26.8442 14.2884 26.8893C14.1861 26.9216 14.0775 26.9473 13.9753 26.9602C13.9306 26.9602 13.9114 27.0247 13.9434 27.0569C14.2373 27.3535 15.247 28.3205 16.2312 28.7976C16.3462 28.8556 16.3207 29.0297 16.1864 29.0426C15.9756 29.0619 15.7135 29.0749 15.4196 29.0362C15.3748 29.0362 15.3429 29.0877 15.3748 29.12C15.7582 29.5197 16.9981 30.7768 18.2315 31.4731L18.2571 31.4796ZM27.1145 30.3578C27.14 30.4094 27.14 30.519 27.0378 30.4674C26.9675 30.4352 26.8653 30.4029 26.7949 30.39C26.7183 30.3772 26.7055 30.4416 26.7949 30.6221C27.0953 31.2733 27.1912 31.9824 27.2104 32.4337C27.2104 32.5111 27.1081 32.5305 27.0825 32.4595C26.4819 30.7897 24.5583 28.1272 22.5068 26.6572C20.2701 25.0519 17.8033 24.4395 15.3684 21.8929C13.5919 20.0297 13.1637 18.3664 13.0422 17.5734C13.0294 17.4767 13.1637 17.438 13.1956 17.5283C13.5407 18.4437 14.2629 19.9266 15.6049 21.1644C16.6658 22.1443 18.7938 23.1436 19.4585 23.4402C19.548 23.4789 19.5671 23.6078 19.4841 23.6722L19.3498 23.7754C19.3178 23.8012 19.3242 23.8528 19.3626 23.8657C19.6693 23.9881 20.4618 24.201 21.1073 24.3299C21.7527 24.4588 22.1106 24.549 22.4046 24.6522C22.5388 24.6973 22.5324 24.8972 22.3918 24.9294C22.1426 24.9939 21.8805 25.0777 21.6952 25.1422C21.6313 25.168 21.6377 25.2582 21.708 25.2776C23.5357 25.6386 24.8266 26.7797 25.3188 27.2826C25.3954 27.36 25.3379 27.4889 25.2292 27.4824C25.0439 27.4695 24.8778 27.4824 24.7691 27.4953C24.718 27.4953 24.7052 27.5663 24.7435 27.592C25.83 28.3399 26.8653 29.8034 27.1336 30.3642L27.1145 30.3578ZM23.376 21.8349C23.2865 21.8864 23.2034 21.938 23.1459 22.009C23.0692 22.0927 23.1906 22.1186 23.2673 22.1379C24.5007 22.4667 25.4849 22.8922 25.8108 23.1372C25.8619 23.1759 25.8555 23.2532 25.798 23.2854L25.5871 23.4015C25.5552 23.4209 25.5552 23.4659 25.5871 23.4853C27.1145 24.246 27.7089 24.9359 27.875 25.2002C27.9005 25.2453 27.875 25.3034 27.8175 25.3034C27.7152 25.3034 27.5746 25.3034 27.4915 25.3227C27.4085 25.342 27.4404 25.3872 27.4596 25.4065C27.6833 25.6063 28.6227 26.3349 29.2298 27.3922C29.2682 27.4567 29.1851 27.5147 29.1211 27.4437C28.6546 26.9151 27.7536 26.077 26.7886 25.3227C26.0281 24.7296 25.1462 24.1558 24.2195 23.6336C22.2129 22.5054 20.9603 22.4731 18.928 21.4287C17.8672 20.8807 17.177 20.178 16.8639 19.759C16.8191 19.6944 16.8958 19.6171 16.9533 19.6687C17.3943 20.0103 18.2123 20.6293 18.8577 20.9065C19.9953 21.3965 20.7174 21.519 21.823 21.4545C22.4237 21.4222 22.9158 21.5125 23.1842 21.6157C23.4207 21.7059 23.4399 21.8027 23.3696 21.8413L23.376 21.8349ZM30.2587 18.1601C30.0926 18.721 29.7155 19.2303 29.479 19.3785C29.3129 19.4817 29.0572 19.3979 29.0509 19.2432C29.0509 19.1722 29.0572 18.9789 29.07 18.8113C29.07 18.7081 28.9486 18.65 28.8784 18.7274C28.7569 18.8499 28.6035 18.9918 28.4885 19.082C28.4054 19.1465 28.3287 19.1981 28.252 19.2432C28.1243 19.3205 27.958 19.3077 27.8494 19.2045C27.728 19.0885 27.5746 18.9144 27.4468 18.721C27.2295 18.3793 27.172 18.2245 27.2615 18.0956C27.351 17.9667 27.5618 17.9796 27.8175 17.9989C28.5524 18.0441 29.1211 17.8829 29.5877 17.5863C29.7794 17.4638 29.9967 17.2962 30.1629 17.1737C30.2842 17.0834 30.4505 17.0964 30.4313 17.2768C30.3993 17.5154 30.3674 17.799 30.2523 18.173L30.2587 18.1601ZM32.2334 12.7575C32.0034 12.7511 31.5944 12.7446 31.2812 12.7575C31 12.7704 30.6613 12.8284 30.4505 12.8736C30.3098 12.8994 30.1692 12.8671 30.0606 12.7768C29.8752 12.6221 29.5877 12.3836 29.3449 12.1773C29.2171 12.0677 29.0061 12.145 29.0764 12.3578C29.1595 12.6221 29.2746 12.9316 29.4407 13.1766C29.7858 13.6988 30.5207 13.9567 30.7508 14.0469C30.9809 14.1372 31.3387 14.2919 31.2876 14.7754C31.2365 15.2654 31.1662 15.8134 30.4696 16.0713C29.7283 16.3485 28.9422 16.5999 28.6419 16.6966C28.3415 16.7933 27.843 16.8965 27.3063 16.8126C27.0186 16.7675 26.7246 16.6902 26.4627 16.529C26.3284 16.4516 26.3795 16.2776 26.5138 16.284C26.8781 16.2904 27.3765 16.2518 27.8111 16.1551C28.5524 15.9939 28.9486 15.7489 29.1531 15.5684C29.1915 15.5362 29.1595 15.4782 29.1148 15.4846C28.6866 15.5555 27.4788 15.7038 26.3476 15.2525C26.3348 15.2525 26.3348 15.2331 26.3476 15.2203C26.4499 15.1364 26.8525 14.7754 26.7502 14.2467C26.6288 13.6343 25.4465 12.4094 23.7275 12.3126C21.6824 12.1966 20.5577 13.3249 20.3723 13.5376C20.3596 13.5505 20.3404 13.5376 20.3404 13.5247C20.334 13.2539 20.3404 11.7711 21.3118 10.688C22.4173 9.44373 23.4782 9.30838 23.9575 9.47599C24.3345 9.6114 25.4274 10.082 25.9386 10.1787C26.3668 10.2561 26.9356 10.2948 27.2615 10.4495C27.6769 10.6494 27.875 10.9395 27.9708 10.9975C28.0604 11.0555 28.2712 11.0619 28.2137 10.9201C28.1179 10.6751 27.7025 10.1272 27.5299 9.95306C27.3574 9.77901 27.1976 9.4953 27.204 9.21166C27.2104 8.92802 27.2871 8.68302 27.0761 8.47671C26.8589 8.2704 26.4435 8.29623 25.8236 8.39287C25.2101 8.48315 24.2387 8.70877 23.9639 8.5863C23.6891 8.46383 23.1459 7.84491 22.9158 7.27113C22.6858 6.69734 22.5644 6.23961 23.0181 5.58846C23.4846 4.91153 23.8617 4.71812 24.0789 4.76324C24.3601 4.81482 25.2484 5.62714 25.8555 6.02685C26.2006 6.2525 27.6066 7.13571 28.1498 7.61285C28.2393 7.69018 28.2648 7.81909 28.2137 7.92875C28.1881 7.98676 28.1562 8.04478 28.1306 8.10923C28.0859 8.21239 28.0987 8.3478 28.169 8.43157C28.4502 8.76035 29.2298 9.63716 29.9967 10.2625C30.8083 10.933 32.0353 11.784 32.3613 12.5835C32.3932 12.6672 32.3293 12.7575 32.2462 12.7511L32.2334 12.7575Z" fill="white"/>
</g>
</g>
<defs>
<clipPath id="clip0_2553_21500">
<rect width="269" height="36" fill="white"/>
</clipPath>
</defs>
</svg>
