<svg viewBox="0 0 203 51" fill="none" xmlns="http://www.w3.org/2000/svg">
<path d="M87.4668 49.7656V-0.000790053H95.3926V49.7656H87.4668Z" fill="white"/>
<path d="M104.949 49.7656V-0.000790053H112.875V49.7656H104.949Z" fill="white"/>
<path d="M127.274 34.1953C127.274 35.3506 127.479 36.5053 127.889 37.6606C128.277 38.7516 128.848 39.7044 129.603 40.5174C130.358 41.3301 131.274 41.9823 132.353 42.4745C133.389 42.9449 134.585 43.1807 135.944 43.1807C137.324 43.1807 138.531 42.9449 139.567 42.4745C140.645 41.9823 141.562 41.3301 142.317 40.5174C143.072 39.7044 143.643 38.7516 144.031 37.6606C144.441 36.5053 144.646 35.3506 144.646 34.1953C144.646 32.9965 144.441 31.8412 144.031 30.7284C143.643 29.6809 143.072 28.7286 142.317 27.8727C141.605 27.0811 140.688 26.4288 139.567 25.9156C138.467 25.4234 137.259 25.1777 135.944 25.1777C134.65 25.1777 133.453 25.4234 132.353 25.9156C131.232 26.4288 130.315 27.0811 129.603 27.8727C128.848 28.7286 128.277 29.6809 127.889 30.7284C127.479 31.8412 127.274 32.9965 127.274 34.1953ZM119.187 34.1953C119.187 31.8782 119.618 29.7321 120.481 27.759C121.365 25.7206 122.561 23.9719 124.071 22.5128C125.581 21.033 127.36 19.8749 129.41 19.0376C131.458 18.2009 133.636 17.7821 135.944 17.7821C138.295 17.7821 140.484 18.2009 142.511 19.0376C144.538 19.8749 146.317 21.033 147.849 22.5128C149.358 23.9719 150.555 25.7206 151.439 27.759C152.302 29.7321 152.734 31.8782 152.734 34.1953C152.734 36.4857 152.302 38.6155 151.439 40.5871C150.577 42.578 149.379 44.3121 147.849 45.7886C146.339 47.2455 144.56 48.4121 142.511 49.2904C140.505 50.1463 138.316 50.5742 135.944 50.5742C133.593 50.5742 131.415 50.1463 129.41 49.2904C127.36 48.4121 125.581 47.2455 124.071 45.7886C122.561 44.3121 121.365 42.578 120.481 40.5871C119.618 38.6155 119.187 36.4857 119.187 34.1953Z" fill="white"/>
<path d="M194.359 18.484L186.918 34.4952L186.893 34.4876L179.376 17.6913H177.662L170.149 34.4876L170.123 34.4952L162.682 18.484H154.756L169.058 49.7656H169.99H170.771L178.521 34.4893L186.266 49.7656H187.052H187.979L202.285 18.484H194.359" fill="white"/>
<path d="M39.6026 18.484L32.1621 34.4952L32.1358 34.4876L24.6193 17.6912H22.9063L15.3924 34.4876L15.3661 34.4952L7.92585 18.484H0L14.3018 49.7656H15.2335H16.0148L23.7642 34.4894L31.5097 49.7656H32.2947H33.2227L47.5289 18.484H39.6026Z" fill="white"/>
<path d="M57.6383 31.2848H73.1982C73.1544 30.6362 72.9715 29.9219 72.6484 29.1419C72.3247 28.384 71.84 27.681 71.1926 27.0305C70.5458 26.3816 69.7368 25.8626 68.7663 25.4728C67.7958 25.0825 66.6524 24.8876 65.3375 24.8876C64.0646 24.8876 62.9538 25.0825 62.0057 25.4728C61.1429 25.8404 60.3659 26.35 59.6759 26.999C59.0503 27.6048 58.5651 28.2973 58.2206 29.0776C57.8532 29.8997 57.6596 30.6362 57.6383 31.2848V31.2848ZM49.5508 34.0505C49.5508 31.7573 49.949 29.646 50.7473 27.717C51.5669 25.7446 52.667 24.0202 54.0469 22.5404C55.3843 21.1049 57.0448 19.9474 59.029 19.068C60.9482 18.2111 63.0508 17.7821 65.3375 17.7821C67.5371 17.7821 69.5747 18.1795 71.4512 18.9722C73.4349 19.808 75.1173 20.9121 76.498 22.283C77.8993 23.6768 79.032 25.3918 79.8948 27.4269C80.7358 29.421 81.1565 31.6282 81.1565 34.0505V35.2712C81.1565 35.6146 81.1346 36.1934 81.092 37.0084H57.6383C57.7887 37.6754 58.1118 38.4184 58.6083 39.2379C59.1042 40.0343 59.7191 40.7134 60.4523 41.273C61.2719 41.8981 62.1673 42.3935 63.1372 42.7593C64.1291 43.147 65.2836 43.3413 66.5991 43.3413C67.9579 43.3413 69.3912 43.1049 70.9014 42.6308C72.4105 42.1566 73.8018 41.3373 75.0747 40.1748L79.0539 46.0946C77.7159 47.1824 75.9908 48.1961 73.8775 49.1341C71.7211 50.0945 69.2515 50.5742 66.4696 50.5742C64.0539 50.5742 61.8323 50.1565 59.8054 49.3209C57.778 48.4851 55.988 47.3167 54.4355 45.8158C52.9256 44.3382 51.7284 42.5801 50.8448 40.5435C49.9819 38.5513 49.5508 36.3866 49.5508 34.0505" fill="white"/>
</svg>
