<svg width="117" height="56" viewBox="0 0 117 56" fill="none" xmlns="http://www.w3.org/2000/svg">
<path d="M46.21 32.6782H49.7702C49.7934 33.4903 50.096 34.1284 50.6777 34.5925C51.2594 35.0565 52.0622 35.2885 53.086 35.2885C54.1565 35.2885 54.9825 35.0797 55.5643 34.662C56.1461 34.2443 56.4369 33.6992 56.4369 33.0262C56.4369 32.5158 56.2856 32.0981 55.9831 31.7732C55.6806 31.4252 55.1105 31.1467 54.2728 30.9379L51.2013 30.2419C49.6887 29.8706 48.5486 29.3021 47.7807 28.5364C47.036 27.7707 46.6637 26.7266 46.6637 25.4039C46.6637 24.3134 46.943 23.3852 47.5014 22.6196C48.0831 21.8307 48.8743 21.2274 49.8749 20.8097C50.8755 20.3689 52.0157 20.1484 53.2955 20.1484C54.5753 20.1484 55.6922 20.3805 56.6464 20.8446C57.6004 21.2854 58.345 21.9119 58.8802 22.724C59.4154 23.5361 59.683 24.4991 59.683 25.6128H56.1228C56.0995 24.8006 55.8319 24.1626 55.3199 23.6985C54.8081 23.2345 54.0866 23.0025 53.1559 23.0025C52.2483 23.0025 51.5386 23.2113 51.0267 23.629C50.5149 24.0234 50.2589 24.5687 50.2589 25.2647C50.2589 26.3089 51.0383 27.0282 52.5975 27.4226L55.6689 28.1188C57.1117 28.4436 58.1937 28.9773 58.9151 29.7198C59.6364 30.439 59.9971 31.4484 59.9971 32.7477C59.9971 33.8383 59.6946 34.8013 59.0896 35.6366C58.5078 36.4719 57.6934 37.11 56.6464 37.5508C55.5992 37.9917 54.3775 38.2122 52.9813 38.2122C50.9104 38.2122 49.2583 37.7016 48.025 36.6807C46.815 35.6597 46.21 34.3257 46.21 32.6782Z" fill="white"/>
<path d="M61.4775 29.1981C61.4775 27.4114 61.8615 25.8452 62.6294 24.4994C63.4206 23.1537 64.5026 22.0979 65.8755 21.3322C67.2483 20.5665 68.8075 20.1836 70.5526 20.1836C72.2978 20.1836 73.8453 20.5665 75.195 21.3322C76.5446 22.0979 77.615 23.1537 78.4062 24.4994C79.1973 25.8452 79.5929 27.4114 79.5929 29.1981C79.5929 30.9615 79.1973 32.5162 78.4062 33.8619C77.615 35.2077 76.5446 36.2634 75.195 37.0292C73.8453 37.7949 72.2978 38.1777 70.5526 38.1777C68.8075 38.1777 67.2483 37.7949 65.8755 37.0292C64.5026 36.2634 63.4206 35.2077 62.6294 33.8619C61.8615 32.5162 61.4775 30.9615 61.4775 29.1981ZM65.2472 29.1633C65.2472 30.277 65.4683 31.2632 65.9104 32.1217C66.3757 32.957 67.004 33.6183 67.7952 34.1055C68.5863 34.5696 69.5055 34.8017 70.5526 34.8017C71.5765 34.8017 72.484 34.5696 73.2752 34.1055C74.0664 33.6183 74.683 32.957 75.1251 32.1217C75.5673 31.2632 75.7883 30.277 75.7883 29.1633C75.7883 28.0495 75.5673 27.075 75.1251 26.2396C74.683 25.4043 74.0664 24.7547 73.2752 24.2906C72.484 23.8033 71.5765 23.5597 70.5526 23.5597C69.5055 23.5597 68.5863 23.8033 67.7952 24.2906C67.004 24.7547 66.3757 25.4043 65.9104 26.2396C65.4683 27.075 65.2472 28.0495 65.2472 29.1633Z" fill="white"/>
<path d="M81.0869 20.6703H91.4186V23.8026H81.0869V20.6703ZM91.4883 12.1431V15.3799C91.2789 15.3799 91.0462 15.3799 90.7903 15.3799C90.5343 15.3799 90.2783 15.3799 90.0223 15.3799C88.952 15.3799 88.2306 15.6352 87.8583 16.1456C87.5093 16.6561 87.3347 17.3521 87.3347 18.2339V37.7594H83.5651V18.2339C83.5651 16.7721 83.8094 15.5887 84.2981 14.6839C84.81 13.7557 85.4964 13.0828 86.3574 12.6652C87.2417 12.2243 88.2539 12.0039 89.3941 12.0039C89.7199 12.0039 90.0689 12.0155 90.4412 12.0387C90.8136 12.0619 91.1626 12.0967 91.4883 12.1431Z" fill="white"/>
<path d="M93.5264 20.6704H103.963V23.8028H93.5264V20.6704ZM100.612 37.7595H96.8772V15.3105H100.612V37.7595Z" fill="white"/>
<path d="M116.329 20.5659V24.0115H114.828C113.269 24.0115 112.036 24.4408 111.128 25.2993C110.244 26.1578 109.802 27.4224 109.802 29.093V37.7594H106.067V20.6703H109.593L109.907 24.1856H109.558C109.79 23.0486 110.337 22.1204 111.198 21.4012C112.059 20.6818 113.176 20.3223 114.549 20.3223C114.828 20.3223 115.108 20.3455 115.387 20.3918C115.689 20.415 116.003 20.473 116.329 20.5659Z" fill="white"/>
<path d="M20.2363 35.6329C20.2363 33.5977 20.2363 32.58 20.6335 31.8026C20.9829 31.1188 21.5405 30.5628 22.2263 30.2144C23.0058 29.8184 24.0264 29.8184 26.0675 29.8184H29.849C31.8902 29.8184 32.9108 29.8184 33.6904 30.2144C34.3761 30.5628 34.9336 31.1188 35.2831 31.8026C35.6803 32.58 35.6803 33.5977 35.6803 35.6329V39.4038C35.6803 41.4391 35.6803 42.4567 35.2831 43.2341C34.9336 43.9179 34.3761 44.4738 33.6904 44.8223C32.9108 45.2184 31.8902 45.2184 29.849 45.2184H26.0675C24.0264 45.2184 23.0058 45.2184 22.2263 44.8223C21.5405 44.4738 20.9829 43.9179 20.6335 43.2341C20.2363 42.4567 20.2363 41.4391 20.2363 39.4038V35.6329Z" fill="white"/>
<path d="M1.13965 37.5184C1.13965 33.2657 4.5969 29.8184 8.86164 29.8184C13.1264 29.8184 16.5836 33.2657 16.5836 37.5184C16.5836 41.771 13.1264 45.2184 8.86164 45.2184C4.5969 45.2184 1.13965 41.771 1.13965 37.5184Z" fill="white"/>
<path d="M1.13965 16.5939C1.13965 14.5586 1.13965 13.541 1.53687 12.7635C1.88628 12.0797 2.44382 11.5238 3.12958 11.1754C3.90919 10.7793 4.92973 10.7793 6.97084 10.7793H29.8488C31.89 10.7793 32.9106 10.7793 33.6902 11.1754C34.3759 11.5238 34.9334 12.0797 35.2829 12.7635C35.6801 13.541 35.6801 14.5586 35.6801 16.5939V20.3647C35.6801 22.4 35.6801 23.4176 35.2829 24.195C34.9334 24.8789 34.3759 25.4348 33.6902 25.7832C32.9106 26.1793 31.89 26.1793 29.8488 26.1793H6.97084C4.92973 26.1793 3.90919 26.1793 3.12958 25.7832C2.44382 25.4348 1.88628 24.8789 1.53687 24.195C1.13965 23.4176 1.13965 22.4 1.13965 20.3647V16.5939Z" fill="white"/>
</svg>
