<svg width="48" height="48" viewBox="0 0 48 48" fill="none" xmlns="http://www.w3.org/2000/svg">
<path d="M22.3252 0.0078125H16.7441V12.793L3.94824 -0.000976562H0V3.94336L12.8027 16.7432H0V22.3232H16.7441V22.3281H22.3252V0.0078125Z" fill="white"/>
<path d="M47.9994 22.3379H42.4183V9.54492L29.6224 22.3389H25.6742V18.3936L38.4789 5.5918H25.6742V0.0117188H47.9994V22.3379Z" fill="white"/>
<path d="M22.3252 47.998H16.7441V35.2021L3.94824 47.9961H0V44.0518L12.8027 31.252H0V25.6719H22.3252V47.998Z" fill="white"/>
<path d="M25.6743 47.998H31.2554V35.2021L44.0513 47.9961H47.9995V44.0518L35.1968 31.252H47.9995V25.6719H25.6743V47.998Z" fill="white"/>
</svg>
