<svg width="10" height="48" viewBox="0 0 10 48" fill="none" xmlns="http://www.w3.org/2000/svg">
<g clip-path="url(#clip0_0_1187)">
<path d="M24.646 9.77778V10.5576C32.0575 10.5576 38.0884 16.5871 38.0884 24H38.8682C38.8682 16.1458 32.5002 9.77778 24.646 9.77778ZM24.646 37.4424C17.2345 37.4424 11.2036 31.4129 11.2036 24H10.4238C10.4238 31.8542 16.7918 38.2222 24.646 38.2222M24.646 0C11.3915 0 0.645996 10.7455 0.645996 24C0.645996 37.2545 11.3915 48 24.646 48C37.9005 48 48.646 37.2545 48.646 24C48.646 10.7455 37.9005 0 24.646 0ZM47.0853 24C47.0853 36.3923 37.0397 46.4393 24.646 46.4393C12.2523 46.4393 2.20667 36.3923 2.20667 24C2.20667 11.6077 12.2537 1.56068 24.646 1.56068C37.0383 1.56068 47.0853 11.6077 47.0853 24Z" fill="black"/>
<path d="M14.3898 12.4218C15.1567 11.6196 15.5909 10.6927 14.824 9.80789C14.4067 9.32766 13.706 9.22266 13.1252 9.45927L13.0674 9.48167L13.0857 9.43127C13.1717 9.20305 13.2267 8.47501 12.6022 7.97238C12.2976 7.72737 11.9156 7.63636 11.5293 7.67556C10.8089 7.74837 10.2548 8.237 8.74637 9.90729C8.291 10.4113 7.6284 11.2066 7.23083 11.7218L11.3742 15.6252C12.7474 14.1159 13.3071 13.5545 14.3898 12.4218ZM8.98321 11.467C9.81781 10.4533 10.7046 9.53347 11.1064 9.16945C11.2332 9.05465 11.3714 8.93984 11.5392 8.89504C11.8113 8.82083 12.0918 9.01264 12.1553 9.28986C12.2187 9.56847 12.0425 9.83309 11.8465 10.0515C11.4052 10.5457 9.7868 12.2272 9.7868 12.2272L8.98321 11.467ZM10.6059 12.9959C10.6059 12.9959 12.182 11.341 12.6966 10.8117C12.901 10.6017 13.0321 10.4743 13.1731 10.4057C13.355 10.3175 13.5538 10.2993 13.7314 10.4169C13.9062 10.5331 13.9866 10.7333 13.9429 10.9322C13.8907 11.1688 13.6962 11.3942 13.5354 11.5664C13.3183 11.7974 11.4489 13.7841 11.4461 13.7869L10.6059 12.9959ZM25.1197 7.76657L26.4464 4.8152L26.531 4.55338L26.507 4.8264L26.6466 8.77043C27.1118 8.81383 27.5925 8.87823 28.0662 8.95664L27.8505 3.1155C27.1879 3.0427 26.5281 2.99089 25.8683 2.96289L24.5615 6.18448L24.5149 6.42389L24.4684 6.18448L23.1629 2.96289C22.5032 2.99089 21.8434 3.0427 21.1808 3.1155L20.9651 8.95664C21.4388 8.87823 21.9195 8.81523 22.3847 8.77043L22.5243 4.8264L22.5003 4.55338L22.5849 4.8152L23.9116 7.76657H25.1197ZM36.1373 13.8723C36.463 14.2195 36.9324 14.7796 37.1961 15.1198L42.0514 12.0592C41.8089 11.7442 41.4226 11.2654 41.1336 10.928L38.0589 12.9469L37.8488 13.1261L38.0053 12.8993L39.3629 10.2083L38.4029 9.25486L35.6918 10.6031L35.4634 10.7585L35.6453 10.5499L37.6796 7.49775C37.3215 7.19534 36.9775 6.91812 36.5391 6.5821L33.4573 11.3998C33.8478 11.698 34.3624 12.1362 34.6909 12.4344L37.5922 10.9392L37.7783 10.8033L37.6416 10.9882L36.1373 13.8723Z" fill="black"/>
</g>
<defs>
<clipPath id="clip0_0_1187">
<rect width="48" height="48" fill="white" transform="translate(0.645996)"/>
</clipPath>
</defs>
</svg>
