<svg width="119" height="28" viewBox="0 0 119 28" fill="none" xmlns="http://www.w3.org/2000/svg">
<g clip-path="url(#clip0_0_1148)">
<path d="M70.3323 11.0086C72.1428 11.0086 73.856 12.1157 74.2259 14.5047H66.1662C66.4777 12.407 68.0546 11.0086 70.3323 11.0086ZM73.9533 18.0396C73.3304 18.9913 72.1428 19.7294 70.5075 19.7294C68.2688 19.7294 66.5361 18.5058 66.1273 16.3304H76.2505C76.3089 16.0196 76.3284 15.7089 76.3284 15.3981C76.3284 12.0186 73.9728 9.02745 70.3129 9.02745C66.5361 9.02745 63.9858 11.8049 63.9858 15.3593C63.9858 18.9719 66.5751 21.6911 70.4686 21.6911C72.8826 21.6911 74.7126 20.6034 75.7833 18.9719L73.9533 18.0396ZM60.8905 3.80273H62.993V21.3997H60.8905V3.80273ZM88.0285 13.9997V21.3997H85.926V14.1162C85.926 12.1351 84.7969 11.028 82.928 11.028C81.0007 11.028 79.4238 12.1545 79.4238 15.0097V21.3997H77.3213V9.35764H79.4238V11.0863C80.3193 9.66841 81.6431 9.04688 83.3368 9.04688C86.1791 9.02745 88.0285 10.9115 88.0285 13.9997ZM99.6118 15.3593C99.6118 12.8926 97.7429 11.0474 95.3095 11.0474C92.8955 11.0474 91.0266 12.912 91.0266 15.3593C91.0266 17.826 92.8955 19.6711 95.3095 19.6711C97.7624 19.6905 99.6118 17.826 99.6118 15.3593ZM101.714 3.80273V21.3997H99.6118V19.3215C98.6384 20.7976 97.1005 21.7105 95.0369 21.7105C91.6885 21.7105 88.924 18.9331 88.924 15.3787C88.924 11.8243 91.669 9.04688 95.0369 9.04688C97.081 9.04688 98.6384 9.95975 99.6118 11.4359V3.82216H101.714V3.80273ZM103.408 3.80273H105.511V21.3997H103.408V3.80273ZM57.1527 15.3593C57.1527 12.8926 55.2838 11.0474 52.8503 11.0474C50.4363 11.0474 48.5674 12.912 48.5674 15.3593C48.5674 17.826 50.4363 19.6711 52.8503 19.6711C55.2838 19.6905 57.1527 17.826 57.1527 15.3593ZM59.2552 9.33822V21.3803H57.1527V19.3021C56.1793 20.7782 54.6413 21.6911 52.5972 21.6911C49.2488 21.6911 46.4843 18.9136 46.4843 15.3593C46.4843 11.8049 49.2293 9.02745 52.5972 9.02745C54.6413 9.02745 56.1987 9.94033 57.1527 11.4165V9.33822H59.2552ZM43.35 19.069C39.9626 20.3121 36.2054 18.5835 34.94 15.2039C33.694 11.8243 35.4266 8.07574 38.814 6.81326C40.9944 6.01693 43.4474 6.42481 45.2384 7.90094C45.6083 8.2117 45.9392 8.54188 46.2312 8.93034L48.0418 7.6096C45.0827 3.76389 39.5538 3.02583 35.6992 5.97809C31.8446 8.93034 31.1048 14.4464 34.0639 18.2921C37.023 22.1378 42.5518 22.8759 46.4065 19.9236C46.4259 19.9042 46.4259 19.9042 46.4454 19.8848L45.2384 17.9813C44.6933 18.4475 44.0509 18.8165 43.35 19.069ZM115.653 9.33822V16.175C115.653 18.3892 114.368 19.7877 112.402 19.7877C110.436 19.7877 109.015 18.3892 109.015 16.175V9.33822H106.893V15.9808C106.893 19.4575 109.073 21.7105 112.422 21.7105C115.322 21.7105 115.77 19.8848 115.77 19.8459V22.3126C115.77 24.7599 114.699 26.1195 112.48 26.1195C110.845 26.1195 109.443 24.9153 109.229 23.3032L107.321 23.9636C107.886 26.3526 110.027 28.0423 112.48 28.0423C115.926 28.0423 117.795 25.7893 117.795 22.3126V9.35764H115.653V9.33822Z" fill="black"/>
<path d="M18.0985 16.3671C17.3003 17.0857 16.288 17.9792 14.458 17.9792H13.3483C12.0245 17.9792 10.8175 17.4936 9.96096 16.639C9.12385 15.7844 8.65662 14.619 8.65662 13.3566V11.861C8.65662 10.5985 9.12385 9.43316 9.96096 8.57856C10.8175 7.70453 12.0245 7.23839 13.3483 7.23839H14.4385C16.2685 7.23839 17.2808 8.13183 18.079 8.85047C18.9161 9.58854 19.6364 10.2295 21.5637 10.2295C21.8558 10.2295 22.1478 10.2101 22.4398 10.1518V10.1324C22.323 9.84104 22.1867 9.56912 22.031 9.2972L20.7461 7.06359C19.5586 5.0242 17.3782 3.76172 15.0031 3.76172H12.4528C10.0778 3.76172 7.89738 5.0242 6.70985 7.06359L5.42497 9.2972C4.23744 11.3366 4.23744 13.8615 5.42497 15.9009L6.70985 18.1345C7.89738 20.1739 10.0778 21.4364 12.4528 21.4364H15.0226C17.3976 21.4364 19.578 20.1739 20.7656 18.1345L22.0504 15.9009C22.2062 15.629 22.3424 15.3571 22.4593 15.0658V15.0463C22.1672 15.0075 21.8752 14.9686 21.5832 14.9686C19.6559 14.9881 18.9356 15.629 18.0985 16.3671Z" fill="black"/>
<path d="M14.4593 8.57617H13.3496C11.3445 8.57617 10.0207 10.0135 10.0207 11.8392V13.3347C10.0207 15.1799 11.3445 16.5978 13.3496 16.5978H14.4398C17.3795 16.5978 17.1459 13.6067 21.5845 13.6067C22.0128 13.6067 22.4216 13.6455 22.8304 13.7232C22.9667 12.9657 22.9667 12.1888 22.8304 11.4313C22.4216 11.509 21.9933 11.5479 21.5845 11.5479C17.1459 11.5673 17.3795 8.57617 14.4593 8.57617Z" fill="black"/>
<path d="M25.3778 14.8318C24.6185 14.288 23.7619 13.8995 22.8275 13.7442V13.7636C22.7496 14.2103 22.6328 14.6376 22.4576 15.0455C23.2168 15.162 23.9372 15.4534 24.5601 15.9195V15.9389C22.7107 21.9211 16.3642 25.2618 10.3681 23.4167C4.37206 21.5715 1.02361 15.2397 2.87305 9.25749C4.72248 3.27528 11.069 -0.0654333 17.065 1.77973C20.6471 2.88683 23.4505 5.6837 24.5601 9.25749V9.27692C23.9372 9.72364 23.2168 10.015 22.4576 10.1315C22.6328 10.5394 22.7496 10.9861 22.8275 11.4134V11.4328C23.7425 11.258 24.6185 10.889 25.3778 10.3452C26.0981 9.80133 25.9618 9.19922 25.845 8.84961C23.7814 2.14876 16.6562 -1.59983 9.93984 0.458984C3.22347 2.5178 -0.53381 9.62652 1.52977 16.3274C3.59335 23.0282 10.7186 26.7768 17.4349 24.718C21.4453 23.475 24.5991 20.3479 25.845 16.3274C25.9618 15.9778 26.1175 15.3757 25.3778 14.8318Z" fill="black"/>
<path d="M22.462 10.1341C22.1699 10.173 21.8779 10.2118 21.5859 10.2118C19.6586 10.2118 18.9383 9.57085 18.1012 8.83279C17.2835 8.11415 16.2907 7.2207 14.4607 7.2207H13.3511C12.0273 7.2207 10.8203 7.70627 9.96367 8.56087C9.12656 9.41547 8.65933 10.5808 8.65933 11.8433V13.3389C8.65933 14.6013 9.12656 15.7667 9.96367 16.6213C10.8203 17.4953 12.0273 17.9615 13.3511 17.9615H14.4413C16.2712 17.9615 17.2835 17.068 18.0817 16.3494C18.9188 15.6113 19.6391 14.9704 21.5664 14.9704C21.8585 14.9704 22.1505 14.9898 22.4425 15.0481C22.6177 14.6402 22.7345 14.1935 22.8124 13.7662V13.7467C22.4036 13.6691 21.9753 13.6302 21.5664 13.6302C17.1278 13.6302 17.3614 16.6213 14.4218 16.6213H13.3511C11.3459 16.6213 10.0221 15.184 10.0221 13.3389V11.8433C10.0221 9.99815 11.3459 8.5803 13.3511 8.5803H14.4413C17.3809 8.5803 17.1473 11.5714 21.5859 11.5714C22.0142 11.5714 22.423 11.5326 22.8318 11.4549V11.4354C22.754 10.9887 22.6372 10.5614 22.462 10.1341Z" fill="black" fill-opacity="0.6"/>
<path d="M22.462 10.1341C22.1699 10.173 21.8779 10.2118 21.5859 10.2118C19.6586 10.2118 18.9383 9.57085 18.1012 8.83279C17.2835 8.11415 16.2907 7.2207 14.4607 7.2207H13.3511C12.0273 7.2207 10.8203 7.70627 9.96367 8.56087C9.12656 9.41547 8.65933 10.5808 8.65933 11.8433V13.3389C8.65933 14.6013 9.12656 15.7667 9.96367 16.6213C10.8203 17.4953 12.0273 17.9615 13.3511 17.9615H14.4413C16.2712 17.9615 17.2835 17.068 18.0817 16.3494C18.9188 15.6113 19.6391 14.9704 21.5664 14.9704C21.8585 14.9704 22.1505 14.9898 22.4425 15.0481C22.6177 14.6402 22.7345 14.1935 22.8124 13.7662V13.7467C22.4036 13.6691 21.9753 13.6302 21.5664 13.6302C17.1278 13.6302 17.3614 16.6213 14.4218 16.6213H13.3511C11.3459 16.6213 10.0221 15.184 10.0221 13.3389V11.8433C10.0221 9.99815 11.3459 8.5803 13.3511 8.5803H14.4413C17.3809 8.5803 17.1473 11.5714 21.5859 11.5714C22.0142 11.5714 22.423 11.5326 22.8318 11.4549V11.4354C22.754 10.9887 22.6372 10.5614 22.462 10.1341Z" fill="black" fill-opacity="0.6"/>
</g>
<defs>
<clipPath id="clip0_0_1148">
<rect width="118" height="28" fill="white" transform="translate(0.400536)"/>
</clipPath>
</defs>
</svg>
