<svg width="89" height="24" viewBox="0 0 89 24" fill="none" xmlns="http://www.w3.org/2000/svg">
<path d="M50.4183 8.09063C50.4183 5.51285 50.4628 3.11285 50.5963 0.890625L43.7878 2.17951V2.80174L44.4553 2.89063C44.9448 2.93507 45.2563 3.11285 45.4343 3.37951C45.6123 3.69062 45.7458 4.13507 45.8348 4.80174C45.9238 6.09063 46.0128 9.02396 45.9683 13.6462C45.9683 18.224 45.9238 21.1128 45.8348 22.224C48.2823 22.7573 50.1958 22.9795 51.6198 22.9795C54.2898 22.9795 56.3813 22.224 57.8943 20.6684C59.4073 19.1573 60.2083 17.024 60.2083 14.4017C60.2083 12.3128 59.6298 10.5795 58.4728 9.20174C57.3158 7.82396 55.8473 7.15729 54.1118 7.15729C52.9548 7.15729 51.7533 7.4684 50.4183 8.09063ZM50.5518 21.7795C50.4628 20.3573 50.3738 16.0906 50.3738 9.11285C50.7743 8.97951 51.3083 8.89063 51.9758 8.89063C53.0438 8.89063 53.8893 9.42396 54.5123 10.5351C55.1353 11.6462 55.4468 12.9795 55.4468 14.6684C55.4468 16.7573 55.0908 18.4462 54.3788 19.8684C53.6668 21.2462 52.7768 21.9573 51.6643 21.9573C51.3083 21.8684 50.9523 21.824 50.5518 21.7795ZM18.2448 1.33507H0.444824V2.22396L1.37932 2.31285C2.09132 2.44618 2.58082 2.71285 2.89232 3.11285C3.20382 3.55729 3.38182 4.2684 3.42632 5.24618C3.78232 10.0462 3.78232 14.5351 3.42632 18.6684C3.33732 19.6462 3.15932 20.3573 2.89232 20.8017C2.58082 21.2462 2.09132 21.5128 1.37932 21.6017L0.444824 21.7351V22.624H11.9258V21.7351L10.7243 21.6462C10.4311 21.6217 10.1459 21.5382 9.88593 21.4007C9.62591 21.2632 9.39643 21.0746 9.21132 20.8462C8.89982 20.4017 8.72182 19.6906 8.67732 18.7128C8.54382 16.9351 8.45482 14.8906 8.45482 12.624L10.8578 12.6684C12.1483 12.7128 13.0383 13.6906 13.4833 15.6462H14.3733V8.40174H13.4833C13.0383 10.3128 12.1928 11.2906 10.8578 11.3351L8.45482 11.3795C8.45482 7.37951 8.54382 4.53507 8.67732 2.80174H12.1928C14.6848 2.80174 16.3758 4.40174 17.3548 7.60174L18.4228 7.29062L18.2448 1.33507ZM16.1533 15.024C16.1533 17.3351 16.8208 19.2462 18.1113 20.7573C19.4018 22.2684 21.3153 22.9795 23.7183 22.9795C26.1213 22.9795 28.0793 22.224 29.5033 20.6684C30.9273 19.1573 31.5948 17.2462 31.5948 14.9351C31.5948 12.624 30.9273 10.7128 29.6368 9.20174C28.3463 7.69063 26.4328 6.97951 24.0298 6.97951C21.6268 6.97951 19.6688 7.73507 18.2448 9.29062C16.8208 10.8017 16.1533 12.7128 16.1533 15.024ZM26.0768 9.95729C26.6108 11.2462 26.8333 12.9351 26.8333 14.9795C26.8333 19.6906 25.8543 22.0017 23.9408 22.0017C22.9618 22.0017 22.2053 21.3351 21.6713 20.0017C21.1373 18.6684 20.9148 16.9795 20.9148 14.9795C20.9148 10.3128 21.8938 8.00174 23.8073 8.00174C24.7863 7.95729 25.5428 8.62396 26.0768 9.95729ZM63.6793 20.7573C65.1478 22.224 67.0168 22.9795 69.2418 22.9795C70.6213 22.9795 71.8228 22.7128 72.8908 22.1351C73.9588 21.6017 74.8043 20.9351 75.3828 20.1351L74.9378 19.6017C73.9588 20.3573 72.8463 20.7128 71.5558 20.7128C69.7758 20.7128 68.3963 20.1351 67.4618 18.9351C66.4828 17.7351 66.0378 16.224 66.1268 14.2684H75.6498C75.6498 12.1351 75.1158 10.4017 74.0033 9.02396C72.8908 7.69062 71.3333 7.02396 69.3308 7.02396C66.8388 7.02396 64.9253 7.82396 63.5458 9.37951C62.1663 10.9351 61.4988 12.8462 61.4988 15.1128C61.4988 17.424 62.2108 19.2906 63.6793 20.7573ZM66.9723 9.60174C67.4618 8.53507 68.0848 8.00174 68.9303 8.00174C70.2653 8.00174 70.9328 9.69063 70.9328 13.1128L66.2158 13.2017C66.2603 11.8684 66.4828 10.6684 66.9723 9.60174ZM87.6203 7.82396C86.4188 7.29063 84.9058 6.97951 83.0813 6.97951C81.2123 6.97951 79.7438 7.4684 78.6313 8.40174C77.5188 9.33507 76.9403 10.4906 76.9403 11.8684C76.9403 13.0684 77.2963 14.0017 77.9638 14.6684C78.6313 15.3351 79.6993 15.9128 81.0788 16.4017C82.3248 16.8462 83.2148 17.2906 83.6598 17.6906C84.1048 18.1351 84.3718 18.624 84.3718 19.2906C84.3718 19.9128 84.1493 20.4906 83.6598 20.9351C83.2148 21.424 82.5918 21.6462 81.7908 21.6462C79.8328 21.6462 78.3643 20.224 77.3408 17.3795L76.5843 17.6017L76.7623 22.0462C78.3643 22.6684 80.1443 22.9795 82.1023 22.9795C84.1493 22.9795 85.7068 22.5351 86.8638 21.6017C88.0208 20.7128 88.5993 19.424 88.5993 17.824C88.5993 16.7573 88.3323 15.8684 87.7538 15.2017C87.1753 14.5351 86.2408 13.9573 84.9058 13.424C83.4373 12.8906 82.4138 12.4017 81.8798 11.9573C81.3458 11.5128 81.0788 10.9795 81.0788 10.3128C81.0788 9.64618 81.2568 9.11285 81.6573 8.6684C82.0578 8.22396 82.5473 8.04618 83.1703 8.04618C84.9503 8.04618 86.2408 9.33507 87.0418 11.8684L87.7983 11.6462L87.6203 7.82396ZM44.8113 7.42396C44.1883 7.11285 43.5208 6.97951 42.7643 6.97951C42.0078 6.97951 41.2513 7.29062 40.4058 7.91285C39.5603 8.53507 38.9373 9.37951 38.4478 10.5351L38.4923 6.97951L31.7283 8.31285V8.93507L32.3958 8.97951C33.2413 9.0684 33.7308 9.73507 33.8198 10.9351C34.0868 13.6906 34.0868 16.624 33.8198 19.7351C33.7308 20.9351 33.2413 21.5573 32.3958 21.6906L31.7283 21.7795V22.624H41.1623V21.7795L39.9608 21.6906C39.1153 21.6017 38.6258 20.9351 38.5368 19.7351C38.2698 17.1573 38.2253 14.4017 38.4478 11.5573C38.7148 11.1128 39.2933 10.8462 40.1833 10.7573C41.0733 10.6684 42.0968 10.9351 43.1648 11.5573L44.8113 7.42396Z" fill="black"/>
</svg>
