<svg width="90" height="24" viewBox="0 0 90 24" fill="none" xmlns="http://www.w3.org/2000/svg">
<g clip-path="url(#clip0_0_1176)">
<path d="M51.0645 8.08892C51.0645 5.51114 51.109 3.11114 51.2425 0.888916L44.434 2.1778V2.80003L45.1015 2.88892C45.591 2.93336 45.9025 3.11114 46.0805 3.3778C46.2585 3.68892 46.392 4.13336 46.481 4.80003C46.57 6.08892 46.659 9.02225 46.6145 13.6445C46.6145 18.2222 46.57 21.1111 46.481 22.2222C48.9285 22.7556 50.842 22.9778 52.266 22.9778C54.936 22.9778 57.0275 22.2222 58.5405 20.6667C60.0535 19.1556 60.8545 17.0223 60.8545 14.4C60.8545 12.3111 60.276 10.5778 59.119 9.20003C57.962 7.82225 56.4935 7.15558 54.758 7.15558C53.601 7.15558 52.3995 7.46669 51.0645 8.08892ZM51.198 21.7778C51.109 20.3556 51.02 16.0889 51.02 9.11114C51.4205 8.97781 51.9545 8.88892 52.622 8.88892C53.69 8.88892 54.5355 9.42225 55.1585 10.5334C55.7815 11.6445 56.093 12.9778 56.093 14.6667C56.093 16.7556 55.737 18.4445 55.025 19.8667C54.313 21.2445 53.423 21.9556 52.3105 21.9556C51.9545 21.8667 51.5985 21.8223 51.198 21.7778ZM18.891 1.33336H1.091V2.22225L2.0255 2.31114C2.7375 2.44447 3.227 2.71114 3.5385 3.11114C3.85 3.55558 4.028 4.26669 4.0725 5.24447C4.4285 10.0445 4.4285 14.5334 4.0725 18.6667C3.9835 19.6445 3.8055 20.3556 3.5385 20.8C3.227 21.2445 2.7375 21.5111 2.0255 21.6L1.091 21.7334V22.6222H12.572V21.7334L11.3705 21.6445C11.0773 21.62 10.7921 21.5365 10.5321 21.399C10.2721 21.2615 10.0426 21.0729 9.8575 20.8445C9.546 20.4 9.368 19.6889 9.3235 18.7111C9.19 16.9334 9.101 14.8889 9.101 12.6222L11.504 12.6667C12.7945 12.7111 13.6845 13.6889 14.1295 15.6445H15.0195V8.40003H14.1295C13.6845 10.3111 12.839 11.2889 11.504 11.3334L9.101 11.3778C9.101 7.37781 9.19 4.53336 9.3235 2.80003H12.839C15.331 2.80003 17.022 4.40003 18.001 7.60003L19.069 7.28892L18.891 1.33336ZM16.7995 15.0222C16.7995 17.3334 17.467 19.2445 18.7575 20.7556C20.048 22.2667 21.9615 22.9778 24.3645 22.9778C26.7675 22.9778 28.7255 22.2222 30.1495 20.6667C31.5735 19.1556 32.241 17.2445 32.241 14.9334C32.241 12.6222 31.5735 10.7111 30.283 9.20003C28.9925 7.68892 27.079 6.9778 24.676 6.9778C22.273 6.9778 20.315 7.73336 18.891 9.28892C17.467 10.8 16.7995 12.7111 16.7995 15.0222ZM26.723 9.95558C27.257 11.2445 27.4795 12.9334 27.4795 14.9778C27.4795 19.6889 26.5005 22 24.587 22C23.608 22 22.8515 21.3334 22.3175 20C21.7835 18.6667 21.561 16.9778 21.561 14.9778C21.561 10.3111 22.54 8.00003 24.4535 8.00003C25.4325 7.95558 26.189 8.62225 26.723 9.95558ZM64.3255 20.7556C65.794 22.2222 67.663 22.9778 69.888 22.9778C71.2675 22.9778 72.469 22.7111 73.537 22.1334C74.605 21.6 75.4505 20.9334 76.029 20.1334L75.584 19.6C74.605 20.3556 73.4925 20.7111 72.202 20.7111C70.422 20.7111 69.0425 20.1334 68.108 18.9334C67.129 17.7334 66.684 16.2222 66.773 14.2667H76.296C76.296 12.1334 75.762 10.4 74.6495 9.02225C73.537 7.68892 71.9795 7.02225 69.977 7.02225C67.485 7.02225 65.5715 7.82225 64.192 9.3778C62.8125 10.9334 62.145 12.8445 62.145 15.1111C62.145 17.4222 62.857 19.2889 64.3255 20.7556ZM67.6185 9.60003C68.108 8.53336 68.731 8.00003 69.5765 8.00003C70.9115 8.00003 71.579 9.68892 71.579 13.1111L66.862 13.2C66.9065 11.8667 67.129 10.6667 67.6185 9.60003ZM88.2665 7.82225C87.065 7.28892 85.552 6.9778 83.7275 6.9778C81.8585 6.9778 80.39 7.46669 79.2775 8.40003C78.165 9.33336 77.5865 10.4889 77.5865 11.8667C77.5865 13.0667 77.9425 14 78.61 14.6667C79.2775 15.3334 80.3455 15.9111 81.725 16.4C82.971 16.8445 83.861 17.2889 84.306 17.6889C84.751 18.1334 85.018 18.6222 85.018 19.2889C85.018 19.9111 84.7955 20.4889 84.306 20.9334C83.861 21.4222 83.238 21.6445 82.437 21.6445C80.479 21.6445 79.0105 20.2222 77.987 17.3778L77.2305 17.6L77.4085 22.0445C79.0105 22.6667 80.7905 22.9778 82.7485 22.9778C84.7955 22.9778 86.353 22.5334 87.51 21.6C88.667 20.7111 89.2455 19.4222 89.2455 17.8222C89.2455 16.7556 88.9785 15.8667 88.4 15.2C87.8215 14.5334 86.887 13.9556 85.552 13.4222C84.0835 12.8889 83.06 12.4 82.526 11.9556C81.992 11.5111 81.725 10.9778 81.725 10.3111C81.725 9.64447 81.903 9.11114 82.3035 8.66669C82.704 8.22225 83.1935 8.04447 83.8165 8.04447C85.5965 8.04447 86.887 9.33336 87.688 11.8667L88.4445 11.6445L88.2665 7.82225ZM45.4575 7.42225C44.8345 7.11114 44.167 6.9778 43.4105 6.9778C42.654 6.9778 41.8975 7.28892 41.052 7.91114C40.2065 8.53336 39.5835 9.37781 39.094 10.5334L39.1385 6.9778L32.3745 8.31114V8.93336L33.042 8.97781C33.8875 9.06669 34.377 9.73336 34.466 10.9334C34.733 13.6889 34.733 16.6223 34.466 19.7334C34.377 20.9334 33.8875 21.5556 33.042 21.6889L32.3745 21.7778V22.6222H41.8085V21.7778L40.607 21.6889C39.7615 21.6 39.272 20.9334 39.183 19.7334C38.916 17.1556 38.8715 14.4 39.094 11.5556C39.361 11.1111 39.9395 10.8445 40.8295 10.7556C41.7195 10.6667 42.743 10.9334 43.811 11.5556L45.4575 7.42225Z" fill="black"/>
</g>
<defs>
<clipPath id="clip0_0_1176">
<rect width="89" height="24" fill="white" transform="translate(0.645996)"/>
</clipPath>
</defs>
</svg>
