<svg width="120" height="48" viewBox="0 0 120 48" fill="none" xmlns="http://www.w3.org/2000/svg">
<path d="M53.5105 33.6172V9.99939H57.2719V33.6172H53.5105Z" fill="black"/>
<path d="M61.8066 33.6172V9.99939H65.568V33.6172H61.8066Z" fill="black"/>
<path d="M72.4015 26.227C72.4015 26.7753 72.4987 27.3233 72.6933 27.8716C72.8775 28.3893 73.1486 28.8415 73.5069 29.2273C73.865 29.613 74.3 29.9225 74.812 30.1561C75.3035 30.3793 75.8711 30.4913 76.5162 30.4913C77.1708 30.4913 77.7441 30.3793 78.2355 30.1561C78.7472 29.9225 79.1823 29.613 79.5406 29.2273C79.8987 28.8415 80.17 28.3893 80.3542 27.8716C80.5486 27.3233 80.646 26.7753 80.646 26.227C80.646 25.6581 80.5486 25.1098 80.3542 24.5817C80.17 24.0846 79.8987 23.6326 79.5406 23.2265C79.2028 22.8508 78.7675 22.5413 78.2355 22.2977C77.7134 22.0641 77.1402 21.9475 76.5162 21.9475C75.9022 21.9475 75.3341 22.0641 74.812 22.2977C74.2798 22.5413 73.8448 22.8508 73.5069 23.2265C73.1486 23.6326 72.8775 24.0846 72.6933 24.5817C72.4987 25.1098 72.4015 25.6581 72.4015 26.227ZM68.5635 26.227C68.5635 25.1274 68.7682 24.1089 69.1777 23.1725C69.5973 22.2052 70.1651 21.3752 70.8816 20.6828C71.598 19.9806 72.4423 19.4309 73.4151 19.0336C74.3871 18.6365 75.4209 18.4377 76.5162 18.4377C77.6317 18.4377 78.6705 18.6365 79.6327 19.0336C80.5946 19.4309 81.4389 19.9806 82.1659 20.6828C82.8821 21.3752 83.4503 22.2052 83.8698 23.1725C84.279 24.1089 84.484 25.1274 84.484 26.227C84.484 27.314 84.279 28.3247 83.8698 29.2604C83.4604 30.2052 82.8922 31.0282 82.1659 31.7289C81.4492 32.4203 80.605 32.9739 79.6327 33.3907C78.6807 33.7969 77.6418 34 76.5162 34C75.4004 34 74.3669 33.7969 73.4151 33.3907C72.4423 32.9739 71.598 32.4203 70.8816 31.7289C70.1651 31.0282 69.5973 30.2052 69.1777 29.2604C68.7682 28.3247 68.5635 27.314 68.5635 26.227Z" fill="black"/>
<path d="M104.238 18.7718L100.707 26.3703L100.695 26.3667L97.1273 18.3956H96.3142L92.7486 26.3667L92.7363 26.3703L89.205 18.7718H85.4436L92.231 33.6172H92.6732H93.0438L96.7216 26.3675L100.397 33.6172H100.77H101.21L108 18.7718H104.238Z" fill="black"/>
<path d="M30.7948 18.7718L27.2638 26.3703L27.2513 26.3667L23.6842 18.3956H22.8712L19.3053 26.3667L19.2928 26.3703L15.7619 18.7718H12.0005L18.7877 33.6172H19.2299H19.6007L23.2783 26.3675L26.9542 33.6172H27.3267H27.7671L34.5564 18.7718H30.7948Z" fill="black"/>
<path d="M39.3545 24.8458H46.7388C46.718 24.538 46.6312 24.199 46.4779 23.8288C46.3242 23.4691 46.0942 23.1355 45.787 22.8268C45.48 22.5188 45.0961 22.2725 44.6355 22.0875C44.1749 21.9023 43.6323 21.8098 43.0083 21.8098C42.4042 21.8098 41.8771 21.9023 41.4271 22.0875C41.0176 22.262 40.6489 22.5038 40.3214 22.8118C40.0246 23.0993 39.7943 23.428 39.6308 23.7983C39.4564 24.1884 39.3646 24.538 39.3545 24.8458ZM35.5164 26.1583C35.5164 25.07 35.7053 24.068 36.0842 23.1526C36.4732 22.2165 36.9952 21.3982 37.6501 20.6959C38.2848 20.0146 39.0728 19.4653 40.0145 19.048C40.9253 18.6413 41.9231 18.4377 43.0083 18.4377C44.0522 18.4377 45.0192 18.6263 45.9097 19.0025C46.8511 19.3992 47.6496 19.9232 48.3048 20.5738C48.9698 21.2352 49.5073 22.0491 49.9168 23.0149C50.3159 23.9613 50.5156 25.0087 50.5156 26.1583V26.7376C50.5156 26.9006 50.5052 27.1753 50.485 27.562H39.3545C39.4258 27.8786 39.5792 28.2312 39.8148 28.6201C40.0502 28.998 40.3419 29.3203 40.6899 29.5859C41.0789 29.8825 41.5038 30.1177 41.9641 30.2913C42.4348 30.4752 42.9827 30.5674 43.607 30.5674C44.2519 30.5674 44.9321 30.4553 45.6488 30.2303C46.365 30.0052 47.0252 29.6164 47.6293 29.0647L49.5177 31.8741C48.8828 32.3903 48.0641 32.8714 47.0612 33.3165C46.0378 33.7723 44.8658 34 43.5455 34C42.3991 34 41.3449 33.8018 40.3829 33.4052C39.4208 33.0086 38.5713 32.4541 37.8345 31.7418C37.1179 31.0406 36.5498 30.2062 36.1305 29.2397C35.7209 28.2942 35.5164 27.267 35.5164 26.1583Z" fill="black"/>
</svg>
