<svg width="89" height="24" viewBox="0 0 89 24" fill="none" xmlns="http://www.w3.org/2000/svg">
<g clip-path="url(#clip0_1826_48307)">
<path d="M50.4186 8.09063C50.4186 5.51285 50.4631 3.11285 50.5966 0.890625L43.7881 2.17951V2.80174L44.4556 2.89062C44.9451 2.93507 45.2566 3.11285 45.4346 3.37951C45.6126 3.69062 45.7461 4.13507 45.8351 4.80174C45.9241 6.09063 46.0131 9.02396 45.9686 13.6462C45.9686 18.224 45.9241 21.1128 45.8351 22.224C48.2826 22.7573 50.1961 22.9795 51.6201 22.9795C54.2901 22.9795 56.3816 22.224 57.8946 20.6684C59.4076 19.1573 60.2086 17.024 60.2086 14.4017C60.2086 12.3128 59.6301 10.5795 58.4731 9.20174C57.3161 7.82396 55.8476 7.15729 54.1121 7.15729C52.9551 7.15729 51.7536 7.4684 50.4186 8.09063ZM50.5521 21.7795C50.4631 20.3573 50.3741 16.0906 50.3741 9.11285C50.7746 8.97951 51.3086 8.89062 51.9761 8.89062C53.0441 8.89062 53.8896 9.42396 54.5126 10.5351C55.1356 11.6462 55.4471 12.9795 55.4471 14.6684C55.4471 16.7573 55.0911 18.4462 54.3791 19.8684C53.6671 21.2462 52.7771 21.9573 51.6646 21.9573C51.3086 21.8684 50.9526 21.824 50.5521 21.7795ZM18.2451 1.33507H0.445068V2.22396L1.37957 2.31285C2.09157 2.44618 2.58107 2.71285 2.89257 3.11285C3.20407 3.55729 3.38207 4.2684 3.42657 5.24618C3.78257 10.0462 3.78257 14.5351 3.42657 18.6684C3.33757 19.6462 3.15957 20.3573 2.89257 20.8017C2.58107 21.2462 2.09157 21.5128 1.37957 21.6017L0.445068 21.7351V22.624H11.9261V21.7351L10.7246 21.6462C10.4314 21.6217 10.1462 21.5382 9.88617 21.4007C9.62615 21.2632 9.39668 21.0746 9.21157 20.8462C8.90007 20.4017 8.72207 19.6906 8.67757 18.7128C8.54407 16.9351 8.45507 14.8906 8.45507 12.624L10.8581 12.6684C12.1486 12.7128 13.0386 13.6906 13.4836 15.6462H14.3736V8.40174H13.4836C13.0386 10.3128 12.1931 11.2906 10.8581 11.3351L8.45507 11.3795C8.45507 7.37951 8.54407 4.53507 8.67757 2.80174H12.1931C14.6851 2.80174 16.3761 4.40174 17.3551 7.60174L18.4231 7.29063L18.2451 1.33507ZM16.1536 15.024C16.1536 17.3351 16.8211 19.2462 18.1116 20.7573C19.4021 22.2684 21.3156 22.9795 23.7186 22.9795C26.1216 22.9795 28.0796 22.224 29.5036 20.6684C30.9276 19.1573 31.5951 17.2462 31.5951 14.9351C31.5951 12.624 30.9276 10.7128 29.6371 9.20174C28.3466 7.69063 26.4331 6.97951 24.0301 6.97951C21.6271 6.97951 19.6691 7.73507 18.2451 9.29062C16.8211 10.8017 16.1536 12.7128 16.1536 15.024ZM26.0771 9.95729C26.6111 11.2462 26.8336 12.9351 26.8336 14.9795C26.8336 19.6906 25.8546 22.0017 23.9411 22.0017C22.9621 22.0017 22.2056 21.3351 21.6716 20.0017C21.1376 18.6684 20.9151 16.9795 20.9151 14.9795C20.9151 10.3128 21.8941 8.00174 23.8076 8.00174C24.7866 7.95729 25.5431 8.62396 26.0771 9.95729ZM63.6796 20.7573C65.1481 22.224 67.0171 22.9795 69.2421 22.9795C70.6216 22.9795 71.8231 22.7128 72.8911 22.1351C73.9591 21.6017 74.8046 20.9351 75.3831 20.1351L74.9381 19.6017C73.9591 20.3573 72.8466 20.7128 71.5561 20.7128C69.7761 20.7128 68.3966 20.1351 67.4621 18.9351C66.4831 17.7351 66.0381 16.224 66.1271 14.2684H75.6501C75.6501 12.1351 75.1161 10.4017 74.0036 9.02396C72.8911 7.69062 71.3336 7.02396 69.3311 7.02396C66.8391 7.02396 64.9256 7.82396 63.5461 9.37951C62.1666 10.9351 61.4991 12.8462 61.4991 15.1128C61.4991 17.424 62.2111 19.2906 63.6796 20.7573ZM66.9726 9.60174C67.4621 8.53507 68.0851 8.00174 68.9306 8.00174C70.2656 8.00174 70.9331 9.69063 70.9331 13.1128L66.2161 13.2017C66.2606 11.8684 66.4831 10.6684 66.9726 9.60174ZM87.6206 7.82396C86.4191 7.29063 84.9061 6.97951 83.0816 6.97951C81.2126 6.97951 79.7441 7.4684 78.6316 8.40174C77.5191 9.33507 76.9406 10.4906 76.9406 11.8684C76.9406 13.0684 77.2966 14.0017 77.9641 14.6684C78.6316 15.3351 79.6996 15.9128 81.0791 16.4017C82.3251 16.8462 83.2151 17.2906 83.6601 17.6906C84.1051 18.1351 84.3721 18.624 84.3721 19.2906C84.3721 19.9128 84.1496 20.4906 83.6601 20.9351C83.2151 21.424 82.5921 21.6462 81.7911 21.6462C79.8331 21.6462 78.3646 20.224 77.3411 17.3795L76.5846 17.6017L76.7626 22.0462C78.3646 22.6684 80.1446 22.9795 82.1026 22.9795C84.1496 22.9795 85.7071 22.5351 86.8641 21.6017C88.0211 20.7128 88.5996 19.424 88.5996 17.824C88.5996 16.7573 88.3326 15.8684 87.7541 15.2017C87.1756 14.5351 86.2411 13.9573 84.9061 13.424C83.4376 12.8906 82.4141 12.4017 81.8801 11.9573C81.3461 11.5128 81.0791 10.9795 81.0791 10.3128C81.0791 9.64618 81.2571 9.11285 81.6576 8.6684C82.0581 8.22396 82.5476 8.04618 83.1706 8.04618C84.9506 8.04618 86.2411 9.33507 87.0421 11.8684L87.7986 11.6462L87.6206 7.82396ZM44.8116 7.42396C44.1886 7.11285 43.5211 6.97951 42.7646 6.97951C42.0081 6.97951 41.2516 7.29062 40.4061 7.91285C39.5606 8.53507 38.9376 9.37951 38.4481 10.5351L38.4926 6.97951L31.7286 8.31285V8.93507L32.3961 8.97951C33.2416 9.0684 33.7311 9.73507 33.8201 10.9351C34.0871 13.6906 34.0871 16.624 33.8201 19.7351C33.7311 20.9351 33.2416 21.5573 32.3961 21.6906L31.7286 21.7795V22.624H41.1626V21.7795L39.9611 21.6906C39.1156 21.6017 38.6261 20.9351 38.5371 19.7351C38.2701 17.1573 38.2256 14.4017 38.4481 11.5573C38.7151 11.1128 39.2936 10.8462 40.1836 10.7573C41.0736 10.6684 42.0971 10.9351 43.1651 11.5573L44.8116 7.42396Z" fill="black"/>
</g>
<defs>
<clipPath id="clip0_1826_48307">
<rect width="89" height="24" fill="white"/>
</clipPath>
</defs>
</svg>
