<svg width="240" height="48" viewBox="0 0 240 48" fill="none" xmlns="http://www.w3.org/2000/svg">
<g clip-path="url(#clip0_2680_21998)">
<mask id="mask0_2680_21998" style="mask-type:luminance" maskUnits="userSpaceOnUse" x="88" y="2" width="64" height="44">
<path d="M151.636 2.48828H88.3636V45.4933H151.636V2.48828Z" fill="white"/>
</mask>
<g mask="url(#mask0_2680_21998)">
<path d="M141.178 17.0876L146.001 12.9089L134.675 2.48828H125.309L132.203 8.82896L141.178 17.0876Z" fill="black"/>
<path d="M125.814 40.4627L151.636 18.0967L146.939 13.7773L142.114 17.9539L120.97 36.2685L125.814 40.4627Z" fill="black"/>
<path d="M125.814 40.4627L151.636 18.0967L146.939 13.7773L142.114 17.9539L120.97 36.2685L125.814 40.4627Z" fill="black"/>
<path d="M120.001 37.1058L98.8501 18.7891L94.1528 23.1085L120.001 45.4942L124.843 41.3L120.001 37.1058Z" fill="black"/>
<path d="M97.0552 10.0938L88.3636 18.091L93.1884 22.2697L97.8834 17.9482L97.9296 17.9043L106.421 10.0938H97.0552Z" fill="black"/>
<path d="M97.0552 10.0938L88.3636 18.091L93.1884 22.2697L97.8834 17.9482L97.9296 17.9043L106.421 10.0938H97.0552Z" fill="black"/>
<path d="M123.44 2.48828H105.325L98.4327 8.82896H107.797H109.537H130.329L123.44 2.48828Z" fill="black"/>
<path d="M116.499 26.8778C116.163 27.2035 115.765 27.4591 115.329 27.6296C114.893 27.8001 114.427 27.8821 113.959 27.8709C111.474 27.8709 110.424 26.1616 110.415 24.4215C110.407 22.6815 111.543 20.9063 113.959 20.9063C114.415 20.9059 114.867 20.9961 115.288 21.1714C115.71 21.3469 116.092 21.6039 116.413 21.9278L115.572 22.7407C115.137 22.3277 114.559 22.1014 113.959 22.1102C112.344 22.1102 111.648 23.3142 111.657 24.4303C111.665 25.5463 112.316 26.6955 113.959 26.6955C114.585 26.691 115.186 26.4483 115.64 26.0165L116.499 26.8778Z" fill="black"/>
<path d="M122.343 22.9712C122.347 23.2504 122.264 23.524 122.107 23.7546C121.95 23.9854 121.725 24.1621 121.464 24.2609C122.246 24.4981 122.534 25.3286 122.534 25.7505C122.534 27.2401 121.416 27.7278 120.032 27.7278H116.87V21.0312H120.041C121.359 21.0312 122.343 21.6244 122.343 22.9712ZM118.112 23.7161H120.041C120.834 23.7161 121.091 23.3821 121.091 22.9998C121.091 22.6944 120.843 22.1781 120.041 22.1781H118.112V23.7161ZM118.112 26.5437H120.041C120.555 26.5437 121.293 26.3701 121.293 25.7395C121.293 25.109 120.555 24.8234 120.041 24.8234H118.112V26.5437Z" fill="black"/>
<path d="M129.503 24.318C129.532 26.0076 128.499 27.7169 126.162 27.7169H123.525V21.0312H126.162C128.453 21.0312 129.475 22.6768 129.503 24.318ZM124.784 26.515H126.162C127.678 26.515 128.28 25.4165 128.251 24.318C128.225 23.2788 127.612 22.2375 126.162 22.2375H124.784V26.515Z" fill="black"/>
<path d="M108.15 15.6916C108.17 16.9067 107.43 18.1326 105.749 18.1326H103.862V13.332H105.749C107.397 13.332 108.131 14.5053 108.15 15.6916ZM104.762 17.2625H105.749C106.847 17.2625 107.271 16.4672 107.252 15.6851C107.23 14.9381 106.792 14.1888 105.749 14.1888H104.762V17.2625Z" fill="black"/>
<path d="M108.829 18.1326V13.332H109.728V18.1326H108.829Z" fill="black"/>
<path d="M113.988 17.2274H111.477L111.064 18.1326H110.082L112.235 13.332H113.223L115.379 18.1326H114.39L113.988 17.2274ZM112.731 14.3404L111.839 16.3837H113.623L112.731 14.3404Z" fill="black"/>
<path d="M119.898 14.658L118.336 16.7431H118.158L116.62 14.6515V18.1425H115.721V13.3398H116.776L118.276 15.405L119.779 13.3398H120.816V18.1425H119.909L119.898 14.658Z" fill="black"/>
<path d="M126.375 15.7597C126.359 17.0011 125.599 18.2424 123.912 18.2424C122.225 18.2424 121.442 17.0297 121.442 15.7663C121.442 14.503 122.253 13.2266 123.912 13.2266C125.571 13.2266 126.388 14.5052 126.375 15.7597ZM122.334 15.7817C122.356 16.5704 122.774 17.4141 123.912 17.4141C125.05 17.4141 125.47 16.5639 125.483 15.7752C125.496 14.9864 125.043 14.0592 123.912 14.0592C122.78 14.0592 122.315 14.971 122.334 15.7817Z" fill="black"/>
<path d="M130.195 13.3242H131.101V18.1313H130.538L128.014 14.8951V18.1313H127.102V13.3308H127.836L130.195 16.3013V13.3242Z" fill="black"/>
<path d="M136.154 15.6916C136.176 16.9067 135.435 18.1326 133.755 18.1326H131.867V13.332H133.755C135.4 13.332 136.134 14.5053 136.154 15.6916ZM132.766 17.2625H133.755C134.853 17.2625 135.277 16.4672 135.257 15.6851C135.235 14.9381 134.796 14.1888 133.755 14.1888H132.766V17.2625Z" fill="black"/>
</g>
</g>
<defs>
<clipPath id="clip0_2680_21998">
<rect width="63.2727" height="48" fill="white" transform="translate(88.3636)"/>
</clipPath>
</defs>
</svg>
