<svg width="240" height="48" viewBox="0 0 240 48" fill="none" xmlns="http://www.w3.org/2000/svg">
<g clip-path="url(#clip0_2680_22049)">
<path d="M76.1859 7.90755V6.57422H80.1549V8.27965H79.7518L76.1859 7.90755ZM80.1549 21.1789V22.8843H76.1859V21.551L79.7828 21.1789H80.1549ZM78.0774 14.3882C78.0774 11.7835 78.0774 9.17887 78.0154 6.60523H82.2634C82.2014 9.14786 82.2014 11.7525 82.2014 14.3882V14.9773C82.2014 17.675 82.2014 20.2796 82.2634 22.8843H78.0154C78.0774 20.3417 78.0774 17.737 78.0774 15.1014V14.3882ZM80.1549 13.706H82.8526C84.9611 13.706 85.9223 12.6827 85.9223 10.7293C85.9223 8.8998 85.0231 8.00058 83.0696 8.00058H80.1549V6.57422H84.1859C88.403 6.57422 89.9534 8.21763 89.9534 10.4192C89.9534 12.2796 88.8061 13.83 84.8061 14.2951V14.0781C89.2092 14.3572 90.9146 15.9076 90.9146 18.2951C90.9146 20.3727 89.3952 22.8843 83.2247 22.8843H80.1549V21.4579H83.0386C85.3332 21.4579 86.6665 20.3727 86.6665 18.2641C86.6665 16.0006 85.4882 15.0083 83.0076 15.0083H80.1549V13.706Z" fill="black"/>
<path d="M103.752 15.752C103.752 16.2792 103.721 16.6823 103.628 17.0854H93.8913V15.783H98.5425C99.7208 15.783 100.031 15.3489 100.031 14.2326C100.031 12.5892 99.2557 11.783 98.3565 11.783C97.3332 11.783 96.372 12.8993 96.372 16.4962C96.372 19.535 97.8603 20.8993 99.7208 20.8993C101.054 20.8993 101.984 20.3412 102.729 19.566L103.597 20.3722C102.574 22.3257 100.806 23.2559 98.3875 23.2559C94.7906 23.2559 92.2169 20.8993 92.2169 16.8993C92.2169 12.7443 95.4107 10.5117 98.6045 10.5117C101.891 10.5117 103.752 12.7443 103.752 15.752Z" fill="black"/>
<path d="M109.271 16.4652C109.271 19.3179 110.636 20.8993 112.713 20.8993C113.891 20.8993 114.791 20.3412 115.504 19.504L116.372 20.2792C115.411 22.2947 113.643 23.2559 111.287 23.2559C107.907 23.2559 105.116 21.0854 105.116 16.9303C105.116 12.8683 108.124 10.5117 111.814 10.5117C114.419 10.5117 116.279 12.1551 116.434 14.1086C116.155 15.0078 115.659 15.4109 114.76 15.4109C113.767 15.4109 112.961 14.8218 112.868 13.0544L112.651 11.2869L114.45 12.3102C113.674 11.9381 113.023 11.783 112.248 11.783C110.822 11.783 109.271 13.1164 109.271 16.4652Z" fill="black"/>
<path d="M122.015 16.4652C122.015 19.3179 123.38 20.8993 125.457 20.8993C126.636 20.8993 127.535 20.3412 128.248 19.504L129.116 20.2792C128.155 22.2947 126.387 23.2559 124.031 23.2559C120.651 23.2559 117.86 21.0854 117.86 16.9303C117.86 12.8683 120.868 10.5117 124.558 10.5117C127.163 10.5117 129.023 12.1551 129.178 14.1086C128.899 15.0078 128.403 15.4109 127.504 15.4109C126.512 15.4109 125.705 14.8218 125.612 13.0544L125.395 11.2869L127.194 12.3102C126.418 11.9381 125.767 11.783 124.992 11.783C123.566 11.783 122.015 13.1164 122.015 16.4652Z" fill="black"/>
<path d="M135.442 15.9654C136.465 15.6553 138.233 15.1902 139.38 14.9112V15.9344C138.202 16.2445 136.868 16.5856 136.155 16.9267C135.039 17.3918 134.295 18.229 134.295 19.4073C134.295 20.6476 134.946 21.2367 135.783 21.2367C136.248 21.2367 136.651 21.0507 137.426 20.4615L138.419 19.7174L138.667 20.0895L137.612 21.2057C136.403 22.477 135.628 23.2522 133.829 23.2522C131.907 23.2522 130.574 22.136 130.574 20.0895C130.667 18.322 131.628 17.0817 135.442 15.9654ZM137.333 20.8336V14.6321C137.333 12.4305 136.899 11.7794 135.318 11.7794C134.698 11.7794 134.077 11.8414 132.992 12.1515L134.698 11.1902L134.512 12.9267C134.45 14.5701 133.643 15.2522 132.682 15.2522C131.783 15.2522 131.194 14.8181 131.008 14.0119C131.132 11.9344 133.147 10.5391 136.713 10.5391C139.907 10.5391 141.147 11.8724 141.147 15.2212V20.7406C141.147 21.2367 141.364 21.4538 141.705 21.4538C141.953 21.4538 142.171 21.3298 142.45 20.8957L143.101 21.3298C142.512 22.6941 141.612 23.1902 140.124 23.1902C138.481 23.2212 137.55 22.353 137.333 20.8336Z" fill="black"/>
<path d="M146.233 22.1086L146.295 19.0699H148.279L148.837 22.3877L147.442 21.8916V20.8683C148.527 21.5195 149.395 21.8606 150.543 21.8606C151.969 21.8606 152.744 21.3954 152.744 20.4032C152.744 19.628 152.279 19.1009 150.667 18.6358L149.333 18.2637C147.411 17.7055 146.326 16.4342 146.326 14.5737C146.326 12.2792 148.155 10.5117 151.504 10.5117C152.961 10.5117 154.14 10.8528 155.442 11.504L155.256 14.2326H153.271L152.558 11.1629L153.922 11.752V12.6823C153.054 12.1241 152.496 11.8761 151.38 11.8761C150.264 11.8761 149.519 12.3722 149.519 13.2714C149.519 13.9536 149.891 14.4187 151.597 14.9458L152.806 15.2869C155.163 16.0001 156.093 17.2714 156.093 19.1319C156.093 21.7675 153.984 23.2559 150.481 23.2559C148.93 23.2559 147.535 22.8838 146.233 22.1086Z" fill="black"/>
<path d="M76.1859 28.0638V26.7305H83.9999V28.0638L80.372 28.4359H79.6278L76.1859 28.0638ZM80.372 41.3351L83.9999 41.7072V43.0405H76.1859V41.7072L79.6588 41.3351H80.372ZM78.0464 34.4204C78.0464 31.8778 78.0464 29.2731 77.9844 26.7305H82.2944C82.2324 29.2421 82.2324 31.8157 82.2324 34.4204V35.1956C82.2324 37.8933 82.2324 40.4979 82.2944 43.0405H77.9844C78.0464 40.5289 78.0464 37.9553 78.0464 35.3506V34.4204ZM80.1239 35.3816V33.9243H89.5813V35.3816H80.1239ZM85.7053 28.0638V26.7305H93.5192V28.0638L89.9534 28.4359H89.2712L85.7053 28.0638ZM89.9844 41.3351L93.5503 41.7072V43.0405H85.7053V41.7072L89.2712 41.3351H89.9844ZM87.5037 34.4204C87.5037 31.8778 87.5037 29.2731 87.4417 26.7305H91.7518C91.6898 29.2421 91.6898 31.8157 91.6898 34.4204V35.3506C91.6898 37.8933 91.6898 40.4979 91.7518 43.0405H87.4417C87.5037 40.5289 87.5037 37.9553 87.5037 35.1956V34.4204Z" fill="black"/>
<path d="M95.0387 36.9936C95.0387 33.1796 97.7984 30.668 101.364 30.668C104.899 30.668 107.659 33.1176 107.659 36.9936C107.659 40.8695 105.209 43.4122 101.364 43.4122C97.4883 43.4122 95.0387 40.8075 95.0387 36.9936ZM103.442 37.0556C103.442 33.5207 102.729 31.9703 101.333 31.9703C99.9379 31.9703 99.2247 33.5207 99.2247 37.0556C99.2247 40.5905 99.9069 42.1408 101.333 42.1408C102.729 42.1098 103.442 40.5905 103.442 37.0556Z" fill="black"/>
<path d="M110.357 43.0401C110.419 41.9238 110.419 39.3811 110.419 37.8308V36.4044C110.419 35.0401 110.419 34.5129 110.357 33.5207L108.837 33.3036V32.3424L113.736 30.699L114.17 30.978L114.388 33.7377V37.8618C114.388 39.4122 114.419 41.9548 114.45 43.0711H110.357V43.0401ZM115.566 41.8928V43.0401H109.023V41.8928L111.318 41.3966H113.209L115.566 41.8928ZM121.736 34.947V37.8308C121.736 39.4122 121.767 41.9238 121.798 43.0401H117.767C117.829 41.9238 117.829 39.4122 117.829 37.8308V35.4432C117.829 33.7067 117.488 33.0866 116.403 33.0866C115.318 33.0866 114.201 33.9858 113.457 34.916H112.527V33.3036H114.077L113.333 33.9858C114.853 31.7532 116.279 30.668 118.139 30.668C120.527 30.668 121.736 32.0633 121.736 34.947ZM120.651 41.3966L122.946 41.8928V43.0401H116.527V41.8928L118.729 41.3966H120.651ZM129.085 35.0711V37.8308C129.085 39.4122 129.116 41.9238 129.147 43.0401H125.116C125.178 41.9238 125.178 39.4122 125.178 37.8308V35.4432C125.178 33.5827 124.775 33.0866 123.783 33.0866C122.729 33.0866 121.705 33.7687 120.775 34.916H119.907V33.2726H121.643L120.62 34.0168C122.388 31.4432 123.752 30.699 125.457 30.699C127.969 30.668 129.085 32.0943 129.085 35.0711ZM128.031 41.3966L130.357 41.8928V43.0401H123.969V41.8928L126.046 41.3966H128.031Z" fill="black"/>
<path d="M143.07 35.9083C143.07 36.4354 143.039 36.8385 142.946 37.2416H133.24V35.9393H137.892C139.07 35.9393 139.38 35.5052 139.38 34.3889C139.38 32.7455 138.605 31.9393 137.706 31.9393C136.682 31.9393 135.721 33.0556 135.721 36.6525C135.721 39.6912 137.209 41.0556 139.07 41.0556C140.403 41.0556 141.333 40.4974 142.078 39.7222L142.946 40.5284C141.923 42.4819 140.155 43.4122 137.737 43.4122C134.14 43.4122 131.566 41.0556 131.566 37.0556C131.566 32.9315 134.76 30.668 137.954 30.668C141.24 30.668 143.07 32.9005 143.07 35.9083Z" fill="black"/>
<path d="M143.101 12.2497C143.504 12.0327 144.093 11.6916 144.682 11.1335C145.209 10.6373 146.605 9.36602 146.791 7.44354C146.822 6.97843 146.915 6.01719 146.326 5.24199C145.953 4.80788 145.519 4.62184 145.426 4.59083C145.333 4.55982 144.496 4.24974 143.69 4.71486C142.884 5.17998 142.543 6.14122 142.667 6.97843C142.822 7.87765 143.535 8.62184 144.465 8.8699C144.31 9.14897 144.124 9.42804 143.907 9.70711C143.411 10.3583 142.915 10.8544 142.45 11.2265C142.636 11.5676 142.853 11.9087 143.101 12.2497Z" fill="black"/>
<path d="M150.822 37.2715L156.372 33.0234L161.922 37.2715V43.0389H157.674C157.674 41.8606 157.674 40.6824 157.674 39.5041C156.868 39.5041 156.062 39.5041 155.256 39.5041C155.256 40.6824 155.256 41.8606 155.256 43.0389H150.822V37.2715Z" fill="black"/>
<path d="M147.938 36.3791L156.372 29.8984L159.969 32.6891C159.969 31.8829 159.969 31.1077 159.969 30.3015C160.806 30.3015 161.613 30.3015 162.45 30.3015C162.45 31.7279 162.45 33.1232 162.45 34.5496L164.806 36.3791L163.659 37.8984L156.372 32.317L149.085 37.8984L147.938 36.3791Z" fill="black"/>
</g>
<defs>
<clipPath id="clip0_2680_22049">
<rect width="89.6124" height="40" fill="white" transform="translate(75.1938 4)"/>
</clipPath>
</defs>
</svg>
