<svg width="128" height="28" viewBox="0 0 128 28" fill="none" xmlns="http://www.w3.org/2000/svg">
<path d="M54.0708 21.9288L49.3776 3.2092H53.5648L56.7116 16.1656H56.7648L61.2988 3.2092H64.8988L69.4324 16.1656H69.486L72.6596 3.2092H76.82L72.1256 21.9288H67.8592L63.1116 9.41519H63.0592L58.2848 21.9288H54.0708ZM78.1028 3.2092H82.0492V9.41519H82.1028C82.4516 8.77319 83.1416 8.26279 83.9488 7.9172C84.6976 7.5964 85.784 7.39279 86.7436 7.38759C87.7992 7.38239 89.2592 7.654 90.29 8.188C91.3384 8.7572 92.1308 9.5224 92.6636 10.482C93.2324 11.4784 93.5168 12.5984 93.5168 13.844V21.9276H89.5704V14.3768C89.5704 13.2748 89.2408 12.4208 88.5832 11.8152C87.9252 11.2108 87.0268 10.908 85.8892 10.908C84.7512 10.908 83.844 11.228 83.1156 11.8688C82.4044 12.5084 82.0492 13.3452 82.0492 14.3768V21.9276H78.1028V3.2092ZM94.8912 14.8616C94.8912 13.7412 95.1044 12.7184 95.5308 11.7936C95.9576 10.8692 96.5396 10.0816 97.2776 9.43239C98.0156 8.78279 98.8648 8.28079 99.824 7.92479C100.784 7.56959 101.797 7.3908 102.865 7.3908C103.932 7.3908 105.003 7.57359 105.972 7.93759C106.941 8.30239 107.786 8.8096 108.506 9.458C109.225 10.1076 109.794 10.8896 110.212 11.8056C110.63 12.7216 110.839 13.74 110.839 14.8604C110.839 15.9808 110.625 17.026 110.2 17.942C109.773 18.858 109.195 19.6412 108.466 20.2896C107.736 20.9388 106.888 21.4408 105.919 21.7972C104.941 22.1544 103.907 22.3352 102.866 22.3312C101.8 22.3312 100.754 22.148 99.7856 21.7844C98.8164 21.4196 97.9716 20.908 97.252 20.25C96.532 19.592 95.9588 18.8056 95.532 17.8884C95.1052 16.9724 94.8924 15.9636 94.8924 14.8604L94.8912 14.8616ZM106.893 14.8616C106.893 13.6524 106.524 12.6828 105.786 11.9532C105.048 11.2244 104.074 10.8596 102.866 10.8596C102.279 10.8596 101.736 10.958 101.239 11.1528C100.741 11.3488 100.314 11.6192 99.9588 11.9672C99.6028 12.3136 99.3276 12.7364 99.132 13.234C98.9364 13.7324 98.8392 14.274 98.8392 14.8616C98.8392 15.4488 98.9364 15.9872 99.132 16.476C99.3195 16.9527 99.6056 17.3844 99.9716 17.7428C100.339 18.101 100.774 18.3823 101.252 18.57C101.741 18.766 102.279 18.8632 102.866 18.8632C103.453 18.8632 103.994 18.766 104.492 18.57C104.99 18.3744 105.417 18.1036 105.773 17.7556C106.128 17.4092 106.404 16.9864 106.6 16.4888C106.795 15.9912 106.893 15.4488 106.893 14.8616ZM112.266 7.38239H116.053V9.4156H116.106C116.353 8.88039 117.395 7.988 118.213 7.7484C119.018 7.51019 119.854 7.38882 120.694 7.388C121.76 7.388 122.737 7.5836 123.628 7.9752C124.515 8.3668 125.285 8.9008 125.934 9.576C126.584 10.2524 127.089 11.0428 127.454 11.9504C127.819 12.8576 128 13.8272 128 14.8588C128 15.89 127.818 16.9128 127.454 17.8204C127.089 18.7276 126.583 19.514 125.934 20.1816C125.285 20.8484 124.512 21.3736 123.614 21.7556C122.716 22.1376 121.742 22.3292 120.694 22.3292C120.356 22.3292 119.979 22.2984 119.561 22.236C119.145 22.1742 118.735 22.0806 118.334 21.956C117.934 21.8316 117.551 21.6756 117.188 21.4892C116.822 21.302 116.515 21.0848 116.267 20.8356H116.214V27.9328H112.268V7.38239H112.266ZM124.053 14.8588C124.053 13.6496 123.688 12.6844 122.96 11.9644C122.23 11.244 121.261 10.8836 120.052 10.8836C119.626 10.8836 119.187 10.9552 118.733 11.0964C118.29 11.2337 117.871 11.4411 117.494 11.7108C117.128 11.9691 116.816 12.2953 116.573 12.6716C116.334 13.0448 116.212 13.472 116.212 13.9524V15.74C116.212 16.3628 116.395 16.9056 116.76 17.3676C117.123 17.8301 117.595 18.1964 118.132 18.4344C118.702 18.7192 119.35 18.8612 120.079 18.8612C121.27 18.8612 122.23 18.4924 122.96 17.754C123.688 17.0156 124.053 16.0504 124.053 14.8596V14.8588ZM6.80446 0C3.99166 0 2.05247 1.2348 0.585271 2.6312C0.585271 2.6312 -0.00752754 3.1928 7.24574e-05 3.21L6.16287 9.3752L12.3245 3.21C11.1577 1.6028 8.95766 0 6.80446 0ZM22.0217 0C19.2089 0 17.2697 1.2348 15.8021 2.6312C15.8021 2.6312 15.2613 3.178 15.2365 3.21L7.61927 10.8316L13.7725 16.9872L27.5417 3.21C26.3745 1.6028 24.1757 0 22.0217 0ZM37.2804 0C34.4676 0 32.5285 1.2348 31.0613 2.6312C31.0613 2.6312 30.4973 3.182 30.4761 3.21L15.2385 18.4564L16.8513 20.07C19.3465 22.566 23.4309 22.566 25.9265 20.07L42.7812 3.21H42.8004C41.6337 1.6028 39.4344 0 37.2804 0Z" fill="black"/>
</svg>
