<svg width="152" height="48" viewBox="0 0 152 48" fill="none" xmlns="http://www.w3.org/2000/svg">
<g clip-path="url(#clip0_2680_22272)">
<path d="M116.929 31.1595C116.929 31.1595 116.816 31.1595 116.766 31.147C116.766 31.147 116.879 31.147 116.929 31.1595ZM119.193 30.8843L119.33 30.5215L119.38 30.484L119.193 30.8843ZM115.84 30.4965L117.729 26.869L115.853 30.509M107.61 16.2741C109.023 16.2741 109.911 16.5743 110.599 17.2623C111.362 18.0504 111.8 19.2262 111.775 20.3895C111.737 21.9155 110.899 22.5535 110.186 22.9538C109.724 23.2039 108.548 23.3666 107.96 23.3666H105.933V16.2866H107.622L107.61 16.2741ZM120.919 23.1914H121.794L120.906 23.2165V23.1914H120.919ZM123.733 17.8377V23.0914H121.031L123.733 17.8252V17.8377ZM133.69 29.5333V29.6084L133.64 29.8335C133.428 31.197 132.777 31.197 131.476 31.197H127.874C126.435 31.197 126.223 30.8092 126.223 28.2324V24.2797H129.938C130.438 24.2797 130.551 24.3172 130.613 24.5174L130.701 24.7175L130.726 24.78H130.788H131.264H131.351V24.6925V22.9913L131.326 22.7161V22.6285H131.239H130.763H130.688V22.7036L130.613 22.9037C130.576 23.0413 130.551 23.1164 129.637 23.1164H126.223V16.4117H131.326C132.289 16.4117 132.364 16.4117 132.702 17.8627L132.777 18.0879L132.802 18.1504H132.865H133.353H133.44V18.0629V15.3735V15.2734H133.353H123.758H123.696L123.671 15.3235L115.803 30.4089C115.715 30.3089 115.628 30.2088 115.54 30.0962L115.478 30.0212C114.189 28.5452 112.25 25.7182 112.038 25.3179L111.725 24.8426L111.162 23.7919C112.063 23.279 114.127 22.0782 113.964 19.2762C113.939 18.3881 113.676 17.0747 111.75 15.9364C110.887 15.4736 109.699 15.2734 107.91 15.2734H102.606L102.331 15.311H102.243V15.3985V15.9239V16.0114H102.331L102.594 16.024C103.207 16.049 103.432 16.0615 103.432 17.1998V30.3214C103.432 31.4847 103.332 31.5347 102.581 31.5723L102.318 31.6223H102.243V31.7099V32.2352V32.3228H102.331H106.734L107.022 32.2852H107.097V32.1852V31.6598V31.5723H107.009L106.747 31.5597C106.184 31.5347 105.921 31.5222 105.921 30.459V24.5174H107.572C107.622 24.5174 107.797 24.5174 107.985 24.4923C108.16 24.4798 108.348 24.4673 108.41 24.4673H108.61L110.124 26.8064V26.8565C110.186 26.9816 111.825 29.3582 112.988 30.7842C114.152 32.2227 115.49 32.5229 116.403 32.5229H116.466C117.917 32.4979 118.68 31.96 118.905 31.6473C118.968 31.5597 119.03 31.4221 119.043 31.4096L119.468 30.5215L119.618 30.2088L119.33 30.3964L118.505 30.9468C118.505 30.9468 118.392 31.0219 118.28 31.0594C118.092 31.1219 117.967 31.1595 117.479 31.1595C117.254 31.1595 117.054 31.1345 116.854 31.0719L120.368 24.2797H123.708V30.3214C123.708 30.7467 123.708 31.0969 123.596 31.3096C123.546 31.4096 123.458 31.5973 122.908 31.5973H122.633L122.545 31.6098V31.6973V32.2352V32.3228H122.633H134.278H134.366V32.2352V29.8836L134.341 29.6084V29.5208H134.253H133.753H133.678L133.69 29.5333Z" fill="black"/>
<path d="M44.8035 23.7936C44.8035 28.3218 42.1642 31.6115 38.5116 31.6115C34.8591 31.6115 32.2323 28.3218 32.2323 23.7936C32.2323 19.2655 34.8841 15.9757 38.5116 15.9757C42.1392 15.9757 44.8035 19.2655 44.8035 23.7936ZM38.5116 15C33.4957 15 29.5554 18.8652 29.5554 23.7936C29.5554 28.722 33.4081 32.5997 38.5116 32.5997C43.6152 32.5997 47.4553 28.8096 47.4553 23.7936C47.4553 18.7776 43.5276 15 38.5116 15Z" fill="black"/>
<path d="M98.6033 24.035C98.6033 26.0364 97.7027 28.2254 96.3768 29.5013C95.0384 30.7772 93.2746 31.3276 90.4977 31.3276C88.4088 31.3276 87.5832 30.5896 87.5832 28.7007V16.2421H88.684H88.7965C89.422 16.2421 91.5735 16.2796 93.2246 16.855C97.1899 18.231 98.6033 21.4707 98.6033 24.035ZM97.6777 16.805C96.7896 16.2296 94.8507 15.2539 91.7611 15.2539H84.2559L83.9682 15.2914H83.8806V15.379V15.9044V15.9919H83.9682L84.2309 16.0044C85.0189 16.0294 85.0689 16.0795 85.0689 17.593V29.6389C85.0689 31.5652 84.7187 31.5652 84.381 31.5652L83.9682 31.6153H83.8806V31.7028V32.2407V32.3408H83.9807H90.6853C93.1496 32.3408 94.9633 32.1782 96.4143 31.3276C98.6284 30.0642 100.993 27.3623 100.993 23.5847C100.993 20.7577 99.7166 18.1559 97.6652 16.805" fill="black"/>
<path d="M17.9848 15.2539L17.7096 15.2914H17.6221V15.379V15.9169V16.0044H17.7096H17.9723C18.4852 16.0044 18.7854 16.0169 18.7854 17.1802V30.7897C18.7854 31.4151 18.6353 31.5652 17.9723 31.5777L17.6971 31.6153H17.6221V31.7028V32.2407V32.3283H17.7096H22.1752L22.4629 32.2907H22.538V32.2032V31.6653V31.5777H22.4504H22.1877C21.4747 31.5527 21.2871 31.4401 21.2746 30.4269V24.1976H26.3531C26.7159 24.1976 26.7409 24.2852 26.8034 24.4478L26.891 24.6479L26.916 24.698H26.9786H27.4414H27.5289V24.6104V22.8967L27.5039 22.6215V22.534H27.4039H26.916H26.841V22.609L26.7784 22.8217C26.7409 22.9593 26.6408 23.0093 25.9529 23.0093H25.9278H21.2621V16.3922H26.3031C27.3538 16.3922 27.6415 16.4923 27.8792 17.4554L27.9417 17.6931V17.7682H28.0293H28.5422H28.6422V17.6806V15.354V15.2664H28.5422H17.9723L17.9848 15.2539Z" fill="black"/>
<path d="M61.1023 15.2539H61.0148V15.3415V15.9169V16.0044H61.1023H61.3775C61.8278 16.0044 62.2156 16.0795 62.2281 16.9801V24.2351C62.2281 26.6994 61.9654 28.5006 60.602 29.9016C59.6638 30.8773 58.4755 31.3276 56.8619 31.3401C55.1607 31.3401 54.0724 30.8773 53.2093 29.7765C52.3087 28.6257 51.9835 27.0246 51.971 23.6347V16.9176C51.9585 16.0294 52.2837 16.0294 52.8341 16.0169L53.1093 15.9794H53.1968V15.8918V15.354V15.2664H53.0968H48.5561L48.2809 15.3039H48.1934V15.3915V15.6667L48.2434 15.9544V16.0294H48.3435H48.6187C48.6187 16.0294 48.7062 16.0294 48.7437 16.0294C49.094 16.0294 49.2316 16.1045 49.2691 16.1545C49.3942 16.2796 49.4192 16.6299 49.4192 17.1302V23.1094C49.4442 26.6243 49.832 29.001 51.7333 30.8147C52.9216 31.9405 54.7229 32.5659 56.7993 32.5659C58.8132 32.5534 60.4018 31.9405 61.5276 30.7397C63.1663 29.001 63.4915 26.9745 63.479 24.2852V17.0677C63.5415 16.0169 63.8667 16.0169 64.3045 16.0169L64.5797 15.9794H64.6673V15.8918V15.354V15.2664H64.5672H61.0773L61.1023 15.2539Z" fill="black"/>
<path d="M80.4032 23.5722L80.4407 28.2004L80.4032 28.1629V23.5722ZM68.3323 23.4471L68.2948 18.7688L68.3323 18.8064V23.4471ZM79.2024 15.2539H79.1148V15.3415V15.9169V16.0044H79.2024H79.4651C79.9779 16.0044 80.2906 16.092 80.2906 17.0426V27.9878L68.3699 15.2914L68.3448 15.2664H68.3073H65.1926L64.9049 15.3039H64.8174V15.3915V15.6667L64.8799 15.9544V16.0294H64.9675H65.2427C66.9689 16.0294 67.1065 17.4805 67.1065 18.9815V30.1518C67.1065 31.4026 67.1065 31.5277 66.1933 31.5777L65.9307 31.6278H65.8556V31.7153V32.2407V32.3283H65.9557H69.2455L69.5332 32.2907H69.6082V32.2032V31.6903V31.6028H69.5207L69.283 31.5652C68.5825 31.4902 68.4199 31.4777 68.4199 30.4269V18.969L81.4289 32.8286L81.5915 33.0037V32.7661V17.2303C81.5915 16.117 81.9168 16.0545 82.5297 16.0294L82.8049 15.9919H82.8799V15.9044V15.354V15.2664H82.7799H79.1899L79.2024 15.2539Z" fill="black"/>
</g>
<defs>
<clipPath id="clip0_2680_22272">
<rect width="119.769" height="18" fill="white" transform="translate(16.1155 15)"/>
</clipPath>
</defs>
</svg>
