<svg width="118" height="28" viewBox="0 0 118 28" fill="none" xmlns="http://www.w3.org/2000/svg">
<g clip-path="url(#clip0_1826_48279)">
<path d="M69.9318 11.0105C71.7423 11.0105 73.4555 12.1176 73.8253 14.5066H65.7657C66.0772 12.409 67.6541 11.0105 69.9318 11.0105ZM73.5528 18.0416C72.9298 18.9933 71.7423 19.7313 70.107 19.7313C67.8682 19.7313 66.1356 18.5077 65.7268 16.3324H75.85C75.9084 16.0216 75.9279 15.7108 75.9279 15.4001C75.9279 12.0205 73.5723 9.02941 69.9123 9.02941C66.1356 9.02941 63.5853 11.8069 63.5853 15.3612C63.5853 18.9739 66.1745 21.693 70.0681 21.693C72.4821 21.693 74.312 20.6054 75.3828 18.9739L73.5528 18.0416ZM60.4899 3.80469H62.5924V21.4017H60.4899V3.80469ZM87.628 14.0016V21.4017H85.5255V14.1182C85.5255 12.137 84.3963 11.03 82.5274 11.03C80.6001 11.03 79.0232 12.1565 79.0232 15.0116V21.4017H76.9207V9.3596H79.0232V11.0882C79.9187 9.67036 81.2426 9.04883 82.9362 9.04883C85.7785 9.02941 87.628 10.9134 87.628 14.0016ZM99.2113 15.3612C99.2113 12.8945 97.3424 11.0494 94.9089 11.0494C92.4949 11.0494 90.626 12.914 90.626 15.3612C90.626 17.8279 92.4949 19.6731 94.9089 19.6731C97.3619 19.6925 99.2113 17.8279 99.2113 15.3612ZM101.314 3.80469V21.4017H99.2113V19.3235C98.2379 20.7996 96.7 21.7125 94.6364 21.7125C91.2879 21.7125 88.5235 18.935 88.5235 15.3806C88.5235 11.8263 91.2684 9.04883 94.6364 9.04883C96.6805 9.04883 98.2379 9.9617 99.2113 11.4378V3.82411H101.314V3.80469ZM103.007 3.80469H105.11V21.4017H103.007V3.80469ZM56.7521 15.3612C56.7521 12.8945 54.8832 11.0494 52.4497 11.0494C50.0357 11.0494 48.1668 12.914 48.1668 15.3612C48.1668 17.8279 50.0357 19.6731 52.4497 19.6731C54.8832 19.6925 56.7521 17.8279 56.7521 15.3612ZM58.8546 9.34017V21.3823H56.7521V19.304C55.7787 20.7802 54.2408 21.693 52.1967 21.693C48.8482 21.693 46.0838 18.9156 46.0838 15.3612C46.0838 11.8069 48.8287 9.02941 52.1967 9.02941C54.2408 9.02941 55.7982 9.94228 56.7521 11.4184V9.34017H58.8546ZM42.9495 19.071C39.5621 20.314 35.8048 18.5854 34.5394 15.2058C33.2935 11.8263 35.0261 8.07769 38.4135 6.81521C40.5939 6.01888 43.0468 6.42676 44.8379 7.90289C45.2077 8.21365 45.5387 8.54384 45.8307 8.93229L47.6412 7.61155C44.6821 3.76584 39.1533 3.02778 35.2987 5.98004C31.444 8.9323 30.7043 14.4484 33.6634 18.2941C36.6225 22.1398 42.1513 22.8778 46.0059 19.9256C46.0254 19.9062 46.0254 19.9062 46.0449 19.8867L44.8379 17.9833C44.2928 18.4494 43.6503 18.8185 42.9495 19.071ZM115.253 9.34017V16.177C115.253 18.3912 113.968 19.7896 112.002 19.7896C110.035 19.7896 108.614 18.3912 108.614 16.177V9.34017H106.492V15.9828C106.492 19.4594 108.673 21.7125 112.021 21.7125C114.922 21.7125 115.37 19.8867 115.37 19.8479V22.3146C115.37 24.7618 114.299 26.1214 112.079 26.1214C110.444 26.1214 109.043 24.9172 108.828 23.3051L106.921 23.9655C107.485 26.3545 109.627 28.0443 112.079 28.0443C115.525 28.0443 117.394 25.7912 117.394 22.3146V9.3596H115.253V9.34017Z" fill="black"/>
<path d="M17.6979 16.3671C16.8998 17.0857 15.8874 17.9792 14.0575 17.9792H12.9478C11.624 17.9792 10.417 17.4936 9.56042 16.639C8.72331 15.7844 8.25608 14.619 8.25608 13.3566V11.861C8.25608 10.5985 8.72331 9.43316 9.56042 8.57856C10.417 7.70453 11.624 7.23839 12.9478 7.23839H14.038C15.868 7.23839 16.8803 8.13183 17.6785 8.85047C18.5156 9.58854 19.2359 10.2295 21.1632 10.2295C21.4552 10.2295 21.7472 10.2101 22.0392 10.1518V10.1324C21.9224 9.84104 21.7862 9.56912 21.6304 9.2972L20.3456 7.06359C19.158 5.0242 16.9776 3.76172 14.6026 3.76172H12.0523C9.67723 3.76172 7.49684 5.0242 6.30931 7.06359L5.02444 9.2972C3.83691 11.3366 3.83691 13.8615 5.02444 15.9009L6.30931 18.1345C7.49684 20.1739 9.67723 21.4364 12.0523 21.4364H14.622C16.9971 21.4364 19.1775 20.1739 20.365 18.1345L21.6499 15.9009C21.8056 15.629 21.9419 15.3571 22.0587 15.0658V15.0463C21.7667 15.0075 21.4747 14.9686 21.1827 14.9686C19.2554 14.9881 18.5351 15.629 17.6979 16.3671Z" fill="black"/>
<path d="M14.0588 8.57812H12.9491C10.9439 8.57812 9.62012 10.0154 9.62012 11.8411V13.3367C9.62012 15.1819 10.9439 16.5997 12.9491 16.5997H14.0393C16.9789 16.5997 16.7453 13.6086 21.184 13.6086C21.6123 13.6086 22.0211 13.6475 22.4299 13.7252C22.5662 12.9677 22.5662 12.1908 22.4299 11.4333C22.0211 11.511 21.5928 11.5498 21.184 11.5498C16.7453 11.5692 16.9789 8.57812 14.0588 8.57812Z" fill="black"/>
<path d="M24.9772 14.8318C24.218 14.288 23.3614 13.8995 22.427 13.7442V13.7636C22.3491 14.2103 22.2323 14.6376 22.0571 15.0455C22.8163 15.162 23.5366 15.4534 24.1596 15.9195V15.9389C22.3102 21.9211 15.9637 25.2618 9.9676 23.4167C3.97153 21.5715 0.623075 15.2397 2.47251 9.25749C4.32195 3.27528 10.6684 -0.0654333 16.6645 1.77973C20.2466 2.88683 23.0499 5.6837 24.1596 9.25749V9.27692C23.5366 9.72364 22.8163 10.015 22.0571 10.1315C22.2323 10.5394 22.3491 10.9861 22.427 11.4134V11.4328C23.3419 11.258 24.218 10.889 24.9772 10.3452C25.6975 9.80133 25.5613 9.19922 25.4445 8.84961C23.3809 2.14876 16.2557 -1.59983 9.5393 0.458984C2.82293 2.5178 -0.934346 9.62652 1.12924 16.3274C3.19282 23.0282 10.318 26.7768 17.0344 24.718C21.0447 23.475 24.1985 20.3479 25.4445 16.3274C25.5613 15.9778 25.717 15.3757 24.9772 14.8318Z" fill="black"/>
<path d="M22.0614 10.1322C21.7694 10.171 21.4774 10.2099 21.1854 10.2099C19.2581 10.2099 18.5378 9.5689 17.7006 8.83084C16.883 8.11219 15.8901 7.21875 14.0602 7.21875H12.9505C11.6267 7.21875 10.4197 7.70432 9.56313 8.55892C8.72601 9.41352 8.25879 10.5789 8.25879 11.8414V13.3369C8.25879 14.5994 8.72601 15.7648 9.56313 16.6194C10.4197 17.4934 11.6267 17.9595 12.9505 17.9595H14.0407C15.8707 17.9595 16.883 17.0661 17.6812 16.3474C18.5183 15.6094 19.2386 14.9684 21.1659 14.9684C21.4579 14.9684 21.7499 14.9878 22.042 15.0461C22.2172 14.6382 22.334 14.1915 22.4118 13.7642V13.7448C22.003 13.6671 21.5747 13.6283 21.1659 13.6283C16.7273 13.6283 16.9609 16.6194 14.0212 16.6194H12.9505C10.9453 16.6194 9.62153 15.1821 9.62153 13.3369V11.8414C9.62153 9.9962 10.9453 8.57834 12.9505 8.57834H14.0407C16.9803 8.57834 16.7467 11.5694 21.1854 11.5694C21.6137 11.5694 22.0225 11.5306 22.4313 11.4529V11.4335C22.3534 10.9868 22.2366 10.5595 22.0614 10.1322Z" fill="black" fill-opacity="0.6"/>
<path d="M22.0614 10.1322C21.7694 10.171 21.4774 10.2099 21.1854 10.2099C19.2581 10.2099 18.5378 9.5689 17.7006 8.83084C16.883 8.11219 15.8901 7.21875 14.0602 7.21875H12.9505C11.6267 7.21875 10.4197 7.70432 9.56313 8.55892C8.72601 9.41352 8.25879 10.5789 8.25879 11.8414V13.3369C8.25879 14.5994 8.72601 15.7648 9.56313 16.6194C10.4197 17.4934 11.6267 17.9595 12.9505 17.9595H14.0407C15.8707 17.9595 16.883 17.0661 17.6812 16.3474C18.5183 15.6094 19.2386 14.9684 21.1659 14.9684C21.4579 14.9684 21.7499 14.9878 22.042 15.0461C22.2172 14.6382 22.334 14.1915 22.4118 13.7642V13.7448C22.003 13.6671 21.5747 13.6283 21.1659 13.6283C16.7273 13.6283 16.9609 16.6194 14.0212 16.6194H12.9505C10.9453 16.6194 9.62153 15.1821 9.62153 13.3369V11.8414C9.62153 9.9962 10.9453 8.57834 12.9505 8.57834H14.0407C16.9803 8.57834 16.7467 11.5694 21.1854 11.5694C21.6137 11.5694 22.0225 11.5306 22.4313 11.4529V11.4335C22.3534 10.9868 22.2366 10.5595 22.0614 10.1322Z" fill="black" fill-opacity="0.6"/>
</g>
<defs>
<clipPath id="clip0_1826_48279">
<rect width="118" height="28" fill="white"/>
</clipPath>
</defs>
</svg>
