<svg width="240" height="48" viewBox="0 0 240 48" fill="none" xmlns="http://www.w3.org/2000/svg">
<g clip-path="url(#clip0_2680_22039)">
<path d="M160.928 31.1595C160.928 31.1595 160.816 31.1595 160.766 31.147C160.766 31.147 160.878 31.147 160.928 31.1595ZM163.193 30.8843L163.33 30.5215L163.38 30.484L163.193 30.8843ZM159.84 30.4965L161.729 26.869L159.853 30.509M151.61 16.2741C153.023 16.2741 153.911 16.5743 154.599 17.2623C155.362 18.0504 155.8 19.2262 155.775 20.3895C155.737 21.9155 154.899 22.5535 154.186 22.9538C153.723 23.2039 152.548 23.3666 151.96 23.3666H149.933V16.2866H151.622L151.61 16.2741ZM164.919 23.1914H165.794L164.906 23.2165V23.1914H164.919ZM167.733 17.8377V23.0914H165.031L167.733 17.8252V17.8377ZM177.69 29.5333V29.6084L177.64 29.8335C177.427 31.197 176.777 31.197 175.476 31.197H171.874C170.435 31.197 170.222 30.8092 170.222 28.2324V24.2797H173.938C174.438 24.2797 174.55 24.3172 174.613 24.5174L174.701 24.7175L174.726 24.78H174.788H175.263H175.351V24.6925V22.9913L175.326 22.7161V22.6285H175.238H174.763H174.688V22.7036L174.613 22.9037C174.575 23.0413 174.55 23.1164 173.637 23.1164H170.222V16.4117H175.326C176.289 16.4117 176.364 16.4117 176.702 17.8627L176.777 18.0879L176.802 18.1504H176.865H177.352H177.44V18.0629V15.3735V15.2734H177.352H167.758H167.696L167.671 15.3235L159.803 30.4089C159.715 30.3089 159.628 30.2088 159.54 30.0962L159.477 30.0212C158.189 28.5452 156.25 25.7182 156.038 25.3179L155.725 24.8426L155.162 23.7919C156.063 23.279 158.127 22.0782 157.964 19.2762C157.939 18.3881 157.676 17.0747 155.75 15.9364C154.887 15.4736 153.698 15.2734 151.91 15.2734H146.606L146.331 15.311H146.243V15.3985V15.9239V16.0114H146.331L146.594 16.024C147.206 16.049 147.432 16.0615 147.432 17.1998V30.3214C147.432 31.4847 147.332 31.5347 146.581 31.5723L146.318 31.6223H146.243V31.7099V32.2352V32.3228H146.331H150.734L151.022 32.2852H151.097V32.1852V31.6598V31.5723H151.009L150.746 31.5597C150.184 31.5347 149.921 31.5222 149.921 30.459V24.5174H151.572C151.622 24.5174 151.797 24.5174 151.985 24.4923C152.16 24.4798 152.348 24.4673 152.41 24.4673H152.61L154.124 26.8064V26.8565C154.186 26.9816 155.825 29.3582 156.988 30.7842C158.152 32.2227 159.49 32.5229 160.403 32.5229H160.466C161.917 32.4979 162.68 31.96 162.905 31.6473C162.967 31.5597 163.03 31.4221 163.042 31.4096L163.468 30.5215L163.618 30.2088L163.33 30.3964L162.505 30.9468C162.505 30.9468 162.392 31.0219 162.279 31.0594C162.092 31.1219 161.967 31.1595 161.479 31.1595C161.254 31.1595 161.054 31.1345 160.853 31.0719L164.368 24.2797H167.708V30.3214C167.708 30.7467 167.708 31.0969 167.596 31.3096C167.546 31.4096 167.458 31.5973 166.908 31.5973H166.632L166.545 31.6098V31.6973V32.2352V32.3228H166.632H178.278H178.366V32.2352V29.8836L178.341 29.6084V29.5208H178.253H177.753H177.678L177.69 29.5333Z" fill="black"/>
<path d="M88.8034 23.7936C88.8034 28.3218 86.1641 31.6115 82.5115 31.6115C78.859 31.6115 76.2322 28.3218 76.2322 23.7936C76.2322 19.2655 78.884 15.9757 82.5115 15.9757C86.139 15.9757 88.8034 19.2655 88.8034 23.7936ZM82.5115 15C77.4955 15 73.5553 18.8652 73.5553 23.7936C73.5553 28.722 77.408 32.5997 82.5115 32.5997C87.6151 32.5997 91.4552 28.8096 91.4552 23.7936C91.4552 18.7776 87.5275 15 82.5115 15Z" fill="black"/>
<path d="M142.603 24.035C142.603 26.0364 141.703 28.2254 140.377 29.5013C139.038 30.7772 137.275 31.3276 134.498 31.3276C132.409 31.3276 131.583 30.5896 131.583 28.7007V16.2421H132.684H132.797C133.422 16.2421 135.573 16.2796 137.225 16.855C141.19 18.231 142.603 21.4707 142.603 24.035ZM141.678 16.805C140.79 16.2296 138.851 15.2539 135.761 15.2539H128.256L127.968 15.2914H127.881V15.379V15.9044V15.9919H127.968L128.231 16.0044C129.019 16.0294 129.069 16.0795 129.069 17.593V29.6389C129.069 31.5652 128.719 31.5652 128.381 31.5652L127.968 31.6153H127.881V31.7028V32.2407V32.3408H127.981H134.685C137.15 32.3408 138.963 32.1782 140.414 31.3276C142.628 30.0642 144.993 27.3623 144.993 23.5847C144.993 20.7577 143.717 18.1559 141.665 16.805" fill="black"/>
<path d="M61.9847 15.2539L61.7095 15.2914H61.6219V15.379V15.9169V16.0044H61.7095H61.9722C62.485 16.0044 62.7853 16.0169 62.7853 17.1802V30.7897C62.7853 31.4151 62.6352 31.5652 61.9722 31.5777L61.697 31.6153H61.6219V31.7028V32.2407V32.3283H61.7095H66.1751L66.4628 32.2907H66.5379V32.2032V31.6653V31.5777H66.4503H66.1876C65.4746 31.5527 65.287 31.4401 65.2745 30.4269V24.1976H70.353C70.7158 24.1976 70.7408 24.2852 70.8033 24.4478L70.8909 24.6479L70.9159 24.698H70.9784H71.4413H71.5288V24.6104V22.8967L71.5038 22.6215V22.534H71.4037H70.9159H70.8408V22.609L70.7783 22.8217C70.7408 22.9593 70.6407 23.0093 69.9527 23.0093H69.9277H65.262V16.3922H70.303C71.3537 16.3922 71.6414 16.4923 71.8791 17.4554L71.9416 17.6931V17.7682H72.0292H72.542H72.6421V17.6806V15.354V15.2664H72.542H61.9722L61.9847 15.2539Z" fill="black"/>
<path d="M105.102 15.2539H105.015V15.3415V15.9169V16.0044H105.102H105.377C105.828 16.0044 106.215 16.0795 106.228 16.9801V24.2351C106.228 26.6994 105.965 28.5006 104.602 29.9016C103.664 30.8773 102.475 31.3276 100.862 31.3401C99.1605 31.3401 98.0722 30.8773 97.2091 29.7765C96.3085 28.6257 95.9832 27.0246 95.9707 23.6347V16.9176C95.9582 16.0294 96.2835 16.0294 96.8338 16.0169L97.109 15.9794H97.1966V15.8918V15.354V15.2664H97.0965H92.5559L92.2807 15.3039H92.1931V15.3915V15.6667L92.2431 15.9544V16.0294H92.3432H92.6184C92.6184 16.0294 92.706 16.0294 92.7435 16.0294C93.0937 16.0294 93.2313 16.1045 93.2689 16.1545C93.3939 16.2796 93.419 16.6299 93.419 17.1302V23.1094C93.444 26.6243 93.8318 29.001 95.7331 30.8147C96.9214 31.9405 98.7226 32.5659 100.799 32.5659C102.813 32.5534 104.402 31.9405 105.527 30.7397C107.166 29.001 107.491 26.9745 107.479 24.2852V17.0677C107.541 16.0169 107.866 16.0169 108.304 16.0169L108.579 15.9794H108.667V15.8918V15.354V15.2664H108.567H105.077L105.102 15.2539Z" fill="black"/>
<path d="M124.403 23.5722L124.441 28.2004L124.403 28.1629V23.5722ZM112.332 23.4471L112.295 18.7688L112.332 18.8064V23.4471ZM123.202 15.2539H123.115V15.3415V15.9169V16.0044H123.202H123.465C123.978 16.0044 124.291 16.092 124.291 17.0426V27.9878L112.37 15.2914L112.345 15.2664H112.307H109.193L108.905 15.3039H108.817V15.3915V15.6667L108.88 15.9544V16.0294H108.967H109.243C110.969 16.0294 111.106 17.4805 111.106 18.9815V30.1518C111.106 31.4026 111.106 31.5277 110.193 31.5777L109.931 31.6278H109.855V31.7153V32.2407V32.3283H109.956H113.245L113.533 32.2907H113.608V32.2032V31.6903V31.6028H113.521L113.283 31.5652C112.582 31.4902 112.42 31.4777 112.42 30.4269V18.969L125.429 32.8286L125.591 33.0037V32.7661V17.2303C125.591 16.117 125.917 16.0545 126.53 16.0294L126.805 15.9919H126.88V15.9044V15.354V15.2664H126.78H123.19L123.202 15.2539Z" fill="black"/>
</g>
<defs>
<clipPath id="clip0_2680_22039">
<rect width="119.769" height="18" fill="white" transform="translate(60.1154 15)"/>
</clipPath>
</defs>
</svg>
