<svg width="128" height="28" viewBox="0 0 128 28" fill="none" xmlns="http://www.w3.org/2000/svg">
<g clip-path="url(#clip0_2551_21139)">
<path d="M10.5761 16.3882C11.5025 18.048 13.2777 19.1091 15.1834 19.1091C17.089 19.1091 18.8642 18.048 19.7906 16.3882C19.8727 16.2412 19.8079 16.0584 19.656 15.986L18.5851 15.4761C18.4334 15.4038 18.2531 15.4695 18.1686 15.6146C17.5483 16.6803 16.4236 17.3237 15.1834 17.3237C13.9424 17.3237 12.8254 16.6713 12.1989 15.6109C12.114 15.4673 11.9349 15.4031 11.7842 15.4749L10.7108 15.986C10.5588 16.0584 10.4941 16.2412 10.5761 16.3882Z" fill="black"/>
<path fill-rule="evenodd" clip-rule="evenodd" d="M29.6214 11.9962L28.4343 11.3496C27.9132 8.79212 26.6682 6.50479 24.9214 4.70005C23.937 3.67704 22.7981 2.8181 21.5339 2.14253V1.38975C21.5339 0.994056 20.7811 0.636968 19.565 0.386041C18.4262 0.144766 16.8821 0 15.1835 0C14.5851 0 14.006 0.0193021 13.4463 0.0482551C10.7826 0.212323 8.83313 0.752783 8.83313 1.3801V2.13288C7.98385 2.58648 7.19246 3.12694 6.45896 3.7446C4.19097 5.6748 2.55994 8.32884 1.93263 11.3496L0.74555 11.9962C0.205094 12.2858 -0.0844365 12.8938 0.0217247 13.4921L1.10264 19.5626C1.2088 20.1803 1.71066 20.6435 2.32832 20.7208L4.14271 20.9428C5.12712 22.0043 6.3721 22.8343 7.81009 23.4423C9.74028 24.2627 12.0083 24.697 14.45 24.7645C14.6913 24.7742 14.9422 24.7742 15.1835 24.7742C17.0461 24.7742 18.8219 24.5715 20.4433 24.1565C22.5665 23.6064 24.4195 22.6799 25.8189 21.3481C25.983 21.1937 26.1471 21.0296 26.3015 20.8558L28.0097 20.6918C28.6467 20.6339 29.1582 20.161 29.274 19.524L30.3452 13.4825C30.4514 12.8938 30.1618 12.2858 29.6214 11.9962ZM15.1836 21.4639C11.9602 21.4639 9.31581 20.798 7.54005 19.5337C5.81251 18.308 4.97287 16.5226 4.97287 14.0809C4.97287 8.44466 9.55708 3.86042 15.1933 3.86042C20.8295 3.86042 25.4137 8.44466 25.4137 14.0809C25.4137 16.5226 24.5741 18.2984 22.8466 19.5337C21.0515 20.798 18.4071 21.4639 15.1836 21.4639Z" fill="black"/>
<path d="M41.4142 22.4292C40.1764 22.4292 39.031 22.189 37.9779 21.7086C36.9433 21.2099 36.0935 20.5171 35.4285 19.6303L37.4791 17.164C38.5506 18.6419 39.8346 19.3809 41.331 19.3809C43.3447 19.3809 44.3516 18.1893 44.3516 15.8061V5.77447V2.75391H47.9541V15.6121C47.9541 17.8845 47.3998 19.5933 46.2914 20.7387C45.183 21.8657 43.5572 22.4292 41.4142 22.4292Z" fill="black"/>
<path d="M57.2882 7.18359C59.4682 7.18359 61.1309 7.71011 62.2763 8.76316C63.4402 9.79768 64.0222 11.368 64.0222 13.4741V22.1478H60.7522V20.3466C60.3272 20.9932 59.7176 21.492 58.9232 21.843C58.1473 22.1756 57.2051 22.3418 56.0966 22.3418C54.9882 22.3418 54.0183 22.157 53.1869 21.7876C52.3556 21.3996 51.709 20.8731 51.2471 20.208C50.8037 19.5244 50.582 18.7578 50.582 17.9079C50.582 16.5778 51.0716 15.5155 52.0507 14.7211C53.0484 13.9083 54.6094 13.5018 56.734 13.5018H60.5582V13.2801C60.5582 12.2456 60.2441 11.4512 59.616 10.8969C59.0064 10.3427 58.0918 10.0656 56.8725 10.0656C56.0412 10.0656 55.2191 10.1949 54.4062 10.4535C53.6118 10.7122 52.9375 11.0725 52.3833 11.5343L51.0254 9.01255C51.8013 8.42134 52.7343 7.96873 53.8243 7.65465C54.9143 7.34057 56.0689 7.18359 57.2882 7.18359ZM56.8171 19.8201C57.6854 19.8201 58.4521 19.6261 59.1172 19.2381C59.8007 18.8317 60.2811 18.259 60.5582 17.52V15.8018H56.9834C54.9882 15.8018 53.9905 16.4577 53.9905 17.7694C53.9905 18.3976 54.2399 18.8963 54.7387 19.2658C55.2376 19.6353 55.9304 19.8201 56.8171 19.8201Z" fill="black"/>
<path d="M73.0398 22.3418C71.839 22.3418 70.6663 22.1848 69.5205 21.8707C68.3752 21.5567 67.4607 21.1595 66.7771 20.6791L68.1073 18.0465C68.7724 18.4899 69.5666 18.8502 70.4908 19.1273C71.4329 19.3859 72.3565 19.5152 73.2614 19.5152C75.3307 19.5152 76.3651 18.9703 76.3651 17.8803C76.3651 17.363 76.0974 17.0027 75.562 16.7995C75.0445 16.5963 74.2035 16.4023 73.0398 16.2176C71.8204 16.0328 70.8232 15.8204 70.047 15.5802C69.29 15.34 68.6246 14.9244 68.0519 14.3332C67.4976 13.7235 67.2205 12.8829 67.2205 11.8114C67.2205 10.4073 67.8025 9.28968 68.9665 8.45829C70.1488 7.60847 71.7378 7.18359 73.7328 7.18359C74.7485 7.18359 75.765 7.30368 76.7807 7.54378C77.7971 7.76551 78.6285 8.0703 79.2753 8.45829L77.9451 11.0909C76.6885 10.3519 75.2757 9.98246 73.7053 9.98246C72.6888 9.98246 71.9133 10.1395 71.3772 10.4535C70.8597 10.7492 70.6016 11.1463 70.6016 11.6452C70.6016 12.1993 70.8783 12.5965 71.4329 12.8367C72.0055 13.0584 72.8829 13.2709 74.0652 13.4741C75.2475 13.6588 76.2178 13.8713 76.9748 14.1115C77.7325 14.3517 78.3793 14.7581 78.9147 15.3308C79.4687 15.9035 79.746 16.7164 79.746 17.7694C79.746 19.155 79.146 20.2635 77.9451 21.0948C76.7442 21.9262 75.1091 22.3418 73.0398 22.3418Z" fill="black"/>
<path d="M90.9316 7.18359C92.3726 7.18359 93.6567 7.49761 94.784 8.12577C95.9291 8.75387 96.8251 9.64064 97.472 10.7861C98.1182 11.9315 98.4416 13.2524 98.4416 14.7488C98.4416 16.2452 98.1182 17.5754 97.472 18.7393C96.8251 19.8847 95.9291 20.7715 94.784 21.3996C93.6567 22.0277 92.3726 22.3418 90.9316 22.3418C88.9366 22.3418 87.3572 21.6768 86.1935 20.3466V27.5239H82.7292V7.34986H86.027V9.28968C86.5995 8.5876 87.3015 8.06108 88.1328 7.71011C88.9827 7.35908 89.9158 7.18359 90.9316 7.18359ZM90.5441 19.3767C91.8186 19.3767 92.8626 18.9517 93.6753 18.1019C94.5066 17.2521 94.9223 16.1344 94.9223 14.7488C94.9223 13.3632 94.5066 12.2456 93.6753 11.3958C92.8626 10.5459 91.8186 10.121 90.5441 10.121C89.7128 10.121 88.9641 10.315 88.2993 10.7029C87.6345 11.0725 87.1074 11.6082 86.72 12.3102C86.3318 13.0122 86.1378 13.8251 86.1378 14.7488C86.1378 15.6725 86.3318 16.4854 86.72 17.1875C87.1074 17.8895 87.6345 18.4344 88.2993 18.8224C88.9641 19.1919 89.7128 19.3767 90.5441 19.3767Z" fill="black"/>
<path d="M115.886 14.8319C115.886 15.0721 115.868 15.4139 115.83 15.8573H104.22C104.423 16.9473 104.949 17.8156 105.799 18.4622C106.667 19.0903 107.739 19.4044 109.013 19.4044C110.64 19.4044 111.979 18.8686 113.032 17.7971L114.888 19.9309C114.224 20.7253 113.383 21.3257 112.367 21.7322C111.35 22.1386 110.205 22.3418 108.93 22.3418C107.305 22.3418 105.873 22.0185 104.635 21.3719C103.397 20.7253 102.437 19.8293 101.753 18.6839C101.088 17.52 100.755 16.2083 100.755 14.7488C100.755 13.3078 101.079 12.0146 101.725 10.8692C102.39 9.70533 103.305 8.80004 104.469 8.15343C105.632 7.5069 106.944 7.18359 108.404 7.18359C109.845 7.18359 111.129 7.5069 112.256 8.15343C113.401 8.7816 114.288 9.6776 114.916 10.8415C115.563 11.9869 115.886 13.3171 115.886 14.8319ZM108.404 9.95473C107.295 9.95473 106.353 10.2873 105.577 10.9524C104.82 11.599 104.358 12.4672 104.191 13.5572H112.588C112.441 12.4857 111.988 11.6174 111.231 10.9524C110.473 10.2873 109.531 9.95473 108.404 9.95473Z" fill="black"/>
<path d="M122.264 9.51134C123.261 7.95951 125.016 7.18359 127.529 7.18359V10.4812C127.233 10.4258 126.965 10.3981 126.725 10.3981C125.376 10.3981 124.323 10.7953 123.566 11.5897C122.809 12.3657 122.429 13.4925 122.429 14.9705V22.1478H118.966V7.34986H122.264V9.51134Z" fill="black"/>
</g>
<defs>
<clipPath id="clip0_2551_21139">
<rect width="128" height="28" fill="white"/>
</clipPath>
</defs>
</svg>
