<svg width="240" height="48" viewBox="0 0 240 48" fill="none" xmlns="http://www.w3.org/2000/svg">
<path d="M88.4808 25.0331H79.5815C79.1768 25.0331 78.9935 25.2158 78.9935 25.5468C78.9935 26.3536 79.4362 27.1225 80.3179 27.857C81.1995 28.5914 82.1572 28.9569 83.1871 28.9569C83.7752 28.9569 84.4734 28.8465 85.2097 28.6259C85.9461 28.4052 86.5722 28.1121 87.0491 27.7811C87.4919 27.488 87.8205 27.3398 88.0799 27.3398C88.4115 27.3398 88.7402 27.5225 89.0376 27.9259C89.3692 28.3293 89.5145 28.7328 89.5145 29.1741C89.5145 30.0912 88.9616 30.936 87.8234 31.7772C85.8388 33.2806 83.5226 34.015 80.9128 34.015C78.264 34.015 76.058 33.2461 74.2567 31.7049C73.375 30.936 72.6767 30.0533 72.1238 28.9913C71.3806 27.5639 71.0139 26.0951 71.0139 24.5194C71.0139 22.4299 71.6391 20.5232 72.9254 18.8337C74.0284 17.3684 75.425 16.3029 77.1541 15.5685C78.4405 15.0168 79.8371 14.7617 81.3097 14.7617C83.6991 14.7617 85.7218 15.4203 87.4119 16.7787C88.2594 17.4373 88.9196 18.2442 89.4346 19.1992C90.0226 20.2612 90.3162 21.2886 90.3162 22.2782C90.3162 23.085 90.1329 23.7435 89.8013 24.2952C89.4346 24.7745 88.9957 25.0331 88.4808 25.0331ZM80.0965 21.5127H82.008C82.8175 21.5127 83.2222 21.1473 83.2222 20.4128C83.2222 19.7544 83.0388 19.1647 82.6341 18.7614C82.2294 18.3199 81.7525 18.1373 81.0883 18.1373C80.39 18.1373 79.8371 18.4303 79.4323 18.982C79.0656 19.4957 78.8794 20.0095 78.8794 20.5577C78.8794 20.9232 78.9515 21.1817 79.1349 21.3645C79.3251 21.4404 79.6196 21.5127 80.0965 21.5127Z" fill="black"/>
<path d="M102.307 14.582C104.513 14.582 106.353 15.1337 107.86 16.2336C108.669 16.8198 109.222 17.4818 109.551 18.2507C109.879 19.0195 110.028 20.047 110.028 21.3676L109.99 24.1535C109.99 26.0982 110.139 27.3429 110.394 27.929C110.542 28.2221 110.65 28.3703 110.799 28.4427C110.909 28.5151 111.204 28.591 111.607 28.6634C112.012 28.7358 112.196 28.9944 112.196 29.4702C112.196 30.0563 111.94 30.7183 111.459 31.339C110.982 31.9976 110.356 32.5492 109.585 32.9906C108.627 33.5422 107.635 33.8353 106.608 33.8353C105.284 33.8353 104.254 33.394 103.483 32.4768C103.227 32.1458 102.968 32.001 102.746 32.001C102.491 32.001 102.158 32.1492 101.754 32.4768C100.502 33.394 99.0715 33.8353 97.4877 33.8353C95.8317 33.8353 94.5112 33.4698 93.4804 32.7733C92.8201 32.2975 92.3052 31.7113 91.9005 30.939C91.4957 30.2046 91.3124 29.3978 91.3124 28.591C91.3124 27.2704 91.8283 26.1326 92.8933 25.1431C94.5493 23.5674 97.0108 22.7605 100.285 22.7605C101.021 22.7605 101.46 22.6882 101.647 22.5398C101.831 22.3916 101.941 22.064 101.941 21.5503C101.941 20.2297 101.792 19.2402 101.536 18.654C101.242 18.0679 100.8 17.7748 100.175 17.7748C99.8078 17.7748 99.4753 17.8851 99.1817 18.1058C98.8882 18.3265 98.5215 18.7299 98.0787 19.354C96.9757 20.9297 95.8005 21.7365 94.5873 21.7365C93.9612 21.7365 93.4843 21.5537 93.0795 21.1848C92.6748 20.8194 92.4915 20.34 92.4915 19.7539C92.4915 19.1678 92.748 18.5437 93.2278 17.9576C93.7057 17.3715 94.3688 16.8198 95.2124 16.3819C97.4536 15.1682 99.8078 14.582 102.307 14.582ZM101.021 25.4706C100.468 25.4706 99.9912 25.6913 99.5865 26.1292C99.1817 26.5671 98.9603 27.1188 98.9603 27.7428C98.9603 28.329 99.1096 28.8427 99.4031 29.2082C99.6967 29.5737 100.063 29.7599 100.544 29.7599C101.536 29.7599 102.052 28.9151 102.052 27.2291C102.052 26.5325 101.979 26.0912 101.831 25.8361C101.719 25.6189 101.426 25.4706 101.021 25.4706Z" fill="black"/>
<path d="M120.989 14.6043C121.615 14.6043 122.644 14.7526 124.076 15.0077C124.37 15.0456 124.591 15.0802 124.774 15.0802C124.996 15.0802 125.401 14.9698 126.026 14.7492C126.32 14.6388 126.58 14.5664 126.762 14.5664C127.35 14.5664 127.938 14.9319 128.529 15.6663C129.006 16.2524 129.411 16.9144 129.704 17.611C129.999 18.3074 130.147 18.9315 130.147 19.4452C130.147 19.959 129.964 20.3624 129.632 20.6934C129.266 21.0244 128.823 21.2071 128.308 21.2071C127.865 21.2071 127.461 21.0968 127.133 20.8761C126.8 20.6554 126.213 20.1796 125.477 19.4832C124.667 18.7143 124.007 18.3109 123.492 18.3109C123.125 18.3109 122.832 18.4591 122.572 18.7143C122.316 18.9694 122.168 19.266 122.168 19.6314C122.168 20.2555 122.756 20.8038 123.934 21.3554C126.068 22.3104 127.686 23.3344 128.827 24.4723C129.784 25.4274 130.261 26.5997 130.261 27.9547C130.261 29.7166 129.491 31.144 127.945 32.3198C126.621 33.3473 125.003 33.861 123.09 33.861C122.613 33.861 121.694 33.7886 120.407 33.6059C119.194 33.4576 118.496 33.3852 118.348 33.3852C118.198 33.3852 117.981 33.4231 117.794 33.4576C117.428 33.4956 117.168 33.53 116.985 33.53C116.397 33.53 115.92 33.3817 115.589 33.0887C115.073 32.6128 114.596 31.8785 114.153 30.8889C113.711 29.8993 113.493 29.0201 113.493 28.3237C113.493 27.1858 113.935 26.5997 114.855 26.5997C115.222 26.5997 115.515 26.71 115.813 26.9307C116.106 27.1513 116.732 27.7754 117.686 28.7995C118.202 29.3511 118.644 29.7166 118.973 29.9372C119.301 30.1579 119.671 30.2304 120.076 30.2304C120.48 30.2304 120.812 30.12 121.068 29.8994C121.324 29.6787 121.434 29.3856 121.434 29.0201C121.434 28.4685 120.957 27.9581 119.965 27.4789C117.943 26.4893 116.473 25.4619 115.589 24.3999C114.707 23.338 114.226 22.1277 114.226 20.7313C114.226 19.228 114.669 17.9454 115.589 16.88C116.905 15.4112 118.706 14.6043 120.989 14.6043Z" fill="black"/>
<path d="M149.813 23.9364L147.314 30.7563C146.688 32.4424 146.062 33.8353 145.44 34.9008C144.814 35.9627 144.116 36.8799 143.307 37.6522C141.688 39.1935 139.704 40.0002 137.387 40.0002C135.514 40.0002 134.006 39.5245 132.865 38.5349C131.983 37.766 131.541 36.8109 131.541 35.6731C131.541 34.718 131.835 33.9112 132.46 33.2527C133.086 32.5941 133.858 32.2631 134.74 32.2631C135.659 32.2631 136.357 32.5562 136.945 33.1802C137.201 33.4733 137.387 33.694 137.46 33.9147C137.533 34.1353 137.682 34.6111 137.864 35.3077C138.013 35.8593 138.307 36.1523 138.822 36.1523C139.227 36.1523 139.521 35.9697 139.815 35.6387C140.108 35.3077 140.22 34.8698 140.22 34.3904C140.22 33.8043 139.887 32.8148 139.227 31.4218L134.663 21.7745C134.186 20.7849 133.816 20.1609 133.598 19.9057C133.342 19.6506 132.827 19.354 132.019 18.9886C131.762 18.8783 131.541 18.6955 131.358 18.4025C131.175 18.1094 131.102 17.8162 131.102 17.5577C131.102 16.4578 132.205 15.6889 134.449 15.2856C135.919 15.0303 137.613 14.8821 139.524 14.8821C140.849 14.8821 141.914 15.0303 142.688 15.2856C143.718 15.651 144.234 16.275 144.234 17.1542C144.234 17.4852 144.084 17.8508 143.791 18.2541C143.497 18.6576 143.386 19.023 143.386 19.3161C143.386 19.6092 143.459 19.9403 143.57 20.2713C143.718 20.6023 143.974 21.1504 144.417 21.9228C144.894 22.8019 145.299 23.2433 145.668 23.2433C146.073 23.2433 146.477 22.8399 146.881 22.071C147.286 21.3021 147.508 20.5677 147.508 19.8334C147.508 19.2471 147.358 18.7714 147.031 18.4404C146.553 17.8887 146.294 17.3785 146.294 16.975C146.294 16.3509 146.736 15.8371 147.58 15.4338C148.427 15.0683 149.564 14.8477 150.999 14.8477C153.682 14.8477 155.006 15.4717 155.006 16.7543C155.006 17.2301 154.858 17.5991 154.602 17.8921C154.346 18.1852 153.831 18.4438 153.133 18.6989C152.545 18.9196 152.068 19.2851 151.698 19.8368C151.173 20.6023 150.546 21.9952 149.813 23.9364Z" fill="black"/>
<path d="M162.569 12C163.441 12 164.267 12.1621 165.048 12.4828C165.826 12.8033 166.525 13.2723 167.143 13.886C167.738 14.4791 168.191 15.1618 168.509 15.9341C168.827 16.7099 168.986 17.5271 168.986 18.3924C168.986 19.2682 168.827 20.0889 168.509 20.8543C168.191 21.6197 167.731 22.2955 167.126 22.8816C166.493 23.4953 165.784 23.9678 165.003 24.2953C164.222 24.6228 163.413 24.7883 162.573 24.7883C161.729 24.7883 160.92 24.6263 160.143 24.3022C159.364 23.9781 158.669 23.5057 158.054 22.8851C157.442 22.2817 156.979 21.5955 156.657 20.8232C156.335 20.0509 156.176 19.2441 156.176 18.3959C156.176 17.5442 156.342 16.7271 156.675 15.9444C157.006 15.1618 157.483 14.4583 158.105 13.8378C158.693 13.2412 159.367 12.7862 160.128 12.4724C160.889 12.1552 161.701 12 162.569 12ZM168.212 18.4373C168.212 17.6684 168.073 16.9374 167.793 16.2513C167.514 15.5651 167.116 14.9583 166.59 14.4308C166.044 13.8929 165.432 13.4826 164.748 13.2034C164.066 12.9241 163.334 12.7826 162.555 12.7826C161.788 12.7826 161.072 12.9206 160.405 13.1895C159.738 13.4585 159.147 13.8584 158.628 14.379C158.082 14.9307 157.663 15.5479 157.373 16.2375C157.082 16.9271 156.937 17.6477 156.937 18.3993C156.937 19.1338 157.079 19.8406 157.362 20.5198C157.646 21.1991 158.057 21.8093 158.59 22.3541C159.119 22.8885 159.72 23.2954 160.401 23.5781C161.079 23.8609 161.792 24.0022 162.535 24.0022C163.296 24.0022 164.018 23.8609 164.71 23.5815C165.397 23.3023 166.017 22.8919 166.569 22.3541C167.098 21.8335 167.503 21.237 167.783 20.5646C168.07 19.8923 168.212 19.1855 168.212 18.4373ZM162.742 14.6342C163.775 14.6342 164.547 14.7997 165.048 15.1307C165.549 15.4617 165.802 15.9651 165.802 16.6444C165.802 17.1615 165.646 17.5925 165.339 17.9374C165.031 18.2821 164.612 18.5028 164.084 18.5958L165.722 21.9438H164.354L162.818 18.7683H161.255V21.9438H160.025V14.6342H162.742ZM162.517 15.4376H161.262V17.9684H162.552C163.267 17.9684 163.775 17.8718 164.08 17.6821C164.381 17.4891 164.533 17.1788 164.533 16.7443C164.533 16.2858 164.374 15.9548 164.056 15.7479C163.737 15.5375 163.226 15.4376 162.517 15.4376Z" fill="black"/>
</svg>
