<svg width="240" height="48" viewBox="0 0 240 48" fill="none" xmlns="http://www.w3.org/2000/svg">
<path d="M86.6874 16.0004L80.8361 32H77.1102L72.9061 19.9316L68.6537 32H64.9739L59.1233 16.0004H62.9628L66.8942 27.8397L71.1684 16.0004H74.7106L78.9619 27.8397L82.9161 16.0004H86.6874Z" fill="black"/>
<path d="M98.5961 25.6459L95.2823 19.1324L91.9674 25.6459H98.5961ZM100.127 28.6174H90.4595L88.7454 32H84.8369L93.3166 16.0011H97.3159L105.795 32H101.841L100.127 28.6174Z" fill="black"/>
<path d="M121.286 19.1545H114.292V32H110.635V19.1545H103.688V16.0004H121.286V19.1545Z" fill="black"/>
<path d="M140.274 28.937V32H123.794V16.0004H140.045V19.063H127.429V22.3537H137.965V25.4168H127.429V28.937H140.274Z" fill="black"/>
<path d="M154.256 23.5429C156.176 23.5429 157.592 23.0854 157.592 21.303C157.592 19.5202 156.176 19.0627 154.256 19.0627H147.033V23.5429H154.256ZM157.433 32L152.839 26.5602H147.056V32H143.421V16H154.462C158.369 16 161.318 17.8057 161.318 21.2804C161.318 24 159.512 25.6909 156.861 26.3089L161.798 32H157.433Z" fill="black"/>
<path d="M165.975 16.0004L171.369 23.4968L176.739 16.0004H180.877L173.174 26.5373V32H169.518V26.5373L161.816 16.0004H165.975Z" fill="black"/>
</svg>
