<svg width="240" height="48" viewBox="0 0 240 48" fill="none" xmlns="http://www.w3.org/2000/svg">
<path d="M111.34 15.377H102.668V32.6712H107.059V26.3285C107.059 26.3285 113.337 26.6797 115.105 24.3423C116.422 22.839 116.499 20.4358 115.961 18.5703C115.236 16.4634 113.656 15.377 111.351 15.388L111.34 15.377ZM111.845 23.1682C110.813 24.3753 108.552 24.3643 107.037 24.2655L107.048 17.3303C107.048 17.3303 110.955 16.7816 111.987 18.5483C112.58 19.6128 112.723 21.994 111.845 23.1572V23.1682ZM74.481 35.4804C72.4964 34.5765 70.7407 33.2376 69.3441 31.5629C67.6537 29.6425 63.6364 24.2436 63.6364 24.2436C61.5509 21.577 58.7848 17.1437 56.0408 14.9161V32.6273H58.4885V23.6949C60.2118 25.8896 62.2204 28.6879 63.7462 30.4546C64.4047 31.2556 66.128 33.1102 66.622 33.5272C69.7722 36.5778 75.5567 37.9605 80.3863 36.2705V36.095C78.7399 36.4571 76.5885 36.3144 74.481 35.4804ZM59.5532 16.4195C61.2326 18.3398 65.2609 23.7388 65.2609 23.7388C67.3464 26.4163 70.1124 30.8387 72.8565 33.0663V15.3551H70.4088V24.2985C68.6855 22.1038 66.6659 19.3055 65.1402 17.5388C64.2352 16.4691 63.2791 15.4437 62.2753 14.4662C59.1141 11.4046 53.3296 10.0439 48.5 11.7338V11.8984C50.4855 11.5265 52.5361 11.7361 54.4053 12.5019C56.3918 13.4078 58.1479 14.7507 59.5422 16.4305L59.5532 16.4195ZM87.1917 17.3083V15.377H75.3372V32.6712H87.2136L87.2026 30.7289C84.9195 30.7948 82.0657 31.1459 79.7277 30.9155V24.7154C81.6266 24.6057 83.9207 24.6496 85.6879 24.8142V22.7622C83.8987 22.9816 81.6376 22.9707 79.7277 22.85V17.1437C82.0657 16.8913 84.9195 17.2754 87.1917 17.3083ZM99.4632 24.2655C97.4655 22.5427 95.0178 21.994 93.3165 20.8199C92.1091 19.8981 92.2847 18.691 92.8994 18.0436C94.3373 16.4414 97.3558 17.1986 98.0582 17.3632C98.9473 17.6266 99.4193 17.9119 100.275 18.285V16.1122C96.6752 15.0697 90.9126 14.0712 88.6405 17.6814C87.8173 19.1629 87.5978 21.8514 90.0016 23.4206C92.4164 25.3409 96.4008 26.2627 96.8948 27.81C97.2021 28.6549 96.8289 29.456 96.2581 30.0376C94.1068 32.0238 90.6602 30.7838 88.432 29.7962V31.936C90.8468 33.0114 93.8872 33.2857 96.5984 32.7041C98.4534 32.2981 100.528 30.6631 100.857 28.6549C101.197 26.6797 100.78 25.3739 99.4632 24.2655ZM132.228 31.7604L131.69 30.7509C130.573 28.7086 129.548 26.618 128.616 24.485C128.726 24.4082 128.693 24.4411 128.99 24.2985C130.603 23.5303 131.657 22.1586 131.635 19.7664C131.558 16.8255 128.869 15.377 126.52 15.377H117.728V32.6712H122.14V25.5275H124.665C125.687 27.4796 126.625 29.475 127.475 31.508L127.991 32.6712H132.711L132.283 31.8592L132.228 31.7604ZM126.772 22.4769C125.741 23.7278 123.589 23.6291 122.107 23.6291V17.2974C122.107 17.2974 125.883 16.7267 126.926 18.5374C127.464 19.5579 127.53 21.4563 126.772 22.4878V22.4769ZM182.894 15.1246C181.753 15.1136 174.311 15.2343 174.278 23.9583C174.278 32.6273 181.632 32.9565 182.894 32.9565C184.168 32.9565 191.522 32.6273 191.5 23.9583C191.489 15.2343 184.058 15.1136 182.894 15.1246ZM182.927 30.5424H182.862C182.379 30.5424 178.833 30.696 178.855 23.6291C178.877 17.0669 182.335 17.2535 182.905 17.2535C183.476 17.2535 186.923 17.0669 186.956 23.6181C186.978 30.696 183.421 30.5424 182.927 30.5424ZM158.362 24.2655C156.354 22.5427 153.917 21.994 152.205 20.8199C150.997 19.8981 151.184 18.691 151.798 18.0436C153.236 16.4414 156.255 17.1986 156.957 17.3632C157.835 17.6266 158.318 17.9119 159.164 18.285V16.1122C155.574 15.0697 149.812 14.0712 147.54 17.6814C146.705 19.1629 146.497 21.8514 148.89 23.4206C151.316 25.3409 155.289 26.2627 155.783 27.81C156.09 28.6549 155.717 29.456 155.146 30.0376C152.995 32.0238 149.548 30.7838 147.32 29.7962V31.936C149.735 33.0114 152.775 33.2857 155.487 32.7041C157.353 32.2981 159.416 30.6631 159.756 28.6549C160.086 26.6797 159.679 25.3739 158.362 24.2655ZM171.83 24.2655C169.833 22.5427 167.396 21.994 165.684 20.8199C164.476 19.8981 164.652 18.691 165.266 18.0436C166.693 16.4414 169.723 17.1986 170.425 17.3632C171.314 17.6266 171.797 17.9119 172.643 18.285V16.1122C169.042 15.0697 163.291 14.0712 161.008 17.6814C160.173 19.1629 159.954 21.8514 162.369 23.4206C164.794 25.3409 168.768 26.2627 169.251 27.81C169.569 28.6549 169.207 29.456 168.614 30.0376C166.474 32.0238 163.016 30.7838 160.799 29.7962L160.788 31.936C163.203 33.0114 166.254 33.2857 168.955 32.7041C170.82 32.2981 172.895 30.6631 173.235 28.6549C173.565 26.6797 173.147 25.3739 171.83 24.2655ZM134.17 32.6712H146.036V30.7179C143.753 30.7838 140.899 31.1349 138.561 30.9045V24.7045C140.46 24.5947 142.765 24.6386 144.532 24.8032V22.7512C142.721 22.9707 140.471 22.9597 138.55 22.839V17.1328C140.899 16.8804 143.753 17.2644 146.036 17.2974V15.377H134.17V32.6712Z" fill="black"/>
</svg>
