<svg width="48" height="48" viewBox="0 0 48 48" fill="none" xmlns="http://www.w3.org/2000/svg">
<g clip-path="url(#clip0_1826_48318)">
<path d="M38.2223 23.9996C38.2223 31.8594 31.8599 38.2218 24.0001 38.2218V23.9996H38.2223ZM24.0001 9.77734V23.9996H9.77783C9.77783 16.1397 16.1402 9.77734 24.0001 9.77734Z" fill="black"/>
<path d="M24.0001 9.77734C31.8599 9.77734 38.2223 16.1397 38.2223 23.9996H24.0001V9.77734ZM9.77783 23.9996H24.0001V38.2218C16.1402 38.2218 9.77783 31.8594 9.77783 23.9996Z" fill="white"/>
<path d="M24 9.77778V10.5576C31.4115 10.5576 37.4424 16.5871 37.4424 24H38.2222C38.2222 16.1458 31.8542 9.77778 24 9.77778ZM24 37.4424C16.5885 37.4424 10.5576 31.4129 10.5576 24H9.77778C9.77778 31.8542 16.1458 38.2222 24 38.2222M24 0C10.7455 0 0 10.7455 0 24C0 37.2545 10.7455 48 24 48C37.2545 48 48 37.2545 48 24C48 10.7455 37.2545 0 24 0ZM46.4393 24C46.4393 36.3923 36.3937 46.4393 24 46.4393C11.6063 46.4393 1.56068 36.3923 1.56068 24C1.56068 11.6077 11.6077 1.56068 24 1.56068C36.3923 1.56068 46.4393 11.6077 46.4393 24Z" fill="black"/>
<path d="M13.7437 12.4238C14.5106 11.6215 14.9448 10.6947 14.1779 9.80984C13.7606 9.32961 13.0599 9.22461 12.4791 9.46122L12.4213 9.48362L12.4396 9.43322C12.5256 9.20501 12.5806 8.47696 11.956 7.97434C11.6515 7.72932 11.2695 7.63832 10.8832 7.67752C10.1628 7.75032 9.60873 8.23895 8.10025 9.90925C7.64488 10.4133 6.98228 11.2085 6.58472 11.7238L10.7281 15.6272C12.1013 14.1179 12.6609 13.5565 13.7437 12.4238ZM8.33709 11.4689C9.17169 10.4553 10.0585 9.53543 10.4602 9.1714C10.5871 9.0566 10.7253 8.94179 10.8931 8.89699C11.1651 8.82278 11.4457 9.0146 11.5091 9.29181C11.5726 9.57043 11.3964 9.83504 11.2004 10.0535C10.7591 10.5477 9.14068 12.2292 9.14068 12.2292L8.33709 11.4689ZM9.95977 12.9978C9.95977 12.9978 11.5359 11.3429 12.0505 10.8137C12.2549 10.6037 12.386 10.4763 12.527 10.4077C12.7089 10.3195 12.9077 10.3013 13.0853 10.4189C13.2601 10.5351 13.3405 10.7353 13.2968 10.9341C13.2446 11.1707 13.05 11.3961 12.8893 11.5683C12.6722 11.7994 10.8028 13.7861 10.8 13.7889L9.95977 12.9978ZM24.4736 7.76852L25.8002 4.81715L25.8848 4.55534L25.8609 4.82835L26.0004 8.77238C26.4657 8.81578 26.9464 8.88019 27.4201 8.95859L27.2044 3.11745C26.5418 3.04465 25.882 2.99285 25.2222 2.96484L23.9153 6.18643L23.8688 6.42585L23.8223 6.18643L22.5168 2.96484C21.857 2.99285 21.1973 3.04465 20.5347 3.11745L20.319 8.95859C20.7926 8.88019 21.2734 8.81718 21.7386 8.77238L21.8782 4.82835L21.8542 4.55534L21.9388 4.81715L23.2654 7.76852H24.4736ZM35.4912 13.8743C35.8169 14.2215 36.2863 14.7815 36.5499 15.1218L41.4053 12.0612C41.1628 11.7462 40.7765 11.2673 40.4875 10.9299L37.4127 12.9488L37.2027 13.128L37.3592 12.9012L38.7168 10.2103L37.7567 9.25681L35.0457 10.6051L34.8173 10.7605L34.9992 10.5519L37.0335 7.49971C36.6754 7.19729 36.3314 6.92007 35.893 6.58405L32.8112 11.4017C33.2017 11.7 33.7163 12.1382 34.0447 12.4364L36.9461 10.9411L37.1322 10.8053L36.9954 10.9901L35.4912 13.8743Z" fill="black"/>
</g>
<defs>
<clipPath id="clip0_1826_48318">
<rect width="48" height="48" fill="white"/>
</clipPath>
</defs>
</svg>
