<svg width="240" height="48" viewBox="0 0 240 48" fill="none" xmlns="http://www.w3.org/2000/svg">
<path d="M113.51 33.6172V9.99939H117.272V33.6172H113.51Z" fill="black"/>
<path d="M121.807 33.6172V9.99939H125.568V33.6172H121.807Z" fill="black"/>
<path d="M132.402 26.227C132.402 26.7753 132.499 27.3233 132.693 27.8716C132.878 28.3893 133.149 28.8415 133.507 29.2273C133.865 29.613 134.3 29.9225 134.812 30.1561C135.303 30.3793 135.871 30.4913 136.516 30.4913C137.171 30.4913 137.744 30.3793 138.236 30.1561C138.747 29.9225 139.182 29.613 139.541 29.2273C139.899 28.8415 140.17 28.3893 140.354 27.8716C140.549 27.3233 140.646 26.7753 140.646 26.227C140.646 25.6581 140.549 25.1098 140.354 24.5817C140.17 24.0846 139.899 23.6326 139.541 23.2265C139.203 22.8508 138.767 22.5413 138.236 22.2977C137.713 22.0641 137.14 21.9475 136.516 21.9475C135.902 21.9475 135.334 22.0641 134.812 22.2977C134.28 22.5413 133.845 22.8508 133.507 23.2265C133.149 23.6326 132.878 24.0846 132.693 24.5817C132.499 25.1098 132.402 25.6581 132.402 26.227ZM128.563 26.227C128.563 25.1274 128.768 24.1089 129.178 23.1725C129.597 22.2052 130.165 21.3752 130.882 20.6828C131.598 19.9806 132.442 19.4309 133.415 19.0336C134.387 18.6365 135.421 18.4377 136.516 18.4377C137.632 18.4377 138.671 18.6365 139.633 19.0336C140.595 19.4309 141.439 19.9806 142.166 20.6828C142.882 21.3752 143.45 22.2052 143.87 23.1725C144.279 24.1089 144.484 25.1274 144.484 26.227C144.484 27.314 144.279 28.3247 143.87 29.2604C143.46 30.2052 142.892 31.0282 142.166 31.7289C141.449 32.4203 140.605 32.9739 139.633 33.3907C138.681 33.7969 137.642 34 136.516 34C135.4 34 134.367 33.7969 133.415 33.3907C132.442 32.9739 131.598 32.4203 130.882 31.7289C130.165 31.0282 129.597 30.2052 129.178 29.2604C128.768 28.3247 128.563 27.314 128.563 26.227Z" fill="black"/>
<path d="M164.238 18.7718L160.707 26.3703L160.695 26.3667L157.127 18.3956H156.314L152.749 26.3667L152.736 26.3703L149.205 18.7718H145.444L152.231 33.6172H152.673H153.044L156.722 26.3675L160.397 33.6172H160.77H161.21L168 18.7718H164.238Z" fill="black"/>
<path d="M90.7948 18.7718L87.2638 26.3703L87.2513 26.3667L83.6842 18.3956H82.8712L79.3053 26.3667L79.2928 26.3703L75.7619 18.7718H72.0005L78.7877 33.6172H79.2299H79.6007L83.2783 26.3675L86.9542 33.6172H87.3267H87.7671L94.5564 18.7718H90.7948Z" fill="black"/>
<path d="M99.3545 24.8458H106.739C106.718 24.538 106.631 24.199 106.478 23.8288C106.324 23.4691 106.094 23.1355 105.787 22.8268C105.48 22.5188 105.096 22.2725 104.636 22.0875C104.175 21.9023 103.632 21.8098 103.008 21.8098C102.404 21.8098 101.877 21.9023 101.427 22.0875C101.018 22.262 100.649 22.5038 100.321 22.8118C100.025 23.0993 99.7943 23.428 99.6308 23.7983C99.4564 24.1884 99.3646 24.538 99.3545 24.8458ZM95.5164 26.1583C95.5164 25.07 95.7053 24.068 96.0842 23.1526C96.4732 22.2165 96.9952 21.3982 97.6501 20.6959C98.2848 20.0146 99.0728 19.4653 100.014 19.048C100.925 18.6413 101.923 18.4377 103.008 18.4377C104.052 18.4377 105.019 18.6263 105.91 19.0025C106.851 19.3992 107.65 19.9232 108.305 20.5738C108.97 21.2352 109.507 22.0491 109.917 23.0149C110.316 23.9613 110.516 25.0087 110.516 26.1583V26.7376C110.516 26.9006 110.505 27.1753 110.485 27.562H99.3545C99.4258 27.8786 99.5792 28.2312 99.8148 28.6201C100.05 28.998 100.342 29.3203 100.69 29.5859C101.079 29.8825 101.504 30.1177 101.964 30.2913C102.435 30.4752 102.983 30.5674 103.607 30.5674C104.252 30.5674 104.932 30.4553 105.649 30.2303C106.365 30.0052 107.025 29.6164 107.629 29.0647L109.518 31.8741C108.883 32.3903 108.064 32.8714 107.061 33.3165C106.038 33.7723 104.866 34 103.546 34C102.399 34 101.345 33.8018 100.383 33.4052C99.4208 33.0086 98.5713 32.4541 97.8345 31.7418C97.1179 31.0406 96.5498 30.2062 96.1305 29.2397C95.7209 28.2942 95.5164 27.267 95.5164 26.1583Z" fill="black"/>
</svg>
