<svg width="81" height="32" viewBox="0 0 81 32" fill="none" xmlns="http://www.w3.org/2000/svg">
<mask id="mask0_0_1155" style="mask-type:alpha" maskUnits="userSpaceOnUse" x="0" y="0" width="81" height="32">
<g clip-path="url(#clip0_0_1155)">
<path fill-rule="evenodd" clip-rule="evenodd" d="M61.1264 21.0372C61.1264 22.23 62.0014 23.224 63.1097 23.224C64.2181 23.224 65.0931 22.23 65.0931 21.0372V13.8804H68.5347V21.8324C68.5347 24.4831 66.0847 26.6699 63.0514 26.6699C60.0181 26.6699 57.5681 24.4831 57.5681 21.8324V13.8804H61.0681V21.0372H61.1264ZM76.4097 26.206H79.9097V5.33203H76.4097V26.206ZM70.5181 26.206H74.0181V5.33203H70.5181V26.206ZM6.46806 9.70563H4.54306V26.206H0.809723V6.32603H7.22639C10.1431 6.32603 12.4764 8.9767 12.4764 12.2238C12.4764 14.9407 10.7847 17.3263 8.45139 17.9227L13.5847 26.2723H9.20972L5.47639 19.7782V15.007H6.35139C7.75139 15.007 8.85972 13.8142 8.85972 12.4226C8.85972 10.8984 7.80972 9.70563 6.46806 9.70563Z" fill="#D2003C"/>
<path fill-rule="evenodd" clip-rule="evenodd" d="M16.9092 18.5854C16.8509 17.26 17.7259 16.0672 18.9509 16.001C20.1175 15.9347 21.1675 16.9287 21.2259 18.3203C21.2259 18.3866 21.2259 18.5191 21.2259 18.5854H16.9092ZM24.6092 20.8384C24.6092 20.5734 24.6675 20.3083 24.6675 19.977C24.7259 15.6696 22.2175 13.284 19.0092 13.284C15.8009 13.284 13.2342 16.266 13.2342 19.9107C13.2342 23.5554 15.8009 26.5374 19.0092 26.5374C21.4592 26.5374 23.3259 25.2783 24.3175 23.3566L21.4592 21.8324C21.0509 22.7602 20.1759 23.3566 19.2425 23.3566C17.9009 23.3566 16.8509 22.23 16.8509 20.9047V20.7722C16.9092 20.8384 24.6092 20.8384 24.6092 20.8384ZM32.5425 23.1578C31.1425 23.1578 29.9759 21.6999 29.9759 19.977C29.9759 18.1878 31.1425 16.7962 32.5425 16.7962C33.9425 16.7962 35.1092 18.254 35.1092 19.977C35.1092 21.7662 33.9425 23.1578 32.5425 23.1578ZM38.5509 26.206V5.33203H35.0509V15.2058C34.1175 14.1455 32.8342 13.5491 31.5509 13.5491C28.6925 13.5491 26.3009 16.4648 26.3009 20.0432C26.3009 23.6216 28.6342 26.5374 31.5509 26.5374C32.8925 26.5374 34.1759 25.8747 35.1092 24.8144V26.206H38.5509ZM50.4509 22.7602H47.1259V9.70563H49.4592C50.5092 9.70563 51.3259 10.7659 51.3259 11.9587C51.3259 13.1515 50.5092 14.0792 49.4592 14.0792H48.2342V17.6576H50.4509C51.6759 17.6576 52.6092 18.7842 52.6092 20.1758V20.242C52.5509 21.6336 51.7925 22.6939 50.4509 22.7602ZM53.3675 15.4046C54.3592 14.4106 54.8842 13.019 54.8842 11.5611C54.8842 10.2358 54.4175 8.9767 53.6009 7.9827C52.7842 6.92243 51.2675 6.3923 49.2842 6.3923H43.3342V26.2723H51.0925C54.0675 26.206 56.4592 23.6879 56.4592 20.5734C56.4009 18.254 55.7009 16.6636 53.3675 15.4046Z" fill="#D2003C"/>
</g>
</mask>
<g mask="url(#mask0_0_1155)">
<rect x="0.400543" y="0.0959473" width="79.9167" height="31.808" fill="black"/>
</g>
<defs>
<clipPath id="clip0_0_1155">
<rect width="79.9167" height="31.808" fill="white" transform="translate(0.400543 0.0959473)"/>
</clipPath>
</defs>
</svg>
