<svg width="80" height="32" viewBox="0 0 80 32" fill="none" xmlns="http://www.w3.org/2000/svg">
<mask id="mask0_2365_19917" style="mask-type:alpha" maskUnits="userSpaceOnUse" x="0" y="0" width="80" height="32">
<g clip-path="url(#clip0_2365_19917)">
<path fill-rule="evenodd" clip-rule="evenodd" d="M60.7259 20.9396C60.7259 22.1324 61.6009 23.1264 62.7092 23.1264C63.8175 23.1264 64.6925 22.1324 64.6925 20.9396V13.7828H68.1342V21.7348C68.1342 24.3854 65.6842 26.5722 62.6509 26.5722C59.6175 26.5722 57.1675 24.3854 57.1675 21.7348V13.7828H60.6675V20.9396H60.7259ZM76.0092 26.1084H79.5092V5.23438H76.0092V26.1084ZM70.1175 26.1084H73.6175V5.23438H70.1175V26.1084ZM6.06751 9.60797H4.14251V26.1084H0.40918V6.22838H6.82585C9.74251 6.22838 12.0758 8.87904 12.0758 12.1261C12.0758 14.843 10.3842 17.2286 8.05085 17.825L13.1842 26.1746H8.80918L5.07585 19.6805V14.9093H5.95085C7.35085 14.9093 8.45918 13.7165 8.45918 12.3249C8.45918 10.8008 7.40918 9.60797 6.06751 9.60797Z" fill="#D2003C"/>
<path fill-rule="evenodd" clip-rule="evenodd" d="M16.5085 18.4877C16.4502 17.1624 17.3252 15.9696 18.5502 15.9033C19.7168 15.837 20.7668 16.831 20.8252 18.2226C20.8252 18.2889 20.8252 18.4214 20.8252 18.4877H16.5085ZM24.2085 20.7408C24.2085 20.4757 24.2668 20.2106 24.2668 19.8793C24.3252 15.572 21.8168 13.1864 18.6085 13.1864C15.4002 13.1864 12.8335 16.1684 12.8335 19.813C12.8335 23.4577 15.4002 26.4397 18.6085 26.4397C21.0585 26.4397 22.9252 25.1806 23.9168 23.2589L21.0585 21.7348C20.6502 22.6625 19.7752 23.2589 18.8418 23.2589C17.5002 23.2589 16.4502 22.1324 16.4502 20.807V20.6745C16.5085 20.7408 24.2085 20.7408 24.2085 20.7408ZM32.1418 23.0601C30.7418 23.0601 29.5752 21.6022 29.5752 19.8793C29.5752 18.0901 30.7418 16.6985 32.1418 16.6985C33.5418 16.6985 34.7085 18.1564 34.7085 19.8793C34.7085 21.6685 33.5418 23.0601 32.1418 23.0601ZM38.1502 26.1084V5.23438H34.6502V15.1081C33.7168 14.0478 32.4335 13.4514 31.1502 13.4514C28.2918 13.4514 25.9002 16.3672 25.9002 19.9456C25.9002 23.524 28.2335 26.4397 31.1502 26.4397C32.4918 26.4397 33.7752 25.777 34.7085 24.7168V26.1084H38.1502ZM50.0502 22.6625H46.7252V9.60798H49.0585C50.1085 9.60798 50.9252 10.6682 50.9252 11.861C50.9252 13.0538 50.1085 13.9816 49.0585 13.9816H47.8335V17.56H50.0502C51.2752 17.56 52.2085 18.6865 52.2085 20.0781V20.1444C52.1502 21.536 51.3918 22.5962 50.0502 22.6625ZM52.9668 15.3069C53.9585 14.3129 54.4835 12.9213 54.4835 11.4634C54.4835 10.1381 54.0168 8.87904 53.2002 7.88504C52.3835 6.82478 50.8668 6.29464 48.8835 6.29464H42.9335V26.1746H50.6918C53.6668 26.1084 56.0585 23.5902 56.0585 20.4757C56.0002 18.1564 55.3002 16.566 52.9668 15.3069Z" fill="#D2003C"/>
</g>
</mask>
<g mask="url(#mask0_2365_19917)">
<rect width="79.9167" height="31.808" fill="black"/>
</g>
<defs>
<clipPath id="clip0_2365_19917">
<rect width="79.9167" height="31.808" fill="white"/>
</clipPath>
</defs>
</svg>
