<svg width="175" height="28" viewBox="0 0 175 28" fill="none" xmlns="http://www.w3.org/2000/svg">
<g clip-path="url(#clip0_2365_19946)">
<path d="M14.2096 23.0724C9.20125 23.0724 5.15383 18.9891 5.15383 14.0016V6.47656C5.15383 4.58073 3.61057 3.03489 1.71789 3.03489H0.145508V-0.0859375H1.71789C5.32854 -0.0859375 8.26947 2.8599 8.26947 6.47656V14.0016C8.26947 17.2682 10.9192 19.9516 14.2096 19.9516C17.4999 19.9516 20.1497 17.2974 20.1497 14.0016V6.47656C20.1497 2.8599 23.0906 -0.0859375 26.7012 -0.0859375H28.2736V3.03489H26.7012C24.8086 3.03489 23.2653 4.58073 23.2653 6.47656V14.0016C23.2944 19.0182 19.2179 23.0724 14.2096 23.0724ZM27.1963 4.93072H28.2736V8.66406V14.0016C28.2736 21.7599 21.955 28.0891 14.2096 28.0891C6.46414 28.0891 0.145508 21.7599 0.145508 14.0016V8.66406V7.78906V4.93072H1.22288C2.35849 4.93072 3.29027 5.86406 3.29027 7.00156V8.66406H3.26115V14.0016C3.26115 20.0391 8.153 24.9682 14.2096 24.9682C20.2661 24.9682 25.158 20.0682 25.158 14.0016V8.66406H25.1289V7.00156C25.1289 5.83489 26.0606 4.93072 27.1963 4.93072Z" fill="black"/>
<path d="M40.8237 14.2333V4.2H45.9194V13.9708C45.9194 16.275 47.3462 17.9375 49.4136 17.9375C51.4518 17.9375 52.9078 16.275 52.9078 13.9708V4.2H58.0034V14.2333C58.0034 19.1042 54.451 22.5458 49.4427 22.5458C44.3761 22.5458 40.8237 19.1042 40.8237 14.2333ZM59.5758 19.5125L62.4003 16.1292C64.2347 17.5583 66.2147 18.3458 68.3404 18.3458C69.738 18.3458 70.466 17.8792 70.466 17.0917C70.466 16.2167 69.8254 16.1 67.3504 15.5167C63.4485 14.6125 60.4202 13.5917 60.4202 9.85833C60.4202 6.27083 63.2447 3.9375 67.5251 3.9375C70.6407 3.9375 73.0866 4.78333 75.0667 6.3875L72.5334 9.975C70.8445 8.77917 69.0101 8.16667 67.3795 8.16667C66.1565 8.16667 65.545 8.6625 65.545 9.33333C65.545 10.2667 66.1856 10.5292 68.748 11.0833C72.941 11.9875 75.5617 13.0958 75.5617 16.5375C75.5617 20.3583 72.6499 22.575 68.1365 22.575C64.9044 22.5458 61.847 21.525 59.5758 19.5125ZM82.9286 8.75V10.7625H91.4893V15.3125H82.9286V17.7042H92.3337V22.2542H77.8329V4.22917H92.3337V8.75H82.9286ZM99.9918 12.1917H103.107C104.301 12.1917 105.175 11.4917 105.175 10.5C105.175 9.5375 104.301 8.80834 103.107 8.80834H99.9918V12.1917ZM105.379 22.225L101.564 16.8H99.9918V22.225H94.9252V4.2H103.544C107.592 4.2 110.445 6.79583 110.445 10.5C110.445 13.0667 109.077 15.1083 106.893 16.1292L111.202 22.2542H105.379V22.225ZM112.571 4.2H114.871L119.85 18.8125L124.626 4.2H126.897L131.672 18.8125L136.652 4.2H138.952L132.779 22.225H130.77L125.79 6.88334L120.753 22.2542H118.744L112.571 4.2ZM152.958 16.1875L148.794 6.70833L144.601 16.1875H152.958ZM153.802 18.1417H143.756L141.951 22.225H139.738L147.687 4.2H149.9L153.802 13.0667L154.093 13.7083L155.2 16.1875L157.85 22.225H155.607L153.802 18.1417ZM165.478 14.875L158.228 4.2H160.761L166.556 12.95L172.409 4.2H174.884L167.633 14.875V22.225H165.478V14.875Z" fill="black"/>
</g>
<defs>
<clipPath id="clip0_2365_19946">
<rect width="175" height="28" fill="white"/>
</clipPath>
</defs>
</svg>
