<svg width="176" height="28" viewBox="0 0 176 28" fill="none" xmlns="http://www.w3.org/2000/svg">
<g clip-path="url(#clip0_0_1184)">
<path d="M14.8557 23.0707C9.84737 23.0707 5.79995 18.9874 5.79995 13.9999V6.47485C5.79995 4.57902 4.25668 3.03318 2.36401 3.03318H0.791626V-0.0876465H2.36401C5.97465 -0.0876465 8.91559 2.85819 8.91559 6.47485V13.9999C8.91559 17.2665 11.5653 19.9499 14.8557 19.9499C18.146 19.9499 20.7958 17.2957 20.7958 13.9999V6.47485C20.7958 2.85819 23.7367 -0.0876465 27.3474 -0.0876465H28.9197V3.03318H27.3474C25.4547 3.03318 23.9114 4.57902 23.9114 6.47485V13.9999C23.9405 19.0165 19.864 23.0707 14.8557 23.0707ZM27.8424 4.92902H28.9197V8.66235V13.9999C28.9197 21.7582 22.6011 28.0873 14.8557 28.0873C7.11026 28.0873 0.791626 21.7582 0.791626 13.9999V8.66235V7.78735V4.92902H1.869C3.0046 4.92902 3.93638 5.86235 3.93638 6.99985V8.66235H3.90727V13.9999C3.90727 20.0374 8.79911 24.9665 14.8557 24.9665C20.9123 24.9665 25.8041 20.0665 25.8041 13.9999V8.66235H25.775V6.99985C25.775 5.83318 26.7068 4.92902 27.8424 4.92902Z" fill="black"/>
<path d="M41.4696 14.2333V4.2H46.5653V13.9708C46.5653 16.275 47.9921 17.9375 50.0595 17.9375C52.0977 17.9375 53.5536 16.275 53.5536 13.9708V4.2H58.6493V14.2333C58.6493 19.1042 55.0969 22.5458 50.0886 22.5458C45.022 22.5458 41.4696 19.1042 41.4696 14.2333ZM60.2217 19.5125L63.0461 16.1292C64.8806 17.5583 66.8606 18.3458 68.9862 18.3458C70.3839 18.3458 71.1119 17.8792 71.1119 17.0917C71.1119 16.2167 70.4713 16.1 67.9962 15.5167C64.0944 14.6125 61.0661 13.5917 61.0661 9.85833C61.0661 6.27083 63.8906 3.9375 68.1709 3.9375C71.2866 3.9375 73.7325 4.78333 75.7125 6.3875L73.1793 9.975C71.4904 8.77917 69.656 8.16667 68.0253 8.16667C66.8024 8.16667 66.1909 8.6625 66.1909 9.33333C66.1909 10.2667 66.8315 10.5292 69.3939 11.0833C73.5869 11.9875 76.2075 13.0958 76.2075 16.5375C76.2075 20.3583 73.2957 22.575 68.7824 22.575C65.5503 22.5458 62.4929 21.525 60.2217 19.5125ZM83.5744 8.75V10.7625H92.1352V15.3125H83.5744V17.7042H92.9796V22.2542H78.4788V4.22917H92.9796V8.75H83.5744ZM100.638 12.1917H103.753C104.947 12.1917 105.821 11.4917 105.821 10.5C105.821 9.5375 104.947 8.80834 103.753 8.80834H100.638V12.1917ZM106.025 22.225L102.21 16.8H100.638V22.225H95.5711V4.2H104.19C108.237 4.2 111.091 6.79583 111.091 10.5C111.091 13.0667 109.723 15.1083 107.539 16.1292L111.848 22.2542H106.025V22.225ZM113.217 4.2H115.517L120.496 18.8125L125.272 4.2H127.543L132.318 18.8125L137.297 4.2H139.598L133.425 22.225H131.416L126.436 6.88334L121.399 22.2542H119.39L113.217 4.2ZM153.604 16.1875L149.44 6.70833L145.247 16.1875H153.604ZM154.448 18.1417H144.402L142.597 22.225H140.384L148.333 4.2H150.546L154.448 13.0667L154.739 13.7083L155.846 16.1875L158.495 22.225H156.253L154.448 18.1417ZM166.124 14.875L158.874 4.2H161.407L167.202 12.95L173.054 4.2H175.529L168.279 14.875V22.225H166.124V14.875Z" fill="black"/>
</g>
<defs>
<clipPath id="clip0_0_1184">
<rect width="175" height="28" fill="white" transform="translate(0.645996)"/>
</clipPath>
</defs>
</svg>
