<svg viewBox="0 0 295 45" fill="none" xmlns="http://www.w3.org/2000/svg">
<g clip-path="url(#clip0_2553_21446)">
<path d="M247.841 39.7224C247.841 39.7224 247.564 39.7224 247.441 39.6916C247.441 39.6916 247.718 39.6916 247.841 39.7224ZM253.407 39.0459L253.745 38.1541L253.868 38.0618L253.407 39.0459ZM245.166 38.0926L249.809 29.1746L245.196 38.1233M224.931 3.12809C228.406 3.12809 230.589 3.86613 232.281 5.55746C234.157 7.4948 235.233 10.3854 235.171 13.2453C235.079 16.997 233.019 18.5654 231.266 19.5494C230.128 20.1644 227.238 20.5642 225.792 20.5642H220.81V3.15884H224.962L224.931 3.12809ZM257.651 20.1337H259.803L257.62 20.1952V20.1337H257.651ZM264.57 6.97203V19.8877H257.928L264.57 6.94128V6.97203ZM289.048 35.7247V35.9092L288.925 36.4627C288.402 39.8146 286.803 39.8146 283.605 39.8146H274.749C271.212 39.8146 270.689 38.8613 270.689 32.5265V22.8091H279.823C281.053 22.8091 281.329 22.9013 281.483 23.3933L281.698 23.8854L281.76 24.0391H281.914H283.082H283.298V23.8239V19.6417L283.236 18.9651V18.7499H283.021H281.852H281.668V18.9344L281.483 19.4264C281.391 19.7647 281.329 19.9492 279.085 19.9492H270.689V3.46636H283.236C285.604 3.46636 285.788 3.46636 286.619 7.03353L286.803 7.58706L286.865 7.74082H287.018H288.218H288.433V7.52556V0.913981V0.667969H288.218H264.631H264.478L264.416 0.790975L245.073 37.8773C244.858 37.6313 244.643 37.3853 244.428 37.1085L244.274 36.924C241.106 33.2953 236.34 26.3455 235.817 25.3614L235.048 24.1929L233.665 21.6098C235.879 20.3489 240.953 17.3968 240.553 10.5085C240.491 8.3251 239.846 5.09619 235.11 2.2978C232.988 1.15999 230.067 0.667969 225.669 0.667969H212.631L211.954 0.760223H211.739V0.975484V2.26705V2.48231H211.954L212.6 2.51306C214.107 2.57456 214.66 2.60531 214.66 5.4037V37.662C214.66 40.5219 214.414 40.6449 212.569 40.7372L211.923 40.8602H211.739V41.0755V42.367V42.5823H211.954H222.779L223.486 42.49H223.67V42.244V40.9525V40.7372H223.455L222.809 40.7064C221.425 40.6449 220.78 40.6142 220.78 38.0003V23.3933H224.839C224.962 23.3933 225.392 23.3933 225.854 23.3318C226.284 23.3011 226.746 23.2703 226.899 23.2703H227.391L231.112 29.0209V29.1439C231.266 29.4514 235.294 35.2942 238.154 38.7998C241.014 42.3363 244.305 43.0743 246.549 43.0743H246.703C250.27 43.0128 252.146 41.6905 252.7 40.9217C252.854 40.7064 253.007 40.3682 253.038 40.3374L254.084 38.1541L254.453 37.3853L253.745 37.8466L251.716 39.1996C251.716 39.1996 251.439 39.3841 251.162 39.4764C250.701 39.6301 250.393 39.7224 249.194 39.7224C248.641 39.7224 248.149 39.6609 247.657 39.5071L256.298 22.8091H264.508V37.662C264.508 38.7076 264.508 39.5686 264.232 40.0914C264.109 40.3374 263.893 40.7987 262.54 40.7987H261.864L261.648 40.8294V41.0447V42.367V42.5823H261.864H290.493H290.709V42.367V36.5857L290.647 35.9092V35.6939H290.432H289.202H289.017L289.048 35.7247Z" fill="white"/>
<path d="M70.5291 21.6183C70.5291 32.7504 64.0405 40.838 55.0611 40.838C46.0816 40.838 39.6238 32.7504 39.6238 21.6183C39.6238 10.4863 46.1431 2.39862 55.0611 2.39862C63.979 2.39862 70.5291 10.4863 70.5291 21.6183ZM55.0611 0C42.7297 0 33.043 9.50222 33.043 21.6183C33.043 33.7344 42.5144 43.2674 55.0611 43.2674C67.6077 43.2674 77.0484 33.9497 77.0484 21.6183C77.0484 9.28696 67.3924 0 55.0611 0Z" fill="white"/>
<path d="M202.791 22.2126C202.791 27.1328 200.577 32.5143 197.317 35.651C194.027 38.7876 189.691 40.1407 182.864 40.1407C177.729 40.1407 175.699 38.3264 175.699 33.6829V3.05437H178.405H178.682C180.22 3.05437 185.509 3.14662 189.568 4.56119C199.316 7.94386 202.791 15.9085 202.791 22.2126ZM200.516 4.43819C198.332 3.02362 193.566 0.625 185.97 0.625H167.519L166.812 0.717255H166.597V0.932515V2.22408V2.43934H166.812L167.458 2.47009C169.395 2.53159 169.518 2.6546 169.518 6.37553V35.9892C169.518 40.725 168.657 40.725 167.827 40.725L166.812 40.848H166.597V41.0632V42.3856V42.6316H166.843H183.326C189.384 42.6316 193.843 42.2318 197.41 40.1407C202.853 37.0348 208.665 30.3925 208.665 21.1055C208.665 14.1557 205.528 7.75935 200.485 4.43819" fill="white"/>
<path d="M4.59687 0.625L3.92034 0.717255H3.70508V0.932515V2.25483V2.47009H3.92034H4.56612C5.82693 2.47009 6.56497 2.50084 6.56497 5.36073V38.8184C6.56497 40.356 6.19595 40.725 4.56612 40.7557L3.88959 40.848H3.70508V41.0632V42.3856V42.6008H3.92034H14.8986L15.6059 42.5086H15.7904V42.2933V40.971V40.7557H15.5752H14.9294C13.1765 40.6942 12.7153 40.4175 12.6845 37.9266V22.6123H25.1696C26.0614 22.6123 26.1229 22.8276 26.2767 23.2274L26.4919 23.7194L26.5535 23.8424H26.7072H27.845H28.0603V23.6271V19.4142L27.9988 18.7376V18.5224H27.7528H26.5535H26.3689V18.7069L26.2152 19.2297C26.1229 19.5679 25.8769 19.6909 24.1856 19.6909H24.1241H12.6538V3.42339H25.0466C27.6298 3.42339 28.337 3.6694 28.9213 6.03727L29.0751 6.62155V6.80605H29.2903H30.5511H30.7972V6.59079V0.871012V0.655751H30.5511H4.56612L4.59687 0.625Z" fill="white"/>
<path d="M110.597 0.625H110.382V0.840261V2.25483V2.47009H110.597H111.274C112.381 2.47009 113.334 2.6546 113.365 4.86871V22.7046C113.365 28.7626 112.719 33.1909 109.367 36.635C107.061 39.0336 104.14 40.1407 100.173 40.1714C95.9904 40.1714 93.315 39.0336 91.1932 36.3275C88.9791 33.4984 88.1795 29.5622 88.1488 21.2285V4.71495C88.118 2.53159 88.9176 2.53159 90.2706 2.50084L90.9472 2.40859H91.1624V2.19333V0.871012V0.655751H90.9164H79.7536L79.0771 0.748006H78.8618V0.963267V1.6398L78.9848 2.34708V2.53159H79.2308H79.9074C79.9074 2.53159 80.1226 2.53159 80.2149 2.53159C81.0759 2.53159 81.4142 2.7161 81.5064 2.83911C81.814 3.14662 81.8755 4.00767 81.8755 5.23773V19.937C81.937 28.5781 82.8903 34.4209 87.5645 38.8799C90.4859 41.6475 94.9141 43.1851 100.019 43.1851C104.97 43.1543 108.875 41.6475 111.643 38.6954C115.671 34.4209 116.471 29.4392 116.44 22.8276V5.08397C116.594 2.50084 117.393 2.50084 118.47 2.50084L119.146 2.40859H119.362V2.19333V0.871012V0.655751H119.116H110.536L110.597 0.625Z" fill="white"/>
<path d="M158.047 21.0748L158.139 32.4528L158.047 32.3606V21.0748ZM128.372 20.7672L128.279 9.26618L128.372 9.35843V20.7672ZM155.095 0.625H154.879V0.840261V2.25483V2.47009H155.095H155.74C157.001 2.47009 157.77 2.68535 157.77 5.02247V31.93L128.464 0.717255L128.402 0.655751H128.31H120.653L119.946 0.748006H119.73V0.963267V1.6398L119.884 2.34708V2.53159H120.099H120.776C125.02 2.53159 125.358 6.09877 125.358 9.78895V37.2501C125.358 40.3252 125.358 40.6327 123.113 40.7557L122.467 40.8787H122.283V41.094V42.3856V42.6008H122.529H130.617L131.324 42.5086H131.508V42.2933V41.0325V40.8172H131.293L130.709 40.725C128.987 40.5405 128.587 40.5097 128.587 37.9266V9.7582L160.568 43.8309L160.968 44.2614V43.6771V5.48374C160.968 2.74685 161.768 2.5931 163.275 2.53159L163.951 2.43934H164.136V2.22408V0.871012V0.655751H163.89H155.064L155.095 0.625Z" fill="white"/>
</g>
<defs>
<clipPath id="clip0_2553_21446">
<rect width="294.442" height="44.2514" fill="white"/>
</clipPath>
</defs>
</svg>
