<svg width="518" height="42" viewBox="0 0 518 42" fill="none" xmlns="http://www.w3.org/2000/svg">
<g clip-path="url(#clip0_2553_21528)">
<path d="M41.9116 41.9978H48.0354V0H44.5466L24.0896 35.0506L4.75186 0H0V41.9561H2.40459V6.84804L21.7192 41.9561H22.8841L41.9116 9.38981V41.9978Z" fill="white"/>
<path d="M141.057 41.9991C145.417 41.9991 150.279 41.0375 154.528 37.726V36.4448C151.565 38.1528 148.492 39.0073 144.634 39.0073C133.345 39.0073 123.811 32.3703 123.811 19.5474C123.811 9.01129 130.274 2.24404 141.34 2.24404C146.761 2.24404 150.785 3.8475 154.308 7.21343V3.25792C150.841 0.961627 146.65 0 140.837 0C128.987 0 117.879 8.26422 117.879 20.9891C117.879 34.1864 128.593 41.9991 141.057 41.9991Z" fill="white"/>
<path d="M306.191 23.5643V0H300.421V23.7781C300.421 31.5264 296.429 40.0213 285.81 40.0213C277.09 40.0213 270.508 35.3726 270.508 22.8165V0H264.567V22.9759C264.567 36.9227 273.177 41.9991 284.636 41.9991C296.095 41.9991 306.191 34.1437 306.191 23.5643Z" fill="white"/>
<path d="M348.315 41.9991C353.736 41.9454 360.421 40.663 365.337 35.6403V19.2253H359.294V37.6168C356.834 38.4713 354.52 39.0075 351.892 39.0075C340.601 39.0075 331.38 32.2847 331.38 19.4619C331.38 8.92869 338.366 2.24478 349.433 2.24478C354.853 2.24478 358.878 3.84757 362.399 7.21483V3.25915C358.934 0.962859 354.909 0 349.097 0C338.364 0 326.293 6.68456 326.293 21.8652C326.293 33.4056 336.632 42.1048 348.315 41.9991Z" fill="white"/>
<path d="M405.249 41.9991C410.669 41.9454 417.352 40.663 422.27 35.6403V19.2253H416.227V37.6168C413.768 38.4713 411.453 39.0075 408.826 39.0075C397.535 39.0075 388.313 32.2847 388.313 19.4619C388.313 8.92869 395.299 2.24478 406.366 2.24478C411.787 2.24478 415.812 3.84757 419.333 7.21483V3.25915C415.868 0.962859 411.843 0 406.03 0C395.297 0 383.227 6.68456 383.227 21.8652C383.227 33.4056 393.566 42.1048 405.249 41.9991Z" fill="white"/>
<path d="M518 41.9978V39.8607H500.449V0H494.314V41.9978H518Z" fill="white"/>
<path d="M237.959 20.5078C237.959 32.7257 227.861 39.8608 217.798 39.8608H211.088V2.19237H217.798C227.861 2.19237 237.959 8.29211 237.959 20.5078ZM243.967 20.5078C243.967 7.78587 231.47 0 217.93 0H204.955L204.896 41.9991H217.871C231.47 41.9991 243.967 33.2332 243.967 20.5078Z" fill="white"/>
<path d="M457.996 0H456.759L439.201 41.9978H441.88L455.474 9.48193L469.252 41.9978H476.131L457.996 0Z" fill="white"/>
<path d="M84.4303 0H83.1957L65.6353 41.9978H68.3177L81.9082 9.48193L95.687 41.9978H102.564L84.4303 0Z" fill="white"/>
</g>
<defs>
<clipPath id="clip0_2553_21528">
<rect width="518" height="42" fill="white"/>
</clipPath>
</defs>
</svg>
