<svg viewBox="0 0 274 50" fill="none" xmlns="http://www.w3.org/2000/svg">
<path d="M120.321 8.38075H103.717V41.4945H112.124V29.35C112.124 29.35 124.146 30.0223 127.529 25.5469C130.051 22.6684 130.198 18.0669 129.169 14.495C127.782 10.4609 124.755 8.38075 120.342 8.40177L120.321 8.38075ZM121.287 23.2987C119.312 25.61 114.982 25.589 112.082 25.3998L112.103 12.1208C112.103 12.1208 119.585 11.0702 121.561 14.453C122.696 16.4911 122.969 21.0505 121.287 23.2777V23.2987ZM49.7465 46.8733C45.9465 45.1425 42.5848 42.5788 39.9107 39.3723C36.6741 35.6954 28.982 25.3578 28.982 25.3578C24.9889 20.2521 19.6927 11.7636 14.4385 7.49828V41.4104H19.1252V24.3073C22.4248 28.5095 26.2709 33.8674 29.1922 37.2502C30.4532 38.784 33.7528 42.3349 34.6986 43.1333C40.7304 48.9744 51.8062 51.6219 61.0535 48.3861V48.05C57.901 48.7433 53.7818 48.4702 49.7465 46.8733ZM21.1638 10.3768C24.3794 14.0538 32.0925 24.3913 32.0925 24.3913C36.0857 29.518 41.3819 37.9856 46.6361 42.2509V8.33873H41.9493V25.4629C38.6497 21.2606 34.7826 15.9028 31.8613 12.52C30.1286 10.4719 28.298 8.50855 26.376 6.63682C20.3232 0.774691 9.24735 -1.8307 0 1.40503V1.7202C3.80164 1.00818 7.7281 1.40948 11.307 2.87581C15.1106 4.61021 18.473 7.18161 21.1428 10.3978L21.1638 10.3768ZM74.0839 12.0787V8.38075H51.3858V41.4945H74.1259L74.1049 37.7755C69.7334 37.9015 64.2691 38.5739 59.7925 38.1327V26.2613C63.4284 26.0512 67.8209 26.1352 71.2046 26.4504V22.5213C67.7789 22.9415 63.4494 22.9205 59.7925 22.6894V11.7636C64.2691 11.2803 69.7334 12.0157 74.0839 12.0787ZM97.5806 25.3998C93.7555 22.1011 89.0688 21.0505 85.8112 18.8023C83.4994 17.0374 83.8356 14.7261 85.0126 13.4865C87.7658 10.4188 93.5454 11.8686 94.8904 12.1838C96.5928 12.6881 97.4965 13.2343 99.1358 13.9487V9.78851C92.2423 7.79244 81.2086 5.88042 76.8581 12.7931C75.2818 15.6296 74.8615 20.7774 79.4642 23.782C84.0878 27.4589 91.7169 29.2239 92.6627 32.1865C93.2511 33.8043 92.5365 35.3382 91.4437 36.4518C87.3244 40.2548 80.7252 37.8805 76.4588 35.9895V40.0867C81.0825 42.1458 86.9041 42.6711 92.0952 41.5575C95.647 40.7801 99.6192 37.6494 100.25 33.8043C100.901 30.0223 100.103 27.522 97.5806 25.3998ZM160.315 39.7505L159.286 37.8175C157.148 33.9072 155.184 29.9041 153.401 25.8201C153.611 25.673 153.548 25.736 154.116 25.4629C157.205 23.9921 159.223 21.3657 159.181 16.7852C159.033 11.1542 153.884 8.38075 149.387 8.38075H132.552V41.4945H141.001V27.8161H145.835C147.792 31.5539 149.588 35.3745 151.215 39.2673L152.203 41.4945H161.24L160.421 39.9396L160.315 39.7505ZM149.87 21.975C147.895 24.3703 143.775 24.1812 140.938 24.1812V12.0577C140.938 12.0577 148.168 10.9651 150.164 14.432C151.194 16.386 151.32 20.021 149.87 21.996V21.975ZM257.329 7.8975C255.143 7.87649 240.893 8.10761 240.83 24.8115C240.83 41.4104 254.912 42.0407 257.329 42.0407C259.766 42.0407 273.848 41.4104 273.806 24.8115C273.785 8.10761 259.556 7.87649 257.329 7.8975ZM257.392 37.4183H257.266C256.341 37.4183 249.552 37.7124 249.594 24.1812C249.636 11.6165 256.257 11.9737 257.35 11.9737C258.442 11.9737 265.042 11.6165 265.105 24.1602C265.147 37.7124 258.337 37.4183 257.392 37.4183ZM210.356 25.3998C206.51 22.1011 201.844 21.0505 198.566 18.8023C196.254 17.0374 196.611 14.7261 197.788 13.4865C200.541 10.4188 206.321 11.8686 207.666 12.1838C209.347 12.6881 210.272 13.2343 211.89 13.9487V9.78851C205.018 7.79244 193.984 5.88042 189.634 12.7931C188.036 15.6296 187.637 20.7774 192.219 23.782C196.863 27.4589 204.472 29.2239 205.417 32.1865C206.006 33.8043 205.291 35.3382 204.198 36.4518C200.079 40.2548 193.48 37.8805 189.213 35.9895V40.0867C193.837 42.1458 199.659 42.6711 204.85 41.5575C208.423 40.7801 212.374 37.6494 213.025 33.8043C213.656 30.0223 212.878 27.522 210.356 25.3998ZM236.144 25.3998C232.319 22.1011 227.653 21.0505 224.374 18.8023C222.063 17.0374 222.399 14.7261 223.576 13.4865C226.308 10.4188 232.108 11.8686 233.454 12.1838C235.156 12.6881 236.081 13.2343 237.699 13.9487V9.78851C230.805 7.79244 219.793 5.88042 215.421 12.7931C213.824 15.6296 213.404 20.7774 218.027 23.782C222.672 27.4589 230.28 29.2239 231.205 32.1865C231.814 33.8043 231.121 35.3382 229.986 36.4518C225.888 40.2548 219.267 37.8805 215.022 35.9895L215.001 40.0867C219.625 42.1458 225.467 42.6711 230.637 41.5575C234.21 40.7801 238.182 37.6494 238.834 33.8043C239.464 30.0223 238.666 27.522 236.144 25.3998ZM164.035 41.4945H186.754V37.7545C182.383 37.8805 176.919 38.5529 172.442 38.1116V26.2403C176.078 26.0302 180.491 26.1142 183.875 26.4294V22.5003C180.407 22.9205 176.099 22.8995 172.421 22.6684V11.7426C176.919 11.2593 182.383 11.9947 186.754 12.0577V8.38075H164.035V41.4945Z" fill="white"/>
</svg>
