<svg width="220" height="40" viewBox="0 0 220 40" fill="none" xmlns="http://www.w3.org/2000/svg">
<path d="M96.6764 6.73385H83.3359V33.3404H90.0905V23.5824C90.0905 23.5824 99.7497 24.1226 102.469 20.5267C104.495 18.2138 104.613 14.5166 103.786 11.6466C102.671 8.4052 100.239 6.73385 96.6932 6.75073L96.6764 6.73385ZM97.4531 18.7203C95.8658 20.5773 92.3871 20.5605 90.0568 20.4085L90.0737 9.7389C90.0737 9.7389 96.0853 8.89478 97.6727 11.6128C98.5846 13.2504 98.8041 16.9139 97.4531 18.7034V18.7203ZM39.9708 37.6622C36.9175 36.2715 34.2164 34.2116 32.0678 31.6352C29.4673 28.6808 23.2868 20.3747 23.2868 20.3747C20.0783 16.2723 15.8228 9.4519 11.6012 6.02479V33.2728H15.3669V19.5306C18.0181 22.9071 21.1084 27.2121 23.4556 29.9301C24.4688 31.1625 27.12 34.0156 27.8799 34.6572C32.7264 39.3505 41.6257 41.4776 49.0559 38.8777V38.6076C46.5229 39.1647 43.2131 38.9453 39.9708 37.6622ZM17.0049 8.33767C19.5886 11.2921 25.786 19.5982 25.786 19.5982C28.9945 23.7174 33.2499 30.521 37.4716 33.9481V6.70008H33.7059V20.4592C31.0546 17.0827 27.9475 12.7777 25.6002 10.0597C24.208 8.41405 22.7371 6.83653 21.1928 5.33262C16.3294 0.622456 7.43015 -1.47095 0 1.12892V1.38216C3.05458 0.810062 6.20944 1.1325 9.08504 2.31069C12.1412 3.70426 14.8429 5.77035 16.988 8.35455L17.0049 8.33767ZM59.5256 9.70513V6.73385H41.288V33.3404H59.5594L59.5425 30.3522C56.0301 30.4535 51.6395 30.9937 48.0427 30.6392V21.1007C50.9641 20.9319 54.4934 20.9994 57.2121 21.2526V18.0956C54.4596 18.4333 50.9809 18.4164 48.0427 18.2307V9.4519C51.6395 9.06361 56.0301 9.65449 59.5256 9.70513ZM78.405 20.4085C75.3316 17.758 71.5658 16.9139 68.9484 15.1075C67.0909 13.6894 67.3611 11.8323 68.3067 10.8362C70.5189 8.37143 75.1627 9.53631 76.2435 9.78955C77.6113 10.1947 78.3374 10.6337 79.6546 11.2077V7.86496C74.1157 6.26114 65.2502 4.72485 61.7547 10.2791C60.4882 12.5582 60.1504 16.6944 63.8486 19.1086C67.5637 22.063 73.6936 23.4811 74.4535 25.8615C74.9263 27.1614 74.3521 28.3938 73.474 29.2886C70.1642 32.3443 64.8618 30.4366 61.4338 28.9172V32.2092C65.1489 33.8637 69.8265 34.2858 73.9975 33.391C76.8514 32.7664 80.043 30.2509 80.5496 27.1614C81.0731 24.1226 80.4314 22.1136 78.405 20.4085ZM128.812 31.9391L127.984 30.386C126.267 27.2441 124.689 24.0276 123.256 20.7462C123.425 20.628 123.374 20.6786 123.83 20.4592C126.313 19.2774 127.934 17.1671 127.9 13.4868C127.782 8.96231 123.644 6.73385 120.031 6.73385H106.504V33.3404H113.293V22.35H117.177C118.75 25.3533 120.192 28.4231 121.5 31.5508L122.293 33.3404H129.555L128.896 32.0911L128.812 31.9391ZM120.419 17.6567C118.832 19.5813 115.522 19.4293 113.242 19.4293V9.68825C113.242 9.68825 119.051 8.81037 120.655 11.596C121.483 13.166 121.584 16.0866 120.419 17.6736V17.6567ZM206.761 6.34556C205.005 6.32867 193.555 6.51438 193.505 19.9358C193.505 33.2728 204.819 33.7793 206.761 33.7793C208.72 33.7793 220.034 33.2728 220 19.9358C219.983 6.51438 208.551 6.32867 206.761 6.34556ZM206.811 30.0652H206.71C205.967 30.0652 200.513 30.3015 200.546 19.4293C200.58 9.33372 205.9 9.62072 206.778 9.62072C207.656 9.62072 212.958 9.33372 213.009 19.4125C213.043 30.3015 207.571 30.0652 206.811 30.0652ZM169.019 20.4085C165.929 17.758 162.18 16.9139 159.546 15.1075C157.688 13.6894 157.975 11.8323 158.921 10.8362C161.133 8.37143 165.777 9.53631 166.857 9.78955C168.208 10.1947 168.951 10.6337 170.252 11.2077V7.86496C164.73 6.26114 155.864 4.72485 152.369 10.2791C151.085 12.5582 150.764 16.6944 154.446 19.1086C158.178 22.063 164.291 23.4811 165.051 25.8615C165.523 27.1614 164.949 28.3938 164.071 29.2886C160.761 32.3443 155.459 30.4366 152.031 28.9172V32.2092C155.746 33.8637 160.424 34.2858 164.595 33.391C167.465 32.7664 170.64 30.2509 171.164 27.1614C171.67 24.1226 171.045 22.1136 169.019 20.4085ZM189.739 20.4085C186.666 17.758 182.917 16.9139 180.282 15.1075C178.425 13.6894 178.695 11.8323 179.641 10.8362C181.836 8.37143 186.497 9.53631 187.577 9.78955C188.945 10.1947 189.688 10.6337 190.989 11.2077V7.86496C185.45 6.26114 176.601 4.72485 173.089 10.2791C171.805 12.5582 171.468 16.6944 175.183 19.1086C178.915 22.063 185.028 23.4811 185.771 25.8615C186.26 27.1614 185.703 28.3938 184.791 29.2886C181.498 32.3443 176.179 30.4366 172.768 28.9172L172.751 32.2092C176.466 33.8637 181.161 34.2858 185.315 33.391C188.185 32.7664 191.377 30.2509 191.9 27.1614C192.407 24.1226 191.765 22.1136 189.739 20.4085ZM131.801 33.3404H150.055V30.3353C146.543 30.4366 142.152 30.9768 138.555 30.6223V21.0838C141.477 20.915 145.023 20.9825 147.742 21.2357V18.0788C144.955 18.4164 141.494 18.3995 138.538 18.2138V9.43502C142.152 9.04672 146.543 9.6376 150.055 9.68825V6.73385H131.801V33.3404Z" fill="white"/>
</svg>
