<svg  viewBox="0 0 147 44" fill="none" xmlns="http://www.w3.org/2000/svg">
<path fill-rule="evenodd" clip-rule="evenodd" d="M31.2859 22.0501V21.9108C31.2859 20.9608 30.8143 20.2052 29.926 19.6812C29.032 19.1539 27.716 18.8626 26.0449 18.8626C24.3469 18.8626 22.9958 19.1046 22.024 19.5677C21.0558 20.029 20.4682 20.7069 20.278 21.5866L20.2581 21.6784H17.4132L17.4325 21.5452C17.6383 20.1305 18.5639 18.9442 20.0482 18.115C21.5312 17.2866 23.5769 16.8107 26.0449 16.8107C28.5973 16.8107 30.5618 17.2668 31.8914 18.1702C33.2282 19.0785 33.9109 20.4306 33.9109 22.1849V25.3744C33.9109 27.7146 33.9608 28.554 34.1833 29.8399L34.2069 29.9762H31.502L31.4866 29.8777C31.3766 29.1734 31.3245 28.413 31.3132 27.6138C29.7864 29.5368 27.2686 30.4496 23.279 30.4496C21.386 30.4496 19.8117 30.1053 18.7064 29.4523C17.5963 28.7965 16.9579 27.827 16.9579 26.5954C16.9579 25.4398 17.4468 24.432 18.326 23.7855L18.3268 23.785C19.2508 23.1176 20.4488 22.6671 23.6214 22.4923L31.2859 22.0501ZM20.7969 27.9529C21.5348 28.2795 22.6368 28.4475 24.0764 28.4475C26.1945 28.4475 28.0045 28.0508 29.2804 27.3379C30.554 26.6263 31.2859 25.6071 31.2859 24.3528V23.9035L24.1087 24.3444C22.3524 24.4565 21.2478 24.674 20.5838 25.0316C20.2553 25.2085 20.0391 25.4174 19.9035 25.6618C19.7676 25.907 19.7075 26.1974 19.7075 26.5456C19.7075 26.8572 19.7992 27.1263 19.9776 27.3575C20.1572 27.5903 20.4291 27.7901 20.7969 27.9529Z" fill="url(#paint0_linear_1263_2669)"/>
<path d="M40.3274 17.2842V20.3479C41.2236 18.242 43.2418 16.9104 45.7179 16.9104C46.3937 16.9104 46.853 16.9353 47.3895 17.0631L47.4789 17.0844V19.6073L47.3426 19.5835C46.7746 19.4848 46.3578 19.4357 45.693 19.4357C44.7193 19.4357 43.9626 19.5713 43.3447 19.8227C42.7279 20.0737 42.2437 20.4424 41.8176 20.9171L41.8165 20.9184L41.8153 20.9196C40.8493 21.934 40.5018 23.417 40.5018 25.2V29.9762H37.9017V17.2842H40.3274Z" fill="url(#paint1_linear_1263_2669)"/>
<path d="M65.3164 25.7031L65.2758 25.8328C64.356 28.7711 61.1232 30.4496 56.6426 30.4496C53.9832 30.4496 51.7695 29.7849 50.2177 28.5973C48.663 27.4075 47.7799 25.6977 47.7799 23.6302C47.7799 21.5499 48.6695 19.8398 50.2465 18.6531C51.8203 17.4688 54.0712 16.8107 56.7921 16.8107C59.1453 16.8107 61.03 17.1922 62.4523 17.9841C63.8784 18.7781 64.8316 19.9805 65.3259 21.6028L65.3659 21.7342L62.4941 22.1135L62.4631 22.0236C62.1114 21.0047 61.4709 20.2557 60.5226 19.7588C59.5705 19.26 58.3019 19.0121 56.6925 19.0121C54.7006 19.0121 53.1591 19.4331 52.1183 20.216C51.0824 20.9951 50.5295 22.1425 50.5295 23.6302C50.5295 25.065 51.1113 26.2136 52.1681 27.0069C53.2287 27.8031 54.7773 28.2482 56.7174 28.2482C59.7577 28.2482 61.6724 27.2617 62.5676 25.3744L62.6047 25.2963L65.3164 25.7031Z" fill="url(#paint2_linear_1263_2669)"/>
<path d="M70.7746 29.9762H68.1745V11.6775H70.7746V20.0373C72.1661 17.9672 74.6032 16.8107 77.6353 16.8107C80.085 16.8107 81.9759 17.4705 83.2535 18.7769C84.5308 20.0828 85.1774 22.0166 85.1774 24.5272V29.9762H82.5773V24.8512C82.5773 22.9389 82.0839 21.496 81.1463 20.5311C80.2092 19.5668 78.8108 19.062 76.9625 19.062C75.1152 19.062 73.5674 19.5915 72.4836 20.5018C71.4014 21.4107 70.7746 22.7048 70.7746 24.2531V29.9762Z" fill="url(#paint3_linear_1263_2669)"/>
<path d="M91.939 15.2495H88.8655V12.1261H91.939V15.2495Z" fill="url(#paint4_linear_1263_2669)"/>
<path d="M91.7147 29.9762H89.1146V17.2842H91.7147V29.9762Z" fill="url(#paint5_linear_1263_2669)"/>
<path d="M93.5001 17.2842H96.4902L102.453 27.1061L102.454 27.107C102.579 27.303 102.666 27.4867 102.741 27.6635C102.817 27.4867 102.904 27.303 103.029 27.107L103.029 27.1061L108.993 17.2842H111.983L104.165 29.9762H101.318L93.5001 17.2842Z" fill="url(#paint6_linear_1263_2669)"/>
<path fill-rule="evenodd" clip-rule="evenodd" d="M129.488 26.7246L129.409 26.837C127.71 29.245 124.952 30.4496 120.891 30.4496C118.147 30.4496 115.89 29.8296 114.316 28.683C112.738 27.5336 111.854 25.8602 111.854 23.7797C111.854 21.4771 112.773 19.7285 114.349 18.5592C115.921 17.3933 118.135 16.8107 120.717 16.8107C123.448 16.8107 125.681 17.4245 127.233 18.5587C128.79 19.6959 129.654 21.3507 129.654 23.4059V24.4194H114.564C114.679 25.5945 115.27 26.5399 116.301 27.2014C117.372 27.889 118.923 28.2731 120.916 28.2731C123.935 28.2731 126.009 27.4076 127.2 25.7306L127.257 25.6505L129.488 26.7246ZM114.567 22.4422H126.927C126.881 21.2927 126.199 20.3858 125.103 19.7567C123.977 19.1094 122.422 18.763 120.717 18.763C118.938 18.763 117.447 19.14 116.377 19.8045C115.349 20.4429 114.71 21.3455 114.567 22.4422Z" fill="url(#paint7_linear_1263_2669)"/>
<path fill-rule="evenodd" clip-rule="evenodd" d="M124.417 0H22C9.84973 0 0 9.84974 0 22C0 34.1503 9.84973 44 22 44H124.417C136.567 44 146.417 34.1503 146.417 22C146.417 9.84974 136.567 0 124.417 0ZM22 2.79457H124.417C135.024 2.79457 143.622 11.3931 143.622 22C143.622 32.6069 135.024 41.2054 124.417 41.2054H22C11.3931 41.2054 2.79457 32.6069 2.79457 22C2.79457 11.3931 11.3931 2.79457 22 2.79457Z" fill="url(#paint8_linear_1263_2669)"/>
<defs>
<linearGradient id="paint0_linear_1263_2669" x1="155.647" y1="-10.8254" x2="-2.50041" y2="35.4558" gradientUnits="userSpaceOnUse">
<stop stop-color="#00FFC2"/>
<stop offset="0.364583" stop-color="#BEFFC1"/>
<stop offset="1" stop-color="#E6BEFF"/>
</linearGradient>
<linearGradient id="paint1_linear_1263_2669" x1="155.647" y1="-10.8254" x2="-2.50041" y2="35.4558" gradientUnits="userSpaceOnUse">
<stop stop-color="#00FFC2"/>
<stop offset="0.364583" stop-color="#BEFFC1"/>
<stop offset="1" stop-color="#E6BEFF"/>
</linearGradient>
<linearGradient id="paint2_linear_1263_2669" x1="155.647" y1="-10.8254" x2="-2.50041" y2="35.4558" gradientUnits="userSpaceOnUse">
<stop stop-color="#00FFC2"/>
<stop offset="0.364583" stop-color="#BEFFC1"/>
<stop offset="1" stop-color="#E6BEFF"/>
</linearGradient>
<linearGradient id="paint3_linear_1263_2669" x1="155.647" y1="-10.8254" x2="-2.50041" y2="35.4558" gradientUnits="userSpaceOnUse">
<stop stop-color="#00FFC2"/>
<stop offset="0.364583" stop-color="#BEFFC1"/>
<stop offset="1" stop-color="#E6BEFF"/>
</linearGradient>
<linearGradient id="paint4_linear_1263_2669" x1="155.647" y1="-10.8254" x2="-2.50041" y2="35.4558" gradientUnits="userSpaceOnUse">
<stop stop-color="#00FFC2"/>
<stop offset="0.364583" stop-color="#BEFFC1"/>
<stop offset="1" stop-color="#E6BEFF"/>
</linearGradient>
<linearGradient id="paint5_linear_1263_2669" x1="155.647" y1="-10.8254" x2="-2.50041" y2="35.4558" gradientUnits="userSpaceOnUse">
<stop stop-color="#00FFC2"/>
<stop offset="0.364583" stop-color="#BEFFC1"/>
<stop offset="1" stop-color="#E6BEFF"/>
</linearGradient>
<linearGradient id="paint6_linear_1263_2669" x1="155.647" y1="-10.8254" x2="-2.50041" y2="35.4558" gradientUnits="userSpaceOnUse">
<stop stop-color="#00FFC2"/>
<stop offset="0.364583" stop-color="#BEFFC1"/>
<stop offset="1" stop-color="#E6BEFF"/>
</linearGradient>
<linearGradient id="paint7_linear_1263_2669" x1="155.647" y1="-10.8254" x2="-2.50041" y2="35.4558" gradientUnits="userSpaceOnUse">
<stop stop-color="#00FFC2"/>
<stop offset="0.364583" stop-color="#BEFFC1"/>
<stop offset="1" stop-color="#E6BEFF"/>
</linearGradient>
<linearGradient id="paint8_linear_1263_2669" x1="155.647" y1="-10.8254" x2="-2.50041" y2="35.4558" gradientUnits="userSpaceOnUse">
<stop stop-color="#00FFC2"/>
<stop offset="0.364583" stop-color="#BEFFC1"/>
<stop offset="1" stop-color="#E6BEFF"/>
</linearGradient>
</defs>
</svg>
