<svg  viewBox="0 0 101 24" fill="none" xmlns="http://www.w3.org/2000/svg">
<g clip-path="url(#clip0_1263_2619)">
<path d="M59.8569 9.4362C61.4065 9.4362 62.8729 10.3851 63.1895 12.4329H56.291C56.5576 10.6349 57.9073 9.4362 59.8569 9.4362ZM62.9562 15.4628C62.423 16.2786 61.4065 16.9112 60.0068 16.9112C58.0906 16.9112 56.6076 15.8624 56.2576 13.9978H64.9224C64.9724 13.7314 64.9891 13.465 64.9891 13.1987C64.9891 10.3019 62.9728 7.7381 59.8402 7.7381C56.6076 7.7381 54.4247 10.1188 54.4247 13.1654C54.4247 16.2619 56.6409 18.5926 59.9735 18.5926C62.0397 18.5926 63.606 17.6604 64.5225 16.2619L62.9562 15.4628ZM51.7753 3.25977H53.5749V18.3429H51.7753V3.25977ZM75.0036 12V18.3429H73.204V12.0999C73.204 10.4018 72.2375 9.45285 70.6379 9.45285C68.9882 9.45285 67.6385 10.4184 67.6385 12.8657V18.3429H65.8389V8.02112H67.6385V9.50279C68.405 8.28748 69.5381 7.75475 70.9878 7.75475C73.4206 7.7381 75.0036 9.35296 75.0036 12ZM84.9181 13.1654C84.9181 11.0511 83.3185 9.4695 81.2356 9.4695C79.1694 9.4695 77.5697 11.0677 77.5697 13.1654C77.5697 15.2797 79.1694 16.8612 81.2356 16.8612C83.3351 16.8779 84.9181 15.2797 84.9181 13.1654ZM86.7177 3.25977V18.3429H84.9181V16.5616C84.085 17.8268 82.7686 18.6093 81.0023 18.6093C78.1362 18.6093 75.7701 16.2286 75.7701 13.182C75.7701 10.1354 78.1196 7.75475 81.0023 7.75475C82.7519 7.75475 84.085 8.53721 84.9181 9.80246V3.27641H86.7177V3.25977ZM88.1674 3.25977H89.967V18.3429H88.1674V3.25977ZM48.5759 13.1654C48.5759 11.0511 46.9763 9.4695 44.8934 9.4695C42.8272 9.4695 41.2275 11.0677 41.2275 13.1654C41.2275 15.2797 42.8272 16.8612 44.8934 16.8612C46.9763 16.8779 48.5759 15.2797 48.5759 13.1654ZM50.3756 8.00447V18.3263H48.5759V16.5449C47.7428 17.8102 46.4264 18.5926 44.6768 18.5926C41.8107 18.5926 39.4446 16.212 39.4446 13.1654C39.4446 10.1188 41.7941 7.7381 44.6768 7.7381C46.4264 7.7381 47.7595 8.52056 48.5759 9.78581V8.00447H50.3756ZM36.7618 16.3452C33.8625 17.4106 30.6465 15.929 29.5634 13.0322C28.4969 10.1354 29.98 6.92234 32.8793 5.84022C34.7456 5.15765 36.8451 5.50726 38.3781 6.77251C38.6947 7.03888 38.978 7.32189 39.228 7.65486L40.7776 6.52279C38.2448 3.22647 33.5125 2.59384 30.2132 5.12435C26.9139 7.65486 26.2808 12.3829 28.8135 15.6792C31.3463 18.9755 36.0786 19.6082 39.3779 17.0777C39.3946 17.061 39.3946 17.061 39.4113 17.0444L38.3781 15.4129C37.9116 15.8124 37.3617 16.1287 36.7618 16.3452ZM98.6485 8.00447V13.8646C98.6485 15.7625 97.5487 16.9611 95.8658 16.9611C94.1828 16.9611 92.9664 15.7625 92.9664 13.8646V8.00447H91.1501V13.6981C91.1501 16.6781 93.0164 18.6093 95.8824 18.6093C98.3652 18.6093 98.7485 17.0444 98.7485 17.0111V19.1254C98.7485 21.223 97.832 22.3884 95.9324 22.3884C94.5327 22.3884 93.333 21.3562 93.1497 19.9744L91.5167 20.5405C91.9999 22.5882 93.8329 24.0366 95.9324 24.0366C98.8818 24.0366 100.481 22.1054 100.481 19.1254V8.02112H98.6485V8.00447Z" fill="white"/>
<path d="M15.1481 14.0292C14.4649 14.6452 13.5984 15.411 12.0321 15.411H11.0823C9.9492 15.411 8.91609 14.9948 8.18292 14.2623C7.46641 13.5298 7.06649 12.5309 7.06649 11.4488V10.1669C7.06649 9.08473 7.46641 8.08584 8.18292 7.35333C8.91609 6.60417 9.9492 6.20461 11.0823 6.20461H12.0154C13.5818 6.20461 14.4482 6.97042 15.1314 7.5864C15.8479 8.21903 16.4645 8.76841 18.1141 8.76841C18.3641 8.76841 18.614 8.75177 18.8639 8.70182V8.68517C18.764 8.43545 18.6473 8.20238 18.514 7.96931L17.4143 6.05478C16.3978 4.30673 14.5315 3.22461 12.4987 3.22461H10.3158C8.2829 3.22461 6.41663 4.30673 5.40018 6.05478L4.30042 7.96931C3.28397 9.71736 3.28397 11.8816 4.30042 13.6297L5.40018 15.5442C6.41663 17.2922 8.2829 18.3744 10.3158 18.3744H12.5153C14.5482 18.3744 16.4145 17.2922 17.4309 15.5442L18.5307 13.6297C18.664 13.3966 18.7806 13.1635 18.8806 12.9138V12.8971C18.6307 12.8638 18.3807 12.8305 18.1308 12.8305C16.4811 12.8472 15.8646 13.3966 15.1481 14.0292Z" fill="white"/>
<path d="M12.0336 7.35156H11.0838C9.36746 7.35156 8.23438 8.58352 8.23438 10.1484V11.4303C8.23438 13.0119 9.36746 14.2272 11.0838 14.2272H12.0169C14.533 14.2272 14.3331 11.6634 18.1322 11.6634C18.4988 11.6634 18.8488 11.6967 19.1987 11.7633C19.3153 11.114 19.3153 10.4481 19.1987 9.79883C18.8488 9.86542 18.4822 9.89872 18.1322 9.89872C14.3331 9.91536 14.533 7.35156 12.0336 7.35156Z" fill="white"/>
<path d="M21.3789 12.7136C20.7291 12.2474 19.9959 11.9144 19.1961 11.7813V11.7979C19.1294 12.1808 19.0294 12.5471 18.8795 12.8967C19.5293 12.9966 20.1459 13.2463 20.6791 13.6458V13.6625C19.0961 18.7901 13.6639 21.6536 8.53171 20.072C3.39948 18.4904 0.533434 13.0632 2.11643 7.93555C3.69942 2.80794 9.13158 -0.0555277 14.2638 1.52604C17.3298 2.47498 19.7293 4.8723 20.6791 7.93555V7.9522C20.1459 8.33511 19.5293 8.58483 18.8795 8.68472C19.0294 9.03433 19.1294 9.41723 19.1961 9.78349V9.80014C19.9792 9.65031 20.7291 9.33399 21.3789 8.86785C21.9955 8.4017 21.8788 7.88561 21.7789 7.58594C20.0126 1.84235 13.9139 -1.37072 8.16512 0.393973C2.41636 2.15867 -0.799612 8.25186 0.966674 13.9955C2.73296 19.739 8.83165 22.9521 14.5804 21.1874C18.013 20.1219 20.7124 17.4416 21.7789 13.9955C21.8788 13.6958 22.0121 13.1797 21.3789 12.7136Z" fill="white"/>
<path d="M18.883 8.68666C18.633 8.71996 18.3831 8.75326 18.1331 8.75326C16.4835 8.75326 15.8669 8.20387 15.1504 7.57124C14.4506 6.95526 13.6008 6.18945 12.0344 6.18945H11.0846C9.95156 6.18945 8.91845 6.60565 8.18527 7.33817C7.46876 8.07068 7.06885 9.06957 7.06885 10.1517V11.4336C7.06885 12.5157 7.46876 13.5146 8.18527 14.2471C8.91845 14.9963 9.95156 15.3958 11.0846 15.3958H12.0178C13.5841 15.3958 14.4506 14.63 15.1338 14.014C15.8503 13.3814 16.4668 12.832 18.1165 12.832C18.3664 12.832 18.6164 12.8487 18.8663 12.8986C19.0163 12.549 19.1162 12.1661 19.1829 11.7999V11.7832C18.833 11.7166 18.4664 11.6833 18.1165 11.6833C14.3173 11.6833 14.5172 14.2471 12.0011 14.2471H11.0846C9.36835 14.2471 8.23526 13.0152 8.23526 11.4336V10.1517C8.23526 8.57013 9.36835 7.35482 11.0846 7.35482H12.0178C14.5339 7.35482 14.3339 9.91862 18.1331 9.91862C18.4997 9.91862 18.8496 9.88532 19.1996 9.81873V9.80209C19.1329 9.41918 19.0329 9.05292 18.883 8.68666Z" fill="white" fill-opacity="0.6"/>
<path d="M18.883 8.68666C18.633 8.71996 18.3831 8.75326 18.1331 8.75326C16.4835 8.75326 15.8669 8.20387 15.1504 7.57124C14.4506 6.95526 13.6008 6.18945 12.0344 6.18945H11.0846C9.95156 6.18945 8.91845 6.60565 8.18527 7.33817C7.46876 8.07068 7.06885 9.06957 7.06885 10.1517V11.4336C7.06885 12.5157 7.46876 13.5146 8.18527 14.2471C8.91845 14.9963 9.95156 15.3958 11.0846 15.3958H12.0178C13.5841 15.3958 14.4506 14.63 15.1338 14.014C15.8503 13.3814 16.4668 12.832 18.1165 12.832C18.3664 12.832 18.6164 12.8487 18.8663 12.8986C19.0163 12.549 19.1162 12.1661 19.1829 11.7999V11.7832C18.833 11.7166 18.4664 11.6833 18.1165 11.6833C14.3173 11.6833 14.5172 14.2471 12.0011 14.2471H11.0846C9.36835 14.2471 8.23526 13.0152 8.23526 11.4336V10.1517C8.23526 8.57013 9.36835 7.35482 11.0846 7.35482H12.0178C14.5339 7.35482 14.3339 9.91862 18.1331 9.91862C18.4997 9.91862 18.8496 9.88532 19.1996 9.81873V9.80209C19.1329 9.41918 19.0329 9.05292 18.883 8.68666Z" fill="white" fill-opacity="0.6"/>
</g>
<defs>
<clipPath id="clip0_1263_2619">
<rect width="101" height="24" fill="white"/>
</clipPath>
</defs>
</svg>
