<svg  viewBox="0 0 139 63" fill="none" xmlns="http://www.w3.org/2000/svg">
<path d="M0 4C0 1.79086 1.79086 0 4 0H135C137.209 0 139 1.79086 139 4V46.3566C139 48.4215 137.428 50.147 135.372 50.3393L4.37248 62.5911C2.02646 62.8105 0 60.9647 0 58.6084V4Z" fill="#FE6600"/>
<g clip-path="url(#clip0_1263_2670)">
<path d="M28.7894 29.9835H22.2735C21.9774 29.9835 21.8427 30.1182 21.8427 30.3606C21.8427 30.9532 22.1658 31.5188 22.812 32.0576C23.4582 32.5963 24.1583 32.8657 24.9122 32.8657C25.343 32.8657 25.8546 32.7848 26.3931 32.6232C26.9316 32.4616 27.3893 32.2461 27.7393 32.0037C28.0624 31.7882 28.3047 31.6805 28.4932 31.6805C28.7355 31.6805 28.9779 31.8151 29.1933 32.1114C29.4356 32.4077 29.5433 32.704 29.5433 33.0273C29.5433 33.7007 29.1394 34.3202 28.3047 34.9397C26.8508 36.0441 25.1545 36.5828 23.2428 36.5828C21.3042 36.5828 19.6887 36.0172 18.3694 34.8859C17.7232 34.3202 17.2116 33.6737 16.8078 32.8926C16.2693 31.8421 16 30.7646 16 29.6064C16 28.071 16.4577 26.6704 17.4001 25.4313C18.2079 24.3539 19.231 23.5727 20.4965 23.034C21.4389 22.63 22.462 22.4414 23.539 22.4414C25.2891 22.4414 26.77 22.9263 28.0086 23.9229C28.6278 24.4077 29.1125 25.0003 29.4894 25.7007C29.9202 26.4818 30.1356 27.236 30.1356 27.9633C30.1356 28.5559 30.001 29.0407 29.7587 29.4448C29.4894 29.7949 29.1663 29.9835 28.7894 29.9835ZM22.6505 27.3976H24.0506C24.6429 27.3976 24.9391 27.1283 24.9391 26.5896C24.9391 26.1047 24.8045 25.6737 24.5083 25.3774C24.2121 25.0542 23.8621 24.9195 23.3775 24.9195C22.8659 24.9195 22.462 25.135 22.1658 25.539C21.8966 25.9162 21.762 26.2933 21.762 26.6973C21.762 26.9667 21.8158 27.1552 21.9504 27.2899C22.0851 27.3438 22.3005 27.3976 22.6505 27.3976Z" fill="white"/>
<path d="M38.9131 22.3867C40.5286 22.3867 41.8749 22.7908 42.9788 23.5988C43.5712 24.0298 43.975 24.5147 44.2174 25.0803C44.4597 25.646 44.5674 26.4002 44.5674 27.3699L44.5405 29.417C44.5405 30.8446 44.6482 31.7605 44.8366 32.1914C44.9443 32.4069 45.0251 32.5147 45.1328 32.5685C45.2136 32.6224 45.429 32.6763 45.7252 32.7302C46.0213 32.784 46.156 32.9726 46.156 33.3227C46.156 33.7537 45.9675 34.2386 45.6175 34.6965C45.2674 35.1813 44.8097 35.5854 44.2443 35.9086C43.5442 36.3126 42.8173 36.5281 42.0634 36.5281C41.0941 36.5281 40.3402 36.2049 39.7747 35.5315C39.5863 35.2891 39.3978 35.1813 39.2362 35.1813C39.0478 35.1813 38.8054 35.2891 38.5093 35.5315C37.5938 36.2049 36.5437 36.5281 35.386 36.5281C34.1743 36.5281 33.205 36.2588 32.4511 35.747C31.9665 35.3968 31.5895 34.9658 31.2933 34.4002C30.9972 33.8615 30.8625 33.2689 30.8625 32.6763C30.8625 31.7066 31.2395 30.8716 32.0203 30.1443C33.232 28.986 35.0359 28.3935 37.4323 28.3935C37.9708 28.3935 38.2939 28.3396 38.4285 28.2318C38.5631 28.1241 38.6439 27.8817 38.6439 27.5046C38.6439 26.5349 38.5362 25.8076 38.3477 25.3766C38.1323 24.9456 37.8092 24.7302 37.3515 24.7302C37.0822 24.7302 36.8399 24.811 36.6245 24.9726C36.4091 25.1342 36.1399 25.4305 35.8168 25.8884C35.009 27.0467 34.1474 27.6392 33.2589 27.6392C32.8012 27.6392 32.4511 27.5046 32.155 27.2352C31.8588 26.9658 31.7241 26.6157 31.7241 26.1847C31.7241 25.7537 31.9126 25.2958 32.2626 24.8648C32.6127 24.4339 33.0973 24.0298 33.7166 23.7066C35.359 22.8177 37.0822 22.3867 38.9131 22.3867ZM37.9708 30.3867C37.5669 30.3867 37.2169 30.5483 36.9207 30.8716C36.6245 31.1948 36.463 31.5988 36.463 32.0568C36.463 32.4877 36.5707 32.8648 36.7861 33.1342C37.0015 33.4036 37.2707 33.5382 37.6207 33.5382C38.3477 33.5382 38.7247 32.9187 38.7247 31.6796C38.7247 31.1679 38.6708 30.8446 38.5631 30.6561C38.4823 30.4945 38.2669 30.3867 37.9708 30.3867Z" fill="white"/>
<path d="M52.5911 22.3863C53.0488 22.3863 53.8027 22.4941 54.8528 22.6826C55.0682 22.7095 55.2297 22.7365 55.3644 22.7365C55.5259 22.7365 55.8221 22.6557 56.2798 22.4941C56.4952 22.4132 56.6837 22.3594 56.8183 22.3594C57.2491 22.3594 57.6799 22.6287 58.1107 23.1675C58.4607 23.5984 58.7569 24.0833 58.9723 24.5951C59.1877 25.1068 59.2954 25.5648 59.2954 25.9419C59.2954 26.319 59.1608 26.6153 58.9185 26.8577C58.6492 27.1001 58.3261 27.2348 57.9492 27.2348C57.6261 27.2348 57.3299 27.154 57.0876 26.9924C56.8452 26.8308 56.4144 26.4806 55.8759 25.9688C55.2836 25.4031 54.7989 25.1068 54.422 25.1068C54.1527 25.1068 53.9373 25.2146 53.7489 25.4031C53.5604 25.5917 53.4527 25.8072 53.4527 26.0765C53.4527 26.5345 53.8835 26.9385 54.7451 27.3425C56.3067 28.0429 57.4914 28.7971 58.3261 29.6321C59.0262 30.3324 59.3762 31.1944 59.3762 32.191C59.3762 33.484 58.8108 34.5345 57.6799 35.3964C56.7106 36.1506 55.5259 36.5277 54.1258 36.5277C53.7758 36.5277 53.1027 36.4739 52.1603 36.3392C51.2718 36.2314 50.7602 36.1776 50.6525 36.1776C50.5448 36.1776 50.3832 36.2045 50.2486 36.2314C49.9794 36.2584 49.7909 36.2853 49.6563 36.2853C49.2255 36.2853 48.8754 36.1776 48.6331 35.9621C48.2562 35.6119 47.9061 35.0732 47.583 34.3459C47.2599 33.6186 47.0984 32.9722 47.0984 32.4604C47.0984 31.6254 47.4215 31.1944 48.0946 31.1944C48.3639 31.1944 48.5793 31.2752 48.7947 31.4368C49.0101 31.5984 49.4678 32.0563 50.1678 32.8106C50.5448 33.2146 50.8679 33.484 51.1102 33.6456C51.3525 33.8072 51.6218 33.8611 51.918 33.8611C52.2141 33.8611 52.4565 33.7802 52.6449 33.6186C52.8334 33.457 52.9142 33.2415 52.9142 32.9722C52.9142 32.5681 52.5642 32.191 51.8372 31.8409C50.3563 31.1136 49.2793 30.3594 48.6331 29.5782C47.9869 28.7971 47.6369 27.9082 47.6369 26.8846C47.6369 25.7802 47.96 24.8375 48.6331 24.0563C49.6024 22.9789 50.9217 22.3863 52.5911 22.3863Z" fill="white"/>
<path d="M73.7002 29.2016L71.8693 34.2117C71.4116 35.4508 70.9538 36.4743 70.4961 37.2555C70.0384 38.0366 69.5268 38.71 68.9345 39.2757C67.7498 40.407 66.2958 40.9996 64.5995 40.9996C63.2264 40.9996 62.1224 40.6494 61.2878 39.9222C60.6416 39.3565 60.3185 38.6562 60.3185 37.8211C60.3185 37.1208 60.5339 36.5282 60.9916 36.0434C61.4493 35.5585 62.0147 35.3161 62.6609 35.3161C63.3341 35.3161 63.8456 35.5316 64.2764 35.9895C64.4649 36.205 64.5995 36.3666 64.6534 36.5282C64.7072 36.6898 64.8149 37.04 64.9496 37.5518C65.0573 37.9558 65.2727 38.1713 65.6496 38.1713C65.9458 38.1713 66.1612 38.0366 66.3766 37.7942C66.592 37.5518 66.6728 37.2286 66.6728 36.8784C66.6728 36.4474 66.4304 35.7201 65.9458 34.6966L62.6071 27.6124C62.2571 26.8851 61.9878 26.4272 61.8263 26.2387C61.6378 26.0501 61.2608 25.8346 60.6685 25.5653C60.48 25.4844 60.3185 25.3498 60.1838 25.1343C60.0492 24.9188 59.9954 24.7033 59.9954 24.5148C59.9954 23.7067 60.8031 23.141 62.4455 22.8447C63.5225 22.6562 64.7611 22.5484 66.1612 22.5484C67.1305 22.5484 67.9113 22.6562 68.4767 22.8447C69.2306 23.1141 69.6076 23.572 69.6076 24.2185C69.6076 24.4609 69.4999 24.7302 69.2845 25.0265C69.0691 25.3228 68.9883 25.5922 68.9883 25.8077C68.9883 26.0232 69.0422 26.2656 69.1229 26.508C69.2306 26.7504 69.4191 27.1545 69.7422 27.7201C70.0922 28.3666 70.3884 28.6898 70.6577 28.6898C70.9538 28.6898 71.25 28.3935 71.5462 27.8279C71.8424 27.2622 72.0039 26.7235 72.0039 26.1848C72.0039 25.7538 71.8962 25.4036 71.6539 25.1612C71.3039 24.7572 71.1154 24.3801 71.1154 24.0838C71.1154 23.6259 71.4385 23.2488 72.0578 22.9525C72.677 22.6831 73.5117 22.5215 74.5618 22.5215C76.5273 22.5215 77.4966 22.9794 77.4966 23.9222C77.4966 24.2723 77.3889 24.5417 77.2004 24.7572C77.012 24.9727 76.635 25.1612 76.1234 25.3498C75.6926 25.5114 75.3426 25.7807 75.0734 26.1848C74.6964 26.7504 74.2387 27.774 73.7002 29.2016Z" fill="white"/>
<path d="M89.4783 17C90.5015 17 91.5515 17.0808 92.6285 17.2694C93.4901 17.404 94.1363 17.6195 94.5133 17.8889C94.8902 18.1582 95.0787 18.5084 95.0787 18.9663C95.0787 19.2626 94.9979 19.4781 94.8633 19.6397C94.7287 19.8013 94.4325 19.9899 93.9748 20.2323C93.4363 20.5017 93.1401 20.8249 93.0593 21.202C92.9786 21.5791 92.8978 23.0337 92.8439 25.5387C92.817 27.9899 92.7901 29.4444 92.7632 29.9293C92.7362 30.4141 92.6824 30.899 92.6016 31.3569C92.3324 32.7037 91.7939 33.7542 90.9861 34.5354C90.313 35.1549 89.4783 35.6667 88.4282 36.0168C87.3782 36.367 86.3012 36.5556 85.1434 36.5556C84.1202 36.5556 83.0971 36.4209 82.0739 36.1515C81.0508 35.8822 80.1623 35.505 79.4084 35.0471C78.7891 34.67 78.2775 34.1313 77.9275 33.4848C77.5505 32.8384 77.3621 32.1111 77.3621 31.3838C77.3621 30.468 77.6582 29.6869 78.2237 29.0943C78.816 28.5017 79.543 28.1784 80.4046 28.1784C81.2662 28.1784 81.9932 28.4209 82.5855 28.9327C83.1779 29.4444 83.474 30.0909 83.474 30.8451C83.474 31.0337 83.4202 31.3569 83.3125 31.8148C83.2856 31.8956 83.2856 32.0034 83.2856 32.1111C83.2856 32.4074 83.3933 32.6498 83.6087 32.8384C83.8241 33.0269 84.0933 33.1077 84.4433 33.1077C85.0626 33.1077 85.5473 32.8384 85.9242 32.2727C86.3012 31.7071 86.4896 30.9798 86.4896 30.0909L86.4627 28.8249L86.4358 25.431C86.355 23.3838 86.3012 22.1717 86.2473 21.7946C86.1935 21.4175 86.1127 21.1212 85.9242 20.9057C85.7896 20.7172 85.655 20.6094 85.5473 20.5556C85.4396 20.5017 85.1434 20.4209 84.6857 20.2862C84.4703 20.2323 84.2818 20.1246 84.1202 19.9091C83.9587 19.6936 83.8779 19.4781 83.8779 19.2357C83.8779 18.7508 84.0664 18.3468 84.4703 18.0505C84.8741 17.7542 85.4934 17.5118 86.3819 17.3232C87.4051 17.1077 88.4282 17 89.4783 17Z" fill="white"/>
<path d="M108.568 29.9835H102.079C101.783 29.9835 101.648 30.1182 101.648 30.3606C101.648 30.9532 101.971 31.5188 102.618 32.0576C103.264 32.5963 103.964 32.8657 104.718 32.8657C105.149 32.8657 105.66 32.7848 106.199 32.6232C106.737 32.4616 107.195 32.2461 107.545 32.0037C107.868 31.7882 108.11 31.6805 108.299 31.6805C108.541 31.6805 108.784 31.8151 108.999 32.1114C109.241 32.4077 109.349 32.704 109.349 33.0273C109.349 33.7007 108.945 34.3202 108.11 34.9397C106.656 36.0441 104.96 36.5828 103.048 36.5828C101.11 36.5828 99.4944 36.0172 98.1751 34.8859C97.5289 34.3202 97.0173 33.6737 96.6134 32.8926C96.0749 31.8421 95.8057 30.7646 95.8057 29.6064C95.8057 28.071 96.2634 26.6704 97.2058 25.4313C98.0135 24.3539 99.0367 23.5727 100.302 23.034C101.245 22.63 102.268 22.4414 103.345 22.4414C105.095 22.4414 106.576 22.9263 107.814 23.9229C108.433 24.4077 108.918 25.0003 109.295 25.7007C109.726 26.4818 109.941 27.236 109.941 27.9633C109.941 28.5559 109.807 29.0407 109.564 29.4448C109.295 29.7949 108.972 29.9835 108.568 29.9835ZM102.429 27.3976H103.829C104.422 27.3976 104.718 27.1283 104.718 26.5896C104.718 26.1047 104.583 25.6737 104.287 25.3774C103.991 25.0542 103.641 24.9195 103.156 24.9195C102.645 24.9195 102.241 25.135 101.945 25.539C101.675 25.9162 101.541 26.2933 101.541 26.6973C101.541 26.9667 101.595 27.1552 101.729 27.2899C101.864 27.3438 102.106 27.3976 102.429 27.3976Z" fill="white"/>
<path d="M118.827 26.0229V30.6828C118.827 31.2485 118.961 31.6795 119.231 32.0296C119.5 32.3798 119.85 32.5684 120.281 32.5684C120.631 32.5684 121.115 32.4067 121.708 32.0835C121.842 32.0027 121.977 31.9488 122.112 31.9488C122.327 31.9488 122.542 32.0835 122.731 32.3529C122.919 32.6222 123 32.9185 123 33.2148C123 33.7805 122.677 34.3461 122.058 34.8579C120.738 35.9623 119.177 36.528 117.292 36.528C115.811 36.528 114.626 36.1239 113.738 35.2889C112.849 34.4539 112.392 33.3495 112.392 32.0027V25.6189C112.392 25.4034 112.365 25.2687 112.311 25.2148C112.257 25.1609 112.122 25.134 111.907 25.134H110.534C110.265 25.134 110.103 25.0801 110.022 24.9993C109.941 24.9185 109.915 24.703 109.915 24.3798V23.7603C109.915 23.4909 110.022 23.2754 110.238 23.1407L116.565 19.1542C116.727 19.0734 116.915 19.0195 117.157 19.0195H118.288C118.531 19.0195 118.665 19.0734 118.746 19.1811C118.827 19.2889 118.854 19.5044 118.854 19.8007V21.6593C118.854 21.9286 118.908 22.1172 118.988 22.198C119.069 22.2788 119.258 22.3327 119.554 22.3327H122.112C122.462 22.3327 122.677 22.3865 122.785 22.5212C122.892 22.6559 122.946 22.8983 122.946 23.3293V24.1374C122.946 24.5684 122.892 24.8916 122.758 25.0532C122.623 25.2148 122.381 25.2956 122.058 25.2956H119.554C119.284 25.2956 119.123 25.3495 119.042 25.4303C118.881 25.5919 118.827 25.7535 118.827 26.0229Z" fill="white"/>
</g>
<defs>
<clipPath id="clip0_1263_2670">
<rect width="107" height="24" fill="white" transform="translate(16 17)"/>
</clipPath>
</defs>
</svg>
