<svg width="124" height="36" viewBox="0 0 124 36" fill="none" xmlns="http://www.w3.org/2000/svg">
<g clip-path="url(#clip0_1263_2632)">
<path fill-rule="evenodd" clip-rule="evenodd" d="M94.4273 7.1847C93.165 6.633 91.289 6.3 89.3103 6.3C85.0551 6.3 82.4725 8.685 82.4725 11.4723C82.4725 14.3397 84.4163 15.4665 87.0971 16.3818C89.9839 17.3664 90.7448 18.1377 90.7448 19.4148C90.7448 20.7243 89.7368 21.9582 87.9267 21.9582C85.7902 21.9582 84.179 20.7567 82.9399 17.4429L82.0711 17.6589L82.2227 22.3947C83.6349 22.941 86.0399 23.4 88.205 23.4C92.7127 23.4 95.4532 21.294 95.4532 17.8767C95.4532 15.5835 94.281 14.3253 91.3238 13.2273C88.1301 12.0456 87.0195 11.2986 87.0195 9.8856C87.0195 8.4582 88.0079 7.4754 89.3746 7.4754C91.4299 7.4754 92.8287 8.6958 93.7511 11.5542L94.6182 11.3391L94.4273 7.1847ZM55.9062 22.2642C55.4869 22.2573 55.0688 22.2182 54.6555 22.1472C54.5395 20.6046 54.4681 14.2641 54.4761 8.7219C55.0259 8.52918 55.6052 8.43624 56.1872 8.4474C58.6012 8.4474 59.9518 11.1627 59.9607 14.589C59.9678 18.954 58.2961 22.2642 55.9062 22.2642ZM58.4629 6.6699C56.9517 6.6699 55.7384 7.0677 54.477 7.6707C54.4913 4.1877 54.535 1.1484 54.6216 0L47.2806 1.3833V2.0268L47.996 2.1195C49.0201 2.2545 49.4127 2.8395 49.534 4.1733C49.765 6.7257 49.732 20.4354 49.534 22.6332C51.5091 23.0652 53.6492 23.4 55.7902 23.4C61.6164 23.4 65.1223 19.8855 65.1223 14.3298C65.1223 9.8721 62.2765 6.6699 58.4629 6.6699ZM19.5188 0.9H0V1.8405L1.03928 1.9854C2.52906 2.2005 3.1 3.123 3.27663 5.2326C3.61027 9.2709 3.56567 16.4916 3.27663 19.9647C3.1 22.0734 2.52817 22.9968 1.03928 23.2164L0 23.3568V24.3H12.5445V23.3568L11.2269 23.2164C9.73891 22.9968 9.16797 22.0734 8.99223 19.9647C8.8718 18.5319 8.79419 16.1091 8.76742 13.2705L11.3527 13.3551C13.0807 13.4109 13.8024 14.6934 14.2163 16.5924L15.1851 16.5942V8.6742H14.2163C13.8024 10.575 13.0807 11.8566 11.3527 11.9142L8.76118 11.997C8.74155 8.2566 8.81114 4.6638 8.99312 2.5065H12.8434C15.8515 2.5065 17.459 4.4208 18.4689 7.8057L19.6259 7.4817L19.5188 0.9Z" fill="white"/>
<path fill-rule="evenodd" clip-rule="evenodd" d="M25.3129 7.34889C22.8624 7.34889 22.1764 10.5844 22.1764 14.8504C22.1764 19.0012 23.262 22.3528 25.536 22.3528C27.9839 22.3528 28.6708 19.1164 28.6708 14.8504C28.6708 10.7005 27.5869 7.34889 25.3129 7.34889ZM25.6002 6.30039C31.1454 6.30039 33.8993 9.96969 33.8993 14.8072C33.8993 19.5295 30.7886 23.4004 25.246 23.4004C19.7026 23.4004 16.9496 19.7311 16.9496 14.8927C16.9496 10.1713 20.0568 6.30039 25.6002 6.30039ZM70.473 12.9343L75.8612 12.8263C75.8898 10.5781 75.508 7.36329 73.5686 7.36329C71.6185 7.36329 70.5212 10.4053 70.473 12.9343ZM65.1223 14.9953C65.1178 10.5169 68.1153 6.30039 74.0378 6.30039C78.8551 6.30039 81.1549 9.66729 81.1799 14.0737H70.4338C70.3151 18.0688 72.4597 21.0064 76.5687 21.0064C78.3751 21.0064 79.3502 20.5834 80.4439 19.795L80.947 20.3656C79.7543 21.9226 77.2663 23.4004 73.9673 23.4004C68.7888 23.4004 65.1277 19.9435 65.1223 14.9953ZM49.0647 6.81249C47.1985 5.69739 43.7979 6.22479 42.0744 10.1839L42.1609 6.32919L34.7914 7.75839V8.42349L35.5095 8.51349C36.5381 8.65749 36.9368 9.26049 37.0608 10.6366C37.2928 13.27 37.258 17.9842 37.0608 20.2531C36.9359 21.6265 36.5381 22.2322 35.5086 22.3735L34.7914 22.4662V23.4004H45.053V22.4662L43.714 22.3735C42.6819 22.2322 42.2849 21.6265 42.1654 20.2531C41.9798 18.1696 41.9388 14.0251 42.1136 11.3215C42.6078 10.507 45.0191 9.84999 47.2574 11.3503L49.0647 6.81339M103.037 12.4879L105.517 14.4004L104.569 11.3053L107.05 9.39459H103.983L103.037 6.30039L102.089 9.39459H99.0216L101.502 11.3053L100.556 14.4004L103.037 12.4879ZM120.931 9.39369L119.985 6.30039L119.036 9.39369H115.971L118.451 11.3071L117.504 14.4004L119.984 12.487L122.467 14.4004L121.518 11.3071L124 9.39369H120.931ZM107.55 19.2937L106.603 16.2004L105.656 19.2937H102.59L105.07 21.2071L104.124 24.3004L106.603 22.387L109.084 24.3004L108.137 21.2071L110.619 19.2937H107.55ZM112.597 5.90619L115.079 3.99369H112.011L111.065 0.900391L110.116 3.99369H107.05L109.532 5.90619L108.583 9.00039L111.065 7.08789L113.547 9.00039L112.597 5.90619ZM120.432 19.2937H117.366L116.417 16.2004L115.471 19.2937H112.403L114.886 21.2053L113.937 24.3004L116.417 22.3879L118.899 24.3004L117.952 21.2053L120.432 19.2937ZM7.13669 30.5788H4.25793V36.0004H2.89036V30.5788H0V29.7004H7.13669V30.5788ZM13.0271 32.9305H15.5294C16.3332 32.9305 16.8952 32.3887 16.8952 31.7497C16.8952 31.1017 16.2065 30.5797 15.4527 30.5797H13.0262L13.0271 32.9305ZM11.5971 36.0004V29.7004H15.5419C17.1762 29.7004 18.3511 30.739 18.3511 31.7497C18.3511 32.593 17.649 33.3652 16.5759 33.6037L18.7338 36.0004H17.112L15.1209 33.8089H13.0271V36.0004H11.5971ZM27.2149 30.8092L25.7858 33.5515H28.5958L27.2149 30.8092ZM23.1942 36.0004L26.6573 29.7004H27.7724L31.223 36.0004H29.7823L28.8617 34.2877H25.5431L24.6483 36.0004H23.1942ZM36.2276 29.7004L38.8236 34.7494L41.3955 29.7004H42.8201L39.4035 36.0004H38.2437L34.7914 29.7004H36.2276ZM54.4173 35.122V36.0004H48.1727V29.7004H54.3013V30.5788H49.6089V32.3716H53.6733V33.1969H49.6089V35.122H54.4173ZM58.8777 36.0004V29.7004H60.2961V35.122H65.1223V36.0004H58.8777ZM79.0835 35.0707C78.3287 35.7007 77.4706 36.0004 76.4848 36.0004C74.1145 36.0004 72.259 34.2301 72.259 32.3707C72.259 30.4402 74.0904 28.8004 76.5357 28.8004C78.2395 28.8004 79.4037 29.4205 80.0059 30.3502L78.905 30.9703C78.418 30.2008 77.5223 29.8102 76.4973 29.8102C74.8202 29.8102 73.7184 31.0405 73.7184 32.4004C73.7184 33.8305 74.9611 34.9906 76.5999 34.9906C77.5089 34.9906 78.3412 34.6504 79.0835 33.9403V33.1906H77.1762V32.3608H80.2878V35.95H79.0835V35.0707ZM91.4612 32.8729V29.7004H92.777V32.8729C92.777 34.5811 91.7529 36.0004 89.2033 36.0004C86.5716 36.0004 85.6403 34.4938 85.6403 32.8729V29.7004H86.9445V32.8729C86.9445 34.0177 87.4914 35.1103 89.2033 35.1103C90.9375 35.1103 91.4612 33.9916 91.4612 32.8729ZM98.1295 36.0004H99.0216V29.7004H98.1295V36.0004ZM108.273 30.5788H106.603V35.122H108.273C110.064 35.122 111.042 34.1365 111.042 32.8414C111.042 31.5193 110.028 30.5788 108.273 30.5788ZM105.266 36.0004V29.7004H108.273C111.007 29.7004 112.403 31.1026 112.403 32.8414C112.403 34.7494 110.779 36.0004 108.273 36.0004H105.266ZM124 35.122V36.0004H117.755V29.7004H123.884V30.5788H119.192V32.3716H123.256V33.1969H119.192V35.122H124Z" fill="white"/>
</g>
<defs>
<clipPath id="clip0_1263_2632">
<rect width="124" height="36" fill="white"/>
</clipPath>
</defs>
</svg>
