<svg width="113" height="20" viewBox="0 0 113 20" fill="none" xmlns="http://www.w3.org/2000/svg">
<g clip-path="url(#clip0_1263_2665)">
<path d="M16.1976 0.604331H0.000244141V4.18813H5.97855V19.47H10.2197V4.18813H16.198L16.1976 0.604331ZM32.0362 13.0655C31.7105 13.8894 31.1797 14.6163 30.4944 15.1772C29.8091 15.7381 28.992 16.1144 28.1205 16.2704C27.7956 16.328 27.4663 16.3572 27.1364 16.3577C26.8024 16.3577 26.4733 16.3262 26.1554 16.2704C25.284 16.1149 24.4669 15.7387 23.7818 15.1777C23.0967 14.6167 22.5665 13.8896 22.2415 13.0655C21.8636 12.1008 21.67 11.0736 21.6706 10.0374C21.6706 8.96877 21.8738 7.94515 22.2415 7.00747C22.5669 6.18371 23.0972 5.45687 23.7823 4.89601C24.4673 4.33515 25.2842 3.95889 26.1554 3.80297C26.8048 3.68317 27.4706 3.68317 28.12 3.80297C28.9914 3.95864 29.8086 4.33469 30.4939 4.89539C31.1793 5.45608 31.71 6.18282 32.0357 7.00658C32.7951 8.95472 32.7955 11.1174 32.0362 13.0655ZM27.1355 0.0374015C21.6202 0.0374015 17.1444 4.51434 17.1444 10.0374C17.1444 15.5568 21.6202 20.0347 27.1359 20.0347C32.6552 20.0347 37.1275 15.5568 37.1275 10.0378C37.1275 4.51434 32.6548 0.0374015 27.1355 0.0374015ZM37.1945 0.604331H42.19L46.8552 8.71545L51.5203 0.604331H56.5141L48.9753 12.4905V19.47H44.735V12.4905L37.1945 0.604331ZM66.5847 16.3595C66.9179 16.3595 67.2488 16.3258 67.5657 16.2704C68.4371 16.1153 69.2544 15.7395 69.9396 15.1787C70.6248 14.6179 71.1551 13.8909 71.4801 13.0669C72.2451 11.1202 72.2451 8.95588 71.4801 7.00927C71.1551 6.18507 70.6248 5.45782 69.9397 4.89674C69.2545 4.33567 68.4372 3.95944 67.5657 3.80387C66.9151 3.68741 66.249 3.68741 65.5984 3.80387C64.7273 3.95942 63.9104 4.33557 63.2256 4.8965C62.5408 5.45742 62.0109 6.18446 61.6863 7.00837C61.3075 7.97291 61.1132 9.00011 61.1135 10.0365C61.1135 11.106 61.3168 12.1269 61.6863 13.0664C62.0107 13.8904 62.5406 14.6174 63.2254 15.1782C63.9102 15.739 64.7272 16.1149 65.5984 16.27C65.9239 16.3288 66.254 16.3588 66.5847 16.3595ZM56.5914 10.0365C56.5914 4.51388 61.0628 0.0351562 66.5843 0.0351562C72.0996 0.0351562 76.5754 4.51208 76.5754 10.0365C76.575 15.5555 72.0996 20.0369 66.5843 20.0369C61.0628 20.0369 56.5914 15.5555 56.5914 10.0365ZM105.503 12.0027L102.727 4.54898L99.9478 12.0027H105.503ZM106.733 15.3035H98.7097L97.1664 19.4578H92.4477L100.084 0.59038H105.361L113 19.4578H108.287L106.733 15.3035ZM93.6939 0.60388H77.497V4.18813H83.478L83.4762 19.4695H87.7192L87.7174 4.18813H93.6939V0.60388Z" fill="white"/>
</g>
<defs>
<clipPath id="clip0_1263_2665">
<rect width="113" height="20" fill="white"/>
</clipPath>
</defs>
</svg>
