<svg width="131" height="33" viewBox="0 0 131 33" fill="none" xmlns="http://www.w3.org/2000/svg">
<g clip-path="url(#clip0_1263_2671)">
<path d="M56.6443 32.2285V-0.000300711H61.777V32.2285H56.6443Z" fill="white"/>
<path d="M67.9651 32.2285V-0.000300711H73.0978V32.2285H67.9651Z" fill="white"/>
<path d="M82.4232 22.143C82.4232 22.8912 82.5558 23.6389 82.8214 24.3871C83.0728 25.0937 83.4426 25.7107 83.9316 26.2372C84.4203 26.7635 85.0139 27.1859 85.7125 27.5046C86.3832 27.8093 87.1578 27.962 88.038 27.962C88.9314 27.962 89.7136 27.8093 90.3843 27.5046C91.0825 27.1859 91.6762 26.7635 92.1652 26.2372C92.6538 25.7107 93.024 25.0937 93.2754 24.3871C93.5406 23.6389 93.6736 22.8912 93.6736 22.143C93.6736 21.3666 93.5406 20.6185 93.2754 19.8978C93.024 19.2194 92.6538 18.6027 92.1652 18.0484C91.7041 17.5358 91.1101 17.1134 90.3843 16.781C89.6718 16.4623 88.8896 16.3032 88.038 16.3032C87.2003 16.3032 86.425 16.4623 85.7125 16.781C84.9863 17.1134 84.3926 17.5358 83.9316 18.0484C83.4426 18.6027 83.0728 19.2194 82.8214 19.8978C82.5558 20.6185 82.4232 21.3666 82.4232 22.143ZM77.1858 22.143C77.1858 20.6424 77.4652 19.2526 78.0239 17.9748C78.5965 16.6548 79.3714 15.5223 80.3491 14.5774C81.3267 13.6191 82.4788 12.8691 83.8063 12.3268C85.1327 11.785 86.5434 11.5137 88.038 11.5137C89.5603 11.5137 90.9779 11.785 92.2909 12.3268C93.6035 12.8691 94.7555 13.6191 95.7477 14.5774C96.725 15.5223 97.5003 16.6548 98.0728 17.9748C98.6312 19.2526 98.911 20.6424 98.911 22.143C98.911 23.6262 98.6312 25.0055 98.0728 26.2823C97.5141 27.5716 96.7388 28.6946 95.7477 29.6508C94.7697 30.5943 93.6177 31.3498 92.2909 31.9186C90.9917 32.4729 89.5741 32.75 88.038 32.75C86.5154 32.75 85.1051 32.4729 83.8063 31.9186C82.4788 31.3498 81.3267 30.5943 80.3491 29.6508C79.3714 28.6946 78.5965 27.5716 78.0239 26.2823C77.4652 25.0055 77.1858 23.6262 77.1858 22.143Z" fill="white"/>
<path d="M125.867 11.9705L121.048 22.3394L121.032 22.3344L116.164 11.4571H115.054L110.189 22.3344L110.172 22.3394L105.353 11.9705H100.22L109.482 32.2285H110.086H110.591L115.61 22.3356L120.626 32.2285H121.135H121.735L131 11.9705H125.867" fill="white"/>
<path d="M25.6465 11.9724L20.828 22.3413L20.811 22.3364L15.9433 11.459H14.8339L9.9679 22.3364L9.95087 22.3413L5.13255 11.9724H-0.000244141L9.26161 32.2305H9.86502H10.371L15.3895 22.3375L20.4055 32.2305H20.9138H21.5149L30.7795 11.9724H25.6465Z" fill="white"/>
<path d="M37.3269 20.2581H47.4034C47.3751 19.8381 47.2567 19.3755 47.0474 18.8704C46.8378 18.3796 46.5239 17.9243 46.1046 17.5031C45.6857 17.0828 45.1619 16.7467 44.5333 16.4943C43.9048 16.2416 43.1644 16.1153 42.3128 16.1153C41.4885 16.1153 40.7692 16.2416 40.1552 16.4943C39.5964 16.7324 39.0932 17.0623 38.6464 17.4826C38.2413 17.875 37.927 18.3235 37.704 18.8288C37.466 19.3612 37.3407 19.8381 37.3269 20.2581V20.2581ZM32.0894 22.0492C32.0894 20.5642 32.3472 19.1969 32.8642 17.9476C33.395 16.6703 34.1074 15.5536 35.0011 14.5953C35.8672 13.6656 36.9425 12.916 38.2275 12.3465C39.4703 11.7916 40.832 11.5138 42.3128 11.5138C43.7374 11.5138 45.0569 11.7711 46.2721 12.2845C47.5568 12.8257 48.6463 13.5408 49.5404 14.4286C50.4479 15.3312 51.1814 16.4418 51.7402 17.7598C52.2848 19.0512 52.5573 20.4805 52.5573 22.0492V22.8397C52.5573 23.0621 52.5431 23.437 52.5155 23.9647H37.3269C37.4242 24.3967 37.6335 24.8779 37.955 25.4086C38.2762 25.9243 38.6743 26.3641 39.1492 26.7265C39.68 27.1313 40.2598 27.4522 40.888 27.6891C41.5303 27.9401 42.278 28.0659 43.1299 28.0659C44.0098 28.0659 44.9381 27.9129 45.9161 27.6059C46.8934 27.2987 47.7944 26.7681 48.6187 26.0153L51.1956 29.849C50.3291 30.5534 49.212 31.2099 47.8434 31.8174C46.4469 32.4393 44.8476 32.75 43.046 32.75C41.4816 32.75 40.0429 32.4795 38.7303 31.9384C37.4173 31.3971 36.2581 30.6404 35.2527 29.6685C34.2749 28.7115 33.4996 27.573 32.9274 26.2541C32.3685 24.9639 32.0894 23.5621 32.0894 22.0492" fill="white"/>
</g>
<defs>
<clipPath id="clip0_1263_2671">
<rect width="131" height="32.75" fill="white"/>
</clipPath>
</defs>
</svg>
