<svg viewBox="0 0 94 42" fill="none" xmlns="http://www.w3.org/2000/svg">
<g clip-path="url(#clip0_2552_21315)">
<path d="M1.04102 4.09922V2.69922H5.20434V4.48992H4.7815L1.04102 4.09922ZM5.20434 18.0341V19.8248H1.04102V18.4248L4.81403 18.0341H5.20434ZM3.0251 10.9039C3.0251 8.16899 3.0251 5.4341 2.96005 2.73178H7.4161C7.35105 5.40154 7.35105 8.13643 7.35105 10.9039V11.5225C7.35105 14.355 7.35105 17.0899 7.4161 19.8248H2.96005C3.0251 17.155 3.0251 14.4201 3.0251 11.6527V10.9039ZM5.20434 10.1876H8.03409C10.2459 10.1876 11.2542 9.11317 11.2542 7.06201C11.2542 5.14108 10.3109 4.19689 8.26178 4.19689H5.20434V2.69922H9.43271C13.8562 2.69922 15.4825 4.4248 15.4825 6.73643C15.4825 8.68992 14.2791 10.3178 10.0832 10.8062V10.5783C14.7019 10.8713 16.4908 12.4992 16.4908 15.0062C16.4908 17.1876 14.8971 19.8248 8.42441 19.8248H5.20434V18.3271H8.22925C10.6362 18.3271 12.0348 17.1876 12.0348 14.9736C12.0348 12.5969 10.7988 11.555 8.19672 11.555H5.20434V10.1876Z" fill="#590C69"/>
<path d="M29.9566 12.3383C29.9566 12.8918 29.9241 13.315 29.8265 13.7383H19.6133V12.3708H24.4922C25.7282 12.3708 26.0535 11.915 26.0535 10.7429C26.0535 9.01733 25.2403 8.17082 24.2971 8.17082C23.2237 8.17082 22.2154 9.34291 22.2154 13.1197C22.2154 16.3104 23.7767 17.7429 25.7282 17.7429C27.1268 17.7429 28.1026 17.1569 28.8832 16.3429L29.794 17.1894C28.7206 19.2406 26.8666 20.2173 24.3296 20.2173C20.5566 20.2173 17.8569 17.7429 17.8569 13.5429C17.8569 9.18012 21.2071 6.83594 24.5573 6.83594C28.005 6.83594 29.9566 9.18012 29.9566 12.3383Z" fill="#590C69"/>
<path d="M35.7462 13.0871C35.7462 16.0825 37.1773 17.7429 39.3566 17.7429C40.5925 17.7429 41.5358 17.1569 42.2839 16.2778L43.1946 17.0918C42.1863 19.208 40.3323 20.2173 37.8604 20.2173C34.315 20.2173 31.3877 17.9383 31.3877 13.5755C31.3877 9.31036 34.5427 6.83594 38.4133 6.83594C41.1455 6.83594 43.097 8.56152 43.2597 10.6127C42.9669 11.5569 42.4465 11.9801 41.5033 11.9801C40.4624 11.9801 39.6168 11.3615 39.5192 9.50571L39.2915 7.64989L41.178 8.72431C40.3649 8.33361 39.6818 8.17082 38.8687 8.17082C37.3725 8.17082 35.7462 9.57082 35.7462 13.0871Z" fill="#590C69"/>
<path d="M49.1143 13.0871C49.1143 16.0825 50.5455 17.7429 52.7247 17.7429C53.9607 17.7429 54.904 17.1569 55.6521 16.2778L56.5628 17.0918C55.5545 19.208 53.7005 20.2173 51.2285 20.2173C47.6832 20.2173 44.7559 17.9383 44.7559 13.5755C44.7559 9.31036 47.9109 6.83594 51.7815 6.83594C54.5136 6.83594 56.4652 8.56152 56.6278 10.6127C56.3351 11.5569 55.8147 11.9801 54.8714 11.9801C53.8306 11.9801 52.9849 11.3615 52.8873 9.50571L52.6597 7.64989L54.5462 8.72431C53.733 8.33361 53.05 8.17082 52.2368 8.17082C50.7406 8.17082 49.1143 9.57082 49.1143 13.0871Z" fill="#590C69"/>
<path d="M63.1979 12.5649C64.2712 12.2393 66.1252 11.7509 67.3287 11.4579V12.5323C66.0927 12.8579 64.6941 13.216 63.946 13.5742C62.775 14.0625 61.9944 14.9416 61.9944 16.1788C61.9944 17.4811 62.6775 18.0997 63.5557 18.0997C64.0436 18.0997 64.4664 17.9044 65.2795 17.2858L66.3204 16.5044L66.5806 16.8951L65.4747 18.0672C64.2062 19.4021 63.393 20.216 61.5065 20.216C59.4899 20.216 58.0913 19.0439 58.0913 16.8951C58.1889 15.0393 59.1972 13.737 63.1979 12.5649ZM65.182 17.6765V11.1649C65.182 8.85323 64.7266 8.16951 63.0678 8.16951C62.4173 8.16951 61.7667 8.23463 60.6283 8.56021L62.4173 7.55091L62.2221 9.37416C62.1571 11.0997 61.3114 11.816 60.3031 11.816C59.3598 11.816 58.7418 11.3602 58.5467 10.5137C58.6768 8.3323 60.791 6.86719 64.5314 6.86719C67.8816 6.86719 69.1827 8.26719 69.1827 11.7835V17.5788C69.1827 18.0997 69.4103 18.3277 69.7681 18.3277C70.0283 18.3277 70.256 18.1974 70.5487 17.7416L71.2318 18.1974C70.6138 19.63 69.6705 20.1509 68.1093 20.1509C66.3854 20.1835 65.4096 19.2718 65.182 17.6765Z" fill="#590C69"/>
<path d="M74.5171 19.0127L74.5821 15.822H76.6638L77.2493 19.3057L75.7856 18.7848V17.7104C76.924 18.3941 77.8347 18.7522 79.0382 18.7522C80.5344 18.7522 81.3475 18.2638 81.3475 17.222C81.3475 16.408 80.8596 15.8545 79.1683 15.3662L77.7697 14.9755C75.7531 14.3894 74.6147 13.0545 74.6147 11.1011C74.6147 8.69175 76.5337 6.83594 80.0465 6.83594C81.5752 6.83594 82.8112 7.19408 84.1773 7.8778L83.9821 10.7429H81.9005L81.1524 7.51966L82.5835 8.13826V9.11501C81.6728 8.52896 81.0873 8.2685 79.9164 8.2685C78.7455 8.2685 77.9648 8.78943 77.9648 9.73361C77.9648 10.4499 78.3551 10.9383 80.1441 11.4918L81.4126 11.8499C83.8846 12.5987 84.8603 13.9336 84.8603 15.8871C84.8603 18.6545 82.6486 20.2173 78.9731 20.2173C77.3468 20.2173 75.8832 19.8266 74.5171 19.0127Z" fill="#590C69"/>
<path d="M1.04102 25.2633V23.8633H9.23755V25.2633L5.43202 25.654H4.6514L1.04102 25.2633ZM5.43202 39.1982L9.23755 39.5889V40.9889H1.04102V39.5889L4.68392 39.1982H5.43202ZM2.99257 31.9377C2.99257 29.2679 2.99257 26.533 2.92752 23.8633H7.44863C7.38358 26.5005 7.38358 29.2028 7.38358 31.9377V32.7517C7.38358 35.5842 7.38358 38.3191 7.44863 40.9889H2.92752C2.99257 38.3517 2.99257 35.6493 2.99257 32.9144V31.9377ZM5.17181 32.947V31.4168H15.0922V32.947H5.17181ZM11.0265 25.2633V23.8633H19.223V25.2633L15.4825 25.654H14.767L11.0265 25.2633ZM15.5151 39.1982L19.2555 39.5889V40.9889H11.0265V39.5889L14.767 39.1982H15.5151ZM12.913 31.9377C12.913 29.2679 12.913 26.533 12.8479 23.8633H17.369C17.304 26.5005 17.304 29.2028 17.304 31.9377V32.9144C17.304 35.5842 17.304 38.3191 17.369 40.9889H12.8479C12.913 38.3517 12.913 35.6493 12.913 32.7517V31.9377Z" fill="#590C69"/>
<path d="M20.8169 34.638C20.8169 30.6333 23.7117 27.9961 27.4522 27.9961C31.1601 27.9961 34.055 30.5682 34.055 34.638C34.055 38.7077 31.4854 41.3775 27.4522 41.3775C23.3864 41.3775 20.8169 38.6426 20.8169 34.638ZM29.6314 34.7031C29.6314 30.9914 28.8833 29.3635 27.4197 29.3635C25.956 29.3635 25.2079 30.9914 25.2079 34.7031C25.2079 38.4147 25.9235 40.0426 27.4197 40.0426C28.8833 40.01 29.6314 38.4147 29.6314 34.7031Z" fill="#590C69"/>
<path d="M36.8848 40.9868C36.9498 39.8147 36.9498 37.1449 36.9498 35.517V34.0193C36.9498 32.5868 36.9498 32.0333 36.8848 30.9914L35.291 30.7635V29.7542L40.4301 28.0287L40.8855 28.3217L41.1132 31.2193V35.5496C41.1132 37.1775 41.1457 39.8473 41.1782 41.0193H36.8848V40.9868ZM42.3491 39.7821V40.9868H35.4862V39.7821L37.8931 39.2612H39.8772L42.3491 39.7821ZM48.8218 32.4891V35.517C48.8218 37.1775 48.8543 39.8147 48.8869 40.9868H44.6585C44.7235 39.8147 44.7235 37.1775 44.7235 35.517V33.01C44.7235 31.1868 44.3658 30.5356 43.2273 30.5356C42.0889 30.5356 40.918 31.4798 40.1374 32.4566H39.1616V30.7635H40.7879L40.0073 31.4798C41.6011 29.1356 43.0972 27.9961 45.0488 27.9961C47.5533 27.9961 48.8218 29.4612 48.8218 32.4891ZM47.6834 39.2612L50.0903 39.7821V40.9868H43.3575V39.7821L45.6668 39.2612H47.6834ZM56.5305 32.6193V35.517C56.5305 37.1775 56.563 39.8147 56.5955 40.9868H52.3671C52.4322 39.8147 52.4322 37.1775 52.4322 35.517V33.01C52.4322 31.0566 52.0094 30.5356 50.9685 30.5356C49.8626 30.5356 48.7893 31.2519 47.8135 32.4566H46.9028V30.731H48.7242L47.6509 31.5124C49.5049 28.81 50.936 28.0287 52.7249 28.0287C55.3595 27.9961 56.5305 29.4938 56.5305 32.6193ZM55.4246 39.2612L57.864 39.7821V40.9868H51.1637V39.7821L53.3429 39.2612H55.4246Z" fill="#590C69"/>
<path d="M71.1995 33.4984C71.1995 34.0519 71.1669 34.4752 71.0693 34.8984H60.8887V33.531H65.7676C67.0036 33.531 67.3289 33.0752 67.3289 31.9031C67.3289 30.1775 66.5157 29.331 65.5725 29.331C64.4991 29.331 63.4908 30.5031 63.4908 34.2798C63.4908 37.4705 65.052 38.9031 67.0036 38.9031C68.4022 38.9031 69.378 38.317 70.1586 37.5031L71.0693 38.3496C69.996 40.4007 68.142 41.3775 65.605 41.3775C61.832 41.3775 59.1323 38.9031 59.1323 34.7031C59.1323 30.3728 62.4825 27.9961 65.8327 27.9961C69.2804 27.9961 71.1995 30.3403 71.1995 33.4984Z" fill="#590C69"/>
<path d="M71.2319 8.65872C71.6547 8.43081 72.2727 8.07267 72.8907 7.48662C73.4436 6.96569 74.9073 5.63081 75.1025 3.6122C75.135 3.12383 75.2326 2.11453 74.6146 1.30058C74.2243 0.844762 73.7689 0.649413 73.6713 0.616855C73.5737 0.584296 72.6955 0.258715 71.8499 0.747087C71.0042 1.23546 70.6464 2.24476 70.7765 3.12383C70.9391 4.06802 71.6872 4.84941 72.663 5.10988C72.5004 5.4029 72.3052 5.69592 72.0776 5.98895C71.5571 6.67267 71.0367 7.1936 70.5488 7.5843C70.744 7.94244 70.9717 8.30058 71.2319 8.65872Z" fill="#590C69"/>
<path d="M79.3311 34.9331L85.1532 30.4727L90.9754 34.9331V40.9889H86.5193C86.5193 39.7517 86.5193 38.5145 86.5193 37.2773C85.6736 37.2773 84.8279 37.2773 83.9823 37.2773C83.9823 38.5145 83.9823 39.7517 83.9823 40.9889H79.3311V34.9331Z" fill="#006EBF"/>
<path d="M76.3062 33.9882L85.1532 27.1836L88.9262 30.1138C88.9262 29.2673 88.9262 28.4534 88.9262 27.6069C89.8044 27.6069 90.6501 27.6069 91.5283 27.6069C91.5283 29.1045 91.5283 30.5696 91.5283 32.0673L94.0003 33.9882L92.7968 35.5836L85.1532 29.7231L77.5096 35.5836L76.3062 33.9882Z" fill="#006EBF"/>
</g>
<defs>
<clipPath id="clip0_2552_21315">
<rect width="94" height="42" fill="white"/>
</clipPath>
</defs>
</svg>
