<svg viewBox="0 0 92 36" fill="none" xmlns="http://www.w3.org/2000/svg">
<mask id="mask0_2552_21375" style="mask-type:luminance" maskUnits="userSpaceOnUse" x="0" y="1" width="92" height="34">
<path d="M92 1.08594H0V34.911H92V1.08594Z" fill="white"/>
</mask>
<g mask="url(#mask0_2552_21375)">
<path d="M35.4322 9.02801C35.4274 7.9507 35.6454 6.88404 36.0724 5.89508C36.4855 4.93671 37.094 4.07527 37.8591 3.36591C38.6315 2.64221 39.5348 2.07293 40.5207 1.68875C41.5362 1.28996 42.6179 1.08736 43.7086 1.09168C45.4316 1.05337 47.1143 1.61541 48.4687 2.68163V6.22379C47.8368 5.59016 47.0937 5.07846 46.2764 4.71436C45.4676 4.35673 44.5929 4.17276 43.7086 4.1743C43.0588 4.17182 42.4146 4.29483 41.8114 4.53657C41.2252 4.77023 40.6926 5.12057 40.2458 5.56635C39.5688 6.26227 39.11 7.14118 38.926 8.09481C38.7419 9.04844 38.8407 10.0351 39.21 10.9333C39.4485 11.5135 39.8019 12.0395 40.249 12.4794C40.6961 12.9192 41.2275 13.2639 41.8114 13.4926C42.4146 13.7344 43.0588 13.8574 43.7086 13.8549C44.5931 13.8582 45.4682 13.6741 46.2764 13.3149C47.0958 12.9532 47.8396 12.4399 48.4687 11.802V15.3577C47.1132 16.4214 45.4309 16.9821 43.7086 16.9443C42.6192 16.9508 41.5381 16.754 40.5207 16.3639C39.5346 15.9841 38.6327 15.4143 37.8658 14.6867C37.1025 13.9694 36.4944 13.1028 36.0791 12.1408C35.6505 11.1592 35.4303 10.0992 35.4322 9.02801Z" fill="#222222"/>
<path d="M50.688 16.7043V1.32812H56.7957C57.2694 1.33188 57.7406 1.39843 58.1969 1.52604C58.7323 1.68031 59.2355 1.93033 59.6819 2.26398C60.1669 2.60626 60.555 3.06856 60.8082 3.60571C61.0494 4.11682 61.1774 4.67404 61.1836 5.23927C61.1987 5.92114 61.0147 6.59261 60.6539 7.17135C60.3183 7.70652 59.8132 8.11388 59.2193 8.3286C59.6012 8.38625 59.9727 8.49925 60.3221 8.66404C60.7123 8.85602 61.0635 9.11874 61.358 9.43888C61.6923 9.79478 61.9381 10.2246 62.0753 10.6934C62.2236 11.1577 62.3015 11.6416 62.3066 12.1291C62.3105 12.7415 62.1907 13.3484 61.9546 13.9135C61.7271 14.4642 61.3898 14.9626 60.9633 15.3785C60.5368 15.7943 60.03 16.1188 59.474 16.3321C58.8872 16.5591 58.2628 16.6728 57.6337 16.6674L50.688 16.7043ZM54.0167 7.45983H56.2425C56.4602 7.46586 56.6769 7.42797 56.8796 7.34844C57.0823 7.26891 57.2669 7.14937 57.4225 6.99693C57.5792 6.84597 57.7027 6.66378 57.7846 6.46213C57.8666 6.26049 57.9054 6.04387 57.8985 5.82627C57.9016 5.61787 57.8621 5.41103 57.7825 5.2184C57.703 5.02578 57.5851 4.8514 57.436 4.70593C57.2842 4.55379 57.1031 4.43402 56.9037 4.35389C56.7043 4.27375 56.4908 4.2349 56.2761 4.23968H54.0268L54.0167 7.45983ZM54.0167 13.7693H56.9465C57.4696 13.7826 57.9769 13.5884 58.3578 13.2293C58.5434 13.0594 58.6906 12.8519 58.7895 12.6205C58.8883 12.389 58.9366 12.1392 58.931 11.8875C58.9364 11.6443 58.8888 11.4028 58.7915 11.1798C58.6942 10.9568 58.5497 10.7576 58.3679 10.5961C57.9734 10.2412 57.4565 10.0536 56.9264 10.0729H54.0167V13.7693Z" fill="#222222"/>
<path d="M64.5322 16.7055V1.32928H70.3549C71.5408 1.31122 72.7203 1.50547 73.8378 1.90286C74.8047 2.2459 75.6854 2.79529 76.419 3.51294C77.1124 4.20886 77.6456 5.04801 77.9811 5.97166C78.3415 6.95664 78.5209 7.9987 78.5107 9.04758C78.5425 10.4841 78.1957 11.9036 77.5051 13.1634C76.8565 14.3213 75.8627 15.2478 74.6624 15.8133C73.3156 16.4315 71.8464 16.7365 70.365 16.7055H64.5322ZM67.928 13.6162H70.1538C71.7383 13.6162 72.9584 13.2562 73.8144 12.5361C74.6703 11.8161 75.0961 10.6532 75.0916 9.04758C75.0916 7.41737 74.6658 6.23776 73.8144 5.50876C72.9629 4.77975 71.7338 4.41637 70.1269 4.41861H67.9247L67.928 13.6162Z" fill="#222222"/>
<path d="M35.4321 34.914V18.9844L43.5377 27.8331L51.6498 18.9844V34.914H48.3848V27.1018L43.5377 32.5492L38.6837 27.0984V34.9107L35.4321 34.914Z" fill="#222222"/>
<path d="M53.3999 34.9146L61.4048 18.6562L69.4064 34.9146H66.8688C66.545 34.9145 66.2277 34.8232 65.9533 34.6512C65.6788 34.4791 65.4583 34.2333 65.3168 33.9418L65.072 33.4354C64.9297 33.1448 64.7089 32.8999 64.4346 32.7285C64.1603 32.5572 63.8434 32.4662 63.52 32.466H58.1833L56.9934 34.9146H53.3999ZM59.4338 29.5745H63.3357L61.3746 25.5494L59.4338 29.5745Z" fill="#222222"/>
<path d="M71.146 34.9113V19.5352H74.5418V31.822H80.5387V34.9113H71.146Z" fill="#222222"/>
<path d="M82.6108 34.9113V19.5352H86.0065V31.822H92.0036V34.9113H82.6108Z" fill="#222222"/>
<path d="M22.0002 8.46875V11.3669H27.2966V32.0094H2.89626V11.3669H8.19268V8.46875H0V34.9109H30.1929V8.46875H22.0002Z" fill="url(#paint0_linear_2552_21375)"/>
<path d="M15.098 1.09375H15.0679C11.8666 1.09375 9.54688 3.56924 9.54688 6.98394V11.3647H20.6492V6.98394C20.6492 3.56924 18.3128 1.09375 15.098 1.09375ZM12.1147 8.47326V6.98394C12.1147 5.19609 13.3147 3.99859 15.098 3.99859H15.1282C16.8948 3.99859 18.0782 5.19609 18.0782 6.98394V8.46655L12.1147 8.47326Z" fill="url(#paint1_linear_2552_21375)"/>
<path d="M18.4367 12.6758H18.3964C16.6868 12.6758 15.7147 13.5546 15.0979 14.8829C14.4812 13.5411 13.509 12.6758 11.7994 12.6758H11.7558C9.11432 12.6758 7.69971 14.8527 7.69971 18.1534V21.8767H22.4962V18.1534C22.4962 14.8527 21.0781 12.6758 18.4367 12.6758ZM10.0161 19.3173V18.1265C10.0161 16.3554 10.6865 15.2753 12.0273 15.2753H12.0709C13.3179 15.2753 14.0587 16.2816 14.0587 18.3244V19.3307L10.0161 19.3173ZM16.1471 19.3173V18.311C16.1471 16.2581 16.8846 15.2619 18.135 15.2619H18.1752C19.516 15.2619 20.2066 16.342 20.2066 18.1198V19.3039L16.1471 19.3173Z" fill="url(#paint2_linear_2552_21375)"/>
<path d="M15.098 30.7038H15.1282C18.3262 30.7038 20.6492 28.225 20.6492 24.8137V23.2305H18.0782V24.8137C18.0782 26.5982 16.8814 27.799 15.098 27.799H15.0679C13.3013 27.799 12.1147 26.5982 12.1147 24.8137V23.2305H9.54688V24.8137C9.54688 28.225 11.8799 30.7038 15.098 30.7038Z" fill="url(#paint3_linear_2552_21375)"/>
</g>
<defs>
<linearGradient id="paint0_linear_2552_21375" x1="3.29123e-07" y1="10.5783" x2="31.6234" y2="15.8266" gradientUnits="userSpaceOnUse">
<stop stop-color="#006CBB"/>
<stop offset="1" stop-color="#05BAEE"/>
</linearGradient>
<linearGradient id="paint1_linear_2552_21375" x1="9.54688" y1="1.91315" x2="21.2077" y2="3.7452" gradientUnits="userSpaceOnUse">
<stop stop-color="#006CBB"/>
<stop offset="1" stop-color="#05BAEE"/>
</linearGradient>
<linearGradient id="paint2_linear_2552_21375" x1="7.69971" y1="13.4097" x2="22.7992" y2="16.9391" gradientUnits="userSpaceOnUse">
<stop stop-color="#006CBB"/>
<stop offset="1" stop-color="#05BAEE"/>
</linearGradient>
<linearGradient id="paint3_linear_2552_21375" x1="9.54687" y1="23.8266" x2="20.9633" y2="26.2917" gradientUnits="userSpaceOnUse">
<stop stop-color="#006CBB"/>
<stop offset="1" stop-color="#05BAEE"/>
</linearGradient>
</defs>
</svg>
