<svg viewBox="0 0 132 31" fill="none" xmlns="http://www.w3.org/2000/svg">
<path d="M57.9536 30.7859C56.2748 30.4744 54.4926 29.68 53.8267 28.9447L53.5388 28.6258L54.4173 27.8107C55.1098 27.1684 55.3431 27.0296 55.5173 27.1522C56.8728 28.1105 58.7184 28.6937 60.3898 28.6937C62.5603 28.6937 64.124 28.0115 64.1978 27.0326C64.2716 26.0758 63.5289 25.7702 60.759 25.6166C56.0415 25.3523 54.2844 24.459 54.2874 22.321C54.2918 20.0915 56.3516 18.6282 59.8686 18.358C61.918 18.2 65.0881 18.8364 66.4982 19.6869L67.0431 20.0162L66.4229 20.8947C66.0818 21.379 65.7851 21.7983 65.7644 21.8264C65.7437 21.8544 65.3067 21.6728 64.7928 21.4218C63.6161 20.8474 62.0465 20.5197 60.4814 20.5197C58.9886 20.5197 57.927 20.8164 57.3822 21.3864C56.5066 22.3003 57.1725 22.9249 59.2825 23.1656C60.0133 23.2483 61.2743 23.3915 62.0834 23.483C64.7308 23.7828 66.1202 24.3822 66.5971 25.4321C67.3738 27.1448 66.4082 29.082 64.2214 30.1909C63.6899 30.4611 62.863 30.7534 62.3846 30.842C61.2536 31.0517 59.2544 31.0251 57.9536 30.7859ZM75.8579 30.8598C73.432 30.4183 71.7916 29.2607 70.8289 27.3146C70.3918 26.4302 70.3564 26.2456 70.3564 24.8784C70.3564 23.5273 70.3948 23.3236 70.7993 22.5248C71.7148 20.7175 73.4556 19.3945 75.598 18.8778C76.9003 18.5647 79.4532 18.6415 80.7541 19.0343C81.8113 19.3547 83.4236 20.0427 83.4236 20.1756C83.4236 20.2731 82.2395 21.9962 82.173 21.9962C82.1405 21.9962 81.5617 21.7895 80.887 21.537C79.2835 20.9375 77.3758 20.7972 75.9716 21.1767C74.7771 21.5001 73.3892 22.6724 73.1145 23.5879C72.3748 26.0566 73.8011 28.1105 76.5238 28.5003C78.1214 28.7291 80.3111 28.205 81.5853 27.291L82.2513 26.8126L82.6898 27.2925C82.9305 27.5568 83.1283 27.827 83.1283 27.8934C83.1283 27.9599 83.2272 28.0972 83.3498 28.1976C83.8873 28.6435 83.4443 29.1352 81.7079 30.0152C80.2033 30.7771 77.5249 31.1639 75.8579 30.8598ZM92.1351 30.8406C88.3213 30.0949 85.9071 27.0769 86.5081 23.8079C86.8551 21.9238 88.1308 20.369 90.0857 19.4418C92.4452 18.3241 95.7216 18.3167 98.1918 19.4256C99.3952 19.966 100.993 21.6315 101.381 22.7522C101.765 23.861 101.756 25.7894 101.363 26.8657C101 27.8595 99.5679 29.4393 98.5034 30.0181C96.9309 30.8745 94.1476 31.2348 92.1351 30.8406ZM96.3033 28.3467C97.554 27.9613 98.1579 27.5361 98.6968 26.662C99.0482 26.095 99.1516 25.7392 99.1914 24.9669C99.2653 23.5539 98.7544 22.5912 97.486 21.757C96.2945 20.9744 95.2314 20.7397 93.5009 20.877C90.917 21.0822 89.1584 22.4362 88.9458 24.3837C88.7376 26.2958 89.8406 27.7295 92.0613 28.4338C93.0077 28.7336 95.1959 28.6893 96.3033 28.3467ZM5.70972 30.7564C5.65509 30.7032 5.61079 28.0115 5.61079 24.7765V18.8955H9.72439C14.2485 18.8955 15.1418 18.9959 16.0203 19.5983C17.3462 20.5093 17.829 22.6695 17.0716 24.2966C16.3289 25.8898 15.5581 26.1304 11.195 26.1304H7.97323V28.4929V30.8553H6.89094C6.29442 30.8553 5.76287 30.811 5.70972 30.7564ZM14.5659 23.926C15.2451 23.5126 15.4622 22.7551 15.1093 22.0316C14.6368 21.066 14.2322 20.9626 10.8894 20.9626H7.97323V22.4879C7.97323 23.328 8.01753 24.0589 8.07216 24.112C8.12531 24.1667 9.50439 24.211 11.1359 24.211C13.7981 24.2095 14.1481 24.1814 14.5659 23.926ZM21.6621 30.7623C21.6045 30.7047 21.5573 29.2075 21.5573 27.4342V24.211L25.5808 24.208C29.247 24.2051 29.6604 24.1785 30.2377 23.9171C31.0882 23.5303 31.4219 22.8112 31.0823 22.0951C30.9568 21.8308 30.6394 21.4838 30.3765 21.3258C29.938 21.0601 29.56 21.0335 25.7284 20.9907L21.5573 20.9464V19.9911V19.0357L26.1552 19.0476C30.7028 19.0594 30.7604 19.0623 31.4514 19.4123C32.7951 20.0944 33.4329 21.2195 33.3311 22.7344C33.2218 24.3542 32.5086 25.3759 31.1739 25.8278L30.4459 26.0758L31.5755 27.5553C32.1971 28.3689 32.9885 29.3567 33.337 29.7494C33.6839 30.1422 33.9438 30.5349 33.9158 30.622C33.8848 30.715 33.3237 30.7992 32.5603 30.8243C30.9819 30.876 31.1133 30.9764 29.0108 28.1356L27.5372 26.1437L25.8067 26.1363L24.0747 26.1304L24.0349 28.456L23.9935 30.7815L22.8802 30.8243C22.2675 30.8479 21.7182 30.8199 21.6621 30.7623ZM38.3409 30.7564C38.2863 30.7032 38.242 28.0115 38.242 24.7765V18.8955H43.7051H49.1683V19.929V20.9626H44.8863H40.6044V22.2915V23.6204H44.591H48.5777V24.651V25.6831L44.6279 25.7214L40.6782 25.7613L40.6354 27.2009L40.5941 28.6405H45.1019H49.6112V29.7479V30.8553H44.0255C40.9529 30.8553 38.3941 30.811 38.3409 30.7564ZM108.771 30.7564C108.716 30.7032 108.672 28.4766 108.672 25.81V20.9626H106.106H103.541L103.469 20.1136C103.429 19.647 103.429 19.1819 103.466 19.08C103.521 18.9339 105.942 18.8955 114.89 18.8955H126.243V19.929V20.9626H123.808H121.375L121.335 25.8721L121.296 30.7815H120.189H119.082L119.043 25.8721L119.003 20.9626H115.02H111.035V25.909V30.8553H109.952C109.356 30.8553 108.824 30.811 108.771 30.7564ZM18.4566 11.9721C16.6434 11.3859 15.1565 10.2401 14.3267 8.78866C13.5471 7.42731 13.4807 5.1889 14.1761 3.7611C14.5585 2.97559 15.6305 1.68806 16.2551 1.2643C17.8527 0.180528 21.4096 -0.321488 23.6465 0.21892C24.2431 0.363619 25.0876 0.638254 25.5232 0.828725C26.6188 1.3086 27.924 2.60941 28.4452 3.74043C28.8203 4.55399 28.8631 4.80648 28.8631 6.19737C28.8616 8.20987 28.5929 8.83739 27.1326 10.243C25.4641 11.848 24.28 12.2511 21.262 12.2408C19.7677 12.2363 19.0649 12.1699 18.4566 11.9721ZM24.1043 9.47525C25.0758 8.99686 26.0178 8.12718 26.2054 7.5351C26.2644 7.34905 26.3087 6.66838 26.3058 6.02166C26.2954 4.6293 25.9292 3.84674 24.9739 3.18526C23.27 2.00404 19.6968 1.88444 18.1317 2.95639C16.4249 4.1258 15.7988 5.49897 16.2447 7.101C16.4352 7.78758 17.3846 8.86544 18.2395 9.36599C19.1446 9.89606 19.8844 10.0289 21.6591 9.98022C22.9998 9.94183 23.2656 9.8872 24.1043 9.47525ZM73.1618 12.0444C72.2375 11.7521 70.8938 10.9311 70.2634 10.277C69.1604 9.12827 69.0438 8.57309 68.9847 4.16714L68.9315 0.291268H70.1984H71.4638V3.8113C71.4638 7.21174 71.4756 7.35496 71.8078 7.98248C72.5092 9.31135 74.2175 10.1397 75.9657 9.99942C77.2148 9.89901 78.7578 9.15337 79.341 8.36786C79.9597 7.53362 80.0276 7.06261 80.0276 3.5913V0.291268H81.2192H82.4122L82.3635 4.16714L82.3162 8.04302L81.9131 8.86397C81.4953 9.71445 80.3908 10.9902 79.7116 11.4065C78.712 12.0208 77.5855 12.2511 75.6394 12.2408C74.5541 12.2349 73.5014 12.1522 73.1618 12.0444ZM0.104833 12.0104C0.0472486 11.9529 0 9.30249 0 6.11763V0.329659L0.553697 0.238116C1.2831 0.117041 8.77203 0.117041 9.65056 0.238116L10.3357 0.331133V1.34551V2.3584H6.34905H2.36244V3.83493V5.31145H6.12758H9.89271V6.34502V7.37858H6.13201H2.36982L2.32996 9.70411L2.28861 12.0296L1.24914 12.0725C0.676248 12.0961 0.160941 12.068 0.104833 12.0104ZM32.8837 12.0104C32.8261 11.9529 32.7788 10.4557 32.7788 8.68235V5.4591H36.854C41.3427 5.4591 41.731 5.39414 42.1607 4.5599C42.4545 3.99292 42.4309 3.64888 42.0677 3.18673C41.4387 2.38793 41.2556 2.3584 36.8467 2.3584H32.7788V1.31155V0.264692L37.2453 0.329659C40.157 0.371002 41.9052 0.455162 42.2699 0.571807C42.9964 0.803621 43.7922 1.51235 44.1791 2.26981C44.7653 3.4215 44.5128 5.4089 43.6608 6.31991C43.2991 6.70824 42.3585 7.23093 42.0219 7.23093C41.9008 7.23093 41.7694 7.28409 41.7295 7.34905C41.6498 7.47899 43.5028 9.96841 44.5379 11.1216C44.8908 11.5158 45.1433 11.8982 45.099 11.9706C45.0532 12.0444 44.3947 12.1035 43.6342 12.1035H42.2522L41.7295 11.4937C41.4431 11.1585 40.6561 10.1308 39.9828 9.21095L38.7588 7.53805L36.8703 7.53214L34.9803 7.52624L35.0025 9.77794L35.0246 12.0296L34.0058 12.0725C33.4462 12.0961 32.9398 12.068 32.8837 12.0104ZM49.7101 12.0045C49.6555 11.9514 49.6112 9.29954 49.6112 6.11468C49.6112 -0.442564 49.4813 0.143616 50.9342 0.143616C52.6145 0.143616 52.5923 0.127372 53.4531 1.9686C53.8769 2.87371 54.2667 3.64741 54.3169 3.68727C54.3686 3.72714 54.4232 3.83345 54.4395 3.92352C54.4557 4.01211 55.0138 5.19776 55.6797 6.55912L56.889 9.03377L59.0152 4.77399C60.1846 2.43075 61.2507 0.430062 61.3835 0.328181C61.6434 0.131804 62.7626 0.0875101 63.6766 0.238116L64.2318 0.331133L64.1934 6.17965L64.155 12.0296H62.9738H61.7925L61.7187 8.48598L61.6449 4.94232L60.7206 6.64032C60.2127 7.57496 59.3873 9.18585 58.8853 10.2209L57.9743 12.1035H56.985C56.3707 12.1035 55.9411 12.0341 55.851 11.9189C55.7713 11.817 54.8824 10.1175 53.8769 8.14342L52.0475 4.55104L52.0076 8.32799L51.9692 12.1035H50.8884C50.2948 12.1035 49.7633 12.0592 49.7101 12.0045ZM87.0662 12.0045C86.9614 11.9012 86.9245 0.384291 87.0278 0.279458C87.0618 0.245498 87.5933 0.239588 88.209 0.266165L89.3297 0.314893V5.10178V9.88868H93.464H97.5983V10.9961V12.1035H92.3817C89.5113 12.1035 87.1194 12.0592 87.0662 12.0045ZM100.802 12.0104C100.709 11.9174 100.947 11.3578 101.139 11.2175C101.195 11.1777 101.777 10.2135 102.431 9.07659C104.888 4.81386 105.588 3.62378 105.762 3.42002C105.861 3.30338 106.311 2.56955 106.765 1.78699L107.587 0.365095L109.065 0.323752L110.543 0.280932L111.633 2.31706C112.232 3.43627 113.158 5.20219 113.688 6.24166C114.218 7.28113 115.066 8.94222 115.572 9.93297C116.077 10.9237 116.493 11.817 116.495 11.9189C116.496 12.0518 116.149 12.1035 115.241 12.1035H113.983L113.691 11.6236C113.53 11.3593 113.159 10.6624 112.868 10.0732L112.338 9.00276H108.824H105.309L104.446 10.5531L103.584 12.1035H102.24C101.501 12.1035 100.854 12.0621 100.802 12.0104ZM111.182 6.7363C111.182 6.70824 110.694 5.70273 110.094 4.50379L109.007 2.32444L108.396 3.44808C108.061 4.06674 107.516 5.07225 107.185 5.68058L106.584 6.78798H108.883C110.147 6.78798 111.182 6.76435 111.182 6.7363ZM119.87 11.9588C119.842 11.8761 119.838 9.22572 119.86 6.06743L119.901 0.326703L120.359 0.23516C120.947 0.117038 130.048 0.118516 130.488 0.236638C130.792 0.317846 130.82 0.412343 130.82 1.34255V2.3584H126.538H122.256V3.68727V5.01615H126.243H130.229V5.97589V6.93563H126.237H122.246L122.287 8.37524L122.33 9.81485L126.802 9.85324L131.276 9.89311L131.232 10.9606L131.189 12.0296L125.555 12.068C121.865 12.0931 119.903 12.0562 119.87 11.9588Z" fill="#FCFCFC"/>
</svg>
