<svg viewBox="0 0 113 35" fill="none" xmlns="http://www.w3.org/2000/svg">
<path d="M92.958 13.4238C94.1812 13.4238 95.2845 13.6947 96.2676 14.2373C97.2551 14.78 98.0379 15.5747 98.6162 16.6201C99.1945 17.6655 99.4844 18.9398 99.4844 20.4434C99.4844 21.9469 99.1945 23.2212 98.6162 24.2666C98.0379 25.312 97.2551 26.1057 96.2676 26.6484C95.2845 27.1912 94.1813 27.4629 92.958 27.4629C91.7303 27.4629 90.6247 27.1897 89.6416 26.6426C88.6585 26.0954 87.8781 25.3007 87.2998 24.2598C86.726 23.2144 86.4385 21.9424 86.4385 20.4434C86.4385 18.9399 86.726 17.6655 87.2998 16.6201C87.8781 15.5747 88.6585 14.78 89.6416 14.2373C90.6247 13.6946 91.7303 13.4238 92.958 13.4238ZM104.739 22.1367C104.739 22.6081 104.841 23.0283 105.046 23.3975C105.255 23.7666 105.546 24.0556 105.92 24.2646C106.294 24.4737 106.728 24.5791 107.222 24.5791C107.715 24.579 108.147 24.4737 108.516 24.2646C108.889 24.0556 109.181 23.7667 109.39 23.3975C109.599 23.0283 109.703 22.6081 109.703 22.1367V13.6084H113V22.4238C113 23.4423 112.757 24.3298 112.272 25.0859C111.788 25.8376 111.111 26.4203 110.244 26.834C109.377 27.2432 108.369 27.4482 107.222 27.4482C106.061 27.4482 105.046 27.2432 104.179 26.834C103.311 26.4203 102.637 25.8377 102.156 25.0859C101.676 24.3298 101.436 23.4423 101.436 22.4238V13.6084H104.739V22.1367ZM47.2129 23.0322L50.2441 13.9404H53.4258L49.1826 27.2754H45.3945L41 13.9404H44.334L47.2129 23.0322ZM60.3857 14.0371L65.3867 27.0693L65.4658 27.2754H61.9521L61.9189 27.1699L61.043 24.3965H56.4053L55.2324 27.1826L55.1934 27.2754H51.6875L51.7695 27.0684L56.9219 14.0361L56.959 13.9404H60.3486L60.3857 14.0371ZM69.4893 24.6992H75.8535V27.2754H66.6094V13.9404H69.4893V24.6992ZM80.3994 19.0918L83.4297 13.9404H87.0664L81.9141 21.9717V27.2754H78.8838V21.9717L73.8828 13.9404H77.3682L80.3994 19.0918ZM92.958 16.3193C92.3041 16.3193 91.741 16.4771 91.2695 16.793C90.7982 17.1087 90.4362 17.5739 90.1826 18.1875C89.9335 18.8014 89.8086 19.5537 89.8086 20.4434C89.8086 21.3329 89.9336 22.0844 90.1826 22.6982C90.4361 23.3119 90.7982 23.7769 91.2695 24.0928C91.741 24.4086 92.3041 24.5674 92.958 24.5674C93.6164 24.5674 94.1794 24.4086 94.6465 24.0928C95.1179 23.7769 95.4785 23.312 95.7275 22.6982C95.981 22.0845 96.1074 21.3328 96.1074 20.4434C96.1074 19.5537 95.9811 18.8014 95.7275 18.1875C95.4784 17.5737 95.118 17.1088 94.6465 16.793C94.1794 16.4771 93.6164 16.3193 92.958 16.3193ZM58.4355 17.2236L56.7686 21.9209L56.6963 22.124H60.6172L60.5381 21.917L58.7197 17.2197L58.5723 16.8389L58.4355 17.2236ZM96.917 12.2734H89.3398V10H96.917V12.2734Z" fill="black"/>
<rect width="35" height="35" fill="#EE7B30"/>
</svg>
