<svg viewBox="0 0 145 26" fill="none" xmlns="http://www.w3.org/2000/svg">
<g clip-path="url(#clip0_2552_21334)">
<path d="M29.998 22.2655V19.1431L38.472 9.83068H32.0119C31.4586 9.83068 30.985 9.64642 30.5912 9.27293C30.1974 8.89944 29.998 8.43631 29.998 7.88852V6.59375H43.387V9.95518L35.5361 18.8542H43.686V22.2704H29.998V22.2655Z" fill="white"/>
<path d="M53.6503 14.3665C53.097 14.6404 52.3244 14.8944 51.3374 15.1334C51.3374 15.1334 50.5349 15.3177 49.9766 15.4273C49.4183 15.5418 48.7055 15.8854 48.4363 16.1942C48.217 16.4431 48.0226 17.0607 48.0226 17.4889C48.0226 18.0766 48.2021 18.5496 48.556 18.9032C48.9099 19.2169 49.4233 19.3763 50.0962 19.3763C51.2028 19.3763 52.0702 19.0626 52.7032 18.4351C53.3363 17.8076 53.6503 16.9411 53.6503 15.8406V14.3665ZM54.5974 21.6173C53.77 22.0505 52.8877 22.3144 51.9605 22.414C51.0334 22.5136 50.2109 22.5634 49.5031 22.5634C48.0824 22.5634 46.8362 22.18 45.7695 21.4131C44.7028 20.6462 44.1694 19.3813 44.1694 17.6134C44.1694 15.9651 44.6529 14.7848 45.62 14.0777C46.587 13.3706 47.8232 12.9024 49.3236 12.6634C49.5529 12.6286 50.6246 12.4692 50.9835 12.4294C52.7232 12.1953 53.5905 11.6824 53.5905 10.8956C53.5905 10.3079 53.2865 9.92447 52.6733 9.7452C52.0602 9.5709 51.4969 9.48126 50.9835 9.48126C50.4302 9.48126 49.9367 9.56094 49.5031 9.71532C49.0694 9.87467 48.7504 10.1685 48.556 10.5968H44.5881C44.7477 9.38167 45.301 8.37573 46.2481 7.5889C47.3148 6.68754 48.8351 6.23438 50.8091 6.23438C53.0223 6.23438 54.6822 6.60787 55.7838 7.35485C56.9303 8.14167 57.5035 9.24223 57.5035 10.6565V16.0199C57.5035 17.5935 57.2144 18.8186 56.6461 19.705C56.0729 20.5864 55.39 21.2288 54.6024 21.6222" fill="white"/>
<path d="M71.959 22.2646H67.8716V12.2451C67.8716 11.3039 67.5825 10.6167 67.0142 10.1834C66.441 9.75018 65.7979 9.53604 65.0901 9.53604C64.3823 9.53604 63.7492 9.75516 63.1959 10.1834C62.6426 10.6167 62.3685 11.3039 62.3685 12.2451V22.2646H58.2212V13.0718C58.2212 10.4025 58.924 8.61476 60.3247 7.70842C61.7254 6.80706 63.2757 6.31405 64.9755 6.23438C65.8827 6.23438 66.7749 6.33397 67.6423 6.52819C68.5096 6.72738 69.3022 7.11581 70.015 7.70842C70.6082 7.20047 71.311 6.83694 72.1185 6.61783C72.9261 6.40369 73.7685 6.27421 74.6358 6.23438C76.3755 6.23438 77.9756 6.68754 79.4361 7.5889C80.8966 8.49524 81.6293 10.3179 81.6293 13.0718V22.2646H79.5557C78.9625 22.2646 78.479 22.0804 78.1052 21.7069C77.7313 21.3334 77.5419 20.8503 77.5419 20.2627V12.2451C77.5419 11.3039 77.2528 10.6167 76.6845 10.1834C76.1113 9.75018 75.4683 9.53604 74.7604 9.53604C74.0526 9.53604 73.4046 9.75516 72.8363 10.1834C72.2631 10.6167 71.979 11.3039 71.979 12.2451V22.2646H71.959Z" fill="white"/>
<path d="M96.4688 22.2646H94.3952C93.802 22.2646 93.3185 22.0804 92.9446 21.7069C92.5708 21.3334 92.3813 20.8503 92.3813 20.2627V12.2451C92.3813 11.3039 92.0922 10.6167 91.524 10.1834C90.9507 9.75018 90.3077 9.53604 89.5999 9.53604C88.892 9.53604 88.259 9.75516 87.7057 10.1834C87.1524 10.6167 86.8782 11.3039 86.8782 12.2451V22.2646H82.731V13.0718C82.731 10.4025 83.4338 8.61476 84.8345 7.70842C86.2352 6.80706 87.7854 6.31405 89.4852 6.23438C91.2249 6.23438 92.825 6.68754 94.2855 7.5889C95.746 8.49524 96.4788 10.3179 96.4788 13.0718V22.2646H96.4688Z" fill="white"/>
<path d="M101.514 12.8338H107.555C107.475 11.7731 107.201 10.9863 106.728 10.4783C106.214 9.93053 105.481 9.65165 104.534 9.65165C103.667 9.65165 102.954 9.92555 102.401 10.4783C101.848 11.0311 101.554 11.8129 101.514 12.8338ZM108.627 17.4302H111.588C111.154 19.0786 110.322 20.3385 109.1 21.2C107.874 22.1064 106.334 22.5545 104.48 22.5545C102.226 22.5545 100.472 21.8275 99.2057 20.3734C97.9396 18.9591 97.3115 16.9372 97.3115 14.3029C97.3115 11.6685 97.9246 9.82595 99.1459 8.41166C100.412 6.95753 102.167 6.23047 104.42 6.23047C106.787 6.23047 108.627 6.93761 109.928 8.3519C111.194 9.80603 111.822 11.8279 111.822 14.4224V15.0698C111.822 15.269 111.802 15.4034 111.762 15.4831H101.514C101.554 16.7032 101.848 17.6045 102.401 18.1922C102.914 18.8196 103.682 19.1334 104.714 19.1334C105.387 19.1334 105.96 18.9939 106.434 18.72C106.553 18.6802 106.658 18.6105 106.758 18.5159C106.857 18.4163 106.967 18.3117 107.082 18.1922C107.121 18.0726 107.271 17.9183 107.525 17.7191C107.779 17.5249 108.148 17.4253 108.622 17.4253" fill="white"/>
<path d="M111.981 17.0777H116.009C116.049 17.8646 116.343 18.4522 116.896 18.8456C117.49 19.239 118.277 19.4332 119.269 19.4332C119.982 19.4332 120.59 19.2938 121.103 19.0199C121.577 18.746 121.816 18.3725 121.816 17.8994C121.816 17.1923 120.989 16.6594 119.329 16.3059C118.616 16.1863 118.083 16.0718 117.729 15.9523C115.635 15.4443 114.235 14.8318 113.522 14.1247C112.729 13.4175 112.335 12.4763 112.335 11.2961C112.335 9.80212 112.909 8.56711 114.055 7.58109C115.241 6.67973 116.782 6.22656 118.676 6.22656C120.73 6.22656 122.37 6.67973 123.596 7.58109C124.742 8.56213 125.355 9.84196 125.435 11.4106H122.888C122.135 11.4106 121.562 11.077 121.168 10.4097C121.009 10.2553 120.849 10.0959 120.695 9.93658C120.221 9.58301 119.568 9.40871 118.741 9.40871C117.913 9.40871 117.36 9.52823 116.961 9.76228C116.607 9.99634 116.428 10.3499 116.428 10.823C116.428 11.4505 117.455 11.9833 119.508 12.4166C119.748 12.4962 119.952 12.556 120.131 12.5909C120.311 12.6307 120.475 12.6506 120.635 12.6506C122.649 13.1635 124.049 13.7512 124.842 14.4185C125.59 15.1256 125.969 16.0668 125.969 17.2471C125.969 18.9751 125.335 20.3097 124.074 21.2559C122.888 22.1224 121.113 22.5506 118.741 22.5506C116.368 22.5506 114.808 22.0975 113.706 21.1961C112.56 20.2947 111.986 18.9751 111.986 17.2471V17.0728L111.981 17.0777Z" fill="white"/>
<path d="M126.681 6.58862H128.815C129.368 6.58862 129.841 6.78782 130.235 7.17625C130.629 7.56966 130.828 8.04275 130.828 8.59054V22.2653H126.681V6.58862ZM126.681 1.99219H128.815C129.368 1.99219 129.841 2.19138 130.235 2.57981C130.629 2.97323 130.828 3.44632 130.828 3.9941V5.2341H126.681V1.99219Z" fill="white"/>
<path d="M141.152 14.3665C140.599 14.6404 139.826 14.8944 138.839 15.1334C138.839 15.1334 138.026 15.3127 137.478 15.4273C136.925 15.5418 136.197 15.8804 135.953 16.1942C135.743 16.4581 135.524 17.0607 135.524 17.4889C135.524 18.0766 135.704 18.5496 136.057 18.9032C136.411 19.2169 136.925 19.3763 137.598 19.3763C138.704 19.3763 139.572 19.0626 140.205 18.4351C140.838 17.8076 141.152 16.9411 141.152 15.8406V14.3665ZM142.099 21.6173C141.271 22.0505 140.389 22.3144 139.462 22.414C138.535 22.5136 137.712 22.5634 137.005 22.5634C135.584 22.5634 134.338 22.18 133.271 21.4131C132.204 20.6462 131.671 19.3813 131.671 17.6134C131.671 15.9651 132.154 14.7848 133.121 14.0777C134.088 13.3706 135.325 12.8975 136.825 12.6634C137.039 12.6286 138.126 12.4692 138.485 12.4294C140.225 12.1953 141.092 11.6824 141.092 10.8956C141.092 10.3079 140.788 9.92447 140.175 9.7452C139.562 9.5709 138.998 9.48126 138.485 9.48126C137.932 9.48126 137.438 9.56094 137.005 9.71532C136.571 9.87467 136.252 10.1685 136.057 10.5968H132.09C132.249 9.38167 132.802 8.37573 133.75 7.5889C134.816 6.68754 136.337 6.23438 138.311 6.23438C140.524 6.23438 142.184 6.60787 143.285 7.35485C144.432 8.14167 145.005 9.24223 145.005 10.6565V16.0199C145.005 17.5935 144.716 18.8186 144.148 19.705C143.574 20.5864 142.891 21.2288 142.104 21.6222" fill="white"/>
<path d="M11.6542 23.3354C11.6542 23.3354 13.1994 22.2398 13.8674 21.209C14.4057 20.3773 14.635 19.4062 14.635 19.4062L11.6542 21.6074L8.67334 19.4062C8.67334 19.4062 8.89765 20.3773 9.44098 21.209C10.1139 22.2398 11.6542 23.3354 11.6542 23.3354Z" fill="white"/>
<path d="M9.98921 17.9368C9.58545 17.7078 8.93245 17.3741 8.93245 17.3741C8.93245 17.3741 8.8178 16.9209 8.78789 16.7267C8.75799 16.5325 8.95738 16.3134 9.18667 16.3831C9.45585 16.4628 9.46083 16.916 9.46083 16.916C9.46083 16.916 10.1786 15.5365 10.383 14.9091C10.6023 14.2517 10.8765 13.1561 10.8765 13.1561C10.8765 13.1561 11.1656 13.0565 11.3002 12.708C11.4049 12.449 11.5594 11.951 11.5594 11.951C11.5594 11.951 11.031 12.3096 10.4976 12.2249C10.2135 12.1801 9.81973 11.8713 9.26144 11.2488C8.70814 10.6264 8.23459 10.1433 7.83083 10.1732C7.42209 10.2031 6.85882 10.8803 6.85882 10.8803C6.85882 10.8803 7.30744 10.6961 7.67631 10.7459C8.02025 10.7907 8.24456 11.0795 8.62838 11.4929C8.58352 11.4779 8.53866 11.468 8.50377 11.463C7.83582 11.3684 7.47193 11.712 7.47193 11.712C7.47193 11.712 7.91557 12.1651 8.77294 12.444C9.36612 12.6382 9.81474 12.7229 10.1437 12.7876C9.77985 12.7876 9.1767 12.7677 8.80285 12.6831C7.99034 12.4888 7.02331 11.8365 7.02331 11.8365C7.02331 11.8365 7.4171 12.7279 8.52869 13.0914C9.17172 13.3006 9.75991 13.3205 10.1886 13.2806C10.1387 13.3952 9.9593 13.7338 9.32126 14.172C8.96236 14.421 8.27946 14.2866 7.91557 14.0077C7.0931 13.3703 6.35536 12.3046 6.34539 12.2896C6.33044 12.2647 7.26756 14.426 8.47386 14.8095C8.7879 14.9091 9.3063 14.8493 9.56551 14.7148C9.92441 14.5306 10.0839 14.3463 10.0839 14.3463C10.0839 14.3463 10.2036 14.4808 10.0341 14.9091C9.94933 15.1182 9.74496 15.4519 9.47578 15.5913C9.13184 15.7706 8.67823 15.7357 7.95545 15.5017C7.77102 15.4419 7.33735 15.2875 7.24264 15.0883C7.24264 15.0883 6.85882 15.6909 6.94356 17.3542C7.03827 19.2017 7.20276 21.1738 7.20276 21.1738L10.1637 24.1219C10.1637 24.1219 7.81588 21.3381 7.64141 20.5911C7.5467 20.1778 7.2875 19.2665 7.2875 18.0763C7.2875 17.394 7.25759 16.2238 7.78597 15.9797C8.14487 15.8104 8.71811 15.8154 9.02716 15.92C9.3063 16.0146 9.28637 16.169 9.28637 16.169C9.28637 16.169 9.16673 16.0793 9.0471 16.0644C8.8527 16.0345 8.6234 16.154 8.51872 16.2686C8.38413 16.418 8.40906 16.6271 8.42401 16.7018C8.43897 16.7765 8.58851 17.643 8.58851 17.643C8.58851 17.643 9.03215 17.8074 9.54557 18.0414C10.7818 18.6041 11.6491 19.7645 11.6491 19.7645C11.6491 19.7645 11.0609 18.5494 9.98422 17.9418" fill="white"/>
<path d="M9.51094 10.5184C9.76018 10.8421 10.7023 11.863 11.2506 11.5841C11.5945 11.4098 11.6544 11.0214 11.6544 11.0214C11.6544 11.0214 11.5148 11.2554 11.126 11.1907C10.6275 11.111 9.3614 9.96064 8.86293 9.55229C8.38938 9.16386 7.78125 9.07422 7.78125 9.07422C7.78125 9.07422 8.53892 9.23856 9.51094 10.5184Z" fill="white"/>
<path d="M10.9763 9.64158C11.1358 9.79596 11.0909 10.1894 11.0909 10.1894C11.0909 10.1894 10.8915 10.1894 10.5526 10.0101C10.2485 9.85074 10.0441 9.73122 10.0441 9.73122C10.0441 9.73122 10.0442 9.84576 10.2685 10.0898C10.7121 10.5579 11.395 10.6077 11.395 10.6077C11.4349 9.85572 11.385 9.67146 11.2754 9.54696C11.1557 9.40255 10.9464 9.18343 10.2435 9.04898C9.84975 8.97428 8.76807 8.64062 8.76807 8.64062C9.71516 9.16351 9.86969 9.17845 10.089 9.22825C10.7171 9.36271 10.8118 9.48721 10.9713 9.64158" fill="white"/>
<path d="M9.95947 17.3297C10.5377 17.4841 11.3751 18.5797 11.3751 18.5797L11.4499 13.3906L10.9863 17.763C10.9863 17.763 10.6823 17.3347 10.3234 17.1803C10.6025 16.523 10.6175 15.7909 10.6175 15.7909C10.6175 15.7909 10.4131 16.5927 9.95947 17.3297Z" fill="white"/>
<path d="M7.08326 9.26695C7.18295 9.26695 7.26271 9.18727 7.26271 9.08269C7.26271 8.97812 7.18295 8.89844 7.08326 8.89844C6.98356 8.89844 6.90381 8.97812 6.90381 9.08269C6.90381 9.18727 6.98356 9.26695 7.08326 9.26695Z" fill="white"/>
<path d="M10.8167 24.6953C10.717 24.6953 10.6372 24.775 10.6372 24.8796C10.6372 24.9841 10.717 25.0638 10.8167 25.0638C10.9164 25.0638 10.9961 24.9841 10.9961 24.8796C10.9961 24.775 10.9164 24.6953 10.8167 24.6953Z" fill="white"/>
<path d="M6.55975 9.76208C6.55975 9.64257 6.46005 9.54297 6.34042 9.54297C6.22079 9.54297 6.12109 9.64257 6.12109 9.76208C6.12109 9.8816 6.22079 9.9812 6.34042 9.9812C6.46005 9.9812 6.55975 9.8816 6.55975 9.76208Z" fill="white"/>
<path d="M5.77721 10.332C5.60773 10.332 5.47314 10.4665 5.47314 10.6358C5.47314 10.8051 5.60773 10.9396 5.77721 10.9396C5.94669 10.9396 6.08128 10.8001 6.08128 10.6358C6.08128 10.4715 5.94669 10.332 5.77721 10.332Z" fill="white"/>
<path d="M3.11026 20.0289C2.31271 20.0289 1.66968 19.4164 1.66968 18.6545C1.66968 17.8926 2.31769 17.28 3.11026 17.28C3.90283 17.28 4.55084 17.8926 4.55084 18.6545C4.55084 19.4164 3.90283 20.0289 3.11026 20.0289ZM3.37445 16.4534C1.38057 16.3189 0.732557 17.8976 0.827267 18.7093C0.897052 17.6635 1.60986 17.2352 2.218 17.056C1.63977 17.3697 1.25097 17.9722 1.25097 18.6645C1.25097 19.6804 2.0884 20.502 3.12521 20.502C4.16203 20.502 4.99946 19.6804 4.99946 18.6645C4.99946 18.1914 4.81503 17.7631 4.52093 17.4394C4.9546 17.7731 5.33842 18.286 5.52286 19.028C5.55276 17.6585 4.72032 16.543 3.37445 16.4534Z" fill="white"/>
<path d="M15.3827 14.0038C15.0238 14.2827 14.3409 14.4171 13.977 14.1681C13.3439 13.7299 13.1595 13.3963 13.1096 13.2767C13.5333 13.3116 14.1215 13.2967 14.7696 13.0875C15.8861 12.724 16.2749 11.8326 16.2749 11.8326C16.2749 11.8326 15.3079 12.4849 14.4954 12.6791C14.1215 12.7688 13.5184 12.7837 13.1545 12.7837C13.4835 12.719 13.9371 12.6343 14.5253 12.4401C15.3827 12.1612 15.8263 11.7081 15.8263 11.7081C15.8263 11.7081 15.4624 11.3645 14.7895 11.4591C14.7546 11.4641 14.7097 11.474 14.6649 11.489C15.0487 11.0756 15.268 10.7868 15.617 10.742C15.9858 10.6972 16.4344 10.8764 16.4344 10.8764C16.4344 10.8764 15.8712 10.1942 15.4624 10.1693C15.0537 10.1394 14.5851 10.6225 14.0318 11.2449C13.4785 11.8674 13.0797 12.1712 12.7956 12.221C12.2622 12.3057 11.7339 11.9471 11.7339 11.9471C11.7339 11.9471 11.8884 12.4451 11.9931 12.704C12.1326 13.0526 12.4168 13.1522 12.4168 13.1522C12.4168 13.1522 12.6909 14.2478 12.9103 14.9052C13.1196 15.5326 13.8324 16.9121 13.8324 16.9121C13.8324 16.9121 13.8374 16.4639 14.1066 16.3792C14.3359 16.3095 14.5353 16.5286 14.5054 16.7228C14.4755 16.917 14.3608 17.3702 14.3608 17.3702C14.3608 17.3702 13.7078 17.7039 13.3041 17.9329C12.2274 18.5405 11.6392 19.7556 11.6392 19.7556C11.6392 19.7556 12.5065 18.5953 13.7427 18.0325C14.2511 17.7985 14.6998 17.6341 14.6998 17.6341C14.6998 17.6341 14.8493 16.7676 14.8643 16.6929C14.8792 16.6182 14.9041 16.4091 14.7696 16.2597C14.6649 16.1452 14.4406 16.0256 14.2412 16.0555C14.1215 16.0754 14.0019 16.1601 14.0019 16.1601C14.0019 16.1601 13.987 16.0057 14.2611 15.9111C14.5702 15.8065 15.1384 15.8015 15.5023 15.9709C16.0307 16.2149 16.0008 17.3802 16.0008 18.0674C16.0008 19.2576 15.7416 20.1689 15.6469 20.5822C15.4724 21.3292 13.1196 24.113 13.1196 24.113L16.0805 21.1649C16.0805 21.1649 16.24 19.1928 16.3397 17.3453C16.4245 15.677 16.0407 15.0795 16.0407 15.0795C15.9459 15.2786 15.5123 15.433 15.3278 15.4928C14.6051 15.7268 14.1515 15.7617 13.8075 15.5824C13.5383 15.443 13.334 15.1093 13.2492 14.9002C13.0748 14.4769 13.1994 14.3375 13.1994 14.3375C13.1994 14.3375 13.3589 14.5167 13.7178 14.706C13.977 14.8404 14.4954 14.9002 14.8094 14.8006C16.0157 14.4171 16.9529 12.2608 16.9379 12.2808C16.9279 12.2957 16.1902 13.3614 15.3677 13.9988" fill="white"/>
<path d="M12.0581 11.5841C12.6064 11.863 13.5485 10.8421 13.7977 10.5184C14.7747 9.23856 15.5274 9.07422 15.5274 9.07422C15.5274 9.07422 14.9193 9.16884 14.4457 9.55229C13.9473 9.95566 12.6811 11.106 12.1827 11.1907C11.7939 11.2554 11.6543 11.0214 11.6543 11.0214C11.6543 11.0214 11.7141 11.4098 12.0581 11.5841Z" fill="white"/>
<path d="M13.0348 10.0887C13.2641 9.84468 13.2591 9.73015 13.2591 9.73015C13.2591 9.73015 13.0548 9.84966 12.7507 10.009C12.4067 10.1883 12.2123 10.1883 12.2123 10.1883C12.2123 10.1883 12.1625 9.79489 12.327 9.64051C12.4865 9.48613 12.5812 9.36164 13.2093 9.22718C13.4286 9.17738 13.5831 9.16742 14.5302 8.64453C14.5302 8.64453 13.4436 8.97818 13.0498 9.05288C12.3469 9.18734 12.1376 9.40645 12.0179 9.55087C11.9133 9.67537 11.8584 9.85962 11.8983 10.6116C11.8983 10.6116 12.5862 10.5618 13.0248 10.0937" fill="white"/>
<path d="M12.322 17.7619L11.8584 13.3945L11.9332 18.5836C11.9332 18.5836 12.7706 17.488 13.3488 17.3336C12.8902 16.5966 12.6908 15.7948 12.6908 15.7948C12.6908 15.7948 12.7058 16.5269 12.9849 17.1842C12.626 17.3336 12.322 17.7669 12.322 17.7669" fill="white"/>
<path d="M16.2205 9.26695C16.3202 9.26695 16.3999 9.18727 16.3999 9.08269C16.3999 8.97812 16.3202 8.89844 16.2205 8.89844C16.1208 8.89844 16.041 8.97812 16.041 9.08269C16.041 9.18727 16.1208 9.26695 16.2205 9.26695Z" fill="white"/>
<path d="M12.4866 24.6953C12.3869 24.6953 12.3071 24.775 12.3071 24.8796C12.3071 24.9841 12.3869 25.0638 12.4866 25.0638C12.5863 25.0638 12.666 24.9841 12.666 24.8796C12.666 24.775 12.5863 24.6953 12.4866 24.6953Z" fill="white"/>
<path d="M11.6541 24.5938C11.4746 24.5938 11.3301 24.7382 11.3301 24.9174C11.3301 25.0967 11.4746 25.2411 11.6541 25.2411C11.8335 25.2411 11.9781 25.0967 11.9781 24.9174C11.9781 24.7382 11.8335 24.5938 11.6541 24.5938Z" fill="white"/>
<path d="M16.963 9.9812C17.0826 9.9812 17.1823 9.8816 17.1823 9.76208C17.1823 9.64257 17.0826 9.54297 16.963 9.54297C16.8433 9.54297 16.7437 9.64257 16.7437 9.76208C16.7437 9.8816 16.8433 9.9812 16.963 9.9812Z" fill="white"/>
<path d="M17.5262 10.9474C17.6957 10.9474 17.8303 10.808 17.8303 10.6436C17.8303 10.4793 17.6957 10.3398 17.5262 10.3398C17.3568 10.3398 17.2222 10.4743 17.2222 10.6436C17.2222 10.8129 17.3568 10.9474 17.5262 10.9474Z" fill="white"/>
<path d="M21.8478 20.9305C22.1818 20.557 22.3263 20.0441 22.2615 19.4714C21.9325 20.8309 20.8509 21.0301 20.1829 21.0301C19.7393 21.0301 18.533 21.0301 18.1142 19.5809C18.0445 20.0092 18.1043 20.542 18.4532 20.9504C17.7703 20.4275 17.3267 19.6008 17.3267 18.6646C17.3267 17.081 18.6077 15.8161 20.1729 15.8161C21.7381 15.8161 22.9693 17.1458 22.9743 18.6497C22.9743 19.556 22.5357 20.3976 21.8478 20.9355M17.2519 15.3928L18.7224 12.9178C18.7224 12.9178 18.2688 12.3103 18.3037 11.8721C18.3685 11.155 19.2109 10.9309 19.2109 10.9309C19.2109 10.9309 18.8719 11.2296 18.862 11.5533C18.847 11.9816 18.9866 12.121 18.9866 12.121C18.9965 11.9019 19.0613 11.643 19.181 11.5434C19.3056 11.4388 19.4252 11.4388 19.4252 11.4388V14.362C19.4252 14.362 19.0713 14.4566 18.7672 14.621C18.1491 14.9546 18.3087 15.2434 18.3087 15.2434C18.3087 15.2434 18.4233 15.0393 19.1411 14.9247C19.9087 14.8052 20.462 15.4277 20.462 15.4277C19.8489 15.2335 18.9716 15.5074 18.5928 15.7265C18.2787 15.9107 17.6058 16.598 17.4812 16.6129C17.3217 16.6328 17.2619 16.3241 17.2469 15.9954V15.3879L17.2519 15.3928ZM16.6936 22.8129L14.0667 24.6206C14.2361 24.4015 14.3907 24.1973 14.4954 24.0529C14.8343 23.6047 15.8462 22.539 15.8462 22.539C15.8462 22.539 15.8313 22.7133 15.7864 22.8278C15.6917 23.0619 15.5621 23.1814 15.5621 23.1814C15.5621 23.1814 15.6867 23.2262 15.8462 22.9672C16.1204 22.524 16.0705 22.0211 16.0705 22.0211C16.0705 22.0211 15.4225 22.295 14.0966 23.9831C12.7706 25.6713 12.4018 25.4572 11.6541 25.5518C10.9064 25.4572 10.5375 25.6713 9.21157 23.9831C7.88564 22.295 7.23763 22.0211 7.23763 22.0211C7.23763 22.0211 7.1828 22.524 7.46194 22.9672C7.62643 23.2262 7.74607 23.1814 7.74607 23.1814C7.74607 23.1814 7.61647 23.0569 7.52176 22.8278C7.47689 22.7133 7.46194 22.539 7.46194 22.539C7.46194 22.539 8.47383 23.6097 8.81279 24.0529C8.91747 24.1923 9.072 24.4015 9.24148 24.6206L6.61454 22.8129L6.54475 15.2683L6.08616 14.5363L6.42014 14.0483L6.00142 14.4068L5.7472 13.9985L6.14099 13.4756L5.65748 13.8541L5.46307 13.5453L5.9765 12.9228L5.34843 13.361L5.05931 12.9029L6.0413 11.1002C6.0413 11.1002 5.74222 11.3641 5.46307 11.4388C5.18892 11.5135 4.73531 10.8213 4.73531 10.8213C4.73531 10.8213 5.15402 10.2138 5.72726 9.55641C6.36032 8.82934 7.19277 8.04252 8.02521 8.09232C8.69815 8.13216 9.46579 8.32139 10.1288 8.48075C10.9762 8.68493 11.6591 8.88412 11.6591 8.88412C11.6591 8.88412 11.6391 8.87416 11.5992 8.8642C11.6341 8.87416 11.6591 8.88412 11.6591 8.88412C11.6591 8.88412 12.342 8.68991 13.1894 8.48075C13.8473 8.32139 14.62 8.13216 15.2929 8.09232C16.1204 8.04252 16.9528 8.82934 17.5909 9.55641C18.1691 10.2187 18.5828 10.8213 18.5828 10.8213C18.5828 10.8213 18.1342 11.5135 17.855 11.4388C17.5809 11.3641 17.2768 11.1002 17.2768 11.1002L18.2588 12.9029L17.9697 13.361L17.3416 12.9228L17.855 13.5453L17.6606 13.8541L17.1771 13.4756L17.5709 13.9985L17.3167 14.4068L16.898 14.0483L17.232 14.5363L16.7734 15.2683L16.7036 22.8129H16.6936ZM5.82197 16.6179C5.69735 16.6029 5.02442 15.9157 4.71038 15.7315C4.33653 15.5124 3.45922 15.2385 2.84112 15.4327C2.84112 15.4327 3.39941 14.8152 4.16207 14.9297C4.87986 15.0393 4.99451 15.2484 4.99451 15.2484C4.99451 15.2484 5.15402 14.9596 4.53592 14.6259C4.23185 14.4616 3.88292 14.367 3.88292 14.367V11.4438C3.88292 11.4438 4.00256 11.4438 4.12717 11.5484C4.24681 11.648 4.31161 11.9069 4.32158 12.126C4.32158 12.126 4.46115 11.9866 4.44619 11.5583C4.43623 11.2346 4.09727 10.9358 4.09727 10.9358C4.09727 10.9358 4.94466 11.1599 5.00448 11.877C5.04436 12.3103 4.58577 12.9228 4.58577 12.9228L6.05625 15.3978V16.0054C6.04628 16.334 5.98647 16.6428 5.82696 16.6229M4.84996 20.9504C5.20387 20.547 5.26369 20.0142 5.18892 19.5809C4.7702 21.0301 3.5639 21.0301 3.12026 21.0301C2.44733 21.0301 1.37063 20.8259 1.04164 19.4714C0.976842 20.0441 1.1214 20.557 1.45537 20.9305C0.772469 20.3926 0.32883 19.551 0.32883 18.6447C0.32883 17.1408 1.57002 15.8111 3.13023 15.8111C4.69044 15.8111 5.9765 17.081 5.9765 18.6596C5.9765 19.5959 5.53286 20.4225 4.84996 20.9454M7.0831 5.41314C7.74108 4.76575 8.56854 4.16817 9.48074 3.63532C10.5973 2.98793 11.6541 2.75886 11.6541 2.75886C11.6541 2.75886 11.3899 2.66424 10.9911 2.66424C10.8416 2.66424 10.702 2.67918 10.702 2.67918C10.702 2.67918 10.1487 1.83758 9.9493 1.43421C9.74992 1.03084 9.80475 0.811722 9.84961 0.801762C10.2932 0.682245 10.9413 2.19115 10.9413 2.19115C10.9413 2.19115 10.388 0.642406 10.7967 0.493009C11.0908 0.388431 11.4696 2.37043 11.4696 2.37043C11.4696 2.37043 11.1955 0.293813 11.6541 0.293813C12.1127 0.293813 11.8385 2.37043 11.8385 2.37043C11.8385 2.37043 12.2223 0.388431 12.5114 0.493009C12.9202 0.637426 12.3669 2.19115 12.3669 2.19115C12.3669 2.19115 13.0149 0.682245 13.4585 0.801762C13.5034 0.811722 13.5532 1.03084 13.3588 1.43421C13.1644 1.83758 12.6062 2.67918 12.6062 2.67918C12.6062 2.67918 12.4666 2.66424 12.317 2.66424C11.9183 2.66424 11.6541 2.75886 11.6541 2.75886C11.6541 2.75886 12.7108 2.98295 13.8274 3.63532C14.7396 4.16319 15.5671 4.76077 16.225 5.41314C17.9348 7.10132 18.3186 9.12814 18.0046 9.24267C17.8401 9.30243 17.2818 7.58935 16.225 6.19996C15.2929 4.97989 14.5851 4.59146 14.5851 4.59146C14.5851 4.59146 14.9988 5.07949 15.5272 5.89121C15.9957 6.61329 16.3397 7.48477 16.2101 7.60429C16.0705 7.72879 15.4175 6.77763 14.7695 5.59739C14.1614 4.48688 13.3987 3.91419 13.3987 3.91419C13.3987 3.91419 14.0717 4.81555 14.4654 5.80157C14.7645 6.55353 15.2431 7.62919 14.8044 7.65907C14.2162 7.70389 14.2361 6.69795 13.7626 5.56254C13.2392 4.31258 12.4616 3.4411 12.4616 3.4411C12.4616 3.4411 13.1295 5.03467 13.309 6.02069C13.4785 6.95192 13.8773 8.15706 13.1894 7.73377C12.8105 7.49971 12.8853 6.54855 12.5513 5.43306C12.2024 4.27274 11.7588 3.09749 11.7588 3.09749C11.7588 3.09749 12.0977 5.45796 12.1276 6.13522C12.1575 6.81249 12.0279 7.47979 11.998 7.69891C11.9631 7.93794 11.6541 8.16204 11.6541 8.16204C11.6541 8.16204 11.345 7.94292 11.3101 7.69891C11.2802 7.47979 11.1506 6.80751 11.1805 6.13522C11.2104 5.45796 11.5494 3.09749 11.5494 3.09749C11.5494 3.09749 11.1008 4.27274 10.7568 5.43306C10.4229 6.55353 10.4976 7.49971 10.1188 7.73377C9.4309 8.15706 9.82469 6.9569 9.99915 6.02069C10.1786 5.03467 10.8466 3.4411 10.8466 3.4411C10.8466 3.4411 10.064 4.31756 9.54554 5.56254C9.072 6.69795 9.09194 7.69891 8.50374 7.65907C8.06509 7.62421 8.54362 6.55353 8.8427 5.80157C9.23649 4.81555 9.90943 3.91419 9.90943 3.91419C9.90943 3.91419 9.15175 4.48688 8.53863 5.59739C7.89062 6.77763 7.23763 7.72879 7.09806 7.60429C6.97344 7.48975 7.3124 6.61329 7.78096 5.89121C8.30934 5.07949 8.72307 4.59146 8.72307 4.59146C8.72307 4.59146 8.01524 4.97989 7.0831 6.19996C6.02136 7.58935 5.46806 9.30243 5.30356 9.24267C4.98953 9.12814 5.37335 7.10132 7.0831 5.41314ZM22.8796 17.0711C22.7849 16.9167 22.5207 16.4237 21.6584 15.7813C20.6315 15.0144 19.819 14.3969 19.819 14.3969L19.7642 10.5823H18.9517C18.9168 10.5374 18.8769 10.4876 18.832 10.4329C18.832 10.1191 18.8171 9.23271 18.6376 8.41103C18.4133 7.38517 17.546 5.96591 16.3397 4.90519C15.0835 3.79468 13.8075 2.98295 13.0847 2.77878C13.1844 2.57958 14.605 0 14.605 0H8.68818C8.68818 0 10.1088 2.5746 10.2085 2.77878C9.48573 2.98295 8.20964 3.79468 6.95848 4.90519C5.75219 5.97089 4.88485 7.38517 4.66054 8.41103C4.48109 9.23271 4.46613 10.1191 4.46613 10.4329C4.42127 10.4876 4.38638 10.5374 4.3465 10.5872H3.53399L3.47916 14.3969C3.47916 14.3969 2.66666 15.0144 1.63981 15.7813C0.777454 16.4237 0.513264 16.9167 0.418555 17.0711C-0.184594 18.0571 -0.129762 19.4714 0.473387 20.3578C1.09149 21.2591 2.09341 22.036 3.51904 21.8368C4.83002 21.6575 5.12411 21.1396 5.39827 20.9255C5.67243 20.7114 6.03133 20.557 6.07619 21.3388L6.08616 23.0868L10.3979 25.995H12.8903L17.202 23.0868L17.212 21.3388C17.2569 20.557 17.6158 20.7114 17.8899 20.9255C18.1641 21.1396 18.4582 21.6575 19.7692 21.8368C21.1948 22.036 22.1967 21.2641 22.8148 20.3578C23.418 19.4714 23.4728 18.0571 22.8697 17.0711" fill="white"/>
<path d="M21.6387 18.6595C21.6387 19.4164 20.9907 20.0339 20.1981 20.0339C19.4056 20.0339 18.7576 19.4214 18.7576 18.6595C18.7576 17.8976 19.4056 17.285 20.1981 17.285C20.9907 17.285 21.6387 17.8976 21.6387 18.6595ZM19.929 16.4534C18.5831 16.543 17.7507 17.6635 17.7806 19.028C17.965 18.286 18.3488 17.7731 18.7825 17.4394C18.4834 17.7631 18.304 18.1914 18.304 18.6645C18.304 19.6804 19.1414 20.502 20.1782 20.502C21.215 20.502 22.0525 19.6804 22.0525 18.6645C22.0525 17.9722 21.6636 17.3697 21.0854 17.056C21.6886 17.2352 22.4064 17.6635 22.4762 18.7093C22.5758 17.8976 21.9278 16.3189 19.929 16.4534Z" fill="white"/>
<path d="M14.3608 21.1286C13.5931 22.4832 11.6491 23.8028 11.6491 23.8028C11.6491 23.8028 9.71003 22.4832 8.9374 21.1286C8.11991 19.6894 8.12988 18.5092 8.12988 18.5092L11.6491 21.1535L15.1683 18.5092C15.1683 18.5092 15.1782 19.6845 14.3608 21.1286ZM15.4823 17.8867L11.6541 20.7253L7.82581 17.8867C7.82581 17.8867 7.74606 19.4305 8.57352 21.0489C9.48572 22.8218 11.6541 24.2411 11.6541 24.2411C11.6541 24.2411 13.8224 22.8268 14.7346 21.0489C15.5621 19.4305 15.4823 17.8867 15.4823 17.8867Z" fill="white"/>
</g>
<defs>
<clipPath id="clip0_2552_21334">
<rect width="145" height="26" fill="white"/>
</clipPath>
</defs>
</svg>
