<svg width="147" height="36" viewBox="0 0 147 36" fill="none" xmlns="http://www.w3.org/2000/svg">
<g clip-path="url(#clip0_1127_12573)">
<path d="M58.9395 10.3445C55.5364 10.3445 53.202 11.4414 51.4864 13.8827C50.142 11.7452 47.4026 10.3445 44.4214 10.3445C41.772 10.3445 40.017 11.0589 38.262 12.9095V12.7858C38.262 12.1277 38.0089 11.5033 37.5645 11.0364C37.1145 10.5752 36.507 10.3164 35.8714 10.3164C35.2414 10.3164 34.6339 10.5752 34.1839 11.0364C33.7339 11.5033 33.4808 12.1277 33.4808 12.7858V33.1595C33.4864 33.857 33.7564 34.5264 34.2345 35.0214C34.7126 35.5164 35.3595 35.792 36.0345 35.792C36.7095 35.792 37.362 35.5164 37.8401 35.0214C38.3183 34.5264 38.5883 33.857 38.5883 33.1595V21.6902C38.5883 17.2858 40.2308 15.2383 43.7576 15.2383C46.8964 15.2383 48.4883 17.252 48.4883 21.2233V33.1595C48.4883 33.857 48.7583 34.5264 49.2364 35.0214C49.7145 35.5164 50.367 35.792 51.042 35.792C51.717 35.792 52.3639 35.5164 52.842 35.0214C53.3201 34.5264 53.5901 33.857 53.5958 33.1595V21.6452C53.5958 17.1508 55.0808 15.2214 58.5626 15.2214C61.8364 15.2214 63.4958 17.4039 63.4958 21.7127V33.1427C63.4958 33.8458 63.7658 34.5152 64.2439 35.0102C64.722 35.4995 65.3689 35.7808 66.0439 35.7808C66.7189 35.7808 67.3714 35.4995 67.8495 35.0045C68.3276 34.5152 68.592 33.8458 68.592 33.1427V20.6158C68.6089 14.1864 64.9976 10.3445 58.9395 10.3445Z" fill="white"/>
<path d="M98.6462 10.3445C95.2431 10.3445 92.9087 11.4414 91.1931 13.8827C89.8487 11.7452 87.1093 10.3445 84.1281 10.3445C81.4787 10.3445 79.7293 11.0589 77.9743 12.9095V12.7858C77.9743 12.1277 77.7212 11.5033 77.2712 11.0364C76.8212 10.5752 76.2137 10.3164 75.5837 10.3164C74.9481 10.3164 74.3406 10.5752 73.8906 11.0364C73.4462 11.5033 73.1931 12.1277 73.1931 12.7858V33.1595C73.1931 33.857 73.4631 34.5264 73.9412 35.0214C74.4193 35.5164 75.0662 35.792 75.7468 35.792C76.4218 35.792 77.0687 35.5164 77.5468 35.0214C78.0249 34.5264 78.2949 33.857 78.2949 33.1595V21.6902C78.2949 17.2858 79.9431 15.2383 83.4756 15.2383C86.6087 15.2383 88.1949 17.252 88.1949 21.2233V33.1595C88.2006 33.857 88.4706 34.5264 88.9487 35.0214C89.4268 35.5164 90.0737 35.792 90.7487 35.792C91.4237 35.792 92.0762 35.5164 92.5543 35.0214C93.0324 34.5264 93.3024 33.857 93.3024 33.1595V21.6452C93.3024 17.1508 94.7874 15.2214 98.2749 15.2214C101.543 15.2214 103.202 17.4039 103.202 21.7127V33.1427C103.202 33.497 103.264 33.8402 103.394 34.1664C103.523 34.487 103.714 34.7795 103.956 35.027C104.198 35.2745 104.479 35.4714 104.794 35.6008C105.109 35.7302 105.447 35.7977 105.784 35.792C106.459 35.792 107.106 35.5164 107.584 35.0214C108.062 34.5264 108.332 33.857 108.338 33.1595V20.6327C108.31 14.1864 104.699 10.3445 98.6462 10.3445Z" fill="white"/>
<path d="M131.501 12.8309V13.5622C129.712 11.4641 127.142 10.3672 123.997 10.3672C116.994 10.3672 111.712 16.0203 111.712 23.5241C111.712 30.4372 117.18 35.8709 124.138 35.8709C127.181 35.8709 129.791 34.6559 131.478 32.4903V33.2778C131.478 33.6266 131.546 33.9697 131.675 34.2903C131.805 34.6109 131.99 34.8978 132.227 35.1453C132.463 35.3872 132.75 35.5841 133.059 35.7134C133.368 35.8484 133.7 35.9159 134.032 35.9159C134.707 35.9159 135.36 35.6347 135.838 35.1453C136.316 34.6503 136.58 33.9753 136.58 33.2778V12.8422C136.58 12.1897 136.327 11.5597 135.883 11.0984C135.433 10.6372 134.825 10.3728 134.19 10.3728H133.863C133.233 10.3841 132.637 10.6428 132.193 11.1041C131.754 11.5597 131.507 12.1841 131.501 12.8309ZM131.58 23.1641C131.591 25.2228 130.809 27.1972 129.408 28.6597C128.008 30.1222 126.107 30.9547 124.115 30.9659C120.155 30.9659 116.814 27.3941 116.814 23.1641C116.814 18.7934 120.088 15.2609 124.115 15.2609C128.373 15.2384 131.597 18.6472 131.597 23.1641H131.58Z" fill="white"/>
<path d="M26.4875 27.2982C25.6213 27.1745 24.9575 27.6526 24.0294 28.2826C22.2069 29.7226 19.9906 30.527 17.6956 30.5832C14.6694 30.6901 11.7163 29.5988 9.43814 27.5401C7.38502 25.6501 5.99002 23.1132 5.47252 20.3176C4.54439 15.0245 6.78877 8.5557 13.5613 6.0357C14.8944 5.58008 16.2894 5.37195 17.69 5.4282C20.2494 5.5407 22.7019 6.5082 24.6763 8.18445C25.1825 8.60633 25.8238 8.80883 26.4706 8.74133C27.1175 8.67945 27.7138 8.35883 28.13 7.84695C28.4281 7.49258 28.6194 7.05945 28.6869 6.5982C28.7544 6.13695 28.6981 5.67008 28.5125 5.24258C27.2975 2.37383 21.245 0.483829 19.1525 0.247578C18.4494 0.146327 17.7463 0.0957031 17.0375 0.0957031C12.9706 0.118203 9.05002 1.67633 6.01252 4.47758C2.60939 7.58258 0.511267 11.9363 0.162516 16.6107C-0.186233 21.2907 1.24252 25.9201 4.13939 29.5313C6.68189 32.7938 10.2988 34.9763 14.2981 35.6626C15.2038 35.8201 16.1263 35.9045 17.0488 35.9045C21.0031 35.9101 24.8338 34.4532 27.8431 31.7982C28.2088 31.4663 28.4731 31.0388 28.6081 30.5551C28.7431 30.077 28.7375 29.5651 28.5969 29.087C28.4563 28.6088 28.1806 28.187 27.815 27.8663C27.4438 27.5401 26.9938 27.3376 26.51 27.2757L26.4875 27.2982Z" fill="white"/>
<path d="M24.458 14.6918C24.1261 14.7537 23.8167 14.8887 23.5355 15.0799C23.2542 15.2712 23.0123 15.5131 22.8267 15.8056C22.433 16.4074 21.9042 16.9081 21.2798 17.2512C20.6555 17.5943 19.958 17.7743 19.2548 17.7743C18.5461 17.7743 17.8542 17.5943 17.2298 17.2512C16.6055 16.9081 16.0767 16.4074 15.683 15.8056C15.4917 15.5187 15.2555 15.2712 14.9742 15.0799C14.693 14.8887 14.378 14.7593 14.0517 14.6974C13.8942 14.6637 13.7311 14.6468 13.5736 14.6468C13.1123 14.6468 12.6567 14.7818 12.263 15.0293C11.8636 15.2768 11.543 15.6256 11.3236 16.0531C11.1098 16.4749 11.0086 16.9474 11.0311 17.4256C11.0536 17.9037 11.2055 18.3649 11.4642 18.7643C12.3248 20.0806 13.4892 21.1606 14.8505 21.9031C16.2061 22.6512 17.7248 23.0393 19.2661 23.0393C20.8017 23.0393 22.3205 22.6512 23.6761 21.9031C25.0373 21.1606 26.2017 20.0806 27.0623 18.7643C27.3436 18.3312 27.4955 17.8193 27.4955 17.3018C27.5011 16.7787 27.3548 16.2724 27.0736 15.8337C26.798 15.4006 26.4042 15.0574 25.9373 14.8549C25.4761 14.6524 24.9642 14.5962 24.4692 14.6918H24.458Z" fill="white"/>
<path d="M144.844 31.7087C144.844 31.2137 144.5 30.7188 143.657 30.7188H142.504V34.0769H143.032V32.7325H143.617L144.394 34.0769H145.007L144.146 32.6594C144.349 32.6087 144.534 32.485 144.658 32.3106C144.787 32.1419 144.849 31.9281 144.844 31.7087ZM143.032 32.2769V31.1856H143.713C144.073 31.1856 144.298 31.36 144.298 31.7144C144.298 32.1587 144.017 32.2769 143.702 32.2769H143.032Z" fill="white"/>
<path d="M143.544 29.2383C142.925 29.2383 142.323 29.4239 141.806 29.7839C141.288 30.1383 140.889 30.6445 140.653 31.2352C140.417 31.8258 140.355 32.4783 140.478 33.1083C140.597 33.7327 140.895 34.312 141.333 34.762C141.772 35.2177 142.329 35.5214 142.937 35.6452C143.544 35.7689 144.174 35.707 144.748 35.4595C145.322 35.2177 145.811 34.8014 146.154 34.267C146.497 33.7327 146.677 33.1083 146.677 32.467C146.677 31.612 146.345 30.7908 145.76 30.1833C145.17 29.5758 144.377 29.2383 143.544 29.2383ZM143.544 35.2345C143.015 35.2345 142.498 35.0714 142.059 34.7677C141.62 34.4639 141.277 34.0308 141.075 33.5245C140.872 33.0183 140.816 32.467 140.923 31.927C141.024 31.3927 141.277 30.8977 141.654 30.5095C142.025 30.127 142.503 29.8627 143.027 29.7558C143.544 29.6489 144.084 29.7052 144.568 29.9133C145.057 30.1214 145.479 30.4758 145.772 30.9314C146.064 31.387 146.222 31.9214 146.222 32.467C146.222 33.2039 145.94 33.907 145.44 34.4245C144.939 34.942 144.258 35.2345 143.544 35.2345Z" fill="white"/>
</g>
<defs>
<clipPath id="clip0_1127_12573">
<rect width="146.88" height="36" fill="white"/>
</clipPath>
</defs>
</svg>
