<svg width="98" height="24" viewBox="0 0 98 24" fill="none" xmlns="http://www.w3.org/2000/svg">
<g clip-path="url(#clip0_137_634)">
<path d="M39.4098 6.99514C37.1451 6.99514 35.5916 7.72278 34.45 9.34194C33.5553 7.9241 31.7324 6.99514 29.7484 6.99514C27.9855 6.99514 26.8176 7.46902 25.6496 8.69654V8.61445C25.6501 8.18265 25.484 7.76721 25.1855 7.45419C24.886 7.14815 24.4818 6.97649 24.0588 6.97649C23.6396 6.97649 23.2352 7.14815 22.9358 7.45404C22.6349 7.76571 22.4671 8.18171 22.4679 8.6143V22.128C22.4716 22.5905 22.6513 23.0345 22.9694 23.363C23.2877 23.6912 23.7181 23.874 24.1672 23.874C24.6163 23.874 25.0507 23.6912 25.369 23.363C25.689 23.031 25.8674 22.5882 25.8668 22.1278V14.5204C25.8668 11.599 26.9598 10.2409 29.3068 10.2409C31.3956 10.2409 32.4549 11.5765 32.4549 14.2107V22.1281C32.4543 22.5885 32.6327 23.0312 32.9527 23.3631C33.2709 23.6913 33.7051 23.8742 34.1543 23.8742C34.6035 23.8742 35.034 23.6913 35.3521 23.3631C35.6703 23.0348 35.8499 22.5907 35.8536 22.128V14.4906C35.8536 11.5094 36.8419 10.2296 39.1589 10.2296C41.3374 10.2296 42.4418 11.6773 42.4418 14.5354V22.1168C42.4418 22.5832 42.6214 23.0273 42.9396 23.3556C43.2579 23.6802 43.6882 23.8668 44.1374 23.8668C44.5866 23.8668 45.0208 23.6803 45.339 23.3518C45.6573 23.0273 45.8332 22.5834 45.8332 22.1168V13.8076C45.8444 9.54311 43.4411 6.99468 39.4098 6.99468V6.99514ZM65.833 6.99514C63.5684 6.99514 62.015 7.72278 60.8732 9.34194C59.9786 7.9241 58.1556 6.99514 56.1718 6.99514C54.4087 6.99514 53.2445 7.46902 52.0766 8.69654V8.61445C52.0766 8.17786 51.9083 7.76375 51.6089 7.45419C51.3094 7.14815 50.9049 6.97649 50.4858 6.97649C50.0628 6.97649 49.6586 7.14815 49.359 7.45404C49.0606 7.76705 48.8944 8.1825 48.8949 8.6143V22.128C48.8944 22.5883 49.0728 23.031 49.3928 23.363C49.5482 23.5245 49.7347 23.653 49.9412 23.7408C50.1477 23.8286 50.3699 23.874 50.5944 23.874C51.0436 23.874 51.4739 23.6912 51.7922 23.363C52.1122 23.031 52.2906 22.5882 52.29 22.1278V14.5204C52.29 11.599 53.3867 10.2409 55.7376 10.2409C57.8226 10.2409 58.8781 11.5765 58.8781 14.2107V22.1281C58.8819 22.5907 59.0615 23.0346 59.3796 23.3631C59.6976 23.6916 60.1283 23.8742 60.5775 23.8742C61.0267 23.8742 61.4609 23.6913 61.7791 23.3631C62.0991 23.0311 62.2776 22.5884 62.2769 22.128V14.4906C62.2769 11.5094 63.2651 10.2296 65.5859 10.2296C67.7606 10.2296 68.865 11.6773 68.865 14.5354V22.1168C68.865 22.3519 68.9063 22.5795 68.9923 22.796C69.0785 23.0088 69.2056 23.2027 69.3665 23.3668C69.5275 23.531 69.7147 23.6615 69.9245 23.7474C70.134 23.833 70.3585 23.878 70.5832 23.8743C71.0325 23.8743 71.4629 23.6913 71.7809 23.3631C72.0992 23.0348 72.2789 22.5907 72.2826 22.128V13.8188C72.2639 9.54311 69.8608 6.99483 65.833 6.99483V6.99514ZM87.697 8.64426V9.1293C86.5066 7.73776 84.7959 7.01012 82.7034 7.01012C78.0431 7.01012 74.5283 10.7599 74.5283 15.7369C74.5283 20.3225 78.1667 23.9268 82.7971 23.9268C84.8221 23.9268 86.5592 23.1208 87.6821 21.6842V22.2067C87.6821 22.438 87.7269 22.6656 87.8131 22.8782C87.898 23.0888 88.0225 23.2813 88.1799 23.4454C88.3376 23.6065 88.5259 23.7346 88.7339 23.8222C88.9382 23.9109 89.1587 23.9567 89.3815 23.9566C89.8306 23.9566 90.2649 23.7701 90.583 23.4454C90.9012 23.117 91.0771 22.6693 91.0771 22.2065V8.6519C91.0771 8.21929 90.9087 7.80135 90.6129 7.49547C90.3135 7.18943 89.9093 7.01409 89.4863 7.01409H89.2691C89.0608 7.01771 88.8553 7.06244 88.6645 7.14569C88.4736 7.22894 88.3012 7.34907 88.1572 7.49914C87.8654 7.80135 87.7007 8.21547 87.697 8.64456V8.64426ZM87.7493 15.4983C87.7568 16.8639 87.2364 18.1735 86.3044 19.1436C85.3724 20.1137 84.1072 20.666 82.7819 20.6733C80.1468 20.6733 77.9233 18.304 77.9233 15.4983C77.9233 12.5992 80.1019 10.2561 82.7819 10.2561C85.6157 10.2413 87.7605 12.5023 87.7605 15.4983H87.7493ZM17.8151 18.2406C17.2386 18.1585 16.797 18.4755 16.1794 18.8935C14.9665 19.8486 13.4918 20.3822 11.9646 20.4195C9.9506 20.4905 7.98554 19.7667 6.46953 18.4009C5.10305 17.1474 4.17489 15.4647 3.83043 13.6104C3.21283 10.0994 4.70645 5.80859 9.21323 4.13715C10.1004 3.83493 11.0288 3.69689 11.9608 3.73419C13.664 3.80879 15.2961 4.45052 16.61 5.56247C16.9468 5.84222 17.3736 5.97659 17.8041 5.9318C18.0184 5.91095 18.2265 5.84777 18.4161 5.74594C18.6056 5.64411 18.773 5.50566 18.9083 5.33868C19.1067 5.1022 19.235 4.81528 19.2789 4.51014C19.3238 4.20441 19.2864 3.8947 19.1628 3.61114C18.3542 1.70826 14.3266 0.454448 12.934 0.297913C12.4679 0.230786 11.9975 0.197069 11.5266 0.197021C8.82 0.212002 6.21111 1.24584 4.18992 3.10362C1.92518 5.16319 0.529107 8.05098 0.296913 11.1516C0.0648718 14.2558 1.01558 17.3264 2.94337 19.7219C4.63529 21.8858 7.0422 23.3335 9.70369 23.7887C10.3064 23.8933 10.9202 23.9492 11.5341 23.9492C14.1657 23.9529 16.7148 22.9866 18.7174 21.2255C18.9619 21.0041 19.1385 20.7182 19.2266 20.4009C19.3157 20.082 19.3131 19.7446 19.2189 19.4271C19.1259 19.1136 18.9455 18.8328 18.6987 18.6174C18.4552 18.403 18.1526 18.2666 17.8303 18.2258L17.8151 18.2406Z" fill="currentColor"/>
<path d="M16.463 9.87914C16.2422 9.92026 16.0362 10.0097 15.8491 10.1366C15.662 10.2634 15.501 10.424 15.3775 10.6179C15.1154 11.0171 14.7636 11.3493 14.3481 11.5769C13.9327 11.8045 13.4684 11.9239 13.0005 11.9239C12.5289 11.9239 12.0685 11.8043 11.653 11.5769C11.2376 11.3494 10.8858 11.0171 10.6237 10.6179C10.4964 10.4276 10.3392 10.2634 10.1521 10.1366C9.96702 10.011 9.75806 9.9246 9.53815 9.8828C9.43354 9.86055 9.32688 9.84928 9.21991 9.84917C8.91104 9.85042 8.60877 9.93836 8.34773 10.1029C8.08091 10.268 7.86468 10.503 7.72262 10.7821C7.57983 11.0637 7.51278 11.3773 7.528 11.6924C7.54355 12.0087 7.64304 12.3152 7.81632 12.5806C8.38898 13.4535 9.16378 14.1699 10.0697 14.6625C10.969 15.157 11.9792 15.4163 13.0063 15.4163C14.0333 15.4163 15.0436 15.157 15.9428 14.6625C16.8487 14.1699 17.6237 13.4536 18.1963 12.5804C18.3835 12.293 18.4847 11.9537 18.4847 11.6103C18.4887 11.2654 18.3911 10.9268 18.2039 10.6366C18.0204 10.3492 17.7583 10.1217 17.4478 9.98736C17.1407 9.85329 16.7999 9.81559 16.4708 9.87929L16.463 9.87914ZM96.5799 21.1662C96.5799 20.838 96.3516 20.5096 95.7901 20.5096H95.0228V22.7369H95.3746V21.8452H95.7639L96.2806 22.737H96.6885L96.1159 21.7969C96.2532 21.7623 96.3739 21.6803 96.4563 21.5655C96.5425 21.4536 96.5836 21.3117 96.5799 21.1662ZM95.3746 21.5431V20.8192H95.8275C96.0671 20.8192 96.2169 20.9349 96.2169 21.17C96.2169 21.4647 96.0298 21.543 95.8202 21.543L95.3746 21.5431Z" fill="currentColor"/>
<path d="M95.7118 19.5281C95.3 19.5281 94.8996 19.6511 94.5553 19.8899C94.2108 20.125 93.945 20.4607 93.7878 20.8525C93.6299 21.2469 93.5896 21.6783 93.6717 22.095C93.7504 22.5093 93.9488 22.8934 94.2407 23.1918C94.5283 23.4907 94.9005 23.695 95.3077 23.7776C95.7119 23.8597 96.1312 23.8187 96.513 23.6545C96.8948 23.494 97.2204 23.218 97.4488 22.8636C97.6772 22.5071 97.7981 22.0927 97.7969 21.6697C97.7969 21.1026 97.5761 20.5578 97.1867 20.1548C96.7936 19.7519 96.2659 19.5281 95.7118 19.5281ZM95.7118 23.5053C95.3585 23.5047 95.0137 23.3967 94.7236 23.1956C94.4316 22.9942 94.2033 22.7069 94.0686 22.3711C93.934 22.0352 93.8964 21.6697 93.9674 21.3114C94.0339 20.9573 94.2032 20.6305 94.4542 20.3713C94.7013 20.1169 95.0196 19.9427 95.3675 19.8713C95.712 19.8007 96.07 19.8371 96.3932 19.9757C96.7221 20.1157 97.0011 20.351 97.1942 20.651C97.3896 20.955 97.4935 21.3085 97.4936 21.6696C97.4936 22.1584 97.3065 22.6248 96.9734 22.968C96.6402 23.3112 96.1872 23.5053 95.7118 23.5053Z" fill="currentColor"/>
</g>
<defs>
<clipPath id="clip0_137_634">
<rect width="98" height="24" fill="currentColor"/>
</clipPath>
</defs>
</svg>
