<svg width="213" height="32" viewBox="0 0 213 32" fill="none" xmlns="http://www.w3.org/2000/svg">
<g clip-path="url(#clip0_1978_2076)">
<path d="M179.224 28.7262C179.224 28.7262 179.024 28.7262 178.935 28.704C178.935 28.704 179.135 28.704 179.224 28.7262ZM183.249 28.237L183.494 27.5921L183.583 27.5254L183.249 28.237ZM177.289 27.5476L180.647 21.0987L177.312 27.5698M162.657 2.26339C165.17 2.26339 166.749 2.79709 167.972 4.02016C169.328 5.42114 170.107 7.51148 170.062 9.57958C169.995 12.2926 168.505 13.4267 167.238 14.1383C166.415 14.5831 164.325 14.8721 163.28 14.8721H159.677V2.28563H162.679L162.657 2.26339ZM186.318 14.5608H187.874L186.296 14.6053V14.5608H186.318ZM191.321 5.0431V14.3829H186.518L191.321 5.02086V5.0431ZM209.022 25.8353V25.9687L208.933 26.369C208.555 28.7929 207.399 28.7929 205.086 28.7929H198.682C196.125 28.7929 195.747 28.1036 195.747 23.5226V16.4955H202.351C203.241 16.4955 203.441 16.5622 203.552 16.918L203.708 17.2738L203.752 17.385H203.863H204.708H204.864V17.2293V14.205L204.82 13.7158V13.5601H204.664H203.819H203.685V13.6935L203.552 14.0494C203.485 14.294 203.441 14.4274 201.817 14.4274H195.747V2.508H204.82C206.532 2.508 206.665 2.508 207.266 5.08757L207.399 5.48785L207.444 5.59904H207.555H208.422H208.578V5.44337V0.662276V0.484375H208.422H191.366H191.255L191.21 0.573326L177.223 27.3919C177.067 27.214 176.911 27.0361 176.756 26.836L176.644 26.7026C174.354 24.0785 170.907 19.0528 170.529 18.3412L169.973 17.4962L168.972 15.6282C170.574 14.7165 174.243 12.5817 173.954 7.60043C173.909 6.02155 173.442 3.6866 170.018 1.66297C168.483 0.840178 166.371 0.484375 163.191 0.484375H153.762L153.273 0.551088H153.117V0.706752V1.64073V1.7964H153.273L153.74 1.81863C154.829 1.86311 155.23 1.88535 155.23 3.90898V27.2363C155.23 29.3044 155.052 29.3933 153.717 29.4601L153.25 29.549H153.117V29.7047V30.6386V30.7943H153.273H161.1L161.612 30.7276H161.745V30.5497V29.6157V29.4601H161.589L161.122 29.4378C160.122 29.3933 159.655 29.3711 159.655 27.4809V16.918H162.59C162.679 16.918 162.99 16.918 163.324 16.8735C163.635 16.8513 163.969 16.8291 164.08 16.8291H164.436L167.127 20.9875V21.0765C167.238 21.2988 170.151 25.524 172.219 28.0591C174.287 30.6164 176.667 31.1501 178.29 31.1501H178.401C180.981 31.1056 182.337 30.1494 182.738 29.5935C182.849 29.4378 182.96 29.1932 182.982 29.171L183.738 27.5921L184.005 27.0361L183.494 27.3697L182.026 28.3482C182.026 28.3482 181.826 28.4816 181.626 28.5483C181.292 28.6595 181.07 28.7262 180.202 28.7262C179.802 28.7262 179.446 28.6817 179.091 28.5705L185.339 16.4955H191.277V27.2363C191.277 27.9924 191.277 28.615 191.077 28.9931C190.988 29.171 190.832 29.5045 189.854 29.5045H189.364L189.209 29.5268V29.6824V30.6386V30.7943H189.364H210.068H210.223V30.6386V26.458L210.179 25.9687V25.8131H210.023H209.134H209L209.022 25.8353Z" fill="white"/>
<path d="M51.0024 15.6331C51.0024 23.6831 46.3102 29.5316 39.8168 29.5316C33.3234 29.5316 28.6535 23.6831 28.6535 15.6331C28.6535 7.58304 33.3679 1.73454 39.8168 1.73454C46.2657 1.73454 51.0024 7.58304 51.0024 15.6331ZM39.8168 0C30.8995 0 23.8947 6.87144 23.8947 15.6331C23.8947 24.3947 30.7439 31.2884 39.8168 31.2884C48.8898 31.2884 55.7168 24.5504 55.7168 15.6331C55.7168 6.71577 48.7341 0 39.8168 0Z" fill="white"/>
<path d="M146.647 16.064C146.647 19.622 145.045 23.5136 142.688 25.7818C140.309 28.0501 137.173 29.0285 132.236 29.0285C128.523 29.0285 127.055 27.7165 127.055 24.3586V2.2099H129.012H129.212C130.324 2.2099 134.149 2.27661 137.084 3.29955C144.134 5.74569 146.647 11.5052 146.647 16.064ZM145.001 3.2106C143.422 2.18766 139.975 0.453125 134.483 0.453125H121.14L120.628 0.519838H120.473V0.675502V1.60948V1.76515H120.628L121.095 1.78738C122.496 1.83186 122.585 1.92081 122.585 4.61157V26.0264C122.585 29.451 121.963 29.451 121.362 29.451L120.628 29.54H120.473V29.6957V30.6519V30.8298H120.651H132.57C136.951 30.8298 140.175 30.5407 142.755 29.0285C146.691 26.7825 150.894 21.9792 150.894 15.2634C150.894 10.2377 148.626 5.61226 144.979 3.2106" fill="white"/>
<path d="M3.32434 0.453125L2.83511 0.519838H2.67944V0.675502V1.63172V1.78739H2.83511H3.3021C4.21384 1.78739 4.74755 1.80962 4.74755 3.87773V28.0723C4.74755 29.1842 4.48069 29.451 3.3021 29.4733L2.81287 29.54H2.67944V29.6957V30.6519V30.8075H2.83511H10.774L11.2854 30.7408H11.4188V30.5852V29.6289V29.4733H11.2632H10.7962C9.52864 29.4288 9.19508 29.2287 9.17284 27.4274V16.3531H18.2013C18.8462 16.3531 18.8907 16.5087 19.0019 16.7978L19.1576 17.1536L19.202 17.2426H19.3132H20.136H20.2917V17.0869V14.0403L20.2472 13.5511V13.3954H20.0693H19.202H19.0686V13.5289L18.9574 13.9069C18.8907 14.1515 18.7128 14.2405 17.4897 14.2405H17.4453H9.1506V2.47675H18.1124C19.9803 2.47675 20.4918 2.65465 20.9143 4.36695L21.0255 4.78947V4.9229H21.1812H22.0929H22.2708V4.76723V0.631026V0.475363H22.0929H3.3021L3.32434 0.453125Z" fill="white"/>
<path d="M79.9773 0.453125H79.8217V0.608789V1.63172V1.78738H79.9773H80.4666C81.2671 1.78738 81.9565 1.92081 81.9787 3.52192V16.4198C81.9787 20.8006 81.5117 24.0028 79.0878 26.4934C77.42 28.228 75.3074 29.0285 72.4388 29.0508C69.4145 29.0508 67.4798 28.228 65.9454 26.2711C64.3443 24.2252 63.7661 21.3788 63.7438 15.3524V3.41073C63.7216 1.83186 64.2998 1.83186 65.2782 1.80962L65.7675 1.74291H65.9231V1.58725V0.631026V0.475363H65.7452H57.673L57.1837 0.542076H57.0281V0.697739V1.18697L57.117 1.69843V1.83186H57.2949H57.7842C57.7842 1.83186 57.9398 1.83186 58.0065 1.83186C58.6292 1.83186 58.8738 1.96529 58.9405 2.05424C59.1629 2.27661 59.2074 2.89927 59.2074 3.78877V14.4184C59.2518 20.6672 59.9412 24.8923 63.3213 28.1168C65.4339 30.1182 68.6361 31.2301 72.3276 31.2301C75.9078 31.2078 78.732 30.1182 80.7334 27.9834C83.6466 24.8923 84.2247 21.2898 84.2025 16.5087V3.67759C84.3137 1.80962 84.8919 1.80962 85.6702 1.80962L86.1594 1.74291H86.3151V1.58725V0.631026V0.475363H86.1372H79.9329L79.9773 0.453125Z" fill="white"/>
<path d="M114.29 15.2412L114.357 23.4691L114.29 23.4024V15.2412ZM92.8309 15.0188L92.7642 6.70191L92.8309 6.76862V15.0188ZM112.155 0.453125H112V0.608789V1.63172V1.78738H112.155H112.622C113.534 1.78738 114.09 1.94305 114.09 3.63311V23.0911L92.8977 0.519838L92.8532 0.475363H92.7865H87.2493L86.7378 0.542076H86.5822V0.697739V1.18697L86.6933 1.69843V1.83186H86.849H87.3382C90.407 1.83186 90.6516 4.41143 90.6516 7.07995V26.9382C90.6516 29.162 90.6517 29.3843 89.0283 29.4733L88.5613 29.5622H88.4279V29.7179V30.6519V30.8075H88.6058H94.4543L94.9658 30.7408H95.0992V30.5852V29.6734V29.5178H94.9435L94.521 29.451C93.2757 29.3176 92.9866 29.2954 92.9866 27.4274V7.05771L116.114 31.697L116.403 32.0084V31.5859V3.96668C116.403 1.98752 116.981 1.87634 118.071 1.83186L118.56 1.76515H118.693V1.60948V0.631026V0.475363H118.515H112.133L112.155 0.453125Z" fill="white"/>
</g>
<defs>
<clipPath id="clip0_1978_2076">
<rect width="212.923" height="32" fill="white"/>
</clipPath>
</defs>
</svg>
