<svg width="172" height="36" viewBox="0 0 172 36" fill="none" xmlns="http://www.w3.org/2000/svg">
<path d="M0 36L35.9874 0.00252004V0H0V9.77164H12.4046L0 22.1808V36Z" fill="white"/>
<path d="M35.9993 13.8164L26.2313 23.5882V35.9954H35.9993V13.8164Z" fill="white"/>
<path d="M57.8258 28.4993H47.9993V7.50067H57.5298C60.5882 7.50067 62.8377 7.94244 64.2781 8.82597C65.7383 9.7095 66.4683 11.0839 66.4683 12.9491V13.0375C66.4683 14.2941 66.1921 15.3052 65.6396 16.071C65.0871 16.817 64.2189 17.3668 63.035 17.7202C64.3768 18.0344 65.3633 18.5743 65.9948 19.34C66.6262 20.1058 66.9419 21.1365 66.9419 22.4324V22.4618C66.9419 24.5038 66.1921 26.0254 64.6925 27.0268C63.1928 28.0085 60.9039 28.4993 57.8258 28.4993ZM57.737 10.917H52.2022V16.0415H57.8258C59.3846 16.0415 60.5093 15.8353 61.1999 15.423C61.8905 15.0107 62.2358 14.3628 62.2358 13.4792V13.4203C62.2358 12.5172 61.9004 11.8791 61.2295 11.506C60.5586 11.1133 59.3944 10.917 57.737 10.917ZM57.4706 19.4284H52.2022V24.8768H57.293C59.207 24.8768 60.5586 24.6805 61.3479 24.2878C62.1372 23.8755 62.5318 23.1589 62.5318 22.1379V22.1084C62.5318 21.1267 62.1569 20.4395 61.4071 20.0469C60.677 19.6345 59.3648 19.4284 57.4706 19.4284Z" fill="white"/>
<path d="M77.7712 29C74.6141 29 72.2167 28.2637 70.579 26.7912C68.9609 25.3186 68.1519 23.149 68.1519 20.2825V20.0174C68.1519 17.2686 69.03 15.0991 70.7862 13.5087C72.5423 11.8987 74.8904 11.0937 77.8304 11.0937C80.81 11.0937 83.1679 11.8889 84.9043 13.4792C86.6407 15.0696 87.5089 17.249 87.5089 20.0174V20.2825C87.5089 23.0312 86.6506 25.1714 84.9339 26.7028C83.237 28.2343 80.8494 29 77.7712 29ZM77.8304 25.3186C79.5471 25.3186 80.8494 24.8867 81.7374 24.0228C82.645 23.1589 83.0989 21.9023 83.0989 20.253V20.0174C83.0989 18.2896 82.645 16.9741 81.7374 16.071C80.8494 15.1481 79.557 14.6867 77.86 14.6867C76.1828 14.6867 74.8805 15.1481 73.9531 16.071C73.0455 16.9938 72.5916 18.3092 72.5916 20.0174V20.253C72.5916 21.9023 73.0356 23.1589 73.9235 24.0228C74.8312 24.8867 76.1335 25.3186 77.8304 25.3186Z" fill="white"/>
<path d="M98.5545 29C95.3974 29 93 28.2637 91.3622 26.7912C89.7442 25.3186 88.9352 23.149 88.9352 20.2825V20.0174C88.9352 17.2686 89.8133 15.0991 91.5694 13.5087C93.3255 11.8987 95.6736 11.0937 98.6137 11.0937C101.593 11.0937 103.951 11.8889 105.688 13.4792C107.424 15.0696 108.292 17.249 108.292 20.0174V20.2825C108.292 23.0312 107.434 25.1714 105.717 26.7028C104.02 28.2343 101.633 29 98.5545 29ZM98.6137 25.3186C100.33 25.3186 101.633 24.8867 102.521 24.0228C103.428 23.1589 103.882 21.9023 103.882 20.253V20.0174C103.882 18.2896 103.428 16.9741 102.521 16.071C101.633 15.1481 100.34 14.6867 98.6433 14.6867C96.9661 14.6867 95.6638 15.1481 94.7364 16.071C93.8287 16.9938 93.3749 18.3092 93.3749 20.0174V20.253C93.3749 21.9023 93.8188 23.1589 94.7068 24.0228C95.6144 24.8867 96.9167 25.3186 98.6137 25.3186Z" fill="white"/>
<path d="M126.801 23.257C126.801 25.0241 126.051 26.4279 124.552 27.4685C123.052 28.4895 120.98 29 118.336 29C115.455 29 113.226 28.4993 111.647 27.498C110.069 26.477 109.121 24.9456 108.806 22.9036H113.63C113.828 23.8264 114.311 24.494 115.081 24.9063C115.85 25.3186 116.994 25.5248 118.514 25.5248C119.875 25.5248 120.872 25.3579 121.503 25.0241C122.154 24.6903 122.48 24.1602 122.48 23.4337C122.48 22.8643 122.164 22.452 121.533 22.1968C120.901 21.9415 119.431 21.7256 117.123 21.5489C114.321 21.3329 112.348 20.842 111.203 20.0763C110.078 19.2909 109.516 18.1423 109.516 16.6305C109.516 14.9027 110.217 13.548 111.618 12.5663C113.038 11.5846 115.002 11.0937 117.508 11.0937C120.132 11.0937 122.184 11.5649 123.664 12.5074C125.164 13.4302 126.111 14.834 126.505 16.7189H121.947C121.77 15.9139 121.326 15.3249 120.615 14.9518C119.905 14.5788 118.859 14.3922 117.478 14.3922C116.235 14.3922 115.298 14.5591 114.666 14.8929C114.054 15.2071 113.749 15.6881 113.749 16.336C113.749 16.925 114.064 17.3472 114.696 17.6024C115.347 17.8577 116.787 18.0736 119.017 18.2503C121.997 18.5056 124.039 19.0161 125.144 19.7818C126.249 20.5279 126.801 21.6863 126.801 23.257Z" fill="white"/>
<path d="M138.415 24.6118H140.191V28.4993H137.29C134.706 28.4993 132.93 27.9888 131.963 26.9679C131.016 25.9469 130.542 23.9933 130.542 21.1071V15.3347H126.635V11.7711C127.247 11.7711 127.701 11.7711 127.997 11.7711C128.293 11.7515 128.579 11.7318 128.855 11.7122C129.546 11.6925 130.009 11.5453 130.246 11.2704C130.503 10.9759 130.68 10.4163 130.779 9.5917C130.838 9.25792 130.878 8.8456 130.897 8.35475C130.937 7.84427 130.947 7.39268 130.927 7H134.597V11.5649H140.191V15.3347H134.597V20.3708C134.597 22.2164 134.814 23.3846 135.248 23.8755C135.682 24.3664 136.738 24.6118 138.415 24.6118Z" fill="white"/>
<path d="M146.23 21.5489V28.4993H141.909V11.5649H145.52L146.053 15.8059C146.447 14.3333 147.148 13.2338 148.154 12.5074C149.18 11.7809 150.532 11.4177 152.209 11.4177H153.778V15.7175H151.854C149.703 15.7175 148.223 16.12 147.414 16.925C146.625 17.73 146.23 19.2713 146.23 21.5489Z" fill="white"/>
<path d="M171.999 28.4993H168.477L168.033 24.8768C167.343 26.1923 166.307 27.2133 164.925 27.9398C163.564 28.6466 161.956 29 160.101 29C158.088 29 156.539 28.5975 155.454 27.7925C154.389 26.9875 153.856 25.8389 153.856 24.3467C153.856 23.3846 154.053 22.5502 154.448 21.8434C154.862 21.1365 155.464 20.5672 156.253 20.1352C156.983 19.7229 157.802 19.4186 158.71 19.2222C159.618 19.0062 161.166 18.7903 163.357 18.5743C165.172 18.3976 166.366 18.1816 166.938 17.9264C167.53 17.6515 167.826 17.2195 167.826 16.6305V16.6011C167.826 15.855 167.481 15.2954 166.79 14.9224C166.119 14.5297 165.103 14.3333 163.741 14.3333C162.143 14.3333 160.949 14.5886 160.16 15.0991C159.371 15.6095 158.927 16.4145 158.828 17.5141H154.359C154.556 15.4525 155.434 13.8719 156.993 12.7724C158.572 11.6533 160.722 11.0937 163.445 11.0937C166.405 11.0937 168.566 11.6042 169.927 12.6252C171.309 13.6265 171.999 15.2267 171.999 17.4257V28.4993ZM161.492 25.7898C163.248 25.7898 164.748 25.2793 165.991 24.2584C167.234 23.2178 167.856 22.0201 167.856 20.6653V20.0763C167.54 20.3315 167.076 20.5573 166.464 20.7537C165.873 20.9304 165.063 21.0776 164.037 21.1954C162.676 21.3329 161.679 21.4703 161.048 21.6078C160.436 21.7452 159.943 21.9219 159.568 22.1379C159.193 22.3539 158.927 22.5993 158.769 22.8742C158.611 23.1294 158.532 23.4436 158.532 23.8166V23.8461C158.532 24.494 158.779 24.9848 159.272 25.3186C159.765 25.6328 160.505 25.7898 161.492 25.7898Z" fill="white"/>
</svg>
