<svg width="176" height="32" viewBox="0 0 176 32" fill="none" xmlns="http://www.w3.org/2000/svg">
<path d="M77.3439 5.38708H66.6743V26.6723H72.0766V18.8659C72.0766 18.8659 79.8019 19.2981 81.9764 16.4214C83.5971 14.5711 83.6916 11.6133 83.0298 9.31728C82.1385 6.72416 80.1936 5.38708 77.3574 5.40058L77.3439 5.38708ZM77.9652 14.9762C76.6956 16.4619 73.9134 16.4484 72.0496 16.3268L72.0631 7.79112C72.0631 7.79112 76.8712 7.11583 78.1407 9.29027C78.87 10.6003 79.0456 13.5311 77.9652 14.9627V14.9762ZM31.9913 30.1298C29.5493 29.0172 27.389 27.3693 25.6705 25.3082C23.5906 22.9447 18.6475 16.2998 18.6475 16.2998C16.0814 13.0179 12.6779 7.56152 9.30146 4.81983V26.6183H12.3133V15.6245C14.4337 18.3257 16.9053 21.7697 18.7826 23.9441C19.5929 24.93 21.7133 27.2125 22.3211 27.7257C26.1973 31.4804 33.3148 33.1821 39.2574 31.1022V30.8861C37.2315 31.3318 34.5844 31.1562 31.9913 30.1298ZM13.6233 6.67013C15.6897 9.03366 20.6464 15.6785 20.6464 15.6785C23.2125 18.974 26.6159 24.4168 29.9924 27.1585V5.36007H26.9806V16.3673C24.8602 13.6662 22.3751 10.2222 20.4978 8.04773C19.3843 6.73124 18.2079 5.46923 16.9728 4.26609C13.0831 0.497964 5.96552 -1.17676 0.0229492 0.90314V1.10573C2.46598 0.64805 4.98921 0.906002 7.28909 1.84855C9.7334 2.96341 11.8941 4.61628 13.6098 6.68364L13.6233 6.67013ZM47.631 7.76411V5.38708H33.0447V26.6723H47.658L47.6445 24.2818C44.8353 24.3628 41.3238 24.795 38.4471 24.5114V16.8805C40.7836 16.7455 43.6063 16.7995 45.7807 17.0021V14.4765C43.5793 14.7466 40.7971 14.7331 38.4471 14.5846V7.56152C41.3238 7.25088 44.8353 7.72359 47.631 7.76411ZM62.7306 16.3268C60.2725 14.2064 57.2607 13.5311 55.1673 12.086C53.6817 10.9515 53.8977 9.46584 54.6541 8.669C56.4233 6.69715 60.1374 7.62905 61.0018 7.83164C62.0958 8.15578 62.6765 8.50693 63.73 8.96613V6.29197C59.3001 5.00891 52.2095 3.77988 49.4138 8.2233C48.4009 10.0466 48.1308 13.3555 51.0885 15.2869C54.0598 17.6504 58.9624 18.7849 59.5702 20.6892C59.9484 21.7291 59.4892 22.7151 58.7869 23.4309C56.1397 25.8754 51.8989 24.3493 49.1572 23.1338V25.7674C52.1285 27.091 55.8696 27.4286 59.2055 26.7128C61.488 26.2131 64.0406 24.2007 64.4458 21.7291C64.8645 19.2981 64.3513 17.6909 62.7306 16.3268ZM103.045 25.5513L102.384 24.3088C101.01 21.7952 99.7481 19.2221 98.6021 16.5969C98.7371 16.5024 98.6966 16.5429 99.0613 16.3673C101.047 15.4219 102.343 13.7337 102.316 10.7894C102.222 7.16985 98.9127 5.38708 96.0225 5.38708H85.2043V26.6723H90.6336V17.88H93.74C94.9979 20.2826 96.1515 22.7385 97.1975 25.2407L97.8322 26.6723H103.64L103.113 25.6729L103.045 25.5513ZM96.3331 14.1254C95.0635 15.665 92.4164 15.5435 90.5931 15.5435V7.7506C90.5931 7.7506 95.2391 7.0483 96.5222 9.27676C97.184 10.5328 97.265 12.8693 96.3331 14.1389V14.1254ZM165.388 5.07644C163.984 5.06294 154.827 5.2115 154.786 15.9486C154.786 26.6183 163.835 27.0234 165.388 27.0234C166.955 27.0234 176.004 26.6183 175.977 15.9486C175.964 5.2115 166.82 5.06294 165.388 5.07644ZM165.429 24.0522H165.348C164.754 24.0522 160.391 24.2412 160.418 15.5435C160.445 7.46698 164.7 7.69658 165.402 7.69658C166.104 7.69658 170.345 7.46698 170.386 15.53C170.413 24.2412 166.037 24.0522 165.429 24.0522ZM135.203 16.3268C132.731 14.2064 129.733 13.5311 127.626 12.086C126.14 10.9515 126.37 9.46584 127.126 8.669C128.896 6.69715 132.61 7.62905 133.474 7.83164C134.555 8.15578 135.149 8.50693 136.189 8.96613V6.29197C131.772 5.00891 124.682 3.77988 121.886 8.2233C120.86 10.0466 120.603 13.3555 123.547 15.2869C126.532 17.6504 131.421 18.7849 132.029 20.6892C132.407 21.7291 131.948 22.7151 131.246 23.4309C128.599 25.8754 124.358 24.3493 121.616 23.1338V25.7674C124.587 27.091 128.328 27.4286 131.664 26.7128C133.96 26.2131 136.499 24.2007 136.918 21.7291C137.323 19.2981 136.824 17.6909 135.203 16.3268ZM151.775 16.3268C149.317 14.2064 146.318 13.5311 144.211 12.086C142.726 10.9515 142.942 9.46584 143.698 8.669C145.454 6.69715 149.181 7.62905 150.046 7.83164C151.14 8.15578 151.734 8.50693 152.774 8.96613V6.29197C148.344 5.00891 141.267 3.77988 138.458 8.2233C137.431 10.0466 137.161 13.3555 140.133 15.2869C143.117 17.6504 148.006 18.7849 148.601 20.6892C148.992 21.7291 148.547 22.7151 147.817 23.4309C145.184 25.8754 140.929 24.3493 138.201 23.1338L138.188 25.7674C141.159 27.091 144.914 27.4286 148.236 26.7128C150.532 26.2131 153.085 24.2007 153.503 21.7291C153.909 19.2981 153.395 17.6909 151.775 16.3268ZM105.436 26.6723H120.036V24.2682C117.227 24.3493 113.715 24.7815 110.838 24.4978V16.867C113.175 16.732 116.011 16.786 118.186 16.9886V14.463C115.957 14.7331 113.188 14.7196 110.825 14.5711V7.54801C113.715 7.23738 117.227 7.71008 120.036 7.7506V5.38708H105.436V26.6723Z" fill="white"/>
</svg>
