<svg width="235" height="132" viewBox="0 0 235 132" fill="none" xmlns="http://www.w3.org/2000/svg">
<g filter="url(#filter0_d_48_552)">
<path fill-rule="evenodd" clip-rule="evenodd" d="M89.5844 46C77.4341 46 67.5843 55.8497 67.5843 68C67.5843 80.1503 77.4341 90 89.5844 90C101.735 90 111.584 80.1503 111.584 68C111.584 55.8497 101.735 46 89.5844 46ZM85.3597 77.532C86.5273 78.6996 88.0691 79.2834 89.6184 79.2834C91.1303 79.2834 92.6347 78.7295 93.7948 77.6218C94.9699 76.4917 95.6286 74.9723 95.6435 73.3406C95.6585 71.709 95.0298 70.1746 93.8772 69.022L88.623 63.7678C88.1065 63.2514 88.1065 62.4056 88.623 61.8892C88.8774 61.6347 89.2142 61.5 89.566 61.5C89.9253 61.5 90.2546 61.6347 90.5091 61.8892L93.1063 64.4863C94.0269 65.3995 95.5163 65.3995 96.4294 64.4863C97.35 63.5657 97.35 62.0763 96.4294 61.1632L93.8323 58.566C92.6946 57.4284 91.1827 56.7997 89.5735 56.7997C87.9643 56.7997 86.4524 57.4284 85.3148 58.566C82.9646 60.9162 82.9646 64.7333 85.3148 67.0835L90.569 72.3377C90.8234 72.5922 90.9582 72.929 90.9582 73.2882C90.9507 73.6475 90.8085 73.9843 90.5465 74.2313C90.0226 74.7253 89.1918 74.7178 88.6828 74.2089L86.0333 71.5593C85.1127 70.6387 83.6232 70.6462 82.7101 71.5593C81.797 72.4799 81.797 73.9693 82.7101 74.8825L85.3597 77.532ZM75.5808 68.0189C75.5808 66.0355 77.19 64.4263 79.1734 64.4263C81.1568 64.4263 82.766 66.0355 82.766 68.0189C82.766 70.0024 81.1568 71.6115 79.1734 71.6115C77.19 71.6041 75.5808 70.0024 75.5808 68.0189ZM96.3785 68.0189C96.3785 66.0355 97.9877 64.4263 99.9711 64.4263C101.955 64.4263 103.564 66.0355 103.564 68.0189C103.564 70.0024 101.955 71.6115 99.9711 71.6115C97.9877 71.6041 96.3785 70.0024 96.3785 68.0189Z" fill="currentColor"/>
</g>
<path d="M126.848 73.6291C126.503 73.3988 126.25 72.9382 126.25 72.4545C126.25 71.6485 126.894 71.0036 127.723 71.0036C128.137 71.0036 128.413 71.1418 128.62 71.28C129.701 72.063 130.875 72.5697 132.255 72.5697C133.544 72.5697 134.303 72.063 134.303 71.2339V71.1879C134.303 70.4048 133.82 69.9903 131.427 69.3685C128.574 68.6315 126.71 67.8485 126.71 65.0157V64.9697C126.71 62.3903 128.781 60.686 131.68 60.686C133.406 60.686 134.901 61.1236 136.19 61.9527C136.535 62.16 136.88 62.5745 136.88 63.1963C136.88 64.0024 136.236 64.6472 135.408 64.6472C135.109 64.6472 134.855 64.5551 134.625 64.4169C133.59 63.7951 132.624 63.4497 131.634 63.4497C130.438 63.4497 129.817 64.0024 129.817 64.6933V64.7394C129.817 65.6836 130.438 65.983 132.877 66.6048C135.753 67.3648 137.386 68.4012 137.386 70.8654V70.9115C137.386 73.7442 135.224 75.3333 132.163 75.3333C130.323 75.3333 128.436 74.7575 126.848 73.6291Z" fill="currentColor"/>
<path d="M139.724 73.1256L144.671 61.9099C145.016 61.1269 145.637 60.6663 146.488 60.6663H146.673C147.524 60.6663 148.145 61.1269 148.49 61.9099L153.437 73.1256C153.529 73.3559 153.598 73.5632 153.598 73.7475C153.598 74.5766 152.954 75.2444 152.126 75.2444C151.389 75.2444 150.906 74.8069 150.63 74.162L149.664 71.9281H143.405L142.416 74.2772C142.14 74.8759 141.634 75.2444 140.966 75.2444C140.161 75.2444 139.517 74.5996 139.517 73.7705C139.54 73.5632 139.609 73.3559 139.724 73.1256ZM148.513 69.1875L146.534 64.4893L144.556 69.1875H148.513Z" fill="currentColor"/>
<path d="M156.356 62.4616C156.356 61.5864 157.046 60.8955 157.921 60.8955H162.177C165.56 60.8955 167.63 62.8991 167.63 65.824V65.87C167.63 69.1634 165.076 70.8676 161.878 70.8676H159.485V73.7003C159.485 74.5755 158.795 75.2664 157.921 75.2664C157.046 75.2664 156.356 74.5755 156.356 73.7003V62.4616ZM161.97 68.081C163.535 68.081 164.455 67.1367 164.455 65.9161V65.87C164.455 64.4652 163.489 63.7052 161.924 63.7052H159.485V68.0579H161.97V68.081Z" fill="currentColor"/>
<path d="M170.477 62.4616C170.477 61.5864 171.167 60.8955 172.041 60.8955H176.298C179.68 60.8955 181.751 62.8991 181.751 65.824V65.87C181.751 69.1634 179.197 70.8676 175.999 70.8676H173.629V73.7003C173.629 74.5755 172.938 75.2664 172.064 75.2664C171.19 75.2664 170.5 74.5755 170.5 73.7003V62.4616H170.477ZM176.091 68.081C177.655 68.081 178.576 67.1367 178.576 65.9161V65.87C178.576 64.4652 177.609 63.7052 176.045 63.7052H173.629V68.0579H176.091V68.081Z" fill="currentColor"/>
<path d="M184.607 62.3468C184.607 61.4717 185.297 60.7808 186.172 60.7808C187.046 60.7808 187.736 61.4717 187.736 62.3468V66.5383H193.512V62.3468C193.512 61.4717 194.202 60.7808 195.076 60.7808C195.95 60.7808 196.641 61.4717 196.641 62.3468V73.7007C196.641 74.5759 195.95 75.2668 195.076 75.2668C194.202 75.2668 193.512 74.5759 193.512 73.7007V69.4171H187.736V73.6777C187.736 74.5529 187.046 75.2438 186.172 75.2438C185.297 75.2438 184.607 74.5529 184.607 73.6777V62.3468Z" fill="currentColor"/>
<path d="M200.804 62.3468C200.804 61.4717 201.495 60.7808 202.369 60.7808C203.243 60.7808 203.934 61.4717 203.934 62.3468V73.7007C203.934 74.5759 203.243 75.2668 202.369 75.2668C201.495 75.2668 200.804 74.5759 200.804 73.7007V62.3468Z" fill="currentColor"/>
<path d="M208.094 62.4616C208.094 61.5864 208.784 60.8955 209.659 60.8955H214.605C216.423 60.8955 217.804 61.4022 218.747 62.3464C219.529 63.1294 219.967 64.2579 219.967 65.5937V65.6397C219.967 67.8737 218.839 69.2555 217.113 69.9694L219.299 72.6179C219.598 73.0094 219.805 73.3319 219.805 73.8155C219.805 74.6906 219.069 75.2664 218.31 75.2664C217.597 75.2664 217.136 74.921 216.768 74.4604L213.731 70.5913H211.223V73.7003C211.223 74.5755 210.533 75.2664 209.659 75.2664C208.784 75.2664 208.094 74.5755 208.094 73.7003V62.4616ZM214.375 67.8046C215.894 67.8046 216.768 66.9985 216.768 65.801V65.7549C216.768 64.4191 215.825 63.7282 214.306 63.7282H211.2V67.8046H214.375Z" fill="currentColor"/>
<path d="M223.465 73.5622V62.4616C223.465 61.5864 224.155 60.8955 225.03 60.8955H232.922C233.704 60.8955 234.325 61.5173 234.325 62.3003C234.325 63.0834 233.704 63.6822 232.922 63.6822H226.571V66.561H232.001C232.784 66.561 233.405 67.1828 233.405 67.9658C233.405 68.7488 232.784 69.3476 232.001 69.3476H226.571V72.3416H233.014C233.796 72.3416 234.417 72.9634 234.417 73.7464C234.417 74.5294 233.796 75.1282 233.014 75.1282H225.03C224.155 75.1282 223.465 74.4373 223.465 73.5622Z" fill="currentColor"/>
<defs>
<filter id="filter0_d_48_552" x="0.361931" y="0.166573" width="178.445" height="178.445" filterUnits="userSpaceOnUse" color-interpolation-filters="sRGB">
<feFlood flood-opacity="0" result="BackgroundImageFix"/>
<feColorMatrix in="SourceAlpha" type="matrix" values="0 0 0 0 0 0 0 0 0 0 0 0 0 0 0 0 0 0 127 0" result="hardAlpha"/>
<feOffset dy="21.3889"/>
<feGaussianBlur stdDeviation="33.6112"/>
<feColorMatrix type="matrix" values="0 0 0 0 0.40996 0 0 0 0 0.435118 0 0 0 0 0.508304 0 0 0 0.12 0"/>
<feBlend mode="normal" in2="BackgroundImageFix" result="effect1_dropShadow_48_552"/>
<feBlend mode="normal" in="SourceGraphic" in2="effect1_dropShadow_48_552" result="shape"/>
</filter>
</defs>
</svg>
