<svg width="198" height="36" viewBox="0 0 198 36" fill="none" xmlns="http://www.w3.org/2000/svg">
<path d="M87.0087 6.06046H75.0023V30.0063H81.0815V21.2241C81.0815 21.2241 89.7748 21.7104 92.2216 18.474C94.0454 16.3924 94.1518 13.0649 93.4071 10.4819C92.404 7.56468 90.2155 6.06046 87.0239 6.07566L87.0087 6.06046ZM87.7078 16.8483C86.2792 18.5196 83.1484 18.5044 81.0511 18.3677L81.0663 8.76501C81.0663 8.76501 86.4768 8.0053 87.9054 10.4515C88.7261 11.9254 88.9237 15.2225 87.7078 16.8331V16.8483ZM35.9737 33.896C33.2258 32.6444 30.7948 30.7905 28.8611 28.4717C26.5206 25.8128 20.9581 18.3373 20.9581 18.3373C18.0705 14.6451 14.2406 8.50671 10.441 5.42231V29.9455H13.8302V17.5776C16.2163 20.6164 18.9975 24.4909 21.1101 26.9371C22.0219 28.0463 24.408 30.6141 25.0919 31.1915C29.4538 35.4154 37.4631 37.3299 44.1503 34.99V34.7469C41.8706 35.2483 38.8918 35.0508 35.9737 33.896ZM15.3044 7.5039C17.6297 10.1629 23.2074 17.6383 23.2074 17.6383C26.095 21.3457 29.9249 27.4689 33.7244 30.5533V6.03008H30.3353V18.4132C27.9492 15.3744 25.1527 11.4999 23.0402 9.05369C21.7872 7.57264 20.4634 6.15288 19.0735 4.79936C14.6965 0.56021 6.68713 -1.32385 0 1.01603V1.24394C2.74912 0.729056 5.5885 1.01925 8.17654 2.07962C10.9271 3.33383 13.3586 5.19331 15.2892 7.51909L15.3044 7.5039ZM53.5731 8.73462V6.06046H37.1592V30.0063H53.6035L53.5883 27.317C50.4271 27.4081 46.4756 27.8943 43.2384 27.5753V18.9906C45.8677 18.8387 49.044 18.8995 51.4909 19.1274V16.2861C49.0136 16.59 45.8829 16.5748 43.2384 16.4076V8.50671C46.4756 8.15724 50.4271 8.68904 53.5731 8.73462ZM70.5645 18.3677C67.7984 15.9822 64.4092 15.2225 62.0536 13.5967C60.3818 12.3204 60.6249 10.6491 61.476 9.75262C63.467 7.53429 67.6464 8.58268 68.6191 8.81059C69.8502 9.17525 70.5037 9.57029 71.6891 10.0869V7.07847C66.7041 5.63503 58.7252 4.25237 55.5792 9.25122C54.4393 11.3024 54.1354 15.025 57.4638 17.1977C60.8073 19.8567 66.3242 21.133 67.0081 23.2753C67.4337 24.4453 66.9169 25.5545 66.1266 26.3597C63.1478 29.1099 58.3756 27.3929 55.2904 26.0255V28.9883C58.634 30.4773 62.8438 30.8572 66.5978 30.0519C69.1662 29.4897 72.0387 27.2258 72.4946 24.4453C72.9657 21.7104 72.3882 19.9023 70.5645 18.3677ZM115.931 28.7452L115.186 27.3474C113.64 24.5196 112.22 21.6249 110.93 18.6715C111.082 18.5652 111.037 18.6108 111.447 18.4132C113.681 17.3497 115.14 15.4504 115.11 12.1381C115.003 8.06608 111.28 6.06046 108.028 6.06046H95.854V30.0063H101.964V20.115H105.459C106.875 22.8179 108.173 25.5808 109.35 28.3957L110.064 30.0063H116.599L116.007 28.882L115.931 28.7452ZM108.377 15.891C106.949 17.6231 103.97 17.4864 101.918 17.4864V8.71943C101.918 8.71943 107.146 7.92933 108.59 10.4364C109.335 11.8494 109.426 14.478 108.377 15.9062V15.891ZM186.085 5.711C184.504 5.69581 174.2 5.86294 174.154 17.9422C174.154 29.9455 184.337 30.4014 186.085 30.4014C187.848 30.4014 198.03 29.9455 198 17.9422C197.985 5.86294 187.696 5.69581 186.085 5.711ZM186.13 27.0587H186.039C185.37 27.0587 180.461 27.2714 180.492 17.4864C180.522 8.40035 185.31 8.65865 186.1 8.65865C186.89 8.65865 191.662 8.40035 191.708 17.4712C191.738 27.2714 186.814 27.0587 186.13 27.0587ZM152.117 18.3677C149.336 15.9822 145.962 15.2225 143.591 13.5967C141.919 12.3204 142.178 10.6491 143.029 9.75262C145.02 7.53429 149.199 8.58268 150.172 8.81059C151.388 9.17525 152.056 9.57029 153.227 10.0869V7.07847C148.257 5.63503 140.278 4.25237 137.132 9.25122C135.977 11.3024 135.688 15.025 139.001 17.1977C142.36 19.8567 147.862 21.133 148.546 23.2753C148.971 24.4453 148.454 25.5545 147.664 26.3597C144.685 29.1099 139.913 27.3929 136.828 26.0255V28.9883C140.171 30.4773 144.381 30.8572 148.135 30.0519C150.719 29.4897 153.576 27.2258 154.047 24.4453C154.503 21.7104 153.941 19.9023 152.117 18.3677ZM170.765 18.3677C167.999 15.9822 164.625 15.2225 162.254 13.5967C160.582 12.3204 160.826 10.6491 161.677 9.75262C163.652 7.53429 167.847 8.58268 168.82 8.81059C170.051 9.17525 170.719 9.57029 171.89 10.0869V7.07847C166.905 5.63503 158.941 4.25237 155.78 9.25122C154.625 11.3024 154.321 15.025 157.664 17.1977C161.023 19.8567 166.525 21.133 167.194 23.2753C167.634 24.4453 167.133 25.5545 166.312 26.3597C163.348 29.1099 158.561 27.3929 155.491 26.0255L155.476 28.9883C158.819 30.4773 163.044 30.8572 166.783 30.0519C169.367 29.4897 172.239 27.2258 172.71 24.4453C173.166 21.7104 172.589 19.9023 170.765 18.3677ZM118.621 30.0063H135.05V27.3018C131.889 27.3929 127.937 27.8791 124.7 27.5601V18.9754C127.329 18.8235 130.521 18.8843 132.968 19.1122V16.2709C130.46 16.5748 127.344 16.5596 124.685 16.3924V8.49151C127.937 8.14205 131.889 8.67384 135.05 8.71943V6.06046H118.621V30.0063Z" fill="white"/>
</svg>
