<svg width="147" height="37" viewBox="0 0 147 37" fill="none" xmlns="http://www.w3.org/2000/svg">
<path d="M63.2518 35.9883V0.000171661H68.9833V35.9883H63.2518Z" fill="white"/>
<path d="M75.8936 35.9883V0.000171661H81.625V35.9883H75.8936Z" fill="white"/>
<path d="M92.0376 24.73C92.0376 25.5654 92.1857 26.4004 92.4822 27.2359C92.763 28.0248 93.176 28.7138 93.722 29.3017C94.2676 29.8894 94.9305 30.3611 95.7107 30.717C96.4595 31.0572 97.3245 31.2277 98.3074 31.2277C99.305 31.2277 100.178 31.0572 100.927 30.717C101.707 30.3611 102.37 29.8894 102.916 29.3017C103.462 28.7138 103.875 28.0248 104.156 27.2359C104.452 26.4004 104.6 25.5654 104.6 24.73C104.6 23.863 104.452 23.0276 104.156 22.2229C103.875 21.4654 103.462 20.7767 102.916 20.1578C102.401 19.5854 101.738 19.1137 100.927 18.7425C100.132 18.3866 99.2583 18.209 98.3074 18.209C97.3719 18.209 96.5062 18.3866 95.7107 18.7425C94.8997 19.1137 94.2368 19.5854 93.722 20.1578C93.176 20.7767 92.763 21.4654 92.4822 22.2229C92.1857 23.0276 92.0376 23.863 92.0376 24.73ZM86.1893 24.73C86.1893 23.0544 86.5013 21.5024 87.1252 20.0756C87.7646 18.6016 88.6299 17.337 89.7216 16.2819C90.8133 15.2118 92.0997 14.3743 93.5821 13.7688C95.0632 13.1637 96.6384 12.8609 98.3074 12.8609C100.007 12.8609 101.59 13.1637 103.056 13.7688C104.522 14.3743 105.808 15.2118 106.916 16.2819C108.008 17.337 108.873 18.6016 109.513 20.0756C110.136 21.5024 110.449 23.0544 110.449 24.73C110.449 26.3862 110.136 27.9264 109.513 29.3521C108.889 30.7918 108.023 32.0458 106.916 33.1135C105.824 34.1671 104.538 35.0107 103.056 35.6459C101.606 36.2648 100.023 36.5742 98.3074 36.5742C96.6072 36.5742 95.0324 36.2648 93.5821 35.6459C92.0997 35.0107 90.8133 34.1671 89.7216 33.1135C88.6299 32.0458 87.7646 30.7918 87.1252 29.3521C86.5013 27.9264 86.1893 26.3862 86.1893 24.73Z" fill="white"/>
<path d="M140.55 13.3673L135.169 24.9456L135.151 24.9401L129.715 12.794H128.476L123.042 24.9401L123.024 24.9456L117.643 13.3673H111.911L122.254 35.9883H122.928H123.492L129.096 24.9414L134.697 35.9883H135.266H135.936L146.281 13.3673H140.55Z" fill="white"/>
<path d="M28.639 13.3672L23.2585 24.9456L23.2394 24.9401L17.804 12.794H16.5652L11.1316 24.9401L11.1126 24.9456L5.73224 13.3672H0.000732422L10.3429 35.9883H11.0167H11.5817L17.1856 24.9414L22.7867 35.9883H23.3543H24.0254L34.3708 13.3672H28.639Z" fill="white"/>
<path d="M41.6812 22.6252H52.9332C52.9015 22.1563 52.7693 21.6397 52.5356 21.0756C52.3015 20.5276 51.951 20.0192 51.4828 19.5488C51.0151 19.0795 50.4301 18.7043 49.7283 18.4224C49.0264 18.1402 48.1997 17.9992 47.2488 17.9992C46.3283 17.9992 45.525 18.1402 44.8394 18.4224C44.2155 18.6882 43.6536 19.0567 43.1546 19.526C42.7023 19.9641 42.3514 20.4649 42.1023 21.0292C41.8366 21.6237 41.6966 22.1563 41.6812 22.6252ZM35.8328 24.6253C35.8328 22.967 36.1207 21.4402 36.698 20.0452C37.2907 18.6189 38.0862 17.3719 39.0841 16.3019C40.0512 15.2637 41.252 14.4267 42.6869 13.7908C44.0747 13.1711 45.5952 12.8609 47.2488 12.8609C48.8394 12.8609 50.3129 13.1483 51.6699 13.7215C53.1043 14.3259 54.321 15.1244 55.3194 16.1157C56.3328 17.1236 57.1518 18.3638 57.7758 19.8355C58.3839 21.2775 58.6881 22.8736 58.6881 24.6253V25.508C58.6881 25.7563 58.6723 26.1749 58.6415 26.7642H41.6812C41.7899 27.2466 42.0236 27.7839 42.3826 28.3765C42.7412 28.9524 43.1859 29.4434 43.7161 29.8482C44.3088 30.3001 44.9562 30.6584 45.6577 30.923C46.3749 31.2033 47.2098 31.3438 48.1611 31.3438C49.1437 31.3438 50.1802 31.1729 51.2723 30.83C52.3636 30.4871 53.3697 29.8946 54.2902 29.054L57.1677 33.3348C56.2001 34.1214 54.9526 34.8545 53.4244 35.5328C51.865 36.2273 50.0792 36.5742 48.0674 36.5742C46.3205 36.5742 44.7141 36.2722 43.2483 35.6679C41.7822 35.0635 40.4878 34.2186 39.3651 33.1332C38.2732 32.0647 37.4075 30.7934 36.7685 29.3206C36.1445 27.88 35.8328 26.3146 35.8328 24.6253Z" fill="white"/>
</svg>
