<svg width="120" height="33" viewBox="0 0 120 33" fill="none" xmlns="http://www.w3.org/2000/svg">
<path d="M0 28.5L23.9916 4.50168V4.5H0V11.0144H8.26975L0 19.2872V28.5Z" fill="white"/>
<path d="M23.9996 13.7109L17.4875 20.2254V28.497H23.9996V13.7109Z" fill="white"/>
<path d="M41.6188 23.5H35.045V9.38232H41.4208C43.4668 9.38232 44.9716 9.67932 45.9353 10.2733C46.9121 10.8673 47.4005 11.7914 47.4005 13.0454V13.1048C47.4005 13.9496 47.2157 14.6294 46.8461 15.1442C46.4765 15.6458 45.8957 16.0155 45.1036 16.2531C46.0013 16.4643 46.6613 16.8273 47.0837 17.3421C47.5061 17.8569 47.7173 18.5499 47.7173 19.4211V19.4409C47.7173 20.8137 47.2157 21.8368 46.2125 22.51C45.2092 23.17 43.678 23.5 41.6188 23.5ZM41.5594 11.6792H37.8567V15.1244H41.6188C42.6616 15.1244 43.414 14.9858 43.876 14.7086C44.338 14.4314 44.569 13.9958 44.569 13.4018V13.3622C44.569 12.755 44.3446 12.326 43.8958 12.0752C43.447 11.8112 42.6682 11.6792 41.5594 11.6792ZM41.3812 17.4015H37.8567V21.0646H41.2624C42.5428 21.0646 43.447 20.9325 43.975 20.6685C44.503 20.3913 44.767 19.9095 44.767 19.2231V19.2033C44.767 18.5433 44.5162 18.0813 44.0146 17.8173C43.5262 17.5401 42.6484 17.4015 41.3812 17.4015ZM54.9619 23.8366C52.8499 23.8366 51.246 23.3416 50.1504 22.3516C49.068 21.3616 48.5268 19.9029 48.5268 17.9757V17.7975C48.5268 15.9494 49.1142 14.4908 50.289 13.4216C51.4638 12.3392 53.0347 11.798 55.0015 11.798C56.9948 11.798 58.5722 12.3326 59.7338 13.4018C60.8954 14.471 61.4762 15.9362 61.4762 17.7975V17.9757C61.4762 19.8237 60.902 21.2626 59.7536 22.2922C58.6184 23.3218 57.0212 23.8366 54.9619 23.8366ZM55.0015 21.3616C56.1499 21.3616 57.0212 21.0712 57.6152 20.4903C58.2224 19.9095 58.526 19.0647 58.526 17.9559V17.7975C58.526 16.6359 58.2224 15.7514 57.6152 15.1442C57.0212 14.5238 56.1565 14.2136 55.0213 14.2136C53.8993 14.2136 53.0281 14.5238 52.4077 15.1442C51.8005 15.7646 51.4968 16.6491 51.4968 17.7975V17.9559C51.4968 19.0647 51.7939 19.9095 52.3879 20.4903C52.9951 21.0712 53.8663 21.3616 55.0015 21.3616ZM68.8655 23.8366C66.7535 23.8366 65.1496 23.3416 64.054 22.3516C62.9716 21.3616 62.4304 19.9029 62.4304 17.9757V17.7975C62.4304 15.9494 63.0178 14.4908 64.1926 13.4216C65.3674 12.3392 66.9383 11.798 68.9051 11.798C70.8983 11.798 72.4758 12.3326 73.6374 13.4018C74.799 14.471 75.3798 15.9362 75.3798 17.7975V17.9757C75.3798 19.8237 74.8056 21.2626 73.6572 22.2922C72.522 23.3218 70.9247 23.8366 68.8655 23.8366ZM68.9051 21.3616C70.0535 21.3616 70.9247 21.0712 71.5188 20.4903C72.126 19.9095 72.4296 19.0647 72.4296 17.9559V17.7975C72.4296 16.6359 72.126 15.7514 71.5188 15.1442C70.9247 14.5238 70.0601 14.2136 68.9249 14.2136C67.8029 14.2136 66.9317 14.5238 66.3113 15.1442C65.704 15.7646 65.4004 16.6491 65.4004 17.7975V17.9559C65.4004 19.0647 65.6974 19.9095 66.2915 20.4903C66.8987 21.0712 67.7699 21.3616 68.9051 21.3616ZM87.762 19.9755C87.762 21.1636 87.2604 22.1074 86.2572 22.807C85.254 23.4934 83.868 23.8366 82.0991 23.8366C80.1719 23.8366 78.6803 23.5 77.6242 22.8268C76.5682 22.1404 75.9346 21.1108 75.7234 19.7379H78.9509C79.0829 20.3583 79.4063 20.8071 79.9211 21.0844C80.4359 21.3616 81.2015 21.5002 82.2179 21.5002C83.1287 21.5002 83.7954 21.388 84.2178 21.1636C84.6534 20.9391 84.8712 20.5827 84.8712 20.0943C84.8712 19.7115 84.66 19.4343 84.2376 19.2627C83.8152 19.0911 82.8317 18.9459 81.2873 18.8271C79.4129 18.6819 78.0928 18.3519 77.3272 17.8371C76.5748 17.3091 76.1986 16.5369 76.1986 15.5204C76.1986 14.3588 76.6672 13.448 77.6044 12.788C78.5549 12.128 79.8683 11.798 81.5447 11.798C83.3004 11.798 84.6732 12.1148 85.6632 12.7484C86.6664 13.3688 87.3 14.3126 87.564 15.5798H84.5148C84.396 15.0386 84.099 14.6426 83.6238 14.3918C83.1485 14.141 82.4489 14.0156 81.5249 14.0156C80.6933 14.0156 80.0663 14.1278 79.6439 14.3522C79.2347 14.5634 79.0301 14.8868 79.0301 15.3224C79.0301 15.7184 79.2413 16.0023 79.6637 16.1739C80.0993 16.3455 81.0629 16.4907 82.5545 16.6095C84.5478 16.7811 85.914 17.1243 86.6532 17.6391C87.3924 18.1407 87.762 18.9195 87.762 19.9755ZM95.5315 20.8863H96.7196V23.5H94.7791C93.0499 23.5 91.8619 23.1568 91.215 22.4704C90.5814 21.784 90.2646 20.4705 90.2646 18.5301V14.6492H87.651V12.2534C88.0602 12.2534 88.3638 12.2534 88.5618 12.2534C88.7598 12.2402 88.9512 12.227 89.136 12.2138C89.598 12.2006 89.9082 12.1016 90.0666 11.9168C90.2382 11.7188 90.357 11.3426 90.423 10.7881C90.4626 10.5637 90.489 10.2865 90.5022 9.95653C90.5286 9.61332 90.5352 9.30972 90.522 9.04571H92.9773V12.1148H96.7196V14.6492H92.9773V18.0351C92.9773 19.2759 93.1225 20.0613 93.4129 20.3913C93.7033 20.7213 94.4095 20.8863 95.5315 20.8863ZM100.76 18.8271V23.5H97.8689V12.1148H100.285L100.641 14.966C100.905 13.976 101.374 13.2368 102.047 12.7484C102.733 12.26 103.637 12.0158 104.759 12.0158H105.809V14.9066H104.522C103.083 14.9066 102.093 15.1772 101.552 15.7184C101.024 16.2597 100.76 17.2959 100.76 18.8271ZM117.999 23.5H115.642L115.345 21.0646C114.883 21.949 114.19 22.6354 113.266 23.1238C112.356 23.599 111.28 23.8366 110.039 23.8366C108.692 23.8366 107.656 23.566 106.93 23.0248C106.217 22.4836 105.861 21.7114 105.861 20.7081C105.861 20.0613 105.993 19.5003 106.257 19.0251C106.534 18.5499 106.937 18.1671 107.465 17.8767C107.953 17.5995 108.501 17.3949 109.108 17.2629C109.715 17.1177 110.752 16.9725 112.217 16.8273C113.431 16.7085 114.23 16.5633 114.613 16.3917C115.009 16.2069 115.207 15.9164 115.207 15.5204V15.5006C115.207 14.999 114.976 14.6228 114.514 14.372C114.065 14.108 113.385 13.976 112.474 13.976C111.405 13.976 110.606 14.1476 110.078 14.4908C109.55 14.834 109.253 15.3752 109.187 16.1145H106.198C106.33 14.7284 106.917 13.6658 107.96 12.9266C109.016 12.1742 110.455 11.798 112.276 11.798C114.256 11.798 115.702 12.1412 116.613 12.8276C117.537 13.5008 117.999 14.5766 117.999 16.0551V23.5ZM110.969 21.6784C112.144 21.6784 113.148 21.3352 113.979 20.6487C114.811 19.9491 115.227 19.1439 115.227 18.2331V17.8371C115.015 18.0087 114.705 18.1605 114.296 18.2925C113.9 18.4113 113.359 18.5103 112.672 18.5895C111.762 18.6819 111.095 18.7743 110.672 18.8667C110.263 18.9591 109.933 19.0779 109.682 19.2231C109.432 19.3683 109.253 19.5333 109.148 19.7181C109.042 19.8897 108.989 20.1009 108.989 20.3517V20.3715C108.989 20.8071 109.154 21.1372 109.484 21.3616C109.814 21.5728 110.309 21.6784 110.969 21.6784Z" fill="white"/>
</svg>
