<svg width="150" height="40" viewBox="0 0 150 40" fill="none" xmlns="http://www.w3.org/2000/svg">
<path d="M0 35L29.9895 5.0021V5H0V13.143H10.3372L0 23.484V35Z" fill="white"/>
<path d="M29.9994 16.5142L21.8594 24.6573V34.9967H29.9994V16.5142Z" fill="white"/>
<path d="M52.0239 29H43.8068V11.3529H51.7764C54.334 11.3529 56.215 11.7242 57.4196 12.4667C58.6406 13.2092 59.2511 14.3642 59.2511 15.9317V16.006C59.2511 17.062 59.0201 17.9118 58.5581 18.5553C58.0961 19.1823 57.3701 19.6443 56.38 19.9413C57.5021 20.2053 58.3271 20.6591 58.8551 21.3026C59.3831 21.9461 59.6471 22.8124 59.6471 23.9014V23.9261C59.6471 25.6422 59.0201 26.921 57.7661 27.7625C56.512 28.5875 54.598 29 52.0239 29ZM51.9497 14.224H47.3214V18.5305H52.0239C53.3275 18.5305 54.268 18.3573 54.8455 18.0108C55.423 17.6643 55.7118 17.1198 55.7118 16.3772V16.3277C55.7118 15.5687 55.4313 15.0325 54.8703 14.719C54.3092 14.389 53.3357 14.224 51.9497 14.224ZM51.7269 21.3768H47.3214V25.9557H51.5784C53.179 25.9557 54.3092 25.7907 54.9693 25.4607C55.6293 25.1142 55.9593 24.5119 55.9593 23.6539V23.6291C55.9593 22.8041 55.6458 22.2266 55.0188 21.8966C54.4082 21.5501 53.311 21.3768 51.7269 21.3768ZM68.7029 29.4208C66.0628 29.4208 64.058 28.802 62.6885 27.5645C61.3355 26.3269 60.659 24.5037 60.659 22.0946V21.8719C60.659 19.5618 61.3932 17.7385 62.8618 16.402C64.3303 15.049 66.2938 14.3725 68.7524 14.3725C71.2439 14.3725 73.2157 15.0407 74.6677 16.3772C76.1198 17.7138 76.8458 19.5453 76.8458 21.8719V22.0946C76.8458 24.4047 76.128 26.2032 74.6925 27.4902C73.2735 28.7772 71.2769 29.4208 68.7029 29.4208ZM68.7524 26.3269C70.1879 26.3269 71.2769 25.9639 72.0194 25.2379C72.7785 24.5119 73.158 23.4559 73.158 22.0699V21.8719C73.158 20.4198 72.7785 19.3143 72.0194 18.5553C71.2769 17.7798 70.1962 17.392 68.7771 17.392C67.3746 17.392 66.2856 17.7798 65.5101 18.5553C64.7511 19.3308 64.3715 20.4363 64.3715 21.8719V22.0699C64.3715 23.4559 64.7428 24.5119 65.4853 25.2379C66.2443 25.9639 67.3334 26.3269 68.7524 26.3269ZM86.0824 29.4208C83.4423 29.4208 81.4375 28.802 80.068 27.5645C78.715 26.3269 78.0385 24.5037 78.0385 22.0946V21.8719C78.0385 19.5618 78.7727 17.7385 80.2412 16.402C81.7098 15.049 83.6733 14.3725 86.1319 14.3725C88.6234 14.3725 90.5952 15.0407 92.0472 16.3772C93.4993 17.7138 94.2253 19.5453 94.2253 21.8719V22.0946C94.2253 24.4047 93.5075 26.2032 92.072 27.4902C90.653 28.7772 88.6564 29.4208 86.0824 29.4208ZM86.1319 26.3269C87.5674 26.3269 88.6564 25.9639 89.3989 25.2379C90.1579 24.5119 90.5375 23.4559 90.5375 22.0699V21.8719C90.5375 20.4198 90.1579 19.3143 89.3989 18.5553C88.6564 17.7798 87.5756 17.392 86.1566 17.392C84.7541 17.392 83.6651 17.7798 82.8896 18.5553C82.1305 19.3308 81.751 20.4363 81.751 21.8719V22.0699C81.751 23.4559 82.1223 24.5119 82.8648 25.2379C83.6238 25.9639 84.7128 26.3269 86.1319 26.3269ZM109.703 24.5944C109.703 26.0794 109.076 27.2592 107.822 28.1337C106.568 28.9917 104.835 29.4208 102.624 29.4208C100.215 29.4208 98.3508 29 97.0308 28.1585C95.7108 27.3005 94.9187 26.0134 94.6547 24.2974H98.6891C98.8541 25.0729 99.2583 25.6339 99.9018 25.9804C100.545 26.3269 101.502 26.5002 102.773 26.5002C103.911 26.5002 104.745 26.3599 105.273 26.0794C105.817 25.7989 106.089 25.3534 106.089 24.7429C106.089 24.2644 105.825 23.9179 105.297 23.7034C104.769 23.4889 103.54 23.3074 101.61 23.1589C99.2666 22.9774 97.6165 22.5649 96.6595 21.9214C95.719 21.2613 95.2487 20.2961 95.2487 19.0256C95.2487 17.5735 95.8345 16.435 97.006 15.61C98.1941 14.785 99.8358 14.3725 101.931 14.3725C104.126 14.3725 105.842 14.7685 107.079 15.5605C108.334 16.336 109.126 17.5158 109.456 19.0998H105.644C105.495 18.4233 105.124 17.9283 104.53 17.6148C103.936 17.3013 103.062 17.1445 101.907 17.1445C100.867 17.1445 100.083 17.2848 99.5553 17.5653C99.0438 17.8293 98.7881 18.2335 98.7881 18.778C98.7881 19.2731 99.0521 19.6278 99.5801 19.8423C100.125 20.0568 101.329 20.2383 103.194 20.3868C105.685 20.6013 107.393 21.0303 108.317 21.6739C109.241 22.3009 109.703 23.2744 109.703 24.5944ZM119.415 25.7329H120.9V29H118.474C116.313 29 114.828 28.571 114.019 27.713C113.227 26.855 112.831 25.2132 112.831 22.7876V17.9365H109.564V14.9417C110.076 14.9417 110.455 14.9417 110.703 14.9417C110.95 14.9252 111.189 14.9087 111.42 14.8922C111.998 14.8757 112.386 14.752 112.584 14.521C112.798 14.2735 112.947 13.8032 113.029 13.1102C113.079 12.8297 113.112 12.4832 113.128 12.0707C113.161 11.6417 113.17 11.2621 113.153 10.9321H116.222V14.7685H120.9V17.9365H116.222V22.1689C116.222 23.7199 116.404 24.7017 116.767 25.1142C117.13 25.5267 118.012 25.7329 119.415 25.7329ZM125.95 23.1589V29H122.337V14.7685H125.356L125.802 18.3325C126.132 17.095 126.717 16.171 127.559 15.5605C128.417 14.95 129.547 14.6447 130.95 14.6447H132.262V18.2583H130.653C128.854 18.2583 127.617 18.5965 126.94 19.2731C126.28 19.9496 125.95 21.2448 125.95 23.1589ZM147.499 29H144.553L144.182 25.9557C143.605 27.0612 142.738 27.9192 141.583 28.5297C140.445 29.1238 139.1 29.4208 137.549 29.4208C135.866 29.4208 134.571 29.0825 133.663 28.406C132.772 27.7295 132.327 26.7642 132.327 25.5102C132.327 24.7017 132.492 24.0004 132.822 23.4064C133.168 22.8124 133.672 22.3339 134.332 21.9709C134.942 21.6244 135.627 21.3686 136.386 21.2036C137.145 21.0221 138.44 20.8406 140.272 20.6591C141.79 20.5106 142.788 20.3291 143.266 20.1146C143.761 19.8836 144.009 19.5206 144.009 19.0256V19.0008C144.009 18.3738 143.72 17.9035 143.143 17.59C142.582 17.26 141.732 17.095 140.593 17.095C139.257 17.095 138.259 17.3095 137.599 17.7385C136.939 18.1675 136.567 18.844 136.485 19.7681H132.747C132.912 18.0355 133.647 16.7073 134.95 15.7832C136.27 14.8427 138.069 14.3725 140.346 14.3725C142.821 14.3725 144.628 14.8015 145.766 15.6595C146.921 16.501 147.499 17.8458 147.499 19.6938V29ZM138.712 26.723C140.181 26.723 141.435 26.2939 142.474 25.4359C143.514 24.5614 144.034 23.5549 144.034 22.4164V21.9214C143.77 22.1359 143.382 22.3256 142.87 22.4906C142.375 22.6391 141.699 22.7629 140.841 22.8619C139.702 22.9774 138.869 23.0929 138.341 23.2084C137.83 23.3239 137.417 23.4724 137.104 23.6539C136.79 23.8354 136.567 24.0417 136.435 24.2727C136.303 24.4872 136.237 24.7512 136.237 25.0647V25.0894C136.237 25.6339 136.444 26.0464 136.856 26.3269C137.269 26.591 137.887 26.723 138.712 26.723Z" fill="white"/>
</svg>
