<svg width="48" height="48" viewBox="0 0 48 48" fill="none" xmlns="http://www.w3.org/2000/svg">
<path d="M8.00623 0.141308C5.97185 0.506935 4.25623 1.39756 2.83123 2.83194C-1.00315 6.65694 -0.918773 12.8257 3.0281 16.5569C4.21873 17.6913 5.60623 18.4601 7.29373 18.9194L8.2031 19.1632L16.1062 19.2007L24 19.2288V23.7007C23.9906 27.2351 23.9718 28.1444 23.8781 28.0226C23.8125 27.9382 23.1562 26.8319 22.4062 25.5476C21.6562 24.2726 20.8687 23.0351 20.6531 22.7913C19.8937 21.9288 18.5531 21.4507 17.4562 21.6569C16.2375 21.8726 15.2344 22.6319 14.7375 23.7194C14.4562 24.3288 14.3531 25.4444 14.5219 26.1194C14.6156 26.4757 21.7031 40.3226 23.175 43.0132C24.3562 45.1694 26.25 46.7257 28.6687 47.5226C30.0187 47.9726 30.7312 48.0194 35.5312 47.9819C39.6 47.9444 39.9375 47.9257 40.6406 47.7476C43.6781 46.9413 46.1625 44.7944 47.2875 41.9913C47.9531 40.3319 47.9531 40.3507 47.9531 34.0319V28.3601L47.6531 27.7319C46.7437 25.8007 44.55 25.0694 42.6656 26.0726C42.3843 26.2226 42.15 26.3351 42.15 26.3163C42.0656 26.0726 41.6906 25.4819 41.4187 25.1726C40.2468 23.8413 38.1 23.6351 36.6937 24.7038C36.3 25.0038 36.2625 24.9944 36.0562 24.6569C35.8125 24.2444 35.0531 23.6726 34.4343 23.4382C33.6656 23.1476 32.4 23.1944 31.7062 23.5413L31.2187 23.7851V21.0569V18.3288L31.8094 18.0101C32.6906 17.5226 33.3468 17.0163 34.125 16.2101C36.6 13.6601 37.4343 9.85381 36.2719 6.46006C35.1281 3.11319 32.0625 0.591312 28.5562 0.103813C27.4406 -0.0555649 8.88748 -0.0180664 8.00623 0.141308ZM29.1562 1.81944C29.4937 1.91319 30.1219 2.15694 30.5437 2.35381C36.1312 4.94131 36.8531 12.4038 31.875 16.0694L31.2656 16.5194L31.2187 13.2476L31.1718 9.97569L30.8156 9.26319C30.4125 8.44756 29.8968 7.93194 29.0718 7.52881C28.6031 7.29444 28.4437 7.26631 27.6093 7.26631C26.7375 7.26631 26.625 7.28506 26.0437 7.57569C25.275 7.95069 24.5718 8.69131 24.2625 9.45069C24.0469 9.97569 24.0469 10.0601 24.0187 13.8101L23.9906 17.6351L16.1906 17.6069C8.44685 17.5694 8.38123 17.5694 7.6406 17.3632C5.2031 16.6788 3.38435 15.1601 2.3531 12.9194C1.65935 11.4288 1.44373 9.85381 1.72498 8.26006C2.0156 6.62881 2.67185 5.31631 3.8156 4.11631C4.6406 3.25381 5.55935 2.61631 6.59998 2.19444C8.07185 1.59444 7.83748 1.60381 18.7031 1.63194C27.9375 1.64131 28.5843 1.66006 29.1562 1.81944ZM28.4625 9.01006C28.9312 9.23506 29.2969 9.65694 29.4937 10.1913C29.5968 10.4819 29.6156 12.1601 29.625 18.8257V27.1038L29.8593 27.3288C30.0843 27.5632 30.4687 27.6288 30.7968 27.5069C30.9937 27.4226 31.2187 26.9819 31.2187 26.6444C31.2187 26.2132 31.65 25.4538 32.0812 25.1632C32.3812 24.9476 32.5875 24.8913 33.0844 24.8632C33.8531 24.8257 34.4062 25.0788 34.8187 25.6694C35.0625 26.0163 35.1093 26.1663 35.1562 26.9444C35.2218 27.9101 35.3718 28.2663 35.7656 28.3694C36.3375 28.5101 36.7219 28.1726 36.8156 27.4507C36.9562 26.4007 37.8187 25.5944 38.8031 25.5944C39.5062 25.5944 40.2656 26.0819 40.5844 26.7476C40.7531 27.0944 40.7812 27.3288 40.7812 28.3038V29.4569L41.0625 29.7382C41.3156 29.9819 41.4 30.0194 41.7 29.9726C42.15 29.8976 42.3375 29.6538 42.4125 29.0257C42.5344 28.1069 43.2375 27.3569 44.1187 27.2257C44.8968 27.1132 45.6843 27.4976 46.0969 28.2007L46.3593 28.6413V34.1257C46.3593 40.0694 46.3687 39.9757 45.825 41.3444C45.0562 43.2757 43.275 45.0569 41.3437 45.8257C39.9937 46.3601 39.9843 46.3601 34.9218 46.3601H30.2343L29.4093 46.0976C27.5156 45.5069 26.0437 44.4569 25.0031 42.9382C24.8437 42.7038 22.7625 38.7851 20.3906 34.2194L16.0781 25.9226V25.2007C16.0781 24.5538 16.1062 24.4507 16.3594 24.0851C17.0531 23.1007 18.4969 22.9413 19.3875 23.7476C19.5 23.8601 20.6343 25.6976 21.9 27.8538C24.2156 31.8007 24.3375 31.9694 24.8531 31.9694C24.9562 31.9694 25.1719 31.8476 25.3218 31.6976L25.5937 31.4257V20.9913C25.5937 13.4538 25.6218 10.4726 25.6968 10.2101C26.0437 9.07569 27.3656 8.49444 28.4625 9.01006Z" fill="white"/>
<path d="M21.1125 5.78513C21.0094 5.87888 20.0344 7.15387 18.9375 8.62575C17.8406 10.0976 16.8844 11.3539 16.8188 11.4289C16.7063 11.5507 16.6031 11.4851 16.0781 10.9789C15.4969 10.4164 15.4406 10.3882 15.1125 10.4351C14.6813 10.5101 14.4375 10.7914 14.4375 11.232C14.4375 11.532 14.5406 11.6726 15.45 12.582C16.5 13.632 16.7063 13.7445 17.1656 13.4914C17.4375 13.3507 22.4063 6.68512 22.4063 6.46012C22.4063 6.19763 22.1625 5.757 21.9844 5.682C21.7031 5.57888 21.3 5.62575 21.1125 5.78513Z" fill="white"/>
</svg>
