<svg width="240" height="240" viewBox="0 0 240 240" fill="none" xmlns="http://www.w3.org/2000/svg">
<path d="M111.626 0.00585938H83.7197V63.9912L19.7314 0.00195312H0V19.7373L63.9873 83.7246H0V111.631H83.7197V111.633H111.626V0.00585938Z" fill="white"/>
<path d="M239.996 111.627H212.09V47.6426L148.102 111.631H128.37V91.8955L192.358 27.9082H128.37V0.00195312H212.09V0H239.996V111.627Z" fill="white"/>
<path d="M111.626 239.998H83.7197V176.014L19.7314 240.002H0V220.267L63.9873 156.279H0V128.373H83.7197V128.371H111.626V239.998Z" fill="white"/>
<path d="M128.371 239.998H156.277V176.014L220.265 240.002H239.997V220.267L176.009 156.279H239.997V128.373H156.277V128.371H128.371V239.998Z" fill="white"/>
</svg>
