<svg width="147" height="36" viewBox="0 0 147 36" fill="none" xmlns="http://www.w3.org/2000/svg">
<g clip-path="url(#clip0_529_4602)">
<path d="M58.9402 10.3445C55.5371 10.3445 53.2027 11.4414 51.4871 13.8827C50.1427 11.7452 47.4033 10.3445 44.4221 10.3445C41.7727 10.3445 40.0177 11.0589 38.2627 12.9095V12.7858C38.2627 12.1277 38.0096 11.5033 37.5652 11.0364C37.1152 10.5752 36.5077 10.3164 35.8721 10.3164C35.2421 10.3164 34.6346 10.5752 34.1846 11.0364C33.7346 11.5033 33.4814 12.1277 33.4814 12.7858V33.1595C33.4871 33.857 33.7571 34.5264 34.2352 35.0214C34.7133 35.5164 35.3602 35.792 36.0352 35.792C36.7102 35.792 37.3627 35.5164 37.8408 35.0214C38.3189 34.5264 38.5889 33.857 38.5889 33.1595V21.6902C38.5889 17.2858 40.2314 15.2383 43.7583 15.2383C46.8971 15.2383 48.4889 17.252 48.4889 21.2233V33.1595C48.4889 33.857 48.7589 34.5264 49.2371 35.0214C49.7152 35.5164 50.3677 35.792 51.0427 35.792C51.7177 35.792 52.3646 35.5164 52.8427 35.0214C53.3208 34.5264 53.5908 33.857 53.5964 33.1595V21.6452C53.5964 17.1508 55.0814 15.2214 58.5633 15.2214C61.8371 15.2214 63.4964 17.4039 63.4964 21.7127V33.1427C63.4964 33.8458 63.7664 34.5152 64.2446 35.0102C64.7227 35.4995 65.3696 35.7808 66.0446 35.7808C66.7196 35.7808 67.3721 35.4995 67.8502 35.0045C68.3283 34.5152 68.5927 33.8458 68.5927 33.1427V20.6158C68.6096 14.1864 64.9983 10.3445 58.9402 10.3445Z" fill="currentColor"/>
<path d="M98.6465 10.3445C95.2434 10.3445 92.909 11.4414 91.1934 13.8827C89.849 11.7452 87.1096 10.3445 84.1284 10.3445C81.479 10.3445 79.7296 11.0589 77.9746 12.9095V12.7858C77.9746 12.1277 77.7215 11.5033 77.2715 11.0364C76.8215 10.5752 76.214 10.3164 75.584 10.3164C74.9484 10.3164 74.3409 10.5752 73.8909 11.0364C73.4465 11.5033 73.1934 12.1277 73.1934 12.7858V33.1595C73.1934 33.857 73.4634 34.5264 73.9415 35.0214C74.4196 35.5164 75.0665 35.792 75.7471 35.792C76.4221 35.792 77.069 35.5164 77.5471 35.0214C78.0252 34.5264 78.2952 33.857 78.2952 33.1595V21.6902C78.2952 17.2858 79.9434 15.2383 83.4759 15.2383C86.609 15.2383 88.1952 17.252 88.1952 21.2233V33.1595C88.2009 33.857 88.4709 34.5264 88.949 35.0214C89.4271 35.5164 90.074 35.792 90.749 35.792C91.424 35.792 92.0765 35.5164 92.5546 35.0214C93.0327 34.5264 93.3027 33.857 93.3027 33.1595V21.6452C93.3027 17.1508 94.7877 15.2214 98.2752 15.2214C101.543 15.2214 103.203 17.4039 103.203 21.7127V33.1427C103.203 33.497 103.265 33.8402 103.394 34.1664C103.523 34.487 103.715 34.7795 103.956 35.027C104.198 35.2745 104.48 35.4714 104.795 35.6008C105.11 35.7302 105.447 35.7977 105.785 35.792C106.46 35.792 107.106 35.5164 107.585 35.0214C108.063 34.5264 108.333 33.857 108.338 33.1595V20.6327C108.31 14.1864 104.699 10.3445 98.6465 10.3445Z" fill="currentColor"/>
<path d="M131.502 12.8309V13.5622C129.713 11.4641 127.142 10.3672 123.998 10.3672C116.995 10.3672 111.713 16.0203 111.713 23.5241C111.713 30.4372 117.18 35.8709 124.139 35.8709C127.182 35.8709 129.792 34.6559 131.479 32.4903V33.2778C131.479 33.6266 131.547 33.9697 131.676 34.2903C131.805 34.6109 131.991 34.8978 132.227 35.1453C132.464 35.3872 132.75 35.5841 133.06 35.7134C133.369 35.8484 133.701 35.9159 134.033 35.9159C134.708 35.9159 135.36 35.6347 135.839 35.1453C136.317 34.6503 136.581 33.9753 136.581 33.2778V12.8422C136.581 12.1897 136.328 11.5597 135.884 11.0984C135.434 10.6372 134.826 10.3728 134.19 10.3728H133.864C133.234 10.3841 132.638 10.6428 132.194 11.1041C131.755 11.5597 131.507 12.1841 131.502 12.8309ZM131.58 23.1641C131.592 25.2228 130.81 27.1972 129.409 28.6597C128.009 30.1222 126.107 30.9547 124.116 30.9659C120.156 30.9659 116.815 27.3941 116.815 23.1641C116.815 18.7934 120.089 15.2609 124.116 15.2609C128.374 15.2384 131.597 18.6472 131.597 23.1641H131.58Z" fill="currentColor"/>
<path d="M26.4879 27.2982C25.6217 27.1745 24.9579 27.6526 24.0298 28.2826C22.2073 29.7226 19.9911 30.527 17.6961 30.5832C14.6698 30.6901 11.7167 29.5988 9.43857 27.5401C7.38544 25.6501 5.99044 23.1132 5.47294 20.3176C4.54482 15.0245 6.78919 8.5557 13.5617 6.0357C14.8948 5.58008 16.2898 5.37195 17.6904 5.4282C20.2498 5.5407 22.7023 6.5082 24.6767 8.18445C25.1829 8.60633 25.8242 8.80883 26.4711 8.74133C27.1179 8.67945 27.7142 8.35883 28.1304 7.84695C28.4286 7.49258 28.6198 7.05945 28.6873 6.5982C28.7548 6.13695 28.6986 5.67008 28.5129 5.24258C27.2979 2.37383 21.2454 0.483829 19.1529 0.247578C18.4498 0.146327 17.7467 0.0957031 17.0379 0.0957031C12.9711 0.118203 9.05044 1.67633 6.01294 4.47758C2.60982 7.58258 0.511694 11.9363 0.162943 16.6107C-0.185806 21.2907 1.24294 25.9201 4.13982 29.5313C6.68232 32.7938 10.2992 34.9763 14.2986 35.6626C15.2042 35.8201 16.1267 35.9045 17.0492 35.9045C21.0036 35.9101 24.8342 34.4532 27.8436 31.7982C28.2092 31.4663 28.4736 31.0388 28.6086 30.5551C28.7436 30.077 28.7379 29.5651 28.5973 29.087C28.4567 28.6088 28.1811 28.187 27.8154 27.8663C27.4442 27.5401 26.9942 27.3376 26.5104 27.2757L26.4879 27.2982Z" fill="currentColor"/>
<path d="M24.4583 14.6918C24.1264 14.7537 23.817 14.8887 23.5358 15.0799C23.2545 15.2712 23.0126 15.5131 22.827 15.8056C22.4333 16.4074 21.9045 16.9081 21.2801 17.2512C20.6558 17.5943 19.9583 17.7743 19.2551 17.7743C18.5464 17.7743 17.8545 17.5943 17.2301 17.2512C16.6058 16.9081 16.077 16.4074 15.6833 15.8056C15.492 15.5187 15.2558 15.2712 14.9745 15.0799C14.6933 14.8887 14.3783 14.7593 14.052 14.6974C13.8945 14.6637 13.7314 14.6468 13.5739 14.6468C13.1126 14.6468 12.657 14.7818 12.2633 15.0293C11.8639 15.2768 11.5433 15.6256 11.3239 16.0531C11.1101 16.4749 11.0089 16.9474 11.0314 17.4256C11.0539 17.9037 11.2058 18.3649 11.4645 18.7643C12.3251 20.0806 13.4895 21.1606 14.8508 21.9031C16.2064 22.6512 17.7251 23.0393 19.2664 23.0393C20.802 23.0393 22.3208 22.6512 23.6764 21.9031C25.0376 21.1606 26.202 20.0806 27.0626 18.7643C27.3439 18.3312 27.4958 17.8193 27.4958 17.3018C27.5014 16.7787 27.3551 16.2724 27.0739 15.8337C26.7983 15.4006 26.4045 15.0574 25.9376 14.8549C25.4764 14.6524 24.9645 14.5962 24.4695 14.6918H24.4583Z" fill="currentColor"/>
<path d="M144.844 31.7078C144.844 31.2128 144.501 30.7178 143.657 30.7178H142.504V34.0759H143.033V32.7315H143.618L144.394 34.0759H145.007L144.146 32.6584C144.349 32.6078 144.535 32.484 144.658 32.3096C144.788 32.1409 144.85 31.9271 144.844 31.7078ZM143.033 32.2759V31.1846H143.713C144.073 31.1846 144.298 31.359 144.298 31.7134C144.298 32.1578 144.017 32.2759 143.702 32.2759H143.033Z" fill="currentColor"/>
<path d="M143.544 29.2393C142.925 29.2393 142.323 29.4249 141.806 29.7849C141.288 30.1393 140.889 30.6455 140.653 31.2361C140.416 31.8268 140.355 32.4793 140.478 33.1093C140.596 33.7336 140.895 34.313 141.333 34.763C141.772 35.2186 142.329 35.5224 142.936 35.6461C143.544 35.7699 144.174 35.708 144.748 35.4605C145.321 35.2186 145.811 34.8024 146.154 34.268C146.497 33.7336 146.677 33.1093 146.677 32.468C146.677 31.613 146.345 30.7918 145.76 30.1843C145.17 29.5768 144.376 29.2393 143.544 29.2393ZM143.544 35.2355C143.015 35.2355 142.498 35.0724 142.059 34.7686C141.62 34.4649 141.277 34.0318 141.075 33.5255C140.872 33.0193 140.816 32.468 140.923 31.928C141.024 31.3936 141.277 30.8986 141.654 30.5105C142.025 30.128 142.503 29.8636 143.026 29.7568C143.544 29.6499 144.084 29.7061 144.568 29.9143C145.057 30.1224 145.479 30.4768 145.771 30.9324C146.064 31.388 146.221 31.9224 146.221 32.468C146.221 33.2049 145.94 33.908 145.44 34.4255C144.939 34.943 144.258 35.2355 143.544 35.2355Z" fill="currentColor"/>
</g>
<defs>
<clipPath id="clip0_529_4602">
<rect width="146.88" height="36" fill="currentColor"/>
</clipPath>
</defs>
</svg>
