<svg width="82" height="21" viewBox="0 0 82 21" fill="none" xmlns="http://www.w3.org/2000/svg">
<g clip-path="url(#clip0_529_4930)">
<path d="M32.7443 6.24707C30.8537 6.24707 29.5568 6.85645 28.6037 8.2127C27.8568 7.0252 26.335 6.24707 24.6787 6.24707C23.2068 6.24707 22.2318 6.64395 21.2568 7.67207V7.60332C21.2568 7.2377 21.1162 6.89082 20.8693 6.63145C20.6193 6.3752 20.2818 6.23145 19.9287 6.23145C19.5787 6.23145 19.2412 6.3752 18.9912 6.63145C18.7412 6.89082 18.6006 7.2377 18.6006 7.60332V18.9221C18.6037 19.3096 18.7537 19.6814 19.0193 19.9564C19.285 20.2314 19.6443 20.3846 20.0193 20.3846C20.3943 20.3846 20.7568 20.2314 21.0225 19.9564C21.2881 19.6814 21.4381 19.3096 21.4381 18.9221V12.5502C21.4381 10.1033 22.3506 8.96582 24.31 8.96582C26.0537 8.96582 26.9381 10.0846 26.9381 12.2908V18.9221C26.9381 19.3096 27.0881 19.6814 27.3537 19.9564C27.6193 20.2314 27.9818 20.3846 28.3568 20.3846C28.7318 20.3846 29.0912 20.2314 29.3568 19.9564C29.6225 19.6814 29.7725 19.3096 29.7756 18.9221V12.5252C29.7756 10.0283 30.6006 8.95645 32.535 8.95645C34.3537 8.95645 35.2756 10.1689 35.2756 12.5627V18.9127C35.2756 19.3033 35.4256 19.6752 35.6912 19.9502C35.9568 20.2221 36.3162 20.3783 36.6912 20.3783C37.0662 20.3783 37.4287 20.2221 37.6943 19.9471C37.96 19.6752 38.1068 19.3033 38.1068 18.9127V11.9533C38.1162 8.38145 36.11 6.24707 32.7443 6.24707Z" fill="currentColor"/>
<path d="M54.8037 6.24707C52.9131 6.24707 51.6162 6.85645 50.6631 8.2127C49.9162 7.0252 48.3943 6.24707 46.7381 6.24707C45.2662 6.24707 44.2943 6.64395 43.3193 7.67207V7.60332C43.3193 7.2377 43.1787 6.89082 42.9287 6.63145C42.6787 6.3752 42.3412 6.23145 41.9912 6.23145C41.6381 6.23145 41.3006 6.3752 41.0506 6.63145C40.8037 6.89082 40.6631 7.2377 40.6631 7.60332V18.9221C40.6631 19.3096 40.8131 19.6814 41.0787 19.9564C41.3443 20.2314 41.7037 20.3846 42.0818 20.3846C42.4568 20.3846 42.8162 20.2314 43.0818 19.9564C43.3475 19.6814 43.4975 19.3096 43.4975 18.9221V12.5502C43.4975 10.1033 44.4131 8.96582 46.3756 8.96582C48.1162 8.96582 48.9975 10.0846 48.9975 12.2908V18.9221C49.0006 19.3096 49.1506 19.6814 49.4162 19.9564C49.6818 20.2314 50.0412 20.3846 50.4162 20.3846C50.7912 20.3846 51.1537 20.2314 51.4193 19.9564C51.685 19.6814 51.835 19.3096 51.835 18.9221V12.5252C51.835 10.0283 52.66 8.95644 54.5975 8.95644C56.4131 8.95644 57.335 10.1689 57.335 12.5627V18.9127C57.335 19.1096 57.3693 19.3002 57.4412 19.4814C57.5131 19.6596 57.6193 19.8221 57.7537 19.9596C57.8881 20.0971 58.0443 20.2064 58.2193 20.2783C58.3943 20.3502 58.5818 20.3877 58.7693 20.3846C59.1443 20.3846 59.5037 20.2314 59.7693 19.9564C60.035 19.6814 60.185 19.3096 60.1881 18.9221V11.9627C60.1725 8.38145 58.1662 6.24707 54.8037 6.24707Z" fill="currentColor"/>
<path d="M73.0563 7.62852V8.03477C72.0625 6.86914 70.6344 6.25977 68.8875 6.25977C64.9969 6.25977 62.0625 9.40039 62.0625 13.5691C62.0625 17.4098 65.1 20.4285 68.9656 20.4285C70.6562 20.4285 72.1062 19.7535 73.0437 18.5504V18.9879C73.0437 19.1816 73.0813 19.3723 73.1531 19.5504C73.225 19.7285 73.3281 19.8879 73.4594 20.0254C73.5906 20.1598 73.75 20.2691 73.9219 20.341C74.0938 20.416 74.2781 20.4535 74.4625 20.4535C74.8375 20.4535 75.2 20.2973 75.4656 20.0254C75.7312 19.7504 75.8781 19.3754 75.8781 18.9879V7.63477C75.8781 7.27227 75.7375 6.92227 75.4906 6.66601C75.2406 6.40977 74.9031 6.26289 74.55 6.26289H74.3688C74.0188 6.26914 73.6875 6.41289 73.4406 6.66914C73.1969 6.92227 73.0594 7.26914 73.0563 7.62852ZM73.1 13.3691C73.1062 14.5129 72.6719 15.6098 71.8938 16.4223C71.1156 17.2348 70.0594 17.6973 68.9531 17.7035C66.7531 17.7035 64.8969 15.7191 64.8969 13.3691C64.8969 10.941 66.7156 8.97851 68.9531 8.97851C71.3188 8.96601 73.1094 10.8598 73.1094 13.3691H73.1Z" fill="currentColor"/>
<path d="M14.7152 15.6652C14.234 15.5965 13.8652 15.8621 13.3496 16.2121C12.3371 17.0121 11.1058 17.459 9.83082 17.4902C8.14957 17.5496 6.50895 16.9434 5.24332 15.7996C4.1027 14.7496 3.3277 13.3402 3.0402 11.7871C2.52457 8.84649 3.77145 5.25273 7.53395 3.85273C8.27457 3.59961 9.04957 3.48398 9.8277 3.51523C11.2496 3.57773 12.6121 4.11523 13.709 5.04648C13.9902 5.28086 14.3465 5.39336 14.7058 5.35586C15.0652 5.32148 15.3965 5.14336 15.6277 4.85898C15.7933 4.66211 15.8996 4.42148 15.9371 4.16523C15.9746 3.90898 15.9433 3.64961 15.8402 3.41211C15.1652 1.81836 11.8027 0.76836 10.6402 0.637109C10.2496 0.580859 9.85895 0.552734 9.4652 0.552734C7.20582 0.565234 5.0277 1.43086 3.3402 2.98711C1.44957 4.71211 0.283949 7.13086 0.0901984 9.72773C-0.103551 12.3277 0.690198 14.8996 2.29957 16.9059C3.71207 18.7184 5.72145 19.9309 7.94333 20.3121C8.44645 20.3996 8.95895 20.4465 9.47145 20.4465C11.6683 20.4496 13.7965 19.6402 15.4683 18.1652C15.6715 17.9809 15.8183 17.7434 15.8933 17.4746C15.9683 17.209 15.9652 16.9246 15.8871 16.659C15.809 16.3934 15.6558 16.159 15.4527 15.9809C15.2465 15.7996 14.9965 15.6871 14.7277 15.6527L14.7152 15.6652Z" fill="currentColor"/>
<path d="M13.588 8.6619C13.4037 8.69628 13.2318 8.77128 13.0755 8.87753C12.9193 8.98378 12.7849 9.11815 12.6818 9.28065C12.463 9.61503 12.1693 9.89315 11.8224 10.0838C11.4755 10.2744 11.088 10.3744 10.6974 10.3744C10.3037 10.3744 9.91929 10.2744 9.57241 10.0838C9.22554 9.89315 8.93179 9.61503 8.71304 9.28065C8.60679 9.12128 8.47554 8.98378 8.31929 8.87753C8.16304 8.77128 7.98804 8.6994 7.80679 8.66503C7.71929 8.64628 7.62866 8.6369 7.54116 8.6369C7.28491 8.6369 7.03179 8.7119 6.81304 8.8494C6.59116 8.9869 6.41304 9.18065 6.29116 9.41815C6.17241 9.65253 6.11616 9.91503 6.12866 10.1807C6.14116 10.4463 6.22554 10.7025 6.36929 10.9244C6.84741 11.6557 7.49429 12.2557 8.25054 12.6682C9.00366 13.0838 9.84741 13.2994 10.7037 13.2994C11.5568 13.2994 12.4005 13.0838 13.1537 12.6682C13.9099 12.2557 14.5568 11.6557 15.0349 10.9244C15.1912 10.6838 15.2755 10.3994 15.2755 10.1119C15.2787 9.82128 15.1974 9.54003 15.0412 9.29628C14.888 9.05565 14.6693 8.86503 14.4099 8.75253C14.1537 8.64003 13.8693 8.60878 13.5943 8.6619H13.588Z" fill="currentColor"/>
<path d="M80.4689 18.1154C80.4689 17.8404 80.2783 17.5654 79.8096 17.5654H79.1689V19.4311H79.4627V18.6842H79.7877L80.2189 19.4311H80.5596L80.0814 18.6436C80.1939 18.6154 80.2971 18.5467 80.3658 18.4498C80.4377 18.3561 80.4721 18.2373 80.4689 18.1154ZM79.4627 18.4311V17.8248H79.8408C80.0408 17.8248 80.1658 17.9217 80.1658 18.1186C80.1658 18.3654 80.0096 18.4311 79.8346 18.4311H79.4627Z" fill="currentColor"/>
<path d="M79.7465 16.7441C79.4028 16.7441 79.0684 16.8473 78.7809 17.0473C78.4934 17.2441 78.2715 17.5254 78.1403 17.8535C78.009 18.1816 77.9746 18.5441 78.0434 18.8941C78.109 19.241 78.2746 19.5629 78.5184 19.8129C78.7621 20.066 79.0715 20.2348 79.409 20.3035C79.7465 20.3723 80.0965 20.3379 80.4153 20.2004C80.734 20.066 81.0059 19.8348 81.1965 19.5379C81.3871 19.241 81.4871 18.8941 81.4871 18.5379C81.4871 18.0629 81.3028 17.6066 80.9778 17.2691C80.6496 16.9316 80.209 16.7441 79.7465 16.7441ZM79.7465 20.0754C79.4528 20.0754 79.1653 19.9848 78.9215 19.816C78.6778 19.6473 78.4871 19.4066 78.3746 19.1254C78.2621 18.8441 78.2309 18.5379 78.2903 18.2379C78.3465 17.941 78.4871 17.666 78.6965 17.4504C78.9028 17.2379 79.1684 17.091 79.459 17.0316C79.7465 16.9723 80.0465 17.0035 80.3153 17.1191C80.5871 17.2348 80.8215 17.4316 80.984 17.6848C81.1465 17.9379 81.234 18.2348 81.234 18.5379C81.234 18.9473 81.0778 19.3379 80.7996 19.6254C80.5215 19.9129 80.1434 20.0754 79.7465 20.0754Z" fill="currentColor"/>
</g>
<defs>
<clipPath id="clip0_529_4930">
<rect width="81.6" height="20" fill="currentColor" transform="translate(0 0.5)"/>
</clipPath>
</defs>
</svg>
