<svg width="79" height="26" viewBox="0 0 79 26" fill="none" xmlns="http://www.w3.org/2000/svg">
<g style="mix-blend-mode:difference">
<path d="M57.7956 23.6222C56.7585 23.6222 55.8325 23.3912 55.0176 22.929C54.2212 22.4669 53.6008 21.8938 53.1563 21.2099V23.234H50.2949V3.82422H53.1563V11.4772C53.6749 10.7378 54.3508 10.1555 55.1843 9.73035C56.0362 9.30518 56.9622 9.09259 57.9623 9.09259C59.1846 9.09259 60.2866 9.39761 61.2681 10.0076C62.2497 10.5992 63.0183 11.4495 63.5739 12.5586C64.148 13.6493 64.4351 14.9155 64.4351 16.3574C64.4351 17.7993 64.1388 19.0748 63.5461 20.1839C62.972 21.2746 62.1756 22.1249 61.157 22.7349C60.1569 23.3265 59.0365 23.6222 57.7956 23.6222ZM57.24 20.9603C58.4809 20.9603 59.4995 20.5351 60.2958 19.6848C61.1107 18.816 61.5182 17.7069 61.5182 16.3574C61.5182 15.4701 61.333 14.6752 60.9626 13.9728C60.5922 13.2703 60.0829 12.725 59.4346 12.3368C58.7864 11.9301 58.0549 11.7268 57.24 11.7268C56.4251 11.7268 55.6843 11.9301 55.0176 12.3368C54.3694 12.725 53.8601 13.2703 53.4897 13.9728C53.1378 14.6752 52.9618 15.4701 52.9618 16.3574C52.9618 17.2262 53.1378 18.0119 53.4897 18.7143C53.8601 19.4168 54.3694 19.9713 55.0176 20.378C55.6843 20.7662 56.4251 20.9603 57.24 20.9603Z" fill="currentColor"/>
<path d="M40.1618 23.6194C38.7728 23.6194 37.6523 23.2312 36.8004 22.4548C35.9485 21.6599 35.5225 20.6247 35.5225 19.3492C35.5225 18.0552 35.967 17.0385 36.856 16.2991C37.7635 15.5597 38.921 15.079 40.3285 14.8572L44.7456 14.164V13.5817C44.7456 12.8053 44.4956 12.2138 43.9955 11.8071C43.4955 11.4004 42.7824 11.1971 41.8564 11.1971C40.9489 11.1971 40.2359 11.3819 39.7174 11.7516C39.2173 12.1029 38.9673 12.5465 38.9673 13.0826C38.9673 13.1935 38.9858 13.3137 39.0228 13.4431L36.4948 14.3026C36.3467 13.9514 36.2726 13.5725 36.2726 13.1658C36.2726 12.4449 36.5041 11.7794 36.9671 11.1694C37.4301 10.5408 38.0783 10.0417 38.9117 9.67203C39.7637 9.28383 40.7452 9.08973 41.8564 9.08973C43.7085 9.08973 45.1253 9.49641 46.1068 10.3098C47.1069 11.1231 47.607 12.3062 47.607 13.859V19.7929C47.607 20.5877 47.6718 21.2347 47.8014 21.7338C47.9311 22.2145 48.1626 22.7136 48.4959 23.2312H45.579C45.0975 22.6027 44.8567 21.78 44.8567 20.7633C44.4307 21.6506 43.7918 22.3531 42.9399 22.8707C42.1065 23.3698 41.1804 23.6194 40.1618 23.6194ZM40.7452 21.2347C41.949 21.2347 42.9121 20.8096 43.6344 19.9592C44.3752 19.0904 44.7456 17.9813 44.7456 16.6318V16.2436L40.9675 16.8537C40.1155 16.9831 39.4673 17.2511 39.0228 17.6578C38.5784 18.0645 38.3561 18.5821 38.3561 19.2106C38.3561 19.8391 38.5691 20.3382 38.9951 20.7079C39.4395 21.0591 40.0229 21.2347 40.7452 21.2347Z" fill="currentColor"/>
<path d="M33.4493 23.234H30.5879V3.82422H33.4493V23.234Z" fill="currentColor"/>
<path d="M19.6818 23.2376H16.376L21.4042 15.9451L17.0427 9.48438H20.3208L22.9599 13.6436L25.599 9.48438H28.9049L24.6545 15.8342L29.4883 23.2376H26.2102L22.9599 18.1633L19.6818 23.2376Z" fill="currentColor"/>
<path d="M7.63959 23.6222C6.15797 23.6222 4.83377 23.3357 3.667 22.7626C2.51875 22.1711 1.62052 21.3115 0.972311 20.1839C0.324104 19.0563 0 17.7161 0 16.1633V3.82422H3.00027V15.9138C3.00027 17.4665 3.41698 18.6866 4.25039 19.5739C5.10232 20.4427 6.23205 20.8771 7.63959 20.8771C9.06564 20.8771 10.1954 20.4427 11.0288 19.5739C11.8622 18.6866 12.2789 17.4665 12.2789 15.9138V3.82422H15.2792V16.1633C15.2792 17.7161 14.9551 19.0563 14.3069 20.1839C13.6587 21.3115 12.7512 22.1711 11.5844 22.7626C10.4361 23.3357 9.1212 23.6222 7.63959 23.6222Z" fill="currentColor"/>
<path d="M70.5703 9.56777C69.7409 9.56777 68.9743 9.3629 68.2706 8.95316C67.5752 8.54342 67.0223 7.99152 66.6118 7.29747C66.2013 6.59506 65.996 5.82993 65.996 5.00208C65.996 4.17424 66.2013 3.41329 66.6118 2.71924C67.0223 2.01682 67.5752 1.46075 68.2706 1.05101C68.9743 0.641265 69.7409 0.436394 70.5703 0.436394C71.3997 0.436394 72.1621 0.641265 72.8574 1.05101C73.5612 1.46075 74.1183 2.01682 74.5288 2.71924C74.9393 3.41329 75.1445 4.17424 75.1445 5.00208C75.1445 5.82993 74.9393 6.59506 74.5288 7.29747C74.1183 7.99152 73.5612 8.54342 72.8574 8.95316C72.1621 9.3629 71.3997 9.56777 70.5703 9.56777ZM70.5703 8.65212C71.2321 8.65212 71.8395 8.48906 72.3925 8.16294C72.9538 7.83682 73.3936 7.39363 73.712 6.83337C74.0387 6.27312 74.2021 5.66268 74.2021 5.00208C74.2021 4.33312 74.0387 3.7185 73.712 3.15825C73.3936 2.59799 72.9538 2.1548 72.3925 1.82868C71.8395 1.50256 71.2321 1.3395 70.5703 1.3395C69.9001 1.3395 69.2843 1.50256 68.723 1.82868C68.1701 2.1548 67.7302 2.59799 67.4035 3.15825C67.0851 3.7185 66.926 4.33312 66.926 5.00208C66.926 5.66268 67.0851 6.27312 67.4035 6.83337C67.7302 7.39363 68.1701 7.83682 68.723 8.16294C69.2843 8.48906 69.9001 8.65212 70.5703 8.65212ZM68.7733 7.49816V2.506H70.7965C71.3494 2.506 71.7767 2.64398 72.0783 2.91993C72.3799 3.18751 72.5307 3.54708 72.5307 3.99863C72.5307 4.36657 72.4134 4.68014 72.1788 4.93937C71.9526 5.19023 71.651 5.36165 71.274 5.45363L72.4804 7.49816H71.4625L70.2938 5.49126H69.7032V7.49816H68.7733ZM70.7714 4.72613C71.0562 4.72613 71.2698 4.66342 71.4123 4.53799C71.5547 4.40419 71.6259 4.22441 71.6259 3.99863C71.6259 3.77286 71.5547 3.60144 71.4123 3.48437C71.2698 3.35894 71.0562 3.29622 70.7714 3.29622H69.7032V4.72613H70.7714Z" fill="currentColor"/>
</g>
</svg>
