<svg width="91" height="18" viewBox="0 0 91 18" fill="none" xmlns="http://www.w3.org/2000/svg">
<path d="M77.8929 0.907227C79.1426 0.907263 80.1404 1.12283 80.8773 1.56445C81.623 2.00217 82.1644 2.55681 82.4925 3.22949H82.4916C82.8157 3.87786 82.9798 4.52921 82.9798 5.18262C82.9798 6.21291 82.7625 7.02497 82.3148 7.60547L82.3138 7.60645C81.9309 8.0887 81.4961 8.46156 81.0101 8.72266C81.3902 8.86924 81.7688 9.07683 82.1459 9.3457H82.1468C82.6224 9.65726 83.0144 10.0832 83.3236 10.6201C83.6368 11.1642 83.7903 11.843 83.7904 12.6504C83.7904 13.7817 83.3804 14.743 82.5648 15.5293L82.3968 15.6846C81.4804 16.5026 80.1079 16.9023 78.2982 16.9023H70.7064V0.907227H77.8929ZM72.6957 15.0088H78.4896C79.559 15.0087 80.3693 14.7877 80.9339 14.3604C81.511 13.9199 81.8011 13.3067 81.8011 12.5078C81.8011 11.7892 81.5268 11.1624 80.972 10.623L80.9711 10.6221C80.4253 10.0763 79.5425 9.79199 78.2982 9.79199H72.6957V15.0088ZM72.6957 7.96973H77.8929C78.4379 7.96969 78.9422 7.87617 79.4066 7.69043H79.4076C79.8845 7.50582 80.2666 7.22191 80.557 6.83984C80.8432 6.44739 80.9896 5.94465 80.9896 5.3252C80.9895 4.89617 80.8901 4.49078 80.6908 4.10742L80.6898 4.10449C80.5091 3.72801 80.2064 3.41604 79.7757 3.16992L79.7748 3.16895C79.3663 2.92688 78.805 2.80078 78.0834 2.80078H72.6957V7.96973Z" fill="white" stroke="white" stroke-width="0.2"/>
<path d="M59.7742 0.907227L59.8005 0.967773L66.5046 16.7637L66.5642 16.9023H64.366L64.3406 16.8418L62.4343 12.3213H54.739L52.8328 16.8418L52.8074 16.9023H50.6091L50.6687 16.7637L57.3728 0.967773L57.3992 0.907227H59.7742ZM55.5154 10.4746H61.658L58.5867 3.12695L55.5154 10.4746Z" fill="white" stroke="white" stroke-width="0.2"/>
<path d="M39.4027 0.907227V14.9844H48.016V16.9023H37.4134V0.907227H39.4027Z" fill="white" stroke="white" stroke-width="0.2"/>
<path d="M21.2355 0.907227L21.2658 0.946289L25.8625 7.04395L30.4836 0.946289L30.5129 0.907227H33.0324L32.9094 1.06738L27.0861 8.6416L33.3381 16.7412L33.4631 16.9023H30.9426L30.9123 16.8633L25.8615 10.1924L20.8361 16.8623L20.8058 16.9023H18.2863L18.4103 16.7412L24.6613 8.6416L18.84 1.06738L18.716 0.907227H21.2355Z" fill="white" stroke="white" stroke-width="0.2"/>
<path d="M2.88965 0.907227V10.0498C2.88965 11.2622 3.11793 12.2365 3.56641 12.9795L3.74805 13.251C4.18573 13.8625 4.72305 14.3234 5.36035 14.6357C6.11103 14.9798 6.89252 15.1514 7.70508 15.1514C8.53373 15.1513 9.31483 14.9793 10.0488 14.6357C10.7774 14.2787 11.376 13.7279 11.8438 12.9795C12.308 12.2366 12.5439 11.2623 12.5439 10.0498V0.907227H14.5332V10.002C14.5332 11.3999 14.244 12.6345 13.6621 13.7012C13.0809 14.7666 12.2723 15.5985 11.2383 16.1963L11.2393 16.1973C10.2198 16.7959 9.04056 17.0937 7.70508 17.0938C6.38557 17.0938 5.20658 16.8037 4.17188 16.2217L4.1709 16.2207C3.15268 15.6227 2.35255 14.7899 1.77148 13.7246C1.18955 12.6577 0.900391 11.4156 0.900391 10.002V0.907227H2.88965Z" fill="white" stroke="white" stroke-width="0.2"/>
<path d="M87.5794 6.55845C87.0937 6.55845 86.6448 6.43847 86.2326 6.19852C85.8254 5.95857 85.5016 5.63537 85.2612 5.22892C85.0208 4.81757 84.9006 4.36949 84.9006 3.88469C84.9006 3.39989 85.0208 2.95427 85.2612 2.54782C85.5016 2.13647 85.8254 1.81082 86.2326 1.57087C86.6448 1.33091 87.0937 1.21094 87.5794 1.21094C88.0651 1.21094 88.5116 1.33091 88.9188 1.57087C89.3309 1.81082 89.6572 2.13647 89.8976 2.54782C90.138 2.95427 90.2582 3.39989 90.2582 3.88469C90.2582 4.36949 90.138 4.81757 89.8976 5.22892C89.6572 5.63537 89.3309 5.95857 88.9188 6.19852C88.5116 6.43847 88.0651 6.55845 87.5794 6.55845ZM87.5794 6.02223C87.967 6.02223 88.3227 5.92674 88.6465 5.73575C88.9752 5.54477 89.2328 5.28523 89.4192 4.95713C89.6105 4.62904 89.7062 4.27155 89.7062 3.88469C89.7062 3.49293 89.6105 3.13301 89.4192 2.80491C89.2328 2.47681 88.9752 2.21727 88.6465 2.02629C88.3227 1.8353 87.967 1.73981 87.5794 1.73981C87.1869 1.73981 86.8263 1.8353 86.4976 2.02629C86.1738 2.21727 85.9162 2.47681 85.7249 2.80491C85.5384 3.13301 85.4452 3.49293 85.4452 3.88469C85.4452 4.27155 85.5384 4.62904 85.7249 4.95713C85.9162 5.28523 86.1738 5.54477 86.4976 5.73575C86.8263 5.92674 87.1869 6.02223 87.5794 6.02223ZM86.527 5.34644V2.42294H87.7119C88.0357 2.42294 88.2859 2.50374 88.4625 2.66534C88.6391 2.82205 88.7274 3.03262 88.7274 3.29705C88.7274 3.51252 88.6587 3.69616 88.5214 3.84797C88.3889 3.99488 88.2123 4.09526 87.9915 4.14913L88.698 5.34644H88.1019L87.4175 4.17117H87.0716V5.34644H86.527ZM87.6971 3.72309C87.8639 3.72309 87.9891 3.68636 88.0725 3.61291C88.1559 3.53456 88.1976 3.42927 88.1976 3.29705C88.1976 3.16484 88.1559 3.06445 88.0725 2.99589C87.9891 2.92243 87.8639 2.88571 87.6971 2.88571H87.0716V3.72309H87.6971Z" fill="white"/>
</svg>
