<svg width="103" height="23" viewBox="0 0 103 23" fill="none" xmlns="http://www.w3.org/2000/svg">
<path d="M25.9747 11.0661L19.4837 1.96094H22.6155L27.5533 8.89398L32.5415 1.96094H35.5218L29.0308 10.965L35.9765 20.7142H32.8825L27.4522 13.1371L21.9967 20.7142H19.0164L25.9747 11.0661Z" fill="currentColor"/>
<path d="M2.70485 1.96094V13.3645C2.70485 15.2335 3.07108 16.61 3.81616 17.4687C4.56124 18.3401 5.79883 18.7695 7.54156 18.7695C9.28429 18.7695 10.5471 18.3022 11.3175 17.3677C12.0752 16.4332 12.4667 15.0062 12.4667 13.0866V1.96094H15.0934V12.872C15.0934 15.6755 14.4999 17.7339 13.3254 19.0599C12.1383 20.3985 10.2188 21.0552 7.54156 21.0552C6.21557 21.0552 5.09163 20.9163 4.16976 20.6385C3.24788 20.3606 2.47754 19.8934 1.85874 19.262C1.23995 18.6305 0.78532 17.8097 0.507494 16.7994C0.217038 15.7891 0.078125 14.5515 0.078125 13.0866V1.96094H2.70485Z" fill="currentColor"/>
<path d="M75.9595 1.96094H82.7157C83.4482 1.96094 84.1301 2.01145 84.7489 2.08722C85.3551 2.16299 85.9486 2.31454 86.5295 2.52922C87.1104 2.7439 87.5903 3.02173 87.9944 3.35007C88.3859 3.69104 88.7016 4.13304 88.9416 4.68869C89.1815 5.24434 89.3078 5.87577 89.3078 6.59559C89.3078 7.49222 89.1184 8.31307 88.7521 9.05815C88.3733 9.80323 87.8681 10.3589 87.2367 10.7251C89.131 11.5207 90.0781 13.0109 90.0781 15.183C90.0781 16.1554 89.9013 17.0015 89.5604 17.7213C89.2068 18.4537 88.7269 19.022 88.1081 19.4514C87.4893 19.8808 86.7821 20.2091 85.9991 20.4112C85.2035 20.6132 84.3195 20.7142 83.3598 20.7142H75.9595V1.96094ZM78.5988 9.98003H83.1198C85.4687 9.98003 86.6432 8.96975 86.6432 6.94919C86.6432 6.02731 86.3275 5.33274 85.696 4.87812C85.0646 4.42349 84.2059 4.18355 83.1198 4.18355H78.5988V9.98003ZM78.5988 18.4916H83.385C84.6984 18.4916 85.696 18.2138 86.3653 17.6581C87.022 17.1025 87.363 16.2816 87.363 15.2082C87.363 14.1222 87.022 13.3266 86.3527 12.8214C85.6834 12.3289 84.6479 12.0764 83.2335 12.0764H78.5988V18.4916Z" fill="currentColor"/>
<path d="M61.6559 1.96094H64.7119L71.7713 20.7142H68.9172L67.4523 16.6479H58.8397L57.3874 20.7142H54.6976L61.6559 1.96094ZM59.6353 14.4H66.6188L63.1081 4.62555L59.6353 14.4Z" fill="currentColor"/>
<path d="M42.8186 18.4411H52.7193V20.7142H40.1792V1.96094H42.8186V18.4411Z" fill="currentColor"/>
<path d="M96.6368 11.1001C95.8074 11.1001 95.0408 10.8953 94.3371 10.4855C93.6417 10.0758 93.0888 9.52388 92.6783 8.82983C92.2678 8.12741 92.0625 7.36228 92.0625 6.53444C92.0625 5.70659 92.2678 4.94565 92.6783 4.25159C93.0888 3.54918 93.6417 2.9931 94.3371 2.58336C95.0408 2.17362 95.8074 1.96875 96.6368 1.96875C97.4662 1.96875 98.2285 2.17362 98.9239 2.58336C99.6276 2.9931 100.185 3.54918 100.595 4.25159C101.006 4.94565 101.211 5.70659 101.211 6.53444C101.211 7.36228 101.006 8.12741 100.595 8.82983C100.185 9.52388 99.6276 10.0758 98.9239 10.4855C98.2285 10.8953 97.4662 11.1001 96.6368 11.1001ZM96.6368 10.1845C97.2986 10.1845 97.906 10.0214 98.4589 9.6953C99.0202 9.36918 99.4601 8.92599 99.7784 8.36573C100.105 7.80547 100.269 7.19504 100.269 6.53444C100.269 5.86547 100.105 5.25086 99.7784 4.6906C99.4601 4.13034 99.0202 3.68716 98.4589 3.36103C97.906 3.03491 97.2986 2.87185 96.6368 2.87185C95.9665 2.87185 95.3508 3.03491 94.7895 3.36103C94.2365 3.68716 93.7967 4.13034 93.47 4.6906C93.1516 5.25086 92.9924 5.86547 92.9924 6.53444C92.9924 7.19504 93.1516 7.80547 93.47 8.36573C93.7967 8.92599 94.2365 9.36918 94.7895 9.6953C95.3508 10.0214 95.9665 10.1845 96.6368 10.1845ZM94.8397 9.03051V4.03836H96.863C97.4159 4.03836 97.8432 4.17633 98.1447 4.45228C98.4463 4.71987 98.5971 5.07944 98.5971 5.53099C98.5971 5.89892 98.4799 6.2125 98.2453 6.47172C98.0191 6.72258 97.7175 6.89401 97.3405 6.98599L98.5469 9.03051H97.529L96.3603 7.02362H95.7697V9.03051H94.8397ZM96.8378 6.25849C97.1227 6.25849 97.3363 6.19577 97.4787 6.07034C97.6211 5.93655 97.6924 5.75677 97.6924 5.53099C97.6924 5.30521 97.6211 5.13379 97.4787 5.01672C97.3363 4.89129 97.1227 4.82858 96.8378 4.82858H95.7697V6.25849H96.8378Z" fill="currentColor"/>
</svg>
