<svg width="90" height="16" viewBox="0 0 90 16" fill="none" xmlns="http://www.w3.org/2000/svg">
<path d="M69.806 15.8025V0.00683594H76.8926C78.1334 0.00683594 79.1116 0.221581 79.8275 0.651072C80.5592 1.08056 81.0841 1.6214 81.4023 2.27359C81.7204 2.90987 81.8795 3.54616 81.8795 4.18244C81.8795 5.20049 81.6647 5.98789 81.2352 6.54464C80.8057 7.08548 80.3126 7.48315 79.7559 7.73767C80.2013 7.88083 80.6467 8.11148 81.0921 8.42962C81.5534 8.73186 81.9351 9.14544 82.2374 9.67037C82.5396 10.1953 82.6907 10.8555 82.6907 11.6508C82.6907 12.8279 82.2374 13.8142 81.3307 14.6095C80.4399 15.4049 79.0957 15.8025 77.2982 15.8025H69.806ZM71.5956 7.06957H76.8926C77.4494 7.06957 77.9663 6.97413 78.4436 6.78324C78.9367 6.59236 79.3343 6.29808 79.6366 5.9004C79.9388 5.48682 80.0899 4.96189 80.0899 4.3256C80.0899 3.88021 79.9865 3.45867 79.7797 3.06099C79.5889 2.66332 79.2707 2.33722 78.8253 2.08271C78.3958 1.82819 77.8152 1.70094 77.0835 1.70094H71.5956V7.06957ZM71.5956 14.1084H77.4891C78.5708 14.1084 79.4059 13.8857 79.9945 13.4403C80.599 12.979 80.9012 12.3348 80.9012 11.5076C80.9012 10.76 80.6149 10.1078 80.0422 9.55107C79.4696 8.97842 78.5549 8.69209 77.2982 8.69209H71.5956V14.1084Z" fill="white"/>
<path d="M49.7605 15.8025L56.4653 0.00683594H58.7082L65.413 15.8025H63.4326L61.4999 11.2213H53.6736L51.7409 15.8025H49.7605ZM54.3656 9.57493H60.8079L57.5868 1.86796L54.3656 9.57493Z" fill="white"/>
<path d="M36.513 15.8025V0.00683594H38.3026V14.0846H46.9162V15.8025H36.513Z" fill="white"/>
<path d="M17.4894 15.8025L23.7886 7.64223L17.9189 0.00683594H20.1857L24.8624 6.21059L29.5629 0.00683594H31.8297L25.9599 7.64223L32.2591 15.8025H29.9924L24.8624 9.02614L19.7562 15.8025H17.4894Z" fill="white"/>
<path d="M6.70482 15.9934C5.40045 15.9934 4.23923 15.7071 3.22118 15.1344C2.21903 14.5459 1.43164 13.7267 0.858981 12.6768C0.286327 11.6269 0 10.4021 0 9.00228V0.00683594H1.78954V9.05C1.78954 10.2748 2.0202 11.269 2.4815 12.0326C2.95871 12.7961 3.57114 13.3608 4.31877 13.7267C5.08231 14.0766 5.87766 14.2516 6.70482 14.2516C7.5479 14.2516 8.34325 14.0766 9.09088 13.7267C9.83852 13.3608 10.4509 12.7961 10.9281 12.0326C11.4054 11.269 11.644 10.2748 11.644 9.05V0.00683594H13.4335V9.00228C13.4335 10.3862 13.1472 11.6031 12.5745 12.6529C12.0019 13.7028 11.2065 14.522 10.1885 15.1106C9.18633 15.6991 8.02511 15.9934 6.70482 15.9934Z" fill="white"/>
<path d="M86.5794 5.55845C86.0937 5.55845 85.6448 5.43847 85.2326 5.19852C84.8254 4.95857 84.5016 4.63537 84.2612 4.22892C84.0208 3.81757 83.9006 3.36949 83.9006 2.88469C83.9006 2.39989 84.0208 1.95427 84.2612 1.54782C84.5016 1.13647 84.8254 0.810819 85.2326 0.570867C85.6448 0.330914 86.0937 0.210938 86.5794 0.210938C87.0651 0.210938 87.5116 0.330914 87.9188 0.570867C88.3309 0.810819 88.6572 1.13647 88.8976 1.54782C89.138 1.95427 89.2582 2.39989 89.2582 2.88469C89.2582 3.36949 89.138 3.81757 88.8976 4.22892C88.6572 4.63537 88.3309 4.95857 87.9188 5.19852C87.5116 5.43847 87.0651 5.55845 86.5794 5.55845ZM86.5794 5.02223C86.967 5.02223 87.3227 4.92674 87.6465 4.73575C87.9752 4.54477 88.2328 4.28523 88.4192 3.95713C88.6105 3.62904 88.7062 3.27155 88.7062 2.88469C88.7062 2.49293 88.6105 2.13301 88.4192 1.80491C88.2328 1.47681 87.9752 1.21727 87.6465 1.02629C87.3227 0.835304 86.967 0.739812 86.5794 0.739812C86.1869 0.739812 85.8263 0.835304 85.4976 1.02629C85.1738 1.21727 84.9162 1.47681 84.7249 1.80491C84.5384 2.13301 84.4452 2.49293 84.4452 2.88469C84.4452 3.27155 84.5384 3.62904 84.7249 3.95713C84.9162 4.28523 85.1738 4.54477 85.4976 4.73575C85.8263 4.92674 86.1869 5.02223 86.5794 5.02223ZM85.527 4.34644V1.42294H86.7119C87.0357 1.42294 87.2859 1.50374 87.4625 1.66534C87.6391 1.82205 87.7274 2.03262 87.7274 2.29705C87.7274 2.51252 87.6587 2.69616 87.5214 2.84797C87.3889 2.99488 87.2123 3.09526 86.9915 3.14913L87.698 4.34644H87.1019L86.4175 3.17117H86.0716V4.34644H85.527ZM86.6971 2.72309C86.8639 2.72309 86.9891 2.68636 87.0725 2.61291C87.1559 2.53456 87.1976 2.42927 87.1976 2.29705C87.1976 2.16484 87.1559 2.06445 87.0725 1.99589C86.9891 1.92243 86.8639 1.88571 86.6971 1.88571H86.0716V2.72309H86.6971Z" fill="white"/>
</svg>
