<svg width="177" height="32" viewBox="0 0 177 32" fill="none" xmlns="http://www.w3.org/2000/svg">
<path d="M77.8444 5.38708H67.1748V26.6723H72.5771V18.8659C72.5771 18.8659 80.3024 19.2981 82.4769 16.4214C84.0976 14.5711 84.1921 11.6133 83.5303 9.31728C82.6389 6.72416 80.6941 5.38708 77.8579 5.40058L77.8444 5.38708ZM78.4656 14.9762C77.1961 16.4619 74.4139 16.4484 72.5501 16.3268L72.5636 7.79112C72.5636 7.79112 77.3717 7.11583 78.6412 9.29027C79.3705 10.6003 79.5461 13.5311 78.4656 14.9627V14.9762ZM32.4918 30.1298C30.0498 29.0172 27.8895 27.3693 26.171 25.3082C24.0911 22.9447 19.148 16.2998 19.148 16.2998C16.5819 13.0179 13.1784 7.56152 9.80195 4.81983V26.6183H12.8138V15.6245C14.9342 18.3257 17.4057 21.7697 19.2831 23.9441C20.0934 24.93 22.2138 27.2125 22.8216 27.7257C26.6978 31.4804 33.8153 33.1821 39.7579 31.1022V30.8861C37.732 31.3318 35.0849 31.1562 32.4918 30.1298ZM14.1238 6.67013C16.1902 9.03366 21.1469 15.6785 21.1469 15.6785C23.713 18.974 27.1164 24.4168 30.4929 27.1585V5.36007H27.4811V16.3673C25.3607 13.6662 22.8756 10.2222 20.9983 8.04773C19.8848 6.73124 18.7084 5.46923 17.4733 4.26609C13.5836 0.497964 6.46601 -1.17676 0.523438 0.90314V1.10573C2.96646 0.64805 5.4897 0.906002 7.78958 1.84855C10.2339 2.96341 12.3946 4.61628 14.1103 6.68364L14.1238 6.67013ZM48.1315 7.76411V5.38708H33.5452V26.6723H48.1585L48.145 24.2818C45.3358 24.3628 41.8243 24.795 38.9476 24.5114V16.8805C41.2841 16.7455 44.1068 16.7995 46.2812 17.0021V14.4765C44.0798 14.7466 41.2976 14.7331 38.9476 14.5846V7.56152C41.8243 7.25088 45.3358 7.72359 48.1315 7.76411ZM63.2311 16.3268C60.773 14.2064 57.7612 13.5311 55.6678 12.086C54.1821 10.9515 54.3982 9.46584 55.1546 8.669C56.9238 6.69715 60.6379 7.62905 61.5023 7.83164C62.5963 8.15578 63.177 8.50693 64.2305 8.96613V6.29197C59.8006 5.00891 52.71 3.77988 49.9143 8.2233C48.9014 10.0466 48.6312 13.3555 51.589 15.2869C54.5603 17.6504 59.4629 18.7849 60.0707 20.6892C60.4489 21.7291 59.9897 22.7151 59.2873 23.4309C56.6402 25.8754 52.3994 24.3493 49.6577 23.1338V25.7674C52.629 27.091 56.3701 27.4286 59.706 26.7128C61.9885 26.2131 64.5411 24.2007 64.9463 21.7291C65.365 19.2981 64.8518 17.6909 63.2311 16.3268ZM103.546 25.5513L102.884 24.3088C101.51 21.7952 100.249 19.2221 99.1026 16.5969C99.2376 16.5024 99.1971 16.5429 99.5618 16.3673C101.547 15.4219 102.844 13.7337 102.817 10.7894C102.722 7.16985 99.4132 5.38708 96.523 5.38708H85.7048V26.6723H91.1341V17.88H94.2405C95.4984 20.2826 96.652 22.7385 97.698 25.2407L98.3327 26.6723H104.14L103.614 25.6729L103.546 25.5513ZM96.8336 14.1254C95.564 15.665 92.9169 15.5435 91.0936 15.5435V7.7506C91.0936 7.7506 95.7396 7.0483 97.0227 9.27676C97.6844 10.5328 97.7655 12.8693 96.8336 14.1389V14.1254ZM165.889 5.07644C164.484 5.06294 155.327 5.2115 155.287 15.9486C155.287 26.6183 164.336 27.0234 165.889 27.0234C167.456 27.0234 176.505 26.6183 176.478 15.9486C176.464 5.2115 167.321 5.06294 165.889 5.07644ZM165.929 24.0522H165.848C165.254 24.0522 160.892 24.2412 160.919 15.5435C160.946 7.46698 165.2 7.69658 165.902 7.69658C166.605 7.69658 170.846 7.46698 170.886 15.53C170.913 24.2412 166.537 24.0522 165.929 24.0522ZM135.703 16.3268C133.232 14.2064 130.234 13.5311 128.127 12.086C126.641 10.9515 126.871 9.46584 127.627 8.669C129.396 6.69715 133.11 7.62905 133.975 7.83164C135.055 8.15578 135.649 8.50693 136.689 8.96613V6.29197C132.273 5.00891 125.182 3.77988 122.387 8.2233C121.36 10.0466 121.104 13.3555 124.048 15.2869C127.033 17.6504 131.922 18.7849 132.53 20.6892C132.908 21.7291 132.448 22.7151 131.746 23.4309C129.099 25.8754 124.858 24.3493 122.117 23.1338V25.7674C125.088 27.091 128.829 27.4286 132.165 26.7128C134.461 26.2131 137 24.2007 137.419 21.7291C137.824 19.2981 137.324 17.6909 135.703 16.3268ZM152.275 16.3268C149.817 14.2064 146.819 13.5311 144.712 12.086C143.226 10.9515 143.442 9.46584 144.199 8.669C145.954 6.69715 149.682 7.62905 150.546 7.83164C151.64 8.15578 152.235 8.50693 153.274 8.96613V6.29197C148.845 5.00891 141.768 3.77988 138.958 8.2233C137.932 10.0466 137.662 13.3555 140.633 15.2869C143.618 17.6504 148.507 18.7849 149.101 20.6892C149.493 21.7291 149.047 22.7151 148.318 23.4309C145.684 25.8754 141.43 24.3493 138.702 23.1338L138.688 25.7674C141.659 27.091 145.414 27.4286 148.737 26.7128C151.033 26.2131 153.585 24.2007 154.004 21.7291C154.409 19.2981 153.896 17.6909 152.275 16.3268ZM105.937 26.6723H120.536V24.2682C117.727 24.3493 114.216 24.7815 111.339 24.4978V16.867C113.675 16.732 116.512 16.786 118.686 16.9886V14.463C116.458 14.7331 113.689 14.7196 111.325 14.5711V7.54801C114.216 7.23738 117.727 7.71008 120.536 7.7506V5.38708H105.937V26.6723Z" fill="currentColor"/>
</svg>
