<svg width="110" height="20" viewBox="0 0 110 20" fill="none" xmlns="http://www.w3.org/2000/svg">
<path d="M48.3382 3.36692H41.6679V16.6702H45.0453V11.7912C45.0453 11.7912 49.8749 12.0613 51.2342 10.2633C52.2474 9.10691 52.3066 7.25829 51.8928 5.8233C51.3356 4.2026 50.1197 3.36692 48.3466 3.37537L48.3382 3.36692ZM48.7266 9.36014C47.9329 10.2887 46.1936 10.2802 45.0284 10.2043L45.0368 4.86945C45.0368 4.86945 48.0427 4.44739 48.8363 5.80642C49.2923 6.62521 49.402 8.45694 48.7266 9.3517V9.36014ZM19.9854 18.8311C18.4588 18.1358 17.1082 17.1058 16.0339 15.8176C14.7336 14.3404 11.6434 10.1874 11.6434 10.1874C10.0391 8.13617 7.91142 4.72595 5.80058 3.0124V16.6364H7.68345V9.76532C9.00905 11.4535 10.5542 13.606 11.7278 14.9651C12.2344 15.5813 13.56 17.0078 13.94 17.3286C16.3632 19.6752 20.8129 20.7388 24.5279 19.4389V19.3038C23.2614 19.5824 21.6065 19.4726 19.9854 18.8311ZM8.50245 4.16883C9.79429 5.64603 12.893 9.79908 12.893 9.79908C14.4972 11.8587 16.625 15.2605 18.7358 16.9741V3.35004H16.8529V10.2296C15.5273 8.54135 13.9737 6.38886 12.8001 5.02983C12.104 4.20702 11.3686 3.41827 10.5964 2.66631C8.16472 0.311228 3.71507 -0.735475 0 0.564462V0.691079C1.52729 0.405031 3.10472 0.566251 4.54252 1.15534C6.07061 1.85213 7.42143 2.88517 8.49401 4.17727L8.50245 4.16883ZM29.7628 4.85257V3.36692H20.644V16.6702H29.7797L29.7713 15.1761C28.015 15.2267 25.8198 15.4969 24.0213 15.3196V10.5503C25.482 10.4659 27.2467 10.4997 28.6061 10.6263V9.04782C27.2298 9.21664 25.4905 9.2082 24.0213 9.11535V4.72595C25.8198 4.5318 28.015 4.82724 29.7628 4.85257ZM39.2025 10.2043C37.6658 8.879 35.7829 8.45694 34.4742 7.55373C33.5454 6.84468 33.6805 5.91615 34.1534 5.41812C35.2594 4.18572 37.5814 4.76815 38.1217 4.89477C38.8056 5.09736 39.1687 5.31683 39.8273 5.60383V3.93248C37.0579 3.13057 32.6251 2.36243 30.8773 5.13957C30.2441 6.27912 30.0752 8.3472 31.9243 9.55429C33.7818 11.0315 36.8468 11.7405 37.2267 12.9307C37.4631 13.5807 37.1761 14.1969 36.737 14.6443C35.0821 16.1721 32.4309 15.2183 30.7169 14.4586V16.1046C32.5744 16.9319 34.9133 17.1429 36.9988 16.6955C38.4257 16.3832 40.0215 15.1254 40.2748 13.5807C40.5365 12.0613 40.2157 11.0568 39.2025 10.2043ZM64.4059 15.9696L63.9922 15.193C63.1333 13.622 62.3445 12.0138 61.628 10.3731C61.7124 10.314 61.6871 10.3393 61.9151 10.2296C63.1563 9.6387 63.9668 8.58355 63.9499 6.74338C63.8908 4.48116 61.8222 3.36692 60.0153 3.36692H53.2522V16.6702H56.6464V11.175H58.5884C59.3748 12.6766 60.096 14.2115 60.7499 15.7754L61.1467 16.6702H64.7774L64.4481 16.0455L64.4059 15.9696ZM60.2095 8.82835C59.4159 9.79064 57.761 9.71467 56.6211 9.71467V4.84413C56.6211 4.84413 59.5256 4.40519 60.3277 5.79798C60.7415 6.583 60.7921 8.04332 60.2095 8.83679V8.82835ZM103.38 3.17278C102.502 3.16434 96.7777 3.25719 96.7523 9.9679C96.7523 16.6364 102.409 16.8896 103.38 16.8896C104.36 16.8896 110.017 16.6364 110 9.9679C109.992 3.25719 104.275 3.16434 103.38 3.17278ZM103.406 15.0326H103.355C102.984 15.0326 100.256 15.1508 100.273 9.71467C100.29 4.66686 102.95 4.81036 103.389 4.81036C103.828 4.81036 106.479 4.66686 106.504 9.70623C106.521 15.1508 103.786 15.0326 103.406 15.0326ZM84.5095 10.2043C82.9644 8.879 81.0899 8.45694 79.7728 7.55373C78.844 6.84468 78.9875 5.91615 79.4604 5.41812C80.5664 4.18572 82.8884 4.76815 83.4287 4.89477C84.1042 5.09736 84.4757 5.31683 85.1259 5.60383V3.93248C82.3649 3.13057 77.9321 2.36243 76.1844 5.13957C75.5427 6.27912 75.3822 8.3472 77.2229 9.55429C79.0889 11.0315 82.1454 11.7405 82.5253 12.9307C82.7617 13.5807 82.4746 14.1969 82.0356 14.6443C80.3807 16.1721 77.7295 15.2183 76.0155 14.4586V16.1046C77.873 16.9319 80.2118 17.1429 82.2973 16.6955C83.7327 16.3832 85.3201 15.1254 85.5818 13.5807C85.8351 12.0613 85.5227 11.0568 84.5095 10.2043ZM94.8695 10.2043C93.3328 8.879 91.4584 8.45694 90.1412 7.55373C89.2124 6.84468 89.3475 5.91615 89.8204 5.41812C90.918 4.18572 93.2484 4.76815 93.7887 4.89477C94.4726 5.09736 94.8441 5.31683 95.4943 5.60383V3.93248C92.7249 3.13057 88.3006 2.36243 86.5443 5.13957C85.9026 6.27912 85.7338 8.3472 87.5913 9.55429C89.4573 11.0315 92.5138 11.7405 92.8853 12.9307C93.1302 13.5807 92.8515 14.1969 92.3956 14.6443C90.7491 16.1721 88.0895 15.2183 86.3839 14.4586L86.3755 16.1046C88.233 16.9319 90.5803 17.1429 92.6573 16.6955C94.0927 16.3832 95.6885 15.1254 95.9502 13.5807C96.2035 12.0613 95.8827 11.0568 94.8695 10.2043ZM65.9003 16.6702H75.0276V15.1677C73.2714 15.2183 71.0761 15.4884 69.2777 15.3112V10.5419C70.7384 10.4575 72.5115 10.4913 73.8709 10.6179V9.03938C72.4777 9.2082 70.7468 9.19976 69.2692 9.10691V4.71751C71.0761 4.52336 73.2714 4.8188 75.0276 4.84413V3.36692H65.9003V16.6702Z" fill="currentColor"/>
</svg>
