<svg width="864" height="397" viewBox="0 0 864 397" fill="none" xmlns="http://www.w3.org/2000/svg">
<path d="M-1.37985e-05 125.238H14.88C14.88 135.654 19.4267 144.665 28.52 152.27C37.6133 159.875 49.6 163.678 64.48 163.678C79.856 163.678 91.512 160.619 99.448 154.502C107.549 148.219 111.6 140.118 111.6 130.198C111.6 113.003 100.109 102.422 77.128 98.4541L49.6 93.7421C34.0587 91.0968 22.4853 86.1368 14.88 78.8621C7.43999 71.4221 3.71999 61.2541 3.71999 48.3581C3.71999 34.3048 8.92799 22.7315 19.344 13.6381C29.76 4.54478 43.9787 -0.00188446 62 -0.00188446C81.344 -0.00188446 96.72 5.04078 108.128 15.1261C119.536 25.2115 125.24 37.9421 125.24 53.3181H110.36C110.36 42.4061 105.979 33.3128 97.216 26.0381C88.6187 18.5981 76.88 14.8781 62 14.8781C48.112 14.8781 37.3653 18.0194 29.76 24.3021C22.32 30.5848 18.6 38.6035 18.6 48.3581C18.6 57.1208 21.328 63.9821 26.784 68.9421C32.24 73.9021 40.672 77.3741 52.08 79.3581L77.128 83.8221C94.488 86.9635 107.053 92.2541 114.824 99.6941C122.595 106.969 126.48 117.137 126.48 130.198C126.48 144.417 121.024 156.073 110.112 165.166C99.3653 174.094 84.1547 178.558 64.48 178.558C45.3013 178.558 29.76 173.35 17.856 162.934C5.95199 152.518 -1.37985e-05 139.953 -1.37985e-05 125.238ZM155 106.638H240.56C239.899 94.2381 235.6 84.1528 227.664 76.3821C219.893 68.4461 210.139 64.4781 198.4 64.4781C186.496 64.4781 176.576 68.2808 168.64 75.8861C160.869 83.3261 156.323 93.5768 155 106.638ZM235.6 141.358H251.72C248.083 151.609 241.883 160.371 233.12 167.646C224.523 174.921 212.949 178.558 198.4 178.558C181.205 178.558 167.152 172.689 156.24 160.95C145.493 149.211 140.12 133.587 140.12 114.078C140.12 94.5688 145.493 78.9448 156.24 67.2061C167.152 55.4674 181.205 49.5981 198.4 49.5981C214.768 49.5981 228.325 55.3848 239.072 66.9581C249.984 78.3661 255.44 93.2461 255.44 111.598C255.44 114.078 255.275 116.475 254.944 118.79C254.779 119.451 254.696 120.361 254.696 121.518H155C156.323 134.249 161.035 144.499 169.136 152.27C177.237 159.875 186.992 163.678 198.4 163.678C207.493 163.678 215.181 161.446 221.464 156.982C227.747 152.518 232.459 147.31 235.6 141.358ZM275.202 176.078V2.47811H290.083V176.078H275.202ZM324.919 106.638H410.479C409.817 94.2381 405.519 84.1528 397.583 76.3821C389.812 68.4461 380.057 64.4781 368.319 64.4781C356.415 64.4781 346.495 68.2808 338.559 75.8861C330.788 83.3261 326.241 93.5768 324.919 106.638ZM405.519 141.358H421.639C418.001 151.609 411.801 160.371 403.039 167.646C394.441 174.921 382.868 178.558 368.319 178.558C351.124 178.558 337.071 172.689 326.159 160.95C315.412 149.211 310.039 133.587 310.039 114.078C310.039 94.5688 315.412 78.9448 326.159 67.2061C337.071 55.4674 351.124 49.5981 368.319 49.5981C384.687 49.5981 398.244 55.3848 408.991 66.9581C419.903 78.3661 425.359 93.2461 425.359 111.598C425.359 114.078 425.193 116.475 424.863 118.79C424.697 119.451 424.615 120.361 424.615 121.518H324.919C326.241 134.249 330.953 144.499 339.055 152.27C347.156 159.875 356.911 163.678 368.319 163.678C377.412 163.678 385.1 161.446 391.383 156.982C397.665 152.518 402.377 147.31 405.519 141.358ZM531.921 135.158H548.041C544.9 148.881 538.452 159.545 528.697 167.15C519.108 174.755 507.369 178.558 493.481 178.558C476.287 178.558 462.233 172.689 451.321 160.95C440.575 149.211 435.201 133.587 435.201 114.078C435.201 94.5688 440.575 78.9448 451.321 67.2061C462.233 55.4674 476.287 49.5981 493.481 49.5981C507.204 49.5981 518.943 53.4008 528.697 61.0061C538.452 68.4461 544.9 78.6968 548.041 91.7581H531.921C530.103 85.1448 525.969 78.9448 519.521 73.1581C513.239 67.3715 504.559 64.4781 493.481 64.4781C480.751 64.4781 470.335 68.9421 462.233 77.8701C454.132 86.7981 450.081 98.8675 450.081 114.078C450.081 129.289 454.132 141.358 462.233 150.286C470.335 159.214 480.751 163.678 493.481 163.678C504.393 163.678 513.073 160.619 519.521 154.502C525.969 148.385 530.103 141.937 531.921 135.158ZM572.851 154.998V66.9581H553.011V52.0781H572.851V17.3581H587.731V52.0781H618.731V66.9581H587.731V152.518C587.731 158.305 590.624 161.198 596.411 161.198H618.731V176.078H595.171C588.227 176.078 582.771 174.177 578.803 170.374C574.835 166.571 572.851 161.446 572.851 154.998ZM638.648 106.638H724.208C723.547 94.2381 719.248 84.1528 711.312 76.3821C703.542 68.4461 693.787 64.4781 682.048 64.4781C670.144 64.4781 660.224 68.2808 652.288 75.8861C644.518 83.3261 639.971 93.5768 638.648 106.638ZM719.248 141.358H735.368C731.731 151.609 725.531 160.371 716.768 167.646C708.171 174.921 696.598 178.558 682.048 178.558C664.854 178.558 650.8 172.689 639.888 160.95C629.142 149.211 623.768 133.587 623.768 114.078C623.768 94.5688 629.142 78.9448 639.888 67.2061C650.8 55.4674 664.854 49.5981 682.048 49.5981C698.416 49.5981 711.974 55.3848 722.72 66.9581C733.632 78.3661 739.088 93.2461 739.088 111.598C739.088 114.078 738.923 116.475 738.592 118.79C738.427 119.451 738.344 120.361 738.344 121.518H638.648C639.971 134.249 644.683 144.499 652.784 152.27C660.886 159.875 670.64 163.678 682.048 163.678C691.142 163.678 698.83 161.446 705.112 156.982C711.395 152.518 716.107 147.31 719.248 141.358ZM775.715 150.286C783.651 159.214 793.736 163.678 805.971 163.678C818.206 163.678 828.291 159.214 836.227 150.286C844.163 141.358 848.131 129.289 848.131 114.078C848.131 98.8675 844.163 86.7981 836.227 77.8701C828.291 68.9421 818.206 64.4781 805.971 64.4781C793.736 64.4781 783.651 68.9421 775.715 77.8701C767.779 86.7981 763.811 98.8675 763.811 114.078C763.811 129.289 767.779 141.358 775.715 150.286ZM850.611 176.078L848.131 156.238H846.891C836.144 171.118 822.091 178.558 804.731 178.558C788.859 178.558 775.55 172.689 764.803 160.95C754.222 149.046 748.931 133.422 748.931 114.078C748.931 94.7341 754.222 79.1928 764.803 67.4541C775.55 55.5501 788.859 49.5981 804.731 49.5981C822.091 49.5981 836.144 57.0381 846.891 71.9181H848.131V2.47811H863.011V176.078H850.611ZM89.3042 394.078V220.478H161.224C176.104 220.478 188.256 225.355 197.68 235.11C207.27 244.699 212.064 257.182 212.064 272.558C212.064 288.43 207.187 301.326 197.432 311.246C187.843 321.001 175.774 325.878 161.224 325.878H143.864L215.784 394.078H195.944L124.024 325.878H104.184V394.078H89.3042ZM104.184 310.998H161.224C171.971 310.998 180.651 307.526 187.264 300.582C193.878 293.638 197.184 284.297 197.184 272.558C197.184 261.315 193.795 252.305 187.016 245.526C180.403 238.747 171.806 235.358 161.224 235.358H104.184V310.998ZM235.624 324.638H321.184C320.523 312.238 316.224 302.153 308.288 294.382C300.518 286.446 290.763 282.478 279.024 282.478C267.12 282.478 257.2 286.281 249.264 293.886C241.494 301.326 236.947 311.577 235.624 324.638ZM316.224 359.358H332.344C328.707 369.609 322.507 378.371 313.744 385.646C305.147 392.921 293.574 396.558 279.024 396.558C261.83 396.558 247.776 390.689 236.864 378.95C226.118 367.211 220.744 351.587 220.744 332.078C220.744 312.569 226.118 296.945 236.864 285.206C247.776 273.467 261.83 267.598 279.024 267.598C295.392 267.598 308.95 273.385 319.696 284.958C330.608 296.366 336.064 311.246 336.064 329.598C336.064 332.078 335.899 334.475 335.568 336.79C335.403 337.451 335.32 338.361 335.32 339.518H235.624C236.947 352.249 241.659 362.499 249.76 370.27C257.862 377.875 267.616 381.678 279.024 381.678C288.118 381.678 295.806 379.446 302.088 374.982C308.371 370.518 313.083 365.31 316.224 359.358ZM344.667 358.118H358.803C358.803 364.731 361.944 370.353 368.227 374.982C374.509 379.446 382.776 381.678 393.027 381.678C403.608 381.678 411.627 379.694 417.083 375.726C422.539 371.758 425.267 366.715 425.267 360.598C425.267 350.513 418.24 344.065 404.187 341.254L379.387 336.294C368.64 334.145 360.539 330.425 355.083 325.134C349.792 319.678 347.147 312.073 347.147 302.318C347.147 292.563 351.115 284.379 359.051 277.766C367.152 270.987 378.064 267.598 391.787 267.598C406.171 267.598 417.579 271.318 426.011 278.758C434.608 286.033 438.907 295.126 438.907 306.038H424.027C424.027 299.425 421.133 293.886 415.347 289.422C409.725 284.793 401.872 282.478 391.787 282.478C382.363 282.478 375.005 284.462 369.715 288.43C364.589 292.398 362.027 297.027 362.027 302.318C362.027 312.899 368.64 319.513 381.867 322.158L406.667 327.118C418.571 329.433 427.085 333.235 432.211 338.526C437.501 343.817 440.147 351.174 440.147 360.598C440.147 371.014 436.013 379.611 427.747 386.39C419.48 393.169 407.907 396.558 393.027 396.558C378.643 396.558 366.987 392.755 358.059 385.15C349.131 377.545 344.667 368.534 344.667 358.118ZM458.679 344.478V270.078H473.559V344.478C473.559 355.721 476.866 364.731 483.479 371.51C490.258 378.289 498.938 381.678 509.519 381.678C520.762 381.678 529.938 378.123 537.047 371.014C544.322 363.905 547.959 355.059 547.959 344.478V270.078H562.839V394.078H550.439L547.959 377.958H546.719C544.404 381.595 541.428 384.737 537.791 387.382C529.69 393.499 519.852 396.558 508.279 396.558C493.895 396.558 481.991 391.763 472.567 382.174C463.308 372.419 458.679 359.854 458.679 344.478ZM591.378 394.078V220.478H606.258V394.078H591.378ZM642.334 372.998V284.958H622.494V270.078H642.334V235.358H657.214V270.078H688.214V284.958H657.214V370.518C657.214 376.305 660.108 379.198 665.894 379.198H688.214V394.078H664.654C657.71 394.078 652.254 392.177 648.286 388.374C644.318 384.571 642.334 379.446 642.334 372.998ZM696.856 358.118H710.992C710.992 364.731 714.133 370.353 720.416 374.982C726.698 379.446 734.965 381.678 745.216 381.678C755.797 381.678 763.816 379.694 769.272 375.726C774.728 371.758 777.456 366.715 777.456 360.598C777.456 350.513 770.429 344.065 756.376 341.254L731.576 336.294C720.829 334.145 712.728 330.425 707.272 325.134C701.981 319.678 699.336 312.073 699.336 302.318C699.336 292.563 703.304 284.379 711.24 277.766C719.341 270.987 730.253 267.598 743.976 267.598C758.36 267.598 769.768 271.318 778.2 278.758C786.797 286.033 791.096 295.126 791.096 306.038H776.216C776.216 299.425 773.322 293.886 767.536 289.422C761.914 284.793 754.061 282.478 743.976 282.478C734.552 282.478 727.194 284.462 721.904 288.43C716.778 292.398 714.216 297.027 714.216 302.318C714.216 312.899 720.829 319.513 734.056 322.158L758.856 327.118C770.76 329.433 779.274 333.235 784.4 338.526C789.69 343.817 792.336 351.174 792.336 360.598C792.336 371.014 788.202 379.611 779.936 386.39C771.669 393.169 760.096 396.558 745.216 396.558C730.832 396.558 719.176 392.755 710.248 385.15C701.32 377.545 696.856 368.534 696.856 358.118Z" fill="white"/>
</svg>
